<svg xmlns="http://www.w3.org/2000/svg" xmlns:xlink="http://www.w3.org/1999/xlink" viewBox="0 0 1920.32 1078.13"><defs><style>.cls-1{fill:#666;}.cls-2{fill:#4d4d4d;}.cls-3{fill:#565555;}.cls-4{fill:#636363;}.cls-5{fill:#565656;}.cls-6{fill:url(#radial-gradient);}.cls-7{fill:url(#radial-gradient-2);}.cls-8{fill:#1a1a1a;}.cls-9{fill:#5e5e5e;}.cls-10{fill:#ba9704;}.cls-11{fill:#ffd600;}.cls-12{fill:#df5032;}.cls-13{fill:#f47d43;}.cls-14{fill:#399377;}.cls-15{fill:#0a7fc6;}.cls-16{fill:#174579;}.cls-17{fill:#af70af;}.cls-18{fill:#333;}.cls-19{fill:gray;}</style><radialGradient id="radial-gradient" cx="960" cy="539.29" r="465" gradientUnits="userSpaceOnUse"><stop offset="0" stop-color="gray"/><stop offset="0.44" stop-color="#7e7e7e"/><stop offset="0.65" stop-color="#767676"/><stop offset="0.81" stop-color="#696969"/><stop offset="0.94" stop-color="#575757"/><stop offset="1" stop-color="#4d4d4d"/></radialGradient><radialGradient id="radial-gradient-2" cx="960" cy="540.35" r="434.71" gradientUnits="userSpaceOnUse"><stop offset="0" stop-color="#666"/><stop offset="0.19" stop-color="#666"/><stop offset="0.22" stop-color="#666"/><stop offset="0.36" stop-color="#656565"/><stop offset="0.44" stop-color="#5f5f5f"/><stop offset="0.53" stop-color="#535353"/><stop offset="1" stop-color="#333"/></radialGradient></defs><title>Asset 9</title><g id="Layer_2" data-name="Layer 2"><g id="Main_Radar_Face" data-name="Main Radar Face"><rect id="Back_Face_Panel" data-name="Back Face Panel" class="cls-1" x="40.32" y="39.61" width="1840.73" height="999.68"/><rect id="Left_Dip" data-name="Left Dip" class="cls-2" x="459.92" y="39.61" width="2.37" height="999.68"/><rect id="Right_Dip" data-name="Right Dip" class="cls-2" x="1459.49" y="39.61" width="2.37" height="999.68"/></g><g id="Light_Panel" data-name="Light Panel"><rect class="cls-2" x="96.34" y="119.52" width="297.62" height="596.62" rx="90" ry="90"/><rect class="cls-3" x="100.46" y="119.52" width="289.06" height="590.06" rx="90" ry="90"/><rect class="cls-2" x="126.17" y="320.92" width="239.05" height="338.43" rx="30" ry="30"/><rect class="cls-4" x="128.86" y="320.92" width="232.27" height="334.43" rx="30" ry="30"/><polygon class="cls-3" points="0 0 40.32 39.6 1881.04 39.6 1920.33 0 0 0"/><polygon class="cls-2" points="40.32 39.6 40.32 1039.29 0.33 1077.82 0 0 40.32 39.6"/><polygon class="cls-2" points="1920.33 0 1920.33 1078.13 1881.04 1039.29 1881.04 39.6 1920.33 0"/><polygon class="cls-3" points="0.33 1077.82 1920.33 1078.13 1881.04 1039.29 40.32 1039.29 0.33 1077.82"/></g><g id="Main_Screen" data-name="Main Screen"><rect id="Main_Screen_Panel" data-name="Main Screen Panel" class="cls-2" x="474.85" y="59.29" width="971.66" height="968" rx="220.52" ry="220.52"/><rect id="Main_Screen_Panel-2" data-name="Main Screen Panel" class="cls-5" x="480" y="59.29" width="960" height="960" rx="220.52" ry="220.52"/><circle id="Perspective_Shadow_Ellipse" data-name="Perspective/Shadow Ellipse" class="cls-6" cx="960" cy="539.29" r="465"/><ellipse id="Curved_Visor_Ellipse" data-name="Curved Visor Ellipse" class="cls-7" cx="960" cy="540.35" rx="420" ry="448.93"/><ellipse id="View_Ellipse" data-name="View Ellipse" class="cls-8" cx="960" cy="564.87" rx="420" ry="394.42"/></g><g id="weather_icon" data-name="weather icon"><rect class="cls-9" x="1551.34" y="117.1" width="243.49" height="205.44" rx="15.83" ry="15.83"/><rect class="cls-10" x="1557.53" y="117.08" width="231.11" height="200.13" rx="15.83" ry="15.83"/><rect class="cls-11" x="1557.53" y="117.1" width="231.11" height="192.62" rx="15.83" ry="15.83"/><rect class="cls-9" x="1551.34" y="336.33" width="243.49" height="107.04" rx="15.83" ry="15.83"/><rect class="cls-10" x="1557.53" y="344.83" width="231.11" height="90.81" rx="15.83" ry="15.83"/><rect class="cls-11" x="1557.53" y="336.33" width="231.11" height="90.09" rx="15.83" ry="15.83"/></g><g id="logo"><circle class="cls-2" cx="183.25" cy="244.72" r="60.2"/><g id="_Group_" data-name="&lt;Group&gt;"><path class="cls-12" d="M182.52,178.53a60.2,60.2,0,0,1,0,120.4v-7.5h.73a52.67,52.67,0,0,0,0-105.35h-.73Z"/><path class="cls-13" d="M183.25,186.08a52.67,52.67,0,0,1,0,105.35V283.9a45.15,45.15,0,0,0,0-90.3Z"/><path class="cls-11" d="M183.25,193.61a45.15,45.15,0,0,1,0,90.3v-7.52a37.62,37.62,0,1,0,0-75.25Z"/><path class="cls-14" d="M183.25,201.13a37.62,37.62,0,1,1,0,75.25v-7.52a30.1,30.1,0,0,0,0-60.2Z"/><path class="cls-15" d="M183.25,208.66a30.1,30.1,0,0,1,0,60.2v-7.52a22.57,22.57,0,0,0,0-45.15Z"/><path class="cls-16" d="M183.25,216.18a22.57,22.57,0,0,1,0,45.15v-7.52a15,15,0,0,0,0-30.1Z"/><path class="cls-17" d="M183.25,223.71a15,15,0,0,1,0,30.1v-7.52a7.52,7.52,0,0,0,0-15Z"/><path class="cls-13" d="M183.25,283.9v7.52h-.73V283.9Z"/><path class="cls-11" d="M183.25,276.38v7.52h-.73v-7.53Z"/><path class="cls-14" d="M183.25,268.85v7.52h-.73v-7.53Z"/><path class="cls-15" d="M183.25,261.33v7.52h-.73v-7.53Z"/><path class="cls-16" d="M183.25,253.81v7.52h-.73v-7.53Z"/><path class="cls-17" d="M183.25,246.28v7.52l-.73,0v-7.54C182.76,246.27,183,246.28,183.25,246.28Z"/><path class="cls-17" d="M183.25,223.71v7.52c-.25,0-.49,0-.73,0v-7.54Z"/><path class="cls-16" d="M183.25,216.18v7.52l-.73,0v-7.53Z"/><path class="cls-15" d="M183.25,208.66v7.52h-.73v-7.53Z"/><path class="cls-14" d="M183.25,201.13v7.52h-.73v-7.53Z"/><path class="cls-11" d="M183.25,193.61v7.52h-.73v-7.53Z"/><path class="cls-13" d="M183.25,186.08v7.52h-.73v-7.52Z"/><path class="cls-12" d="M182.52,291.42v7.5a60.2,60.2,0,0,1,0-120.4v7.56a52.67,52.67,0,0,0,0,105.34Z"/><path class="cls-13" d="M182.52,283.9v7.52a52.67,52.67,0,0,1,0-105.34v7.52a45.15,45.15,0,0,0,0,90.29Z"/><path class="cls-11" d="M182.52,276.37v7.53a45.15,45.15,0,0,1,0-90.29v7.53a37.62,37.62,0,0,0,0,75.23Z"/><path class="cls-14" d="M182.52,268.85v7.53a37.62,37.62,0,0,1,0-75.23v7.53a30.1,30.1,0,0,0,0,60.18Z"/><path class="cls-15" d="M182.52,261.32v7.53a30.1,30.1,0,0,1,0-60.18v7.53a22.57,22.57,0,0,0,0,45.12Z"/><path class="cls-16" d="M182.52,253.79v7.53a22.57,22.57,0,0,1,0-45.12v7.53a15,15,0,0,0,0,30.06Z"/><path class="cls-17" d="M182.52,246.24v7.54a15,15,0,0,1,0-30.06v7.54a7.52,7.52,0,0,0,0,15Z"/></g></g><g id="Bolts"><path class="cls-18" d="M95.37,53.54h-19a10,10,0,0,0-8.66,5L58.14,75a10,10,0,0,0,0,10l9.52,16.5a10,10,0,0,0,8.66,5h19a10,10,0,0,0,8.66-5L113.56,85a10,10,0,0,0,0-10L104,58.55A10,10,0,0,0,95.37,53.54Z"/><path class="cls-2" d="M95.37,49.54h-19a10,10,0,0,0-8.66,5L58.14,71a10,10,0,0,0,0,10l9.52,16.5a10,10,0,0,0,8.66,5h19a10,10,0,0,0,8.66-5L113.56,81a10,10,0,0,0,0-10L104,54.55A10,10,0,0,0,95.37,49.54Z"/><circle class="cls-19" cx="85.85" cy="76.04" r="18.19"/><circle class="cls-1" cx="85.85" cy="76.04" r="15.37"/><path class="cls-18" d="M428.1,53.54H409a10,10,0,0,0-8.66,5L390.86,75a10,10,0,0,0,0,10l9.52,16.5a10,10,0,0,0,8.66,5h19a10,10,0,0,0,8.66-5L446.29,85a10,10,0,0,0,0-10l-9.52-16.5A10,10,0,0,0,428.1,53.54Z"/><path class="cls-2" d="M428.1,49.54H409a10,10,0,0,0-8.66,5L390.86,71a10,10,0,0,0,0,10l9.52,16.5a10,10,0,0,0,8.66,5h19a10,10,0,0,0,8.66-5L446.29,81a10,10,0,0,0,0-10l-9.52-16.5A10,10,0,0,0,428.1,49.54Z"/><circle class="cls-19" cx="418.57" cy="76.04" r="18.19"/><circle class="cls-1" cx="418.57" cy="76.04" r="15.37"/><path class="cls-18" d="M94.61,977.79h-19a10,10,0,0,0-8.66,5l-9.52,16.5a10,10,0,0,0,0,10l9.52,16.5a10,10,0,0,0,8.66,5h19a10,10,0,0,0,8.66-5l9.52-16.5a10,10,0,0,0,0-10l-9.52-16.5A10,10,0,0,0,94.61,977.79Z"/><path class="cls-2" d="M94.61,973.79h-19a10,10,0,0,0-8.66,5l-9.52,16.5a10,10,0,0,0,0,10l9.52,16.5a10,10,0,0,0,8.66,5h19a10,10,0,0,0,8.66-5l9.52-16.5a10,10,0,0,0,0-10l-9.52-16.5A10,10,0,0,0,94.61,973.79Z"/><circle class="cls-19" cx="85.09" cy="1000.29" r="18.19"/><circle class="cls-1" cx="85.09" cy="1000.29" r="15.37"/><path class="cls-18" d="M430.07,976.79H411a10,10,0,0,0-8.66,5l-9.52,16.5a10,10,0,0,0,0,10l9.52,16.5a10,10,0,0,0,8.66,5h19a10,10,0,0,0,8.66-5l9.52-16.5a10,10,0,0,0,0-10l-9.52-16.5A10,10,0,0,0,430.07,976.79Z"/><path class="cls-2" d="M430.07,973.79H411a10,10,0,0,0-8.66,5l-9.52,16.5a10,10,0,0,0,0,10l9.52,16.5a10,10,0,0,0,8.66,5h19a10,10,0,0,0,8.66-5l9.52-16.5a10,10,0,0,0,0-10l-9.52-16.5A10,10,0,0,0,430.07,973.79Z"/><circle class="cls-19" cx="420.55" cy="1000.29" r="18.19"/><circle class="cls-1" cx="420.55" cy="1000.29" r="15.37"/><path class="cls-18" d="M1519.92,976.33h-19a10,10,0,0,0-8.66,5l-9.52,16.5a10,10,0,0,0,0,10l9.52,16.5a10,10,0,0,0,8.66,5h19a10,10,0,0,0,8.66-5l9.52-16.5a10,10,0,0,0,0-10l-9.52-16.5A10,10,0,0,0,1519.92,976.33Z"/><path class="cls-2" d="M1519.92,972.33h-19a10,10,0,0,0-8.66,5l-9.52,16.5a10,10,0,0,0,0,10l9.52,16.5a10,10,0,0,0,8.66,5h19a10,10,0,0,0,8.66-5l9.52-16.5a10,10,0,0,0,0-10l-9.52-16.5A10,10,0,0,0,1519.92,972.33Z"/><circle class="cls-19" cx="1510.39" cy="998.83" r="18.19"/><circle class="cls-1" cx="1510.39" cy="998.83" r="15.37"/><path class="cls-18" d="M1846.54,976.33h-19a10,10,0,0,0-8.66,5l-9.52,16.5a10,10,0,0,0,0,10l9.52,16.5a10,10,0,0,0,8.66,5h19a10,10,0,0,0,8.66-5l9.52-16.5a10,10,0,0,0,0-10l-9.52-16.5A10,10,0,0,0,1846.54,976.33Z"/><path class="cls-2" d="M1846.54,972.33h-19a10,10,0,0,0-8.66,5l-9.52,16.5a10,10,0,0,0,0,10l9.52,16.5a10,10,0,0,0,8.66,5h19a10,10,0,0,0,8.66-5l9.52-16.5a10,10,0,0,0,0-10l-9.52-16.5A10,10,0,0,0,1846.54,972.33Z"/><circle class="cls-19" cx="1837.02" cy="998.83" r="18.19"/><circle class="cls-1" cx="1837.02" cy="998.83" r="15.37"/><path class="cls-18" d="M1843.68,58.94h-19a10,10,0,0,0-8.66,5l-9.52,16.5a10,10,0,0,0,0,10l9.52,16.5a10,10,0,0,0,8.66,5h19a10,10,0,0,0,8.66-5l9.52-16.5a10,10,0,0,0,0-10l-9.52-16.5A10,10,0,0,0,1843.68,58.94Z"/><path class="cls-2" d="M1843.68,54.94h-19a10,10,0,0,0-8.66,5l-9.52,16.5a10,10,0,0,0,0,10l9.52,16.5a10,10,0,0,0,8.66,5h19a10,10,0,0,0,8.66-5l9.52-16.5a10,10,0,0,0,0-10l-9.52-16.5A10,10,0,0,0,1843.68,54.94Z"/><circle class="cls-19" cx="1834.16" cy="81.44" r="18.19"/><circle class="cls-1" cx="1834.16" cy="81.44" r="15.37"/><path class="cls-18" d="M1517.23,63.29h-19a10,10,0,0,0-8.66,5L1480,84.79a10,10,0,0,0,0,10l9.52,16.5a10,10,0,0,0,8.66,5h19a10,10,0,0,0,8.66-5l9.52-16.5a10,10,0,0,0,0-10l-9.52-16.5A10,10,0,0,0,1517.23,63.29Z"/><path class="cls-2" d="M1517.23,59.29h-19a10,10,0,0,0-8.66,5L1480,80.79a10,10,0,0,0,0,10l9.52,16.5a10,10,0,0,0,8.66,5h19a10,10,0,0,0,8.66-5l9.52-16.5a10,10,0,0,0,0-10l-9.52-16.5A10,10,0,0,0,1517.23,59.29Z"/><circle class="cls-19" cx="1507.71" cy="85.79" r="18.19"/><circle class="cls-1" cx="1507.71" cy="85.79" r="15.37"/><path class="cls-18" d="M628.35,121.08h-19a10,10,0,0,0-8.66,5l-9.52,16.5a10,10,0,0,0,0,10l9.52,16.5a10,10,0,0,0,8.66,5h19a10,10,0,0,0,8.66-5l9.52-16.5a10,10,0,0,0,0-10L637,126.08A10,10,0,0,0,628.35,121.08Z"/><path class="cls-2" d="M628.35,117.08h-19a10,10,0,0,0-8.66,5l-9.52,16.5a10,10,0,0,0,0,10l9.52,16.5a10,10,0,0,0,8.66,5h19a10,10,0,0,0,8.66-5l9.52-16.5a10,10,0,0,0,0-10L637,122.08A10,10,0,0,0,628.35,117.08Z"/><circle class="cls-19" cx="618.82" cy="143.58" r="18.19"/><circle class="cls-1" cx="618.82" cy="143.58" r="15.37"/><path class="cls-18" d="M1323.11,121.08h-19a10,10,0,0,0-8.66,5l-9.52,16.5a10,10,0,0,0,0,10l9.52,16.5a10,10,0,0,0,8.66,5h19a10,10,0,0,0,8.66-5l9.52-16.5a10,10,0,0,0,0-10l-9.52-16.5A10,10,0,0,0,1323.11,121.08Z"/><path class="cls-2" d="M1323.11,117.08h-19a10,10,0,0,0-8.66,5l-9.52,16.5a10,10,0,0,0,0,10l9.52,16.5a10,10,0,0,0,8.66,5h19a10,10,0,0,0,8.66-5l9.52-16.5a10,10,0,0,0,0-10l-9.52-16.5A10,10,0,0,0,1323.11,117.08Z"/><circle class="cls-19" cx="1313.58" cy="143.58" r="18.19"/><circle class="cls-1" cx="1313.58" cy="143.58" r="15.37"/><path class="cls-18" d="M1323.11,915.9h-19a10,10,0,0,0-8.66,5l-9.52,16.5a10,10,0,0,0,0,10l9.52,16.5a10,10,0,0,0,8.66,5h19a10,10,0,0,0,8.66-5l9.52-16.5a10,10,0,0,0,0-10l-9.52-16.5A10,10,0,0,0,1323.11,915.9Z"/><path class="cls-2" d="M1323.11,911.9h-19a10,10,0,0,0-8.66,5l-9.52,16.5a10,10,0,0,0,0,10l9.52,16.5a10,10,0,0,0,8.66,5h19a10,10,0,0,0,8.66-5l9.52-16.5a10,10,0,0,0,0-10l-9.52-16.5A10,10,0,0,0,1323.11,911.9Z"/><circle class="cls-19" cx="1313.58" cy="938.4" r="18.19"/><circle class="cls-1" cx="1313.58" cy="938.4" r="15.37"/><path class="cls-18" d="M628.35,917.9h-19a10,10,0,0,0-8.66,5l-9.52,16.5a10,10,0,0,0,0,10l9.52,16.5a10,10,0,0,0,8.66,5h19a10,10,0,0,0,8.66-5l9.52-16.5a10,10,0,0,0,0-10L637,922.9A10,10,0,0,0,628.35,917.9Z"/><path class="cls-2" d="M628.35,913.9h-19a10,10,0,0,0-8.66,5l-9.52,16.5a10,10,0,0,0,0,10l9.52,16.5a10,10,0,0,0,8.66,5h19a10,10,0,0,0,8.66-5l9.52-16.5a10,10,0,0,0,0-10L637,918.9A10,10,0,0,0,628.35,913.9Z"/><circle class="cls-19" cx="618.82" cy="940.4" r="18.19"/><circle class="cls-1" cx="618.82" cy="940.4" r="15.37"/></g><g id="Screws"><path class="cls-1" d="M244,129.5h-4.71a10,10,0,0,0-8.66,5l-2.35,4.08a10,10,0,0,0,0,10l2.35,4.08a10,10,0,0,0,8.66,5H244a10,10,0,0,0,8.66-5l2.35-4.08a10,10,0,0,0,0-10l-2.35-4.08A10,10,0,0,0,244,129.5Z"/><circle class="cls-19" cx="241.67" cy="143.58" r="11.97"/><circle class="cls-1" cx="241.67" cy="143.58" r="10.12"/><rect class="cls-2" x="240.26" y="136.84" width="2.82" height="13.47" rx="1.41" ry="1.41"/><rect class="cls-2" x="240.26" y="136.84" width="2.82" height="13.47" rx="1.41" ry="1.41" transform="translate(385.25 -98.09) rotate(90)"/><path class="cls-1" d="M252.47,669.73h-4.71a10,10,0,0,0-8.66,5l-2.35,4.08a10,10,0,0,0,0,10l2.35,4.08a10,10,0,0,0,8.66,5h4.71a10,10,0,0,0,8.66-5l2.35-4.08a10,10,0,0,0,0-10l-2.35-4.08A10,10,0,0,0,252.47,669.73Z"/><circle class="cls-19" cx="250.12" cy="683.81" r="11.97"/><circle class="cls-1" cx="250.12" cy="683.81" r="10.12"/><rect class="cls-2" x="248.71" y="677.08" width="2.82" height="13.47" rx="1.41" ry="1.41"/><rect class="cls-2" x="248.71" y="677.08" width="2.82" height="13.47" rx="1.41" ry="1.41" transform="translate(933.93 433.7) rotate(90)"/></g></g></svg>