<svg xmlns="http://www.w3.org/2000/svg" xmlns:xlink="http://www.w3.org/1999/xlink" viewBox="0 0 982.66 981.24"><defs><style>.cls-1{fill:#4d4d4d;}.cls-2{fill:#565656;}.cls-3{fill:url(#radial-gradient);}.cls-4{fill:url(#radial-gradient-3);}.cls-5{fill:#1a1a1a;}.cls-6{fill:#333;}.cls-7{fill:gray;}.cls-8{fill:#666;}</style><radialGradient id="radial-gradient" cx="485.15" cy="486.62" r="465" gradientUnits="userSpaceOnUse"><stop offset="0" stop-color="gray"/><stop offset="0.44" stop-color="#7e7e7e"/><stop offset="0.65" stop-color="#767676"/><stop offset="0.81" stop-color="#696969"/><stop offset="0.94" stop-color="#575757"/><stop offset="1" stop-color="#4d4d4d"/></radialGradient><radialGradient id="radial-gradient-3" cx="485.15" cy="487.69" r="434.71" gradientUnits="userSpaceOnUse"><stop offset="0" stop-color="#666"/><stop offset="0.19" stop-color="#666"/><stop offset="0.22" stop-color="#666"/><stop offset="0.36" stop-color="#656565"/><stop offset="0.44" stop-color="#5f5f5f"/><stop offset="0.53" stop-color="#535353"/><stop offset="1" stop-color="#333"/></radialGradient></defs><title>Asset 7</title><g id="Layer_2" data-name="Layer 2"><g id="export_screen" data-name="export screen"><path class="cls-1" d="M751.14,6.62h-6.51c121.28,0,220.52,99.23,220.52,220.52v519c0,121.28-99.23,220.52-220.52,220.52h-519c-121.28,0-220.52-99.23-220.52-220.52v-519C5.15,105.85,104.38,6.62,225.67,6.62h-5.15C99.23,6.62,0,105.85,0,227.14v527C0,875.39,99.23,974.62,220.52,974.62H751.14c121.28,0,220.52-99.23,220.52-220.52v-527C971.66,105.85,872.43,6.62,751.14,6.62Z"/><path class="cls-2" d="M5.15,227.14v519c0,121.28,99.23,220.52,220.52,220.52h519c121.28,0,220.52-99.23,220.52-220.52v-519c0-121.28-99.23-220.52-220.52-220.52h-519C104.38,6.62,5.15,105.85,5.15,227.14Zm480-205.52c256.81,0,465,208.19,465,465s-208.19,465-465,465-465-208.19-465-465S228.34,21.62,485.15,21.62Z"/><path class="cls-2" d="M485.15,951.62c256.81,0,465-208.19,465-465s-208.19-465-465-465-465,208.19-465,465S228.34,951.62,485.15,951.62Zm0-912.87c232,0,420,201,420,448.93q0,6.55-.18,13.05.17,5.71.18,11.47a373.42,373.42,0,0,1-44.77,177.37c-69.14,146.54-211.2,247-375.23,247s-306.08-100.51-375.23-247A373.42,373.42,0,0,1,65.15,512.2q0-5.75.18-11.47-.17-6.5-.18-13.05C65.15,239.75,253.19,38.75,485.15,38.75Z"/><path class="cls-3" d="M485.15,951.62c256.81,0,465-208.19,465-465s-208.19-465-465-465-465,208.19-465,465S228.34,951.62,485.15,951.62Zm0-912.87c232,0,420,201,420,448.93q0,6.55-.18,13.05.17,5.71.18,11.47a373.42,373.42,0,0,1-44.77,177.37c-69.14,146.54-211.2,247-375.23,247s-306.08-100.51-375.23-247A373.42,373.42,0,0,1,65.15,512.2q0-5.75.18-11.47-.17-6.5-.18-13.05C65.15,239.75,253.19,38.75,485.15,38.75Z"/><path class="cls-2" d="M485.15,906.62c-164,0-306.08-88.3-375.23-217,69.14,146.54,211.2,247,375.23,247s306.08-100.51,375.23-247C791.23,818.32,649.18,906.62,485.15,906.62Z"/><path class="cls-3" d="M485.15,906.62c-164,0-306.08-88.3-375.23-217,69.14,146.54,211.2,247,375.23,247s306.08-100.51,375.23-247C791.23,818.32,649.18,906.62,485.15,906.62Z"/><path class="cls-4" d="M485.15,906.62c-164,0-306.08-88.3-375.23-217,69.14,146.54,211.2,247,375.23,247s306.08-100.51,375.23-247C791.23,818.32,649.18,906.62,485.15,906.62Z"/><path class="cls-2" d="M485.15,117.79c227.88,0,413.36,170.42,419.82,383q.17-6.5.18-13.05c0-247.94-188-448.93-420-448.93s-420,201-420,448.93q0,6.55.18,13.05C71.79,288.21,257.28,117.79,485.15,117.79Z"/><path class="cls-3" d="M485.15,117.79c227.88,0,413.36,170.42,419.82,383q.17-6.5.18-13.05c0-247.94-188-448.93-420-448.93s-420,201-420,448.93q0,6.55.18,13.05C71.79,288.21,257.28,117.79,485.15,117.79Z"/><path class="cls-4" d="M485.15,117.79c227.88,0,413.36,170.42,419.82,383q.17-6.5.18-13.05c0-247.94-188-448.93-420-448.93s-420,201-420,448.93q0,6.55.18,13.05C71.79,288.21,257.28,117.79,485.15,117.79Z"/><path class="cls-5" d="M905.15,512.2q0-5.75-.18-11.47a471.4,471.4,0,0,1-44.59,188.84A373.42,373.42,0,0,0,905.15,512.2Z"/><path class="cls-5" d="M65.15,512.2a373.42,373.42,0,0,0,44.77,177.37A471.4,471.4,0,0,1,65.33,500.74Q65.16,506.45,65.15,512.2Z"/></g><g id="Bolts"><path class="cls-6" d="M55.37,4h-19a10,10,0,0,0-8.66,5L18.13,25.5a10,10,0,0,0,0,10L27.66,52a10,10,0,0,0,8.66,5h19A10,10,0,0,0,64,52l9.52-16.5a10,10,0,0,0,0-10L64,9A10,10,0,0,0,55.37,4Z"/><path class="cls-1" d="M55.37,0h-19a10,10,0,0,0-8.66,5L18.13,21.5a10,10,0,0,0,0,10L27.66,48a10,10,0,0,0,8.66,5h19A10,10,0,0,0,64,48l9.52-16.5a10,10,0,0,0,0-10L64,5A10,10,0,0,0,55.37,0Z"/><circle class="cls-7" cx="45.84" cy="26.5" r="18.19"/><circle class="cls-8" cx="45.84" cy="26.5" r="15.37"/><path class="cls-6" d="M49.58,928.24h-19a10,10,0,0,0-8.66,5l-9.52,16.5a10,10,0,0,0,0,10l9.52,16.5a10,10,0,0,0,8.66,5h19a10,10,0,0,0,8.66-5l9.52-16.5a10,10,0,0,0,0-10l-9.52-16.5A10,10,0,0,0,49.58,928.24Z"/><path class="cls-1" d="M49.58,924.24h-19a10,10,0,0,0-8.66,5l-9.52,16.5a10,10,0,0,0,0,10l9.52,16.5a10,10,0,0,0,8.66,5h19a10,10,0,0,0,8.66-5l9.52-16.5a10,10,0,0,0,0-10l-9.52-16.5A10,10,0,0,0,49.58,924.24Z"/><circle class="cls-7" cx="40.06" cy="950.74" r="18.19"/><circle class="cls-8" cx="40.06" cy="950.74" r="15.37"/><path class="cls-6" d="M963.14,926.79h-19a10,10,0,0,0-8.66,5l-9.52,16.5a10,10,0,0,0,0,10l9.52,16.5a10,10,0,0,0,8.66,5h19a10,10,0,0,0,8.66-5l9.52-16.5a10,10,0,0,0,0-10l-9.52-16.5A10,10,0,0,0,963.14,926.79Z"/><path class="cls-1" d="M963.14,922.79h-19a10,10,0,0,0-8.66,5l-9.52,16.5a10,10,0,0,0,0,10l9.52,16.5a10,10,0,0,0,8.66,5h19a10,10,0,0,0,8.66-5l9.52-16.5a10,10,0,0,0,0-10l-9.52-16.5A10,10,0,0,0,963.14,922.79Z"/><circle class="cls-7" cx="953.61" cy="949.29" r="18.19"/><circle class="cls-8" cx="953.61" cy="949.29" r="15.37"/><path class="cls-6" d="M956.63,13.74h-19a10,10,0,0,0-8.66,5l-9.52,16.5a10,10,0,0,0,0,10l9.52,16.5a10,10,0,0,0,8.66,5h19a10,10,0,0,0,8.66-5l9.52-16.5a10,10,0,0,0,0-10l-9.52-16.5A10,10,0,0,0,956.63,13.74Z"/><path class="cls-1" d="M956.63,9.74h-19a10,10,0,0,0-8.66,5l-9.52,16.5a10,10,0,0,0,0,10l9.52,16.5a10,10,0,0,0,8.66,5h19a10,10,0,0,0,8.66-5l9.52-16.5a10,10,0,0,0,0-10l-9.52-16.5A10,10,0,0,0,956.63,9.74Z"/><circle class="cls-7" cx="947.1" cy="36.24" r="18.19"/><circle class="cls-8" cx="947.1" cy="36.24" r="15.37"/><path class="cls-6" d="M147.3,63.71h-19a10,10,0,0,0-8.66,5l-9.52,16.5a10,10,0,0,0,0,10l9.52,16.5a10,10,0,0,0,8.66,5h19a10,10,0,0,0,8.66-5l9.52-16.5a10,10,0,0,0,0-10L156,68.71A10,10,0,0,0,147.3,63.71Z"/><path class="cls-1" d="M147.3,59.71h-19a10,10,0,0,0-8.66,5l-9.52,16.5a10,10,0,0,0,0,10l9.52,16.5a10,10,0,0,0,8.66,5h19a10,10,0,0,0,8.66-5l9.52-16.5a10,10,0,0,0,0-10L156,64.71A10,10,0,0,0,147.3,59.71Z"/><circle class="cls-7" cx="137.77" cy="86.21" r="18.19"/><circle class="cls-8" cx="137.77" cy="86.21" r="15.37"/><path class="cls-6" d="M842.06,63.71H823a10,10,0,0,0-8.66,5l-9.52,16.5a10,10,0,0,0,0,10l9.52,16.5a10,10,0,0,0,8.66,5h19a10,10,0,0,0,8.66-5l9.52-16.5a10,10,0,0,0,0-10l-9.52-16.5A10,10,0,0,0,842.06,63.71Z"/><path class="cls-1" d="M842.06,59.71H823a10,10,0,0,0-8.66,5l-9.52,16.5a10,10,0,0,0,0,10l9.52,16.5a10,10,0,0,0,8.66,5h19a10,10,0,0,0,8.66-5l9.52-16.5a10,10,0,0,0,0-10l-9.52-16.5A10,10,0,0,0,842.06,59.71Z"/><circle class="cls-7" cx="832.53" cy="86.21" r="18.19"/><circle class="cls-8" cx="832.53" cy="86.21" r="15.37"/><path class="cls-6" d="M842.06,858.53H823a10,10,0,0,0-8.66,5L804.82,880a10,10,0,0,0,0,10l9.52,16.5a10,10,0,0,0,8.66,5h19a10,10,0,0,0,8.66-5l9.52-16.5a10,10,0,0,0,0-10l-9.52-16.5A10,10,0,0,0,842.06,858.53Z"/><path class="cls-1" d="M842.06,854.53H823a10,10,0,0,0-8.66,5L804.82,876a10,10,0,0,0,0,10l9.52,16.5a10,10,0,0,0,8.66,5h19a10,10,0,0,0,8.66-5l9.52-16.5a10,10,0,0,0,0-10l-9.52-16.5A10,10,0,0,0,842.06,854.53Z"/><circle class="cls-7" cx="832.53" cy="881.03" r="18.19"/><circle class="cls-8" cx="832.53" cy="881.03" r="15.37"/><path class="cls-6" d="M147.3,860.53h-19a10,10,0,0,0-8.66,5L110.06,882a10,10,0,0,0,0,10l9.52,16.5a10,10,0,0,0,8.66,5h19a10,10,0,0,0,8.66-5l9.52-16.5a10,10,0,0,0,0-10L156,865.53A10,10,0,0,0,147.3,860.53Z"/><path class="cls-1" d="M147.3,856.53h-19a10,10,0,0,0-8.66,5L110.06,878a10,10,0,0,0,0,10l9.52,16.5a10,10,0,0,0,8.66,5h19a10,10,0,0,0,8.66-5l9.52-16.5a10,10,0,0,0,0-10L156,861.53A10,10,0,0,0,147.3,856.53Z"/><circle class="cls-7" cx="137.77" cy="883.03" r="18.19"/><circle class="cls-8" cx="137.77" cy="883.03" r="15.37"/></g></g></svg>