<svg xmlns="http://www.w3.org/2000/svg" xmlns:xlink="http://www.w3.org/1999/xlink" viewBox="0 0 971.66 968"><defs><style>.cls-1{fill:#4d4d4d;}.cls-2{fill:#565656;}.cls-3{fill:url(#radial-gradient);}.cls-4{fill:url(#radial-gradient-3);}.cls-5{fill:#1a1a1a;}.cls-6{fill:#333;}.cls-7{fill:gray;}.cls-8{fill:#666;}</style><radialGradient id="radial-gradient" cx="485.15" cy="480" r="465" gradientUnits="userSpaceOnUse"><stop offset="0" stop-color="gray"/><stop offset="0.44" stop-color="#7e7e7e"/><stop offset="0.65" stop-color="#767676"/><stop offset="0.81" stop-color="#696969"/><stop offset="0.94" stop-color="#575757"/><stop offset="1" stop-color="#4d4d4d"/></radialGradient><radialGradient id="radial-gradient-3" cx="485.15" cy="481.07" r="434.71" gradientUnits="userSpaceOnUse"><stop offset="0" stop-color="#666"/><stop offset="0.19" stop-color="#666"/><stop offset="0.22" stop-color="#666"/><stop offset="0.36" stop-color="#656565"/><stop offset="0.44" stop-color="#5f5f5f"/><stop offset="0.53" stop-color="#535353"/><stop offset="1" stop-color="#333"/></radialGradient></defs><title>Asset 5</title><g id="Layer_2" data-name="Layer 2"><g id="export_screen" data-name="export screen"><path class="cls-1" d="M751.14,0h-6.51C865.92,0,965.15,99.23,965.15,220.52v519C965.15,860.77,865.92,960,744.64,960h-519C104.38,960,5.15,860.77,5.15,739.48v-519C5.15,99.23,104.38,0,225.67,0h-5.15C99.23,0,0,99.23,0,220.52v527C0,868.77,99.23,968,220.52,968H751.14c121.28,0,220.52-99.23,220.52-220.52v-527C971.66,99.23,872.43,0,751.14,0Z"/><path class="cls-2" d="M5.15,220.52v519C5.15,860.77,104.38,960,225.67,960h519c121.28,0,220.52-99.23,220.52-220.52v-519C965.15,99.23,865.92,0,744.64,0h-519C104.38,0,5.15,99.23,5.15,220.52ZM485.15,15c256.81,0,465,208.19,465,465S742,945,485.15,945s-465-208.19-465-465S228.34,15,485.15,15Z"/><path class="cls-2" d="M485.15,945c256.81,0,465-208.19,465-465S742,15,485.15,15s-465,208.19-465,465S228.34,945,485.15,945Zm0-912.87c232,0,420,201,420,448.93q0,6.55-.18,13.05.17,5.71.18,11.47A373.42,373.42,0,0,1,860.38,683c-69.14,146.54-211.2,247-375.23,247S179.07,829.49,109.93,683A373.42,373.42,0,0,1,65.15,505.58q0-5.75.18-11.47-.17-6.5-.18-13.05C65.15,233.13,253.19,32.13,485.15,32.13Z"/><path class="cls-3" d="M485.15,945c256.81,0,465-208.19,465-465S742,15,485.15,15s-465,208.19-465,465S228.34,945,485.15,945Zm0-912.87c232,0,420,201,420,448.93q0,6.55-.18,13.05.17,5.71.18,11.47A373.42,373.42,0,0,1,860.38,683c-69.14,146.54-211.2,247-375.23,247S179.07,829.49,109.93,683A373.42,373.42,0,0,1,65.15,505.58q0-5.75.18-11.47-.17-6.5-.18-13.05C65.15,233.13,253.19,32.13,485.15,32.13Z"/><path class="cls-2" d="M485.15,900c-164,0-306.08-88.3-375.23-217,69.14,146.54,211.2,247,375.23,247S791.23,829.49,860.38,683C791.23,811.7,649.18,900,485.15,900Z"/><path class="cls-3" d="M485.15,900c-164,0-306.08-88.3-375.23-217,69.14,146.54,211.2,247,375.23,247S791.23,829.49,860.38,683C791.23,811.7,649.18,900,485.15,900Z"/><path class="cls-4" d="M485.15,900c-164,0-306.08-88.3-375.23-217,69.14,146.54,211.2,247,375.23,247S791.23,829.49,860.38,683C791.23,811.7,649.18,900,485.15,900Z"/><path class="cls-2" d="M485.15,111.16c227.88,0,413.36,170.42,419.82,383q.17-6.5.18-13.05c0-247.94-188-448.93-420-448.93s-420,201-420,448.93q0,6.55.18,13.05C71.79,281.59,257.28,111.16,485.15,111.16Z"/><path class="cls-3" d="M485.15,111.16c227.88,0,413.36,170.42,419.82,383q.17-6.5.18-13.05c0-247.94-188-448.93-420-448.93s-420,201-420,448.93q0,6.55.18,13.05C71.79,281.59,257.28,111.16,485.15,111.16Z"/><path class="cls-4" d="M485.15,111.16c227.88,0,413.36,170.42,419.82,383q.17-6.5.18-13.05c0-247.94-188-448.93-420-448.93s-420,201-420,448.93q0,6.55.18,13.05C71.79,281.59,257.28,111.16,485.15,111.16Z"/><path class="cls-5" d="M905.15,505.58q0-5.75-.18-11.47A471.4,471.4,0,0,1,860.38,683,373.42,373.42,0,0,0,905.15,505.58Z"/><path class="cls-5" d="M65.15,505.58A373.42,373.42,0,0,0,109.93,683,471.4,471.4,0,0,1,65.33,494.12Q65.16,499.83,65.15,505.58Z"/></g><g id="Bolts"><path class="cls-6" d="M147.3,57.09h-19a10,10,0,0,0-8.66,5l-9.52,16.5a10,10,0,0,0,0,10l9.52,16.5a10,10,0,0,0,8.66,5h19a10,10,0,0,0,8.66-5l9.52-16.5a10,10,0,0,0,0-10L156,62.09A10,10,0,0,0,147.3,57.09Z"/><path class="cls-1" d="M147.3,53.09h-19a10,10,0,0,0-8.66,5l-9.52,16.5a10,10,0,0,0,0,10l9.52,16.5a10,10,0,0,0,8.66,5h19a10,10,0,0,0,8.66-5l9.52-16.5a10,10,0,0,0,0-10L156,58.09A10,10,0,0,0,147.3,53.09Z"/><circle class="cls-7" cx="137.77" cy="79.59" r="18.19"/><circle class="cls-8" cx="137.77" cy="79.59" r="15.37"/><path class="cls-6" d="M842.06,57.09H823a10,10,0,0,0-8.66,5l-9.52,16.5a10,10,0,0,0,0,10l9.52,16.5a10,10,0,0,0,8.66,5h19a10,10,0,0,0,8.66-5l9.52-16.5a10,10,0,0,0,0-10l-9.52-16.5A10,10,0,0,0,842.06,57.09Z"/><path class="cls-1" d="M842.06,53.09H823a10,10,0,0,0-8.66,5l-9.52,16.5a10,10,0,0,0,0,10l9.52,16.5a10,10,0,0,0,8.66,5h19a10,10,0,0,0,8.66-5l9.52-16.5a10,10,0,0,0,0-10l-9.52-16.5A10,10,0,0,0,842.06,53.09Z"/><circle class="cls-7" cx="832.53" cy="79.59" r="18.19"/><circle class="cls-8" cx="832.53" cy="79.59" r="15.37"/><path class="cls-6" d="M842.06,851.91H823a10,10,0,0,0-8.66,5l-9.52,16.5a10,10,0,0,0,0,10l9.52,16.5a10,10,0,0,0,8.66,5h19a10,10,0,0,0,8.66-5l9.52-16.5a10,10,0,0,0,0-10l-9.52-16.5A10,10,0,0,0,842.06,851.91Z"/><path class="cls-1" d="M842.06,847.91H823a10,10,0,0,0-8.66,5l-9.52,16.5a10,10,0,0,0,0,10l9.52,16.5a10,10,0,0,0,8.66,5h19a10,10,0,0,0,8.66-5l9.52-16.5a10,10,0,0,0,0-10l-9.52-16.5A10,10,0,0,0,842.06,847.91Z"/><circle class="cls-7" cx="832.53" cy="874.41" r="18.19"/><circle class="cls-8" cx="832.53" cy="874.41" r="15.37"/><path class="cls-6" d="M147.3,853.91h-19a10,10,0,0,0-8.66,5l-9.52,16.5a10,10,0,0,0,0,10l9.52,16.5a10,10,0,0,0,8.66,5h19a10,10,0,0,0,8.66-5l9.52-16.5a10,10,0,0,0,0-10L156,858.91A10,10,0,0,0,147.3,853.91Z"/><path class="cls-1" d="M147.3,849.91h-19a10,10,0,0,0-8.66,5l-9.52,16.5a10,10,0,0,0,0,10l9.52,16.5a10,10,0,0,0,8.66,5h19a10,10,0,0,0,8.66-5l9.52-16.5a10,10,0,0,0,0-10L156,854.91A10,10,0,0,0,147.3,849.91Z"/><circle class="cls-7" cx="137.77" cy="876.41" r="18.19"/><circle class="cls-8" cx="137.77" cy="876.41" r="15.37"/></g></g></svg>