<svg xmlns="http://www.w3.org/2000/svg" viewBox="0 0 387.41 974.4"><defs><style>.cls-1{fill:#333;}.cls-2{fill:#4d4d4d;}.cls-3{fill:gray;}.cls-4{fill:#666;}</style></defs><title>Asset 8</title><g id="Layer_2" data-name="Layer 2"><g id="Bolts"><path class="cls-1" d="M41.26,921.4h-19a10,10,0,0,0-8.66,5L4,942.89a10,10,0,0,0,0,10l9.52,16.5a10,10,0,0,0,8.66,5h19a10,10,0,0,0,8.66-5l9.52-16.5a10,10,0,0,0,0-10l-9.52-16.5A10,10,0,0,0,41.26,921.4Z"/><path class="cls-2" d="M41.26,917.4h-19a10,10,0,0,0-8.66,5L4,938.89a10,10,0,0,0,0,10l9.52,16.5a10,10,0,0,0,8.66,5h19a10,10,0,0,0,8.66-5l9.52-16.5a10,10,0,0,0,0-10l-9.52-16.5A10,10,0,0,0,41.26,917.4Z"/><circle class="cls-3" cx="31.73" cy="943.9" r="18.19"/><circle class="cls-4" cx="31.73" cy="943.9" r="15.37"/><path class="cls-1" d="M367.89,921.4h-19a10,10,0,0,0-8.66,5l-9.52,16.5a10,10,0,0,0,0,10l9.52,16.5a10,10,0,0,0,8.66,5h19a10,10,0,0,0,8.66-5l9.52-16.5a10,10,0,0,0,0-10l-9.52-16.5A10,10,0,0,0,367.89,921.4Z"/><path class="cls-2" d="M367.89,917.4h-19a10,10,0,0,0-8.66,5l-9.52,16.5a10,10,0,0,0,0,10l9.52,16.5a10,10,0,0,0,8.66,5h19a10,10,0,0,0,8.66-5l9.52-16.5a10,10,0,0,0,0-10l-9.52-16.5A10,10,0,0,0,367.89,917.4Z"/><circle class="cls-3" cx="358.36" cy="943.9" r="18.19"/><circle class="cls-4" cx="358.36" cy="943.9" r="15.37"/><path class="cls-1" d="M365,4H346a10,10,0,0,0-8.66,5l-9.52,16.5a10,10,0,0,0,0,10L337.31,52A10,10,0,0,0,346,57h19a10,10,0,0,0,8.66-5l9.52-16.5a10,10,0,0,0,0-10L373.69,9A10,10,0,0,0,365,4Z"/><path class="cls-2" d="M365,0H346a10,10,0,0,0-8.66,5l-9.52,16.5a10,10,0,0,0,0,10L337.31,48A10,10,0,0,0,346,53h19a10,10,0,0,0,8.66-5l9.52-16.5a10,10,0,0,0,0-10L373.69,5A10,10,0,0,0,365,0Z"/><circle class="cls-3" cx="355.5" cy="26.5" r="18.19"/><circle class="cls-4" cx="355.5" cy="26.5" r="15.37"/><path class="cls-1" d="M38.58,8.35h-19a10,10,0,0,0-8.66,5L1.34,29.85a10,10,0,0,0,0,10l9.52,16.5a10,10,0,0,0,8.66,5h19a10,10,0,0,0,8.66-5l9.52-16.5a10,10,0,0,0,0-10l-9.52-16.5A10,10,0,0,0,38.58,8.35Z"/><path class="cls-2" d="M38.58,4.35h-19a10,10,0,0,0-8.66,5L1.34,25.85a10,10,0,0,0,0,10l9.52,16.5a10,10,0,0,0,8.66,5h19a10,10,0,0,0,8.66-5l9.52-16.5a10,10,0,0,0,0-10L47.24,9.35A10,10,0,0,0,38.58,4.35Z"/><circle class="cls-3" cx="29.05" cy="30.85" r="18.19"/><circle class="cls-4" cx="29.05" cy="30.85" r="15.37"/></g></g></svg>