<svg xmlns="http://www.w3.org/2000/svg" viewBox="0 0 971.66 981.24"><defs><style>.cls-1{fill:#333;}.cls-2{fill:#4d4d4d;}.cls-3{fill:gray;}.cls-4{fill:#666;}</style></defs><title>Asset 6</title><g id="Layer_2" data-name="Layer 2"><g id="Bolts"><path class="cls-1" d="M44.37,4h-19a10,10,0,0,0-8.66,5L7.13,25.5a10,10,0,0,0,0,10L16.65,52a10,10,0,0,0,8.66,5h19A10,10,0,0,0,53,52l9.52-16.5a10,10,0,0,0,0-10L53,9A10,10,0,0,0,44.37,4Z"/><path class="cls-2" d="M44.37,0h-19a10,10,0,0,0-8.66,5L7.13,21.5a10,10,0,0,0,0,10L16.65,48a10,10,0,0,0,8.66,5h19A10,10,0,0,0,53,48l9.52-16.5a10,10,0,0,0,0-10L53,5A10,10,0,0,0,44.37,0Z"/><circle class="cls-3" cx="34.84" cy="26.5" r="18.19"/><circle class="cls-4" cx="34.84" cy="26.5" r="15.37"/><path class="cls-1" d="M38.58,928.24h-19a10,10,0,0,0-8.66,5l-9.52,16.5a10,10,0,0,0,0,10l9.52,16.5a10,10,0,0,0,8.66,5h19a10,10,0,0,0,8.66-5l9.52-16.5a10,10,0,0,0,0-10l-9.52-16.5A10,10,0,0,0,38.58,928.24Z"/><path class="cls-2" d="M38.58,924.24h-19a10,10,0,0,0-8.66,5l-9.52,16.5a10,10,0,0,0,0,10l9.52,16.5a10,10,0,0,0,8.66,5h19a10,10,0,0,0,8.66-5l9.52-16.5a10,10,0,0,0,0-10l-9.52-16.5A10,10,0,0,0,38.58,924.24Z"/><circle class="cls-3" cx="29.05" cy="950.74" r="18.19"/><circle class="cls-4" cx="29.05" cy="950.74" r="15.37"/><path class="cls-1" d="M952.13,926.79h-19a10,10,0,0,0-8.66,5l-9.52,16.5a10,10,0,0,0,0,10l9.52,16.5a10,10,0,0,0,8.66,5h19a10,10,0,0,0,8.66-5l9.52-16.5a10,10,0,0,0,0-10l-9.52-16.5A10,10,0,0,0,952.13,926.79Z"/><path class="cls-2" d="M952.13,922.79h-19a10,10,0,0,0-8.66,5l-9.52,16.5a10,10,0,0,0,0,10l9.52,16.5a10,10,0,0,0,8.66,5h19a10,10,0,0,0,8.66-5l9.52-16.5a10,10,0,0,0,0-10l-9.52-16.5A10,10,0,0,0,952.13,922.79Z"/><circle class="cls-3" cx="942.61" cy="949.29" r="18.19"/><circle class="cls-4" cx="942.61" cy="949.29" r="15.37"/><path class="cls-1" d="M945.62,13.74h-19a10,10,0,0,0-8.66,5l-9.52,16.5a10,10,0,0,0,0,10l9.52,16.5a10,10,0,0,0,8.66,5h19a10,10,0,0,0,8.66-5l9.52-16.5a10,10,0,0,0,0-10l-9.52-16.5A10,10,0,0,0,945.62,13.74Z"/><path class="cls-2" d="M945.62,9.74h-19a10,10,0,0,0-8.66,5l-9.52,16.5a10,10,0,0,0,0,10l9.52,16.5a10,10,0,0,0,8.66,5h19a10,10,0,0,0,8.66-5l9.52-16.5a10,10,0,0,0,0-10l-9.52-16.5A10,10,0,0,0,945.62,9.74Z"/><circle class="cls-3" cx="936.1" cy="36.24" r="18.19"/><circle class="cls-4" cx="936.1" cy="36.24" r="15.37"/></g></g></svg>