<svg xmlns="http://www.w3.org/2000/svg" viewBox="0 0 521.34 416.39"><defs><style>.cls-1{fill:#8eac37;}.cls-2{fill:#4cc6b4;}.cls-3{fill:#243c84;}.cls-4{fill:#fc1631;}.cls-5{fill:#4f5717;}</style></defs><title>Asset 1</title><g id="Layer_2" data-name="Layer 2"><g id="Layer_1-2" data-name="Layer 1"><g id="_Group_" data-name="&lt;Group&gt;"><path class="cls-1" d="M516.54,156.79c18.26,28.24-21.25-2-24,1.44s31.32,40.58,18.54,31.05c-25.61-19.13-60.44-52.47-60.44-52.47-59.19,56.33-267.59,31-252.17-86.95l-.54-.36c9.79-14.64,22.56-28.19,40.42-37.4,0,51.18,92.15,128.86,199.73,44.85C463.54,81,488.62,113.6,516.54,156.79Z"/><path class="cls-2" d="M450.67,136.8s-8.15,31.37-21.08,65.28c0,0-171.79,134.73-258.53-99.08,7.06-15.3,14.67-35.25,26.9-53.51l.54.36C183.08,167.76,391.47,193.13,450.67,136.8Z"/><path class="cls-3" d="M429.59,202.08c-13.34,35-31.77,72.67-51.6,81.44a78.54,78.54,0,0,1-10.43,3.61c-4.31,1.21-9.24,2.33-14.68,3.33a333.49,333.49,0,0,1-42.36,4.68q-4.48.23-9.11.38c-60,1.79-134.88-8.45-166.89-44.26-14.84-16.61-32.95-25.33-51-29.9h0c13.18-12.57-15.81-54-15.81-54,30.53-24.26,24.52-31.69,24.52-31.69,69.66-8.93,58.88,8.35,76.81-28.45.67-1.38,1.34-2.8,2-4.27C257.8,336.81,429.59,202.08,429.59,202.08Zm-310.74-30.6a15.91,15.91,0,1,0-15.91,15.91A15.91,15.91,0,0,0,118.84,171.48Z"/><path class="cls-4" d="M347.91,361.12c-25.94,9.28-46.11,13.38-57.25,15.14a2.54,2.54,0,0,1-1.82-4.6c38.52-26.51,67.34-18.17,73.27-20.73,6.32-2.73-9.23-60.47-9.23-60.47,5.44-1,10.37-2.12,14.68-3.33,8.6-2.12,6.46,63.8,6.46,63.8,17.13-4.21,51.74,12.41,51.74,18s-39.47-9.31-40.84-2.61-56.7,55.84-65.63,49.52S363.61,370,363.61,370c-7.1-1.48-78.2,32-77.46,25S346.06,361.94,347.91,361.12Z"/><path class="cls-5" d="M298,.07c56.73,1.68,98.87,18,140.07,56.86-107.58,84-199.73,6.33-199.73-44.85C253.93,4.06,273.36-.66,298,.07Z"/><path class="cls-4" d="M211.63,352c-33.64,47.35-38.08,38.5-38.08,38.5,9.76-66.48,129.68-85.14,129.68-85.14l-1.81-9.6v-.19q4.63-.14,9.11-.38c7.79,17.33,2.19,19.53,2.19,19.53-.88,5.32-66.17,7.83-44,14.48s15.65,26.28,4,15.65-28.21-9.75-28.21-9.75,15.95,86-.45,69.56-10.63-58-10.63-58-22.6,63.76-31,50.91C194.15,385,210.78,353.54,211.63,352Z"/><circle cx="102.93" cy="171.48" r="6.39"/><path d="M60.2,158.42c1.75,1.38,1.35,4.81-.89,7.67s-5.49,4.06-7.24,2.7-1.35-4.81.89-7.67S58.45,157,60.2,158.42Z"/><path class="cls-4" d="M0,211.11a5.11,5.11,0,0,1,0-1.34s16.95-64,89.53-73.71l2.65-.34s6,7.43-24.52,31.69c0,0,29,41.39,15.81,54h0C42.37,211,1.5,222.18,0,211.11Zm59.26-45c2.25-2.86,2.65-6.3.89-7.67s-5-.16-7.24,2.7-2.65,6.3-.89,7.67S57.06,169,59.31,166.1Z"/></g></g></g></svg>