<svg xmlns="http://www.w3.org/2000/svg" viewBox="0 0 1922.75 1079.49"><defs><style>.cls-1{fill:#fff;stroke:#000;stroke-miterlimit:10;}.cls-2{fill:#565555;}.cls-3{fill:#4d4d4d;}.cls-4{fill:#666;}.cls-5{fill:#333;}.cls-6{fill:gray;}</style></defs><title>bigBack</title><g id="Layer_2" data-name="Layer 2"><g id="Desktop"><g id="Main_Radar_Face" data-name="Main Radar Face"><g id="Wireframe"><polygon class="cls-1" points="41.54 40.1 41.54 1039.79 1882.27 1039.79 1882.27 40.1 1921.55 0.5 1.22 0.5 41.54 40.1"/><polygon class="cls-2" points="1.22 0.5 41.54 40.1 1882.27 40.1 1921.55 0.5 1.22 0.5"/><polyline class="cls-1" points="41.54 1039.79 1.55 1078.32 1.55 0.5"/><polygon class="cls-3" points="41.54 40.1 41.54 1039.79 1.55 1078.32 1.22 0.5 41.54 40.1"/><polygon class="cls-3" points="1921.55 0.5 1921.55 1078.63 1882.27 1039.79 1882.27 40.1 1921.55 0.5"/><polygon class="cls-2" points="1.55 1078.32 1921.55 1078.63 1882.27 1039.79 41.54 1039.79 1.55 1078.32"/></g><rect id="Back_Face_Panel" data-name="Back Face Panel" class="cls-4" x="41.54" y="40.11" width="1840.73" height="999.68"/><rect id="Left_Dip" data-name="Left Dip" class="cls-3" x="461.14" y="40.11" width="2.37" height="999.68"/><rect id="Right_Dip" data-name="Right Dip" class="cls-3" x="1460.72" y="40.11" width="2.37" height="999.68"/><g id="Bolts"><path class="cls-5" d="M96.59,54h-19a10,10,0,0,0-8.66,5l-9.52,16.5a10,10,0,0,0,0,10L68.88,102a10,10,0,0,0,8.66,5h19a10,10,0,0,0,8.66-5l9.52-16.5a10,10,0,0,0,0-10L105.26,59A10,10,0,0,0,96.59,54Z"/><path class="cls-3" d="M96.59,50h-19a10,10,0,0,0-8.66,5l-9.52,16.5a10,10,0,0,0,0,10L68.88,98a10,10,0,0,0,8.66,5h19a10,10,0,0,0,8.66-5l9.52-16.5a10,10,0,0,0,0-10L105.26,55A10,10,0,0,0,96.59,50Z"/><circle class="cls-6" cx="87.07" cy="76.54" r="18.19"/><circle class="cls-4" cx="87.07" cy="76.54" r="15.37"/><path class="cls-5" d="M429.32,54h-19a10,10,0,0,0-8.66,5l-9.52,16.5a10,10,0,0,0,0,10l9.52,16.5a10,10,0,0,0,8.66,5h19a10,10,0,0,0,8.66-5l9.52-16.5a10,10,0,0,0,0-10L438,59A10,10,0,0,0,429.32,54Z"/><path class="cls-3" d="M429.32,50h-19a10,10,0,0,0-8.66,5l-9.52,16.5a10,10,0,0,0,0,10L401.61,98a10,10,0,0,0,8.66,5h19A10,10,0,0,0,438,98l9.52-16.5a10,10,0,0,0,0-10L438,55A10,10,0,0,0,429.32,50Z"/><circle class="cls-6" cx="419.8" cy="76.54" r="18.19"/><circle class="cls-4" cx="419.8" cy="76.54" r="15.37"/><path class="cls-5" d="M520.44,54h-19a10,10,0,0,0-8.66,5l-9.52,16.5a10,10,0,0,0,0,10l9.52,16.5a10,10,0,0,0,8.66,5h19a10,10,0,0,0,8.66-5l9.52-16.5a10,10,0,0,0,0-10L529.1,59A10,10,0,0,0,520.44,54Z"/><path class="cls-3" d="M520.44,50h-19a10,10,0,0,0-8.66,5l-9.52,16.5a10,10,0,0,0,0,10L492.73,98a10,10,0,0,0,8.66,5h19a10,10,0,0,0,8.66-5l9.52-16.5a10,10,0,0,0,0-10L529.1,55A10,10,0,0,0,520.44,50Z"/><circle class="cls-6" cx="510.92" cy="76.54" r="18.19"/><circle class="cls-4" cx="510.92" cy="76.54" r="15.37"/><path class="cls-5" d="M95.83,978.29h-19a10,10,0,0,0-8.66,5l-9.52,16.5a10,10,0,0,0,0,10l9.52,16.5a10,10,0,0,0,8.66,5h19a10,10,0,0,0,8.66-5l9.52-16.5a10,10,0,0,0,0-10l-9.52-16.5A10,10,0,0,0,95.83,978.29Z"/><path class="cls-3" d="M95.83,974.29h-19a10,10,0,0,0-8.66,5l-9.52,16.5a10,10,0,0,0,0,10l9.52,16.5a10,10,0,0,0,8.66,5h19a10,10,0,0,0,8.66-5l9.52-16.5a10,10,0,0,0,0-10l-9.52-16.5A10,10,0,0,0,95.83,974.29Z"/><circle class="cls-6" cx="86.31" cy="1000.79" r="18.19"/><circle class="cls-4" cx="86.31" cy="1000.79" r="15.37"/><path class="cls-5" d="M431.29,977.29h-19a10,10,0,0,0-8.66,5l-9.52,16.5a10,10,0,0,0,0,10l9.52,16.5a10,10,0,0,0,8.66,5h19a10,10,0,0,0,8.66-5l9.52-16.5a10,10,0,0,0,0-10L440,982.29A10,10,0,0,0,431.29,977.29Z"/><path class="cls-3" d="M431.29,974.29h-19a10,10,0,0,0-8.66,5l-9.52,16.5a10,10,0,0,0,0,10l9.52,16.5a10,10,0,0,0,8.66,5h19a10,10,0,0,0,8.66-5l9.52-16.5a10,10,0,0,0,0-10L440,979.29A10,10,0,0,0,431.29,974.29Z"/><circle class="cls-6" cx="421.77" cy="1000.79" r="18.19"/><circle class="cls-4" cx="421.77" cy="1000.79" r="15.37"/><path class="cls-5" d="M514.65,978.29h-19a10,10,0,0,0-8.66,5l-9.52,16.5a10,10,0,0,0,0,10l9.52,16.5a10,10,0,0,0,8.66,5h19a10,10,0,0,0,8.66-5l9.52-16.5a10,10,0,0,0,0-10l-9.52-16.5A10,10,0,0,0,514.65,978.29Z"/><path class="cls-3" d="M514.65,974.29h-19a10,10,0,0,0-8.66,5l-9.52,16.5a10,10,0,0,0,0,10l9.52,16.5a10,10,0,0,0,8.66,5h19a10,10,0,0,0,8.66-5l9.52-16.5a10,10,0,0,0,0-10l-9.52-16.5A10,10,0,0,0,514.65,974.29Z"/><circle class="cls-6" cx="505.13" cy="1000.79" r="18.19"/><circle class="cls-4" cx="505.13" cy="1000.79" r="15.37"/><path class="cls-5" d="M1428.21,976.83h-19a10,10,0,0,0-8.66,5l-9.52,16.5a10,10,0,0,0,0,10l9.52,16.5a10,10,0,0,0,8.66,5h19a10,10,0,0,0,8.66-5l9.52-16.5a10,10,0,0,0,0-10l-9.52-16.5A10,10,0,0,0,1428.21,976.83Z"/><path class="cls-3" d="M1428.21,972.83h-19a10,10,0,0,0-8.66,5l-9.52,16.5a10,10,0,0,0,0,10l9.52,16.5a10,10,0,0,0,8.66,5h19a10,10,0,0,0,8.66-5l9.52-16.5a10,10,0,0,0,0-10l-9.52-16.5A10,10,0,0,0,1428.21,972.83Z"/><circle class="cls-6" cx="1418.68" cy="999.33" r="18.19"/><circle class="cls-4" cx="1418.68" cy="999.33" r="15.37"/><path class="cls-5" d="M1517.54,976.83h-19a10,10,0,0,0-8.66,5l-9.52,16.5a10,10,0,0,0,0,10l9.52,16.5a10,10,0,0,0,8.66,5h19a10,10,0,0,0,8.66-5l9.52-16.5a10,10,0,0,0,0-10l-9.52-16.5A10,10,0,0,0,1517.54,976.83Z"/><path class="cls-3" d="M1517.54,972.83h-19a10,10,0,0,0-8.66,5l-9.52,16.5a10,10,0,0,0,0,10l9.52,16.5a10,10,0,0,0,8.66,5h19a10,10,0,0,0,8.66-5l9.52-16.5a10,10,0,0,0,0-10l-9.52-16.5A10,10,0,0,0,1517.54,972.83Z"/><circle class="cls-6" cx="1508.02" cy="999.33" r="18.19"/><circle class="cls-4" cx="1508.02" cy="999.33" r="15.37"/><path class="cls-5" d="M1847.77,976.83h-19a10,10,0,0,0-8.66,5l-9.52,16.5a10,10,0,0,0,0,10l9.52,16.5a10,10,0,0,0,8.66,5h19a10,10,0,0,0,8.66-5l9.52-16.5a10,10,0,0,0,0-10l-9.52-16.5A10,10,0,0,0,1847.77,976.83Z"/><path class="cls-3" d="M1847.77,972.83h-19a10,10,0,0,0-8.66,5l-9.52,16.5a10,10,0,0,0,0,10l9.52,16.5a10,10,0,0,0,8.66,5h19a10,10,0,0,0,8.66-5l9.52-16.5a10,10,0,0,0,0-10l-9.52-16.5A10,10,0,0,0,1847.77,972.83Z"/><circle class="cls-6" cx="1838.24" cy="999.33" r="18.19"/><circle class="cls-4" cx="1838.24" cy="999.33" r="15.37"/><path class="cls-5" d="M1844.91,59.44h-19a10,10,0,0,0-8.66,5l-9.52,16.5a10,10,0,0,0,0,10l9.52,16.5a10,10,0,0,0,8.66,5h19a10,10,0,0,0,8.66-5l9.52-16.5a10,10,0,0,0,0-10l-9.52-16.5A10,10,0,0,0,1844.91,59.44Z"/><path class="cls-3" d="M1844.91,55.44h-19a10,10,0,0,0-8.66,5l-9.52,16.5a10,10,0,0,0,0,10l9.52,16.5a10,10,0,0,0,8.66,5h19a10,10,0,0,0,8.66-5l9.52-16.5a10,10,0,0,0,0-10l-9.52-16.5A10,10,0,0,0,1844.91,55.44Z"/><circle class="cls-6" cx="1835.38" cy="81.94" r="18.19"/><circle class="cls-4" cx="1835.38" cy="81.94" r="15.37"/><path class="cls-5" d="M1518.46,63.79h-19a10,10,0,0,0-8.66,5l-9.52,16.5a10,10,0,0,0,0,10l9.52,16.5a10,10,0,0,0,8.66,5h19a10,10,0,0,0,8.66-5l9.52-16.5a10,10,0,0,0,0-10l-9.52-16.5A10,10,0,0,0,1518.46,63.79Z"/><path class="cls-3" d="M1518.46,59.79h-19a10,10,0,0,0-8.66,5l-9.52,16.5a10,10,0,0,0,0,10l9.52,16.5a10,10,0,0,0,8.66,5h19a10,10,0,0,0,8.66-5l9.52-16.5a10,10,0,0,0,0-10l-9.52-16.5A10,10,0,0,0,1518.46,59.79Z"/><circle class="cls-6" cx="1508.93" cy="86.29" r="18.19"/><circle class="cls-4" cx="1508.93" cy="86.29" r="15.37"/><path class="cls-5" d="M1421.7,63.79h-19a10,10,0,0,0-8.66,5l-9.52,16.5a10,10,0,0,0,0,10l9.52,16.5a10,10,0,0,0,8.66,5h19a10,10,0,0,0,8.66-5l9.52-16.5a10,10,0,0,0,0-10l-9.52-16.5A10,10,0,0,0,1421.7,63.79Z"/><path class="cls-3" d="M1421.7,59.79h-19a10,10,0,0,0-8.66,5l-9.52,16.5a10,10,0,0,0,0,10l9.52,16.5a10,10,0,0,0,8.66,5h19a10,10,0,0,0,8.66-5l9.52-16.5a10,10,0,0,0,0-10l-9.52-16.5A10,10,0,0,0,1421.7,59.79Z"/><circle class="cls-6" cx="1412.17" cy="86.29" r="18.19"/><circle class="cls-4" cx="1412.17" cy="86.29" r="15.37"/></g></g></g></g></svg>