<svg xmlns="http://www.w3.org/2000/svg" viewBox="0 0 462.47 1077.91"><defs><style>.cls-1{fill:#565555;}.cls-2{fill:#fff;stroke:#000;stroke-miterlimit:10;}.cls-3{fill:#4d4d4d;}.cls-4{fill:#666;}.cls-5{fill:#333;}.cls-6{fill:gray;}</style></defs><title>Asset 17</title><g id="Layer_2" data-name="Layer 2"><g id="LeftPanel"><polygon class="cls-1" points="0.5 0.02 0.17 0.02 0.5 0.34 0.5 0.02"/><polygon class="cls-1" points="40.49 39.63 462.47 39.63 462.47 0.02 0.5 0.02 0.51 0.35 40.49 39.63"/><polygon class="cls-2" points="0.51 0.35 0.5 0.02 0.5 0.34 0.51 0.35"/><polygon class="cls-3" points="0.51 0.35 40.49 1039.31 40.49 39.63 0.51 0.35"/><polygon class="cls-3" points="0.17 0.02 0.5 1077.83 0.5 0.34 0.17 0.02"/><polygon class="cls-3" points="0.51 0.35 0.5 0.34 0.5 1077.83 40.49 1039.31 0.51 0.35"/><polygon class="cls-1" points="462.47 1039.31 40.49 1039.31 0.5 1077.83 462.47 1077.91 462.47 1039.31 462.47 1039.31"/><polygon class="cls-4" points="40.49 39.63 40.49 1039.31 462.47 1039.31 462.47 1039.31 462.47 39.63 40.49 39.63"/><path class="cls-5" d="M94,52.84H75a10,10,0,0,0-8.66,5L56.8,74.34a10,10,0,0,0,0,10l9.52,16.5a10,10,0,0,0,8.66,5H94a10,10,0,0,0,8.66-5l9.52-16.5a10,10,0,0,0,0-10l-9.52-16.5A10,10,0,0,0,94,52.84Z"/><path class="cls-3" d="M94,48.84H75a10,10,0,0,0-8.66,5L56.8,70.34a10,10,0,0,0,0,10l9.52,16.5a10,10,0,0,0,8.66,5H94a10,10,0,0,0,8.66-5l9.52-16.5a10,10,0,0,0,0-10l-9.52-16.5A10,10,0,0,0,94,48.84Z"/><circle class="cls-6" cx="84.51" cy="75.34" r="18.19"/><circle class="cls-4" cx="84.51" cy="75.34" r="15.37"/><path class="cls-5" d="M426.76,52.84h-19a10,10,0,0,0-8.66,5l-9.52,16.5a10,10,0,0,0,0,10l9.52,16.5a10,10,0,0,0,8.66,5h19a10,10,0,0,0,8.66-5l9.52-16.5a10,10,0,0,0,0-10l-9.52-16.5A10,10,0,0,0,426.76,52.84Z"/><path class="cls-3" d="M426.76,48.84h-19a10,10,0,0,0-8.66,5l-9.52,16.5a10,10,0,0,0,0,10L399,96.84a10,10,0,0,0,8.66,5h19a10,10,0,0,0,8.66-5l9.52-16.5a10,10,0,0,0,0-10l-9.52-16.5A10,10,0,0,0,426.76,48.84Z"/><circle class="cls-6" cx="417.24" cy="75.34" r="18.19"/><circle class="cls-4" cx="417.24" cy="75.34" r="15.37"/><path class="cls-5" d="M93.27,977.09h-19a10,10,0,0,0-8.66,5L56,998.58a10,10,0,0,0,0,10l9.52,16.5a10,10,0,0,0,8.66,5h19a10,10,0,0,0,8.66-5l9.52-16.5a10,10,0,0,0,0-10l-9.52-16.5A10,10,0,0,0,93.27,977.09Z"/><path class="cls-3" d="M93.27,973.09h-19a10,10,0,0,0-8.66,5L56,994.58a10,10,0,0,0,0,10l9.52,16.5a10,10,0,0,0,8.66,5h19a10,10,0,0,0,8.66-5l9.52-16.5a10,10,0,0,0,0-10l-9.52-16.5A10,10,0,0,0,93.27,973.09Z"/><circle class="cls-6" cx="83.75" cy="999.59" r="18.19"/><circle class="cls-4" cx="83.75" cy="999.59" r="15.37"/><path class="cls-5" d="M428.73,976.09h-19a10,10,0,0,0-8.66,5l-9.52,16.5a10,10,0,0,0,0,10l9.52,16.5a10,10,0,0,0,8.66,5h19a10,10,0,0,0,8.66-5l9.52-16.5a10,10,0,0,0,0-10l-9.52-16.5A10,10,0,0,0,428.73,976.09Z"/><path class="cls-3" d="M428.73,973.09h-19a10,10,0,0,0-8.66,5l-9.52,16.5a10,10,0,0,0,0,10l9.52,16.5a10,10,0,0,0,8.66,5h19a10,10,0,0,0,8.66-5l9.52-16.5a10,10,0,0,0,0-10l-9.52-16.5A10,10,0,0,0,428.73,973.09Z"/><circle class="cls-6" cx="419.21" cy="999.59" r="18.19"/><circle class="cls-4" cx="419.21" cy="999.59" r="15.37"/></g></g></svg>