<svg xmlns="http://www.w3.org/2000/svg" viewBox="0 0 297.62 596.62"><defs><style>.cls-1{fill:#4d4d4d;}.cls-2{fill:#565555;}.cls-3{fill:#666;}.cls-4{fill:gray;}</style></defs><title>Asset 20</title><g id="Layer_2" data-name="Layer 2"><g id="Desktop"><g id="Light_Panel" data-name="Light Panel"><rect class="cls-1" width="297.62" height="596.62" rx="90" ry="90"/><rect class="cls-2" x="4.12" width="289.06" height="590.06" rx="90" ry="90"/></g><g id="Screws"><path class="cls-3" d="M147.68,10H143a10,10,0,0,0-8.66,5L132,19.06a10,10,0,0,0,0,10l2.35,4.08a10,10,0,0,0,8.66,5h4.71a10,10,0,0,0,8.66-5l2.35-4.08a10,10,0,0,0,0-10L156.35,15A10,10,0,0,0,147.68,10Z"/><circle class="cls-4" cx="145.33" cy="24.06" r="11.97"/><circle class="cls-3" cx="145.33" cy="24.06" r="10.12"/><rect class="cls-1" x="143.92" y="17.33" width="2.82" height="13.47" rx="1.41" ry="1.41"/><rect class="cls-1" x="143.92" y="17.33" width="2.82" height="13.47" rx="1.41" ry="1.41" transform="translate(169.39 -121.27) rotate(90)"/></g></g></g></svg>