<svg xmlns="http://www.w3.org/2000/svg" viewBox="0 0 1922.75 1079.49"><defs><style>.cls-1{fill:#fff;stroke:#000;stroke-miterlimit:10;}.cls-2{fill:#565555;}.cls-3{fill:#4d4d4d;}.cls-4{fill:#666;}</style></defs><title>Asset 13</title><g id="Layer_2" data-name="Layer 2"><g id="Desktop"><g id="Main_Radar_Face" data-name="Main Radar Face"><g id="Wireframe"><polygon class="cls-1" points="41.54 40.1 41.54 1039.79 1882.27 1039.79 1882.27 40.1 1921.55 0.5 1.22 0.5 41.54 40.1"/><polygon class="cls-2" points="1.22 0.5 41.54 40.1 1882.27 40.1 1921.55 0.5 1.22 0.5"/><polyline class="cls-1" points="41.54 1039.79 1.55 1078.32 1.55 0.5"/><polygon class="cls-3" points="41.54 40.1 41.54 1039.79 1.55 1078.32 1.22 0.5 41.54 40.1"/><polygon class="cls-3" points="1921.55 0.5 1921.55 1078.63 1882.27 1039.79 1882.27 40.1 1921.55 0.5"/><polygon class="cls-2" points="1.55 1078.32 1921.55 1078.63 1882.27 1039.79 41.54 1039.79 1.55 1078.32"/></g><rect id="Back_Face_Panel" data-name="Back Face Panel" class="cls-4" x="41.54" y="40.11" width="1840.73" height="999.68"/></g></g></g></svg>