<svg xmlns="http://www.w3.org/2000/svg" viewBox="0 0 58.1 57"><defs><style>.cls-1{fill:#333;}.cls-2{fill:#4d4d4d;}.cls-3{fill:gray;}.cls-4{fill:#666;}</style></defs><title>Asset 14</title><g id="Layer_2" data-name="Layer 2"><g id="Desktop"><g id="Main_Radar_Face" data-name="Main Radar Face"><g id="Bolts"><path class="cls-1" d="M38.58,4h-19a10,10,0,0,0-8.66,5L1.34,25.5a10,10,0,0,0,0,10L10.86,52a10,10,0,0,0,8.66,5h19a10,10,0,0,0,8.66-5l9.52-16.5a10,10,0,0,0,0-10L47.24,9A10,10,0,0,0,38.58,4Z"/><path class="cls-2" d="M38.58,0h-19a10,10,0,0,0-8.66,5L1.34,21.5a10,10,0,0,0,0,10L10.86,48a10,10,0,0,0,8.66,5h19a10,10,0,0,0,8.66-5l9.52-16.5a10,10,0,0,0,0-10L47.24,5A10,10,0,0,0,38.58,0Z"/><circle class="cls-3" cx="29.05" cy="26.5" r="18.19"/><circle class="cls-4" cx="29.05" cy="26.5" r="15.37"/></g></g></g></g></svg>