<svg xmlns="http://www.w3.org/2000/svg" viewBox="0 0 29.42 28.16"><defs><style>.cls-1{fill:#666;}.cls-2{fill:gray;}.cls-3{fill:#4d4d4d;}</style></defs><title>Asset 28</title><g id="Layer_2" data-name="Layer 2"><g id="Desktop"><g id="Screws"><path class="cls-1" d="M17.06,0H12.36A10,10,0,0,0,3.69,5L1.34,9.08a10,10,0,0,0,0,10l2.35,4.08a10,10,0,0,0,8.66,5h4.71a10,10,0,0,0,8.66-5l2.35-4.08a10,10,0,0,0,0-10L25.73,5A10,10,0,0,0,17.06,0Z"/><circle class="cls-2" cx="14.71" cy="14.08" r="11.97"/><circle class="cls-1" cx="14.71" cy="14.08" r="10.12"/><rect class="cls-3" x="13.3" y="7.34" width="2.82" height="13.47" rx="1.41" ry="1.41"/><rect class="cls-3" x="13.3" y="7.34" width="2.82" height="13.47" rx="1.41" ry="1.41" transform="translate(28.79 -0.63) rotate(90)"/></g></g></g></svg>