<svg xmlns="http://www.w3.org/2000/svg" xmlns:xlink="http://www.w3.org/1999/xlink" viewBox="0 0 747.12 747.12"><defs><style>.cls-1{fill:url(#linear-gradient);}.cls-2{fill:url(#linear-gradient-2);}.cls-3{fill:url(#linear-gradient-3);}.cls-4{fill:url(#linear-gradient-4);}.cls-5{fill:url(#linear-gradient-5);}.cls-6{fill:url(#linear-gradient-6);}.cls-7{fill:url(#linear-gradient-7);}</style><linearGradient id="linear-gradient" x1="736.14" y1="284.04" x2="10.98" y2="463.08" gradientUnits="userSpaceOnUse"><stop offset="0" stop-color="#fff" stop-opacity="0"/><stop offset="0.24" stop-color="#fffdfd" stop-opacity="0.01"/><stop offset="0.38" stop-color="#fdf6f5" stop-opacity="0.05"/><stop offset="0.5" stop-color="#fbebe8" stop-opacity="0.11"/><stop offset="0.6" stop-color="#f8dbd5" stop-opacity="0.2"/><stop offset="0.69" stop-color="#f5c7bd" stop-opacity="0.32"/><stop offset="0.78" stop-color="#f0ad9f" stop-opacity="0.47"/><stop offset="0.87" stop-color="#eb8f7c" stop-opacity="0.64"/><stop offset="0.94" stop-color="#e46d54" stop-opacity="0.83"/><stop offset="1" stop-color="#df5032"/></linearGradient><linearGradient id="linear-gradient-2" x1="690.82" y1="295.23" x2="56.3" y2="451.89" gradientUnits="userSpaceOnUse"><stop offset="0" stop-color="#fff" stop-opacity="0"/><stop offset="0.23" stop-color="#fffefd" stop-opacity="0.01"/><stop offset="0.37" stop-color="#fff9f7" stop-opacity="0.04"/><stop offset="0.48" stop-color="#fef2ec" stop-opacity="0.1"/><stop offset="0.58" stop-color="#fde7dc" stop-opacity="0.19"/><stop offset="0.67" stop-color="#fcd9c8" stop-opacity="0.29"/><stop offset="0.76" stop-color="#fac7af" stop-opacity="0.43"/><stop offset="0.84" stop-color="#f9b391" stop-opacity="0.58"/><stop offset="0.92" stop-color="#f79b6f" stop-opacity="0.77"/><stop offset="0.99" stop-color="#f48149" stop-opacity="0.97"/><stop offset="1" stop-color="#f47d43"/></linearGradient><linearGradient id="linear-gradient-3" x1="645.49" y1="306.42" x2="101.62" y2="440.7" gradientUnits="userSpaceOnUse"><stop offset="0" stop-color="#fff" stop-opacity="0"/><stop offset="0.23" stop-color="#fffffc" stop-opacity="0.01"/><stop offset="0.36" stop-color="#fffdf4" stop-opacity="0.04"/><stop offset="0.47" stop-color="#fffbe6" stop-opacity="0.1"/><stop offset="0.57" stop-color="#fff8d1" stop-opacity="0.18"/><stop offset="0.67" stop-color="#fff3b7" stop-opacity="0.28"/><stop offset="0.75" stop-color="#ffee97" stop-opacity="0.41"/><stop offset="0.83" stop-color="#ffe870" stop-opacity="0.56"/><stop offset="0.91" stop-color="#ffe144" stop-opacity="0.74"/><stop offset="0.98" stop-color="#ffd912" stop-opacity="0.93"/><stop offset="1" stop-color="#ffd600"/></linearGradient><linearGradient id="linear-gradient-4" x1="600.17" y1="317.61" x2="146.94" y2="429.51" gradientUnits="userSpaceOnUse"><stop offset="0" stop-color="#fff" stop-opacity="0"/><stop offset="0.27" stop-color="#fcfdfd" stop-opacity="0.02"/><stop offset="0.43" stop-color="#f0f7f5" stop-opacity="0.07"/><stop offset="0.57" stop-color="#ddece8" stop-opacity="0.17"/><stop offset="0.69" stop-color="#c2ded5" stop-opacity="0.31"/><stop offset="0.79" stop-color="#9ecabd" stop-opacity="0.49"/><stop offset="0.89" stop-color="#73b39f" stop-opacity="0.71"/><stop offset="0.99" stop-color="#40977c" stop-opacity="0.96"/><stop offset="1" stop-color="#399377"/></linearGradient><linearGradient id="linear-gradient-5" x1="554.85" y1="328.8" x2="192.27" y2="418.32" gradientUnits="userSpaceOnUse"><stop offset="0" stop-color="#fff" stop-opacity="0"/><stop offset="0.25" stop-color="#fcfdfe" stop-opacity="0.01"/><stop offset="0.39" stop-color="#f1f8fc" stop-opacity="0.06"/><stop offset="0.52" stop-color="#e0eff8" stop-opacity="0.13"/><stop offset="0.62" stop-color="#c7e2f2" stop-opacity="0.23"/><stop offset="0.72" stop-color="#a6d1ea" stop-opacity="0.36"/><stop offset="0.81" stop-color="#7ebce1" stop-opacity="0.53"/><stop offset="0.9" stop-color="#4fa3d6" stop-opacity="0.72"/><stop offset="0.98" stop-color="#1987c9" stop-opacity="0.94"/><stop offset="1" stop-color="#0a7fc6"/></linearGradient><linearGradient id="linear-gradient-6" x1="509.53" y1="339.99" x2="237.59" y2="407.13" gradientUnits="userSpaceOnUse"><stop offset="0" stop-color="#fff" stop-opacity="0"/><stop offset="0.29" stop-color="#fafbfc" stop-opacity="0.02"/><stop offset="0.46" stop-color="#eaeef3" stop-opacity="0.09"/><stop offset="0.6" stop-color="#cfd8e3" stop-opacity="0.21"/><stop offset="0.73" stop-color="#a8b9cd" stop-opacity="0.38"/><stop offset="0.85" stop-color="#7591b0" stop-opacity="0.59"/><stop offset="0.95" stop-color="#38608c" stop-opacity="0.86"/><stop offset="1" stop-color="#174579"/></linearGradient><linearGradient id="linear-gradient-7" x1="464.2" y1="351.18" x2="282.91" y2="395.94" gradientUnits="userSpaceOnUse"><stop offset="0" stop-color="#fff" stop-opacity="0"/><stop offset="0.26" stop-color="#fefdfe" stop-opacity="0.01"/><stop offset="0.41" stop-color="#faf6fa" stop-opacity="0.06"/><stop offset="0.54" stop-color="#f3eaf3" stop-opacity="0.14"/><stop offset="0.65" stop-color="#eadaea" stop-opacity="0.26"/><stop offset="0.75" stop-color="#dec4de" stop-opacity="0.41"/><stop offset="0.85" stop-color="#cfaacf" stop-opacity="0.6"/><stop offset="0.93" stop-color="#be8bbe" stop-opacity="0.81"/><stop offset="1" stop-color="#af70af"/></linearGradient></defs><title>Asset 30</title><g id="Layer_2" data-name="Layer 2"><g id="Desktop"><g id="View_Screen" data-name="View Screen"><g id="radarScanner"><path class="cls-1" d="M373.87,60A310.88,310.88,0,0,1,475.73,77.15,312.79,312.79,0,0,1,677.89,298.42,313.16,313.16,0,0,1,448.7,677.89a315,315,0,0,1-75.43,9.23A311,311,0,0,1,271.4,670,312.78,312.78,0,0,1,69.23,448.7,313.16,313.16,0,0,1,298.42,69.23,315.16,315.16,0,0,1,373.86,60h0m0-60A374.54,374.54,0,0,0,284,11C83.79,60.42-38.47,262.83,11,463.08c42,170.19,194.52,284,362.29,284a374.43,374.43,0,0,0,89.81-11C663.33,686.7,785.58,484.29,736.14,284,694.12,113.84,541.62,0,373.85,0Z"/><path class="cls-2" d="M373.83,106.69a264.54,264.54,0,0,1,86.67,14.6A266.2,266.2,0,0,1,632.57,309.61a266.51,266.51,0,0,1-195.06,323,268.15,268.15,0,0,1-64.2,7.85,264.61,264.61,0,0,1-86.68-14.6A266.19,266.19,0,0,1,114.55,437.51a266.51,266.51,0,0,1,195.06-323,268.25,268.25,0,0,1,64.22-7.85h0m0-60a327.72,327.72,0,0,0-78.58,9.6C120,99.56,13,276.67,56.3,451.89c36.77,148.92,170.2,248.53,317,248.53a327.63,327.63,0,0,0,78.58-9.6c175.22-43.26,282.19-220.37,238.93-395.59C654,146.31,520.62,46.68,373.81,46.69Z"/><path class="cls-3" d="M373.8,153.39a218.2,218.2,0,0,1,71.49,12,219.6,219.6,0,0,1,142,155.37A220.1,220.1,0,0,1,426.32,587.24a221.26,221.26,0,0,1-53,6.48,218.25,218.25,0,0,1-71.5-12,219.59,219.59,0,0,1-142-155.37A220.1,220.1,0,0,1,320.8,159.87a221.35,221.35,0,0,1,53-6.48h0m0-60a280.91,280.91,0,0,0-67.36,8.23C156.23,138.7,64.54,290.51,101.62,440.7c31.52,127.65,145.89,213,271.72,213a280.83,280.83,0,0,0,67.36-8.23c150.19-37.08,241.88-188.89,204.8-339.08-31.52-127.65-145.89-213-271.72-213Z"/><path class="cls-4" d="M373.76,200.08A173.19,173.19,0,0,1,541.92,332,173.42,173.42,0,0,1,415.13,541.92a172.83,172.83,0,0,1-147.75-31.23A173.43,173.43,0,0,1,332,205.19a174.46,174.46,0,0,1,41.76-5.11h0m0-60a234.09,234.09,0,0,0-56.13,6.86C192.45,177.84,116,304.35,146.94,429.51,173.21,535.88,268.52,607,373.38,607a234,234,0,0,0,56.13-6.86c125.16-30.9,201.56-157.41,170.66-282.56C573.91,211.24,478.6,140.08,373.74,140.08Z"/><path class="cls-5" d="M373.72,246.78a127.35,127.35,0,0,1,77.45,26.57A126.74,126.74,0,0,1,403.94,496.6a126.27,126.27,0,0,1-108-22.83,126.74,126.74,0,0,1,47.23-223.25,127.53,127.53,0,0,1,30.53-3.74h0m0-60a187.27,187.27,0,0,0-44.91,5.49C228.67,217,167.55,318.19,192.27,418.32A186.53,186.53,0,0,0,418.32,554.85C518.44,530.13,579.57,428.92,554.85,328.8a186.8,186.8,0,0,0-181.15-142Z"/><path class="cls-6" d="M373.68,293.47a80.43,80.43,0,0,1,48.91,16.8,79.16,79.16,0,0,1,28.69,44.1,80,80,0,0,1-126.75,82.48,79.16,79.16,0,0,1-28.69-44.1,80.17,80.17,0,0,1,77.83-99.27h0m0-60A140.07,140.07,0,1,0,509.53,340,140.45,140.45,0,0,0,373.67,233.47Z"/><path class="cls-7" d="M373.64,340.17A33.38,33.38,0,0,1,381.56,406a33.71,33.71,0,0,1-8.07,1,33.38,33.38,0,0,1-7.93-65.78,33.74,33.74,0,0,1,8.07-1h0m0-60a93.38,93.38,0,1,0,90.57,71,93.63,93.63,0,0,0-90.57-71Z"/></g></g></g></g></svg>