<svg xmlns="http://www.w3.org/2000/svg" viewBox="0 0 800 800"><defs><style>.cls-1{fill:#174579;}.cls-2{fill:#399377;}.cls-3{fill:#f47d43;}.cls-4{fill:#df5032;}.cls-5{fill:#0a7fc6;}.cls-6{fill:#af70af;}.cls-7{fill:#ffd600;}</style></defs><title>Asset 1</title><g id="Layer_2" data-name="Layer 2"><g id="Layer_1-2" data-name="Layer 1"><g id="_Group_" data-name="&lt;Group&gt;"><path class="cls-1" d="M404.87,250.21a150,150,0,1,1-150,150A150,150,0,0,1,404.87,250.21Zm-100,150a100,100,0,1,0,100-100A100,100,0,0,0,304.87,400.21Z"/><path class="cls-2" d="M404.87,150.21c138.08,0,250,111.93,250,250s-111.92,250-250,250-250-111.93-250-250S266.8,150.21,404.87,150.21Zm-200,250c0,110.46,89.55,200,200,200s200-89.54,200-200-89.54-200-200-200S204.87,289.75,204.87,400.21Z"/><path class="cls-3" d="M404.87,50.21c193.3,0,350,156.7,350,350s-156.7,350-350,350-350-156.7-350-350S211.57,50.21,404.87,50.21Zm300,350c0-165.69-134.31-300-300-300s-300,134.31-300,300,134.32,300,300,300S704.87,565.9,704.87,400.21Z"/><path class="cls-4" d="M400,0C620.92,0,800,179.08,800,400S620.92,800,400,800,0,620.91,0,400,179.09,0,400,0ZM754.87,400.21c0-193.3-156.7-350-350-350s-350,156.7-350,350,156.7,350,350,350S754.87,593.51,754.87,400.21Z"/><path class="cls-5" d="M404.87,200.21c110.46,0,200,89.54,200,200s-89.54,200-200,200-200-89.54-200-200S294.42,200.21,404.87,200.21Zm-150,200a150,150,0,1,0,150-150A150,150,0,0,0,254.87,400.21Z"/><path class="cls-6" d="M404.87,300.21a100,100,0,1,1-100,100A100,100,0,0,1,404.87,300.21Zm-50,100a50,50,0,1,0,50-50A50,50,0,0,0,354.87,400.21Z"/><path class="cls-7" d="M154.87,400.21c0,138.07,111.93,250,250,250s250-111.93,250-250-111.92-250-250-250S154.87,262.14,154.87,400.21Zm250-300c165.69,0,300,134.31,300,300s-134.31,300-300,300-300-134.31-300-300S239.19,100.21,404.87,100.21Z"/></g></g></g></svg>