<svg xmlns="http://www.w3.org/2000/svg" xmlns:xlink="http://www.w3.org/1999/xlink" viewBox="0 0 960 960"><defs><style>.cls-1{fill:#565656;}.cls-2{fill:#4d4d4d;}.cls-3{fill:#666;}.cls-4{fill:gray;}.cls-5{fill:url(#radial-gradient);}.cls-6{fill:#333;}</style><radialGradient id="radial-gradient" cx="480.25" cy="480.25" r="465" gradientUnits="userSpaceOnUse"><stop offset="0" stop-color="gray"/><stop offset="0.44" stop-color="#7e7e7e"/><stop offset="0.65" stop-color="#767676"/><stop offset="0.81" stop-color="#696969"/><stop offset="0.94" stop-color="#575757"/><stop offset="1" stop-color="#4d4d4d"/></radialGradient></defs><title>Asset 33</title><g id="Layer_2" data-name="Layer 2"><g id="Layer_35" data-name="Layer 35"><path class="cls-1" d="M960.25,220.77v519C960.25,861,861,960.25,739.73,960.25h-519C99.48,960.25.25,861,.25,739.73v-519C.25,99.48,99.48.25,220.76.25h519C861,.25,960.25,99.48,960.25,220.77ZM862.67,86.54a10,10,0,0,0-1.13-7L852,63a10,10,0,0,0-8.66-5H824.31a10,10,0,0,0-8.67,5l-9.52,16.5a10,10,0,0,0-1.13,7,10,10,0,0,0,1.13,7l9.52,16.5a10,10,0,0,0,8.67,5h19.05a10,10,0,0,0,8.66-5l9.52-16.5A10,10,0,0,0,862.67,86.54Zm0,794.83a10,10,0,0,0-1.13-7L852,857.87a10,10,0,0,0-8.66-5H824.31a10,10,0,0,0-8.67,5l-9.52,16.49a22.28,22.28,0,0,0,0,14l9.52,16.49a10,10,0,0,0,8.67,5h19.05a10,10,0,0,0,8.66-5l9.52-16.49A10,10,0,0,0,862.67,881.37Zm82.58-401.12c0-256.81-208.19-465-465-465s-465,208.19-465,465,208.19,465,465,465S945.25,737.06,945.25,480.25ZM167.91,86.54a10,10,0,0,0-1.13-7L157.26,63a10,10,0,0,0-8.67-5h-19a10,10,0,0,0-8.67,5l-9.52,16.5a10,10,0,0,0-1.13,7,10,10,0,0,0,1.13,7l9.52,16.5a10,10,0,0,0,8.67,5h19a10,10,0,0,0,8.67-5l9.52-16.5A10,10,0,0,0,167.91,86.54Zm0,796.83a10,10,0,0,0-1.13-7l-9.52-16.49a10,10,0,0,0-8.67-5h-19a10,10,0,0,0-8.67,5l-9.52,16.49a22.28,22.28,0,0,0,0,14l9.52,16.49a10,10,0,0,0,8.67,5h19a10,10,0,0,0,8.67-5l9.52-16.49A10,10,0,0,0,167.91,883.37Z" transform="translate(-0.25 -0.25)"/><path class="cls-2" d="M861.54,83.54a10.12,10.12,0,0,1,1.13,3,10.12,10.12,0,0,1-1.13,3L852,106a10,10,0,0,1-8.66,5H824.31a10,10,0,0,1-8.67-5l-9.52-16.5a10.12,10.12,0,0,1-1.13-3,10.12,10.12,0,0,1,1.13-3L815.64,67a10,10,0,0,1,8.67-5h19.05A10,10,0,0,1,852,67Zm-9.52,1a18.19,18.19,0,1,0-18.19,18.19A18.19,18.19,0,0,0,852,84.54Z" transform="translate(-0.25 -0.25)"/><path class="cls-2" d="M861.54,878.36a9.66,9.66,0,0,1,1.13,3,10.12,10.12,0,0,1-1.13,3L852,900.86a10,10,0,0,1-8.66,5H824.31a10,10,0,0,1-8.67-5l-9.52-16.49a10.12,10.12,0,0,1-1.13-3,9.66,9.66,0,0,1,1.13-3l9.52-16.49a10,10,0,0,1,8.67-5h19.05a10,10,0,0,1,8.66,5Zm-9.52,1a18.19,18.19,0,1,0-18.19,18.18A18.18,18.18,0,0,0,852,879.37Z" transform="translate(-0.25 -0.25)"/><circle class="cls-3" cx="833.58" cy="84.29" r="15.38"/><path class="cls-3" d="M833.83,864a15.38,15.38,0,1,1-15.37,15.38A15.38,15.38,0,0,1,833.83,864Z" transform="translate(-0.25 -0.25)"/><path class="cls-4" d="M849.21,84.54a15.38,15.38,0,1,0-15.38,15.38A15.38,15.38,0,0,0,849.21,84.54Zm2.81,0a18.19,18.19,0,1,1-18.19-18.19A18.18,18.18,0,0,1,852,84.54Z" transform="translate(-0.25 -0.25)"/><path class="cls-4" d="M815.64,879.37a18.19,18.19,0,1,1,18.19,18.18A18.19,18.19,0,0,1,815.64,879.37Zm33.57,0a15.38,15.38,0,1,0-15.38,15.37A15.38,15.38,0,0,0,849.21,879.37Z" transform="translate(-0.25 -0.25)"/><path class="cls-2" d="M852,63l9.52,16.5a10,10,0,0,1,1.13,7,10.12,10.12,0,0,0-1.13-3L852,67a10,10,0,0,0-8.66-5H824.31a10,10,0,0,0-8.67,5l-9.52,16.5a10.12,10.12,0,0,0-1.13,3,10,10,0,0,1,1.13-7L815.64,63a10,10,0,0,1,8.67-5h19.05A10,10,0,0,1,852,63Z" transform="translate(-0.25 -0.25)"/><path class="cls-2" d="M852,857.87l9.52,16.49a10,10,0,0,1,1.13,7,9.66,9.66,0,0,0-1.13-3L852,861.87a10,10,0,0,0-8.66-5H824.31a10,10,0,0,0-8.67,5l-9.52,16.49a9.66,9.66,0,0,0-1.13,3,10,10,0,0,1,1.13-7l9.52-16.49a10,10,0,0,1,8.67-5h19.05A10,10,0,0,1,852,857.87Z" transform="translate(-0.25 -0.25)"/><path class="cls-5" d="M480.25,15.25c256.81,0,465,208.19,465,465s-208.19,465-465,465-465-208.19-465-465S223.44,15.25,480.25,15.25ZM898.69,483.11c0-230.73-187-417.76-417.76-417.76S63.17,252.38,63.17,483.11s187,417.75,417.76,417.75S898.69,713.83,898.69,483.11Z" transform="translate(-0.25 -0.25)"/><path class="cls-6" d="M852,106l9.52-16.5a10.12,10.12,0,0,0,1.13-3,10,10,0,0,1-1.13,7L852,110a10,10,0,0,1-8.66,5H824.31a10,10,0,0,1-8.67-5l-9.52-16.5a10,10,0,0,1-1.13-7,10.12,10.12,0,0,0,1.13,3l9.52,16.5a10,10,0,0,0,8.67,5h19.05A10,10,0,0,0,852,106Z" transform="translate(-0.25 -0.25)"/><path class="cls-6" d="M852,900.86l9.52-16.49a10.12,10.12,0,0,0,1.13-3,10,10,0,0,1-1.13,7L852,904.86a10,10,0,0,1-8.66,5H824.31a10,10,0,0,1-8.67-5l-9.52-16.49a10,10,0,0,1-1.13-7,10.12,10.12,0,0,0,1.13,3l9.52,16.49a10,10,0,0,0,8.67,5h19.05A10,10,0,0,0,852,900.86Z" transform="translate(-0.25 -0.25)"/><path class="cls-2" d="M166.78,83.54a10.12,10.12,0,0,1,1.13,3,10.12,10.12,0,0,1-1.13,3L157.26,106a10,10,0,0,1-8.67,5h-19a10,10,0,0,1-8.67-5l-9.52-16.5a10.12,10.12,0,0,1-1.13-3,10.12,10.12,0,0,1,1.13-3L120.88,67a10,10,0,0,1,8.67-5h19a10,10,0,0,1,8.67,5Zm-9.52,1a18.19,18.19,0,1,0-18.19,18.19A18.2,18.2,0,0,0,157.26,84.54Z" transform="translate(-0.25 -0.25)"/><path class="cls-2" d="M166.78,880.36a9.66,9.66,0,0,1,1.13,3,10.12,10.12,0,0,1-1.13,3l-9.52,16.49a10,10,0,0,1-8.67,5h-19a10,10,0,0,1-8.67-5l-9.52-16.49a10.12,10.12,0,0,1-1.13-3,9.66,9.66,0,0,1,1.13-3l9.52-16.49a10,10,0,0,1,8.67-5h19a10,10,0,0,1,8.67,5Zm-9.52,1a18.19,18.19,0,1,0-18.19,18.18A18.19,18.19,0,0,0,157.26,881.37Z" transform="translate(-0.25 -0.25)"/><ellipse class="cls-3" cx="138.82" cy="84.29" rx="15.37" ry="15.38"/><path class="cls-3" d="M139.07,866a15.38,15.38,0,1,1-15.37,15.38A15.37,15.37,0,0,1,139.07,866Z" transform="translate(-0.25 -0.25)"/><path class="cls-4" d="M154.44,84.54a15.37,15.37,0,1,0-15.37,15.38A15.37,15.37,0,0,0,154.44,84.54Zm2.82,0a18.19,18.19,0,1,1-18.19-18.19A18.19,18.19,0,0,1,157.26,84.54Z" transform="translate(-0.25 -0.25)"/><path class="cls-4" d="M139.07,863.18a18.19,18.19,0,1,1-18.19,18.19A18.19,18.19,0,0,1,139.07,863.18Zm15.37,18.19a15.37,15.37,0,1,0-15.37,15.37A15.37,15.37,0,0,0,154.44,881.37Z" transform="translate(-0.25 -0.25)"/><path class="cls-2" d="M157.26,67a10,10,0,0,0-8.67-5h-19a10,10,0,0,0-8.67,5l-9.52,16.5a10.12,10.12,0,0,0-1.13,3,10,10,0,0,1,1.13-7L120.88,63a10,10,0,0,1,8.67-5h19a10,10,0,0,1,8.67,5l9.52,16.5a10,10,0,0,1,1.13,7,10.12,10.12,0,0,0-1.13-3Z" transform="translate(-0.25 -0.25)"/><path class="cls-2" d="M157.26,863.87a10,10,0,0,0-8.67-5h-19a10,10,0,0,0-8.67,5l-9.52,16.49a9.66,9.66,0,0,0-1.13,3,10,10,0,0,1,1.13-7l9.52-16.49a10,10,0,0,1,8.67-5h19a10,10,0,0,1,8.67,5l9.52,16.49a10,10,0,0,1,1.13,7,9.66,9.66,0,0,0-1.13-3Z" transform="translate(-0.25 -0.25)"/><path class="cls-6" d="M166.78,93.54,157.26,110a10,10,0,0,1-8.67,5h-19a10,10,0,0,1-8.67-5l-9.52-16.5a10,10,0,0,1-1.13-7,10.12,10.12,0,0,0,1.13,3l9.52,16.5a10,10,0,0,0,8.67,5h19a10,10,0,0,0,8.67-5l9.52-16.5a10.12,10.12,0,0,0,1.13-3A10,10,0,0,1,166.78,93.54Z" transform="translate(-0.25 -0.25)"/><path class="cls-6" d="M148.59,907.87a10,10,0,0,0,8.67-5l9.52-16.49a10.12,10.12,0,0,0,1.13-3,10,10,0,0,1-1.13,7l-9.52,16.49a10,10,0,0,1-8.67,5h-19a10,10,0,0,1-8.67-5l-9.52-16.49a10,10,0,0,1-1.13-7,10.12,10.12,0,0,0,1.13,3l9.52,16.49a10,10,0,0,0,8.67,5Z" transform="translate(-0.25 -0.25)"/></g></g></svg>