<svg xmlns="http://www.w3.org/2000/svg" xmlns:xlink="http://www.w3.org/1999/xlink" viewBox="0 0 960 960"><defs><style>.cls-1{fill:#565656;}.cls-2{fill:url(#radial-gradient);}.cls-3{fill:#333;}.cls-4{fill:#4d4d4d;}.cls-5{fill:gray;}.cls-6{fill:#666;}</style><radialGradient id="radial-gradient" cx="480" cy="480" r="465" gradientUnits="userSpaceOnUse"><stop offset="0" stop-color="gray"/><stop offset="0.44" stop-color="#7e7e7e"/><stop offset="0.65" stop-color="#767676"/><stop offset="0.81" stop-color="#696969"/><stop offset="0.94" stop-color="#575757"/><stop offset="1" stop-color="#4d4d4d"/></radialGradient></defs><title>Asset 32</title><g id="Layer_2" data-name="Layer 2"><g id="Desktop"><g id="View_Screen" data-name="View Screen"><rect id="Main_Screen_Panel" data-name="Main Screen Panel" class="cls-1" width="960" height="960" rx="220.52" ry="220.52"/><circle id="Perspective_Shadow_Ellipse" data-name="Perspective/Shadow Ellipse" class="cls-2" cx="480" cy="480" r="465"/><path class="cls-3" d="M148.35,61.79h-19a10,10,0,0,0-8.66,5l-9.52,16.5a10,10,0,0,0,0,10l9.52,16.5a10,10,0,0,0,8.66,5h19a10,10,0,0,0,8.66-5l9.52-16.5a10,10,0,0,0,0-10L157,66.79A10,10,0,0,0,148.35,61.79Z"/><path class="cls-4" d="M148.35,57.79h-19a10,10,0,0,0-8.66,5l-9.52,16.5a10,10,0,0,0,0,10l9.52,16.5a10,10,0,0,0,8.66,5h19a10,10,0,0,0,8.66-5l9.52-16.5a10,10,0,0,0,0-10L157,62.79A10,10,0,0,0,148.35,57.79Z"/><circle class="cls-5" cx="138.82" cy="84.29" r="18.19"/><circle class="cls-6" cx="138.82" cy="84.29" r="15.37"/><path class="cls-3" d="M843.11,61.79h-19a10,10,0,0,0-8.66,5l-9.52,16.5a10,10,0,0,0,0,10l9.52,16.5a10,10,0,0,0,8.66,5h19a10,10,0,0,0,8.66-5l9.52-16.5a10,10,0,0,0,0-10l-9.52-16.5A10,10,0,0,0,843.11,61.79Z"/><path class="cls-4" d="M843.11,57.79h-19a10,10,0,0,0-8.66,5l-9.52,16.5a10,10,0,0,0,0,10l9.52,16.5a10,10,0,0,0,8.66,5h19a10,10,0,0,0,8.66-5l9.52-16.5a10,10,0,0,0,0-10l-9.52-16.5A10,10,0,0,0,843.11,57.79Z"/><circle class="cls-5" cx="833.58" cy="84.29" r="18.19"/><circle class="cls-6" cx="833.58" cy="84.29" r="15.37"/><path class="cls-3" d="M843.11,856.62h-19a10,10,0,0,0-8.66,5l-9.52,16.5a10,10,0,0,0,0,10l9.52,16.5a10,10,0,0,0,8.66,5h19a10,10,0,0,0,8.66-5l9.52-16.5a10,10,0,0,0,0-10l-9.52-16.5A10,10,0,0,0,843.11,856.62Z"/><path class="cls-4" d="M843.11,852.62h-19a10,10,0,0,0-8.66,5l-9.52,16.5a10,10,0,0,0,0,10l9.52,16.5a10,10,0,0,0,8.66,5h19a10,10,0,0,0,8.66-5l9.52-16.5a10,10,0,0,0,0-10l-9.52-16.5A10,10,0,0,0,843.11,852.62Z"/><circle class="cls-5" cx="833.58" cy="879.12" r="18.19"/><circle class="cls-6" cx="833.58" cy="879.12" r="15.37"/><path class="cls-3" d="M148.35,858.62h-19a10,10,0,0,0-8.66,5l-9.52,16.5a10,10,0,0,0,0,10l9.52,16.5a10,10,0,0,0,8.66,5h19a10,10,0,0,0,8.66-5l9.52-16.5a10,10,0,0,0,0-10L157,863.62A10,10,0,0,0,148.35,858.62Z"/><path class="cls-4" d="M148.35,854.62h-19a10,10,0,0,0-8.66,5l-9.52,16.5a10,10,0,0,0,0,10l9.52,16.5a10,10,0,0,0,8.66,5h19a10,10,0,0,0,8.66-5l9.52-16.5a10,10,0,0,0,0-10L157,859.62A10,10,0,0,0,148.35,854.62Z"/><circle class="cls-5" cx="138.82" cy="881.12" r="18.19"/><circle class="cls-6" cx="138.82" cy="881.12" r="15.37"/></g></g></g></svg>