<svg xmlns="http://www.w3.org/2000/svg" viewBox="0 0 385.31 987.03"><defs><style>.cls-1{fill:#e5dfcf;}.cls-14,.cls-2{fill:#f9f4e4;}.cls-3{fill:#1a1a1a;}.cls-4{fill:#333;}.cls-5{fill:#ccc;}.cls-22,.cls-6{fill:none;}.cls-6{stroke:#ccc;}.cls-14,.cls-22,.cls-6{stroke-miterlimit:10;}.cls-14,.cls-6{stroke-width:2px;}.cls-7{fill:#a8945d;}.cls-8{fill:#a38f58;}.cls-9{fill:#bca866;}.cls-10{fill:#232323;}.cls-11{fill:#d5a940;}.cls-12{fill:#eace76;}.cls-13{fill:#999;}.cls-14{stroke:#c1bcb2;}.cls-15{fill:#4d4d4d;}.cls-16{fill:#666;}.cls-17{fill:gray;}.cls-18{fill:#f7e6a4;}.cls-19{fill:#c9961a;}.cls-20{fill:#e0cda6;}.cls-21{fill:#f2e3c2;}.cls-22{stroke:#e6e6e6;stroke-linecap:round;stroke-width:0.5px;}</style></defs><title>1967GibsonSGCustom</title><g id="Layer_2" data-name="Layer 2"><g id="_1967_Gibson_SG_Custom_white_rosewood_" data-name="1967 Gibson SG Custom (white/rosewood)"><g id="Back"><path class="cls-1" d="M321.66,713.62c0-49.67,61.39-97.73-22.34-181.35-1.78-1.78-8.77-3-9.87,2.39-2.63,13-4.3,39.72-28.84,39.72-30.07,0-37.76-33.29-37.76-33.29l-24.65,5.59V530H168.85S164,558.8,132.16,558.8c-26,0-30.62-26.63-33.4-40.11-1.16-5.62-5.67-5.46-7.56-3.61C2.6,601.91,67.56,651.82,67.56,703.4,67.56,763.08,1,775.95,1,869.81,1,979.54,198.2,979.47,198.2,979.47s186.36.07,186.36-105.6C384.56,783.48,321.66,771.1,321.66,713.62Z"/></g><g id="Front"><path class="cls-2" d="M318.15,712.33c0-49.35,60.91-97.1-22.17-180.18-1.77-1.77-6-1.92-7.09,3.45-2.61,12.9-7,38.38-31.32,38.38-29.83,0-34.4-27.52-34.4-27.52H195.65V529.93H166.53s-4.84,28.58-36.4,28.58c-25.76,0-30.38-26.45-33.14-39.85-1.15-5.58-5.63-5.42-7.5-3.59C1.59,601.34,66,650.93,66,702.18c0,59.3-66,72.08-66,165.34,0,109,195.65,109,195.65,109s184.9.07,184.9-104.92C380.56,781.75,318.15,769.44,318.15,712.33Z"/></g><polygon id="Fretboard" class="cls-3" points="212.44 113.14 174.19 113.14 164.25 560.86 225.08 560.86 212.44 113.14"/><polygon id="Fretboard-2" data-name="Fretboard" class="cls-4" points="210.44 113.14 174.19 113.14 161.24 560.86 223.39 560.86 210.44 113.14"/><rect class="cls-5" x="174.04" y="527.82" width="39.79" height="6.19" rx="1" ry="1"/><rect class="cls-5" x="174.04" y="502.55" width="39.79" height="6.19" rx="1" ry="1"/><rect class="cls-5" x="174.04" y="474.82" width="39.79" height="6.19" rx="1" ry="1"/><rect class="cls-5" x="174.04" y="444.81" width="39.79" height="6.19" rx="1" ry="1"/><rect class="cls-5" x="173.29" y="390.94" width="38.06" height="11.01" rx="1" ry="1"/><rect class="cls-5" x="176.03" y="330.22" width="32.59" height="12.83" rx="1" ry="1"/><rect class="cls-5" x="177.17" y="283.7" width="30.29" height="15.75" rx="1" ry="1"/><rect class="cls-5" x="179.23" y="234.18" width="26.17" height="17.47" rx="1" ry="1"/><rect class="cls-5" x="181.16" y="178.74" width="22.32" height="20.98" rx="1" ry="1"/><rect class="cls-5" x="182.18" y="117.67" width="20.27" height="22.66" rx="1" ry="1"/><line class="cls-6" x1="161.93" y1="537.12" x2="222.71" y2="537.12"/><line class="cls-6" x1="162.3" y1="524.48" x2="222.34" y2="524.48"/><line class="cls-6" x1="162.66" y1="512.03" x2="221.98" y2="512.03"/><line class="cls-6" x1="163.03" y1="499.18" x2="221.61" y2="499.18"/><line class="cls-6" x1="163.44" y1="485.07" x2="221.2" y2="485.07"/><line class="cls-6" x1="163.85" y1="470.83" x2="220.87" y2="470.83"/><line class="cls-6" x1="164.24" y1="455.9" x2="220.36" y2="455.9"/><line class="cls-6" x1="164.74" y1="440.14" x2="219.9" y2="440.14"/><line class="cls-6" x1="165.24" y1="422.72" x2="219.4" y2="422.72"/><line class="cls-6" x1="165.74" y1="405.57" x2="218.9" y2="405.57"/><line class="cls-6" x1="166.26" y1="387.32" x2="218.37" y2="387.32"/><line class="cls-6" x1="166.82" y1="367.97" x2="217.81" y2="367.97"/><line class="cls-6" x1="167.43" y1="347.09" x2="217.21" y2="347.09"/><line class="cls-6" x1="168.04" y1="325.94" x2="216.6" y2="325.94"/><line class="cls-6" x1="168.7" y1="303.26" x2="215.94" y2="303.26"/><line class="cls-6" x1="169.37" y1="279.9" x2="215.27" y2="279.9"/><line class="cls-6" x1="170.07" y1="255.7" x2="214.57" y2="255.7"/><line class="cls-6" x1="170.82" y1="229.98" x2="213.82" y2="229.98"/><line class="cls-6" x1="171.59" y1="203.3" x2="213.05" y2="203.3"/><line class="cls-6" x1="172.4" y1="175.23" x2="212.24" y2="175.23"/><line class="cls-6" x1="173.23" y1="145.92" x2="211.39" y2="145.92"/><line class="cls-6" x1="161.26" y1="559.83" x2="223.37" y2="559.83"/><line class="cls-6" x1="161.6" y1="548.48" x2="223.03" y2="548.48"/><path class="cls-7" d="M145.77,24.91l-7.29-7.19a2.3,2.3,0,0,0-2.13-.6l-12.92,3a2.3,2.3,0,0,0-1.78,2.24v8.36A2.3,2.3,0,0,0,123.43,33l12.92,3a2.3,2.3,0,0,0,2.13-.6l7.29-7.19A2.3,2.3,0,0,0,145.77,24.91Z"/><path class="cls-7" d="M153.15,50.94l-7.29-7.19a2.3,2.3,0,0,0-2.13-.6l-12.92,3A2.3,2.3,0,0,0,129,48.39v8.36A2.3,2.3,0,0,0,130.8,59l12.92,3a2.3,2.3,0,0,0,2.13-.6l7.29-7.19A2.3,2.3,0,0,0,153.15,50.94Z"/><path class="cls-7" d="M153.37,77l-7.29-7.19a2.3,2.3,0,0,0-2.13-.6l-12.92,3a2.3,2.3,0,0,0-1.78,2.24v8.36A2.3,2.3,0,0,0,131,85L144,88a2.3,2.3,0,0,0,2.13-.6l7.29-7.19A2.3,2.3,0,0,0,153.37,77Z"/><path class="cls-7" d="M241.54,28.18l7.29,7.19A2.3,2.3,0,0,0,251,36l12.92-3a2.3,2.3,0,0,0,1.78-2.24V22.37a2.3,2.3,0,0,0-1.78-2.24l-12.92-3a2.3,2.3,0,0,0-2.13.6l-7.29,7.19A2.3,2.3,0,0,0,241.54,28.18Z"/><path class="cls-7" d="M234.91,54.21l7.29,7.19a2.3,2.3,0,0,0,2.13.6l12.92-3A2.3,2.3,0,0,0,259,56.75V48.39a2.3,2.3,0,0,0-1.78-2.24l-12.92-3a2.3,2.3,0,0,0-2.13.6l-7.29,7.19A2.3,2.3,0,0,0,234.91,54.21Z"/><path class="cls-7" d="M234.26,80.23l7.29,7.19a2.3,2.3,0,0,0,2.13.6l12.92-3a2.3,2.3,0,0,0,1.78-2.24V74.42a2.3,2.3,0,0,0-1.78-2.24l-12.92-3a2.3,2.3,0,0,0-2.13.6L234.26,77A2.3,2.3,0,0,0,234.26,80.23Z"/><g id="Headstock"><path class="cls-8" d="M212.44,113.14c0-12.73,17.78-17.22,25-18.76a3,3,0,0,0,1.94-4.48C229,73,242.68,25.86,247.53,10.56a3,3,0,0,0-3.37-3.86c-5.71,1-14.88,1.89-19.57-1-6.66-4.12-21.73-7.84-28.94-4.24a3,3,0,0,1-2.67,0c-7.21-3.6-22.28.12-28.94,4.24-4.68,2.9-13.86,2-19.57,1a3,3,0,0,0-3.37,3.86C146,25.86,159.6,73,149.25,89.91a3,3,0,0,0,1.94,4.48c7.23,1.54,25,6,25,18.76Z"/><path class="cls-9" d="M210.44,113.14c0-12.73,17.78-17.22,25-18.76a3,3,0,0,0,1.94-4.48C227,73,240.68,25.86,245.53,10.56a3,3,0,0,0-3.37-3.86c-5.71,1-14.88,1.89-19.57-1-6.66-4.12-21.73-7.84-28.94-4.24a3,3,0,0,1-2.67,0c-7.21-3.6-22.28.12-28.94,4.24-4.68,2.9-13.86,2-19.57,1a3,3,0,0,0-3.37,3.86C144,25.86,157.6,73,147.25,89.91a3,3,0,0,0,1.94,4.48c7.23,1.54,25,6,25,18.76Z"/><path class="cls-10" d="M209.49,110.53c1-11.77,17.07-16.42,24-17.89a2.85,2.85,0,0,0,1.85-4.27c-9.87-16.15,3.14-61.09,7.76-75.68A2.86,2.86,0,0,0,239.86,9c-5.44.92-14.2,1.8-18.66-1-6.35-3.93-20.73-7.47-27.6-4A2.87,2.87,0,0,1,191,4c-6.88-3.43-21.25.11-27.6,4-4.47,2.76-13.22,1.88-18.66,1a2.86,2.86,0,0,0-3.22,3.68c4.63,14.59,17.63,59.53,7.76,75.68a2.85,2.85,0,0,0,1.85,4.27c6.89,1.47,23.25,6.29,24.65,17.89"/><circle class="cls-11" cx="170.26" cy="50.06" r="5.07"/><rect class="cls-12" x="167.76" y="42.67" width="5" height="9.1" rx="2.5" ry="2.5"/><circle class="cls-11" cx="170.26" cy="47.22" r="0.75"/><circle class="cls-11" cx="170.26" cy="24.4" r="5.07"/><rect class="cls-12" x="167.76" y="17.01" width="5" height="9.1" rx="2.5" ry="2.5"/><circle class="cls-11" cx="170.26" cy="21.55" r="0.75"/><circle class="cls-11" cx="170.26" cy="78.36" r="5.07"/><rect class="cls-12" x="167.76" y="70.96" width="5" height="9.1" rx="2.5" ry="2.5"/><circle class="cls-11" cx="170.26" cy="75.51" r="0.75"/><circle class="cls-11" cx="216.53" cy="24.4" r="5.07"/><rect class="cls-12" x="214.03" y="17.01" width="5" height="9.1" rx="2.5" ry="2.5"/><circle class="cls-11" cx="216.53" cy="21.55" r="0.75"/><circle class="cls-11" cx="216.53" cy="50.06" r="5.07"/><rect class="cls-12" x="214.03" y="42.67" width="5" height="9.1" rx="2.5" ry="2.5"/><circle class="cls-11" cx="216.53" cy="47.22" r="0.75"/><circle class="cls-11" cx="216.53" cy="78.36" r="5.07"/><rect class="cls-12" x="214.03" y="70.96" width="5" height="9.1" rx="2.5" ry="2.5"/><circle class="cls-11" cx="216.53" cy="75.51" r="0.75"/></g><rect class="cls-5" x="174.17" y="113.14" width="36.29" height="2"/><polygon class="cls-13" points="210.46 113.14 212.44 113.14 212.5 115.03 210.46 115.14 210.46 113.14"/><path class="cls-14" d="M160.81,560.86h62.66a2,2,0,0,1,1.76,1c3.37,6.25,22.06,38.46,49.22,38.46,30.8,0,21.54-31.82,28.22-25.14,35.57,35.57-5.5,91.67-5.5,137.18,0,15.39,6.43,30.09,13.79,43.6,2.47,4.53,4.53,9.08,4.53,11.62,0,9.24-27.57,4.5-36.94,0-15.78-7.58-35.35-13.34-68.75-13.34-32,0-46.42,12.17-62.08,15.39-8.75,1.8-38.12,3.49-35.4-4.93,5.79-17.91,12.31-73.2,12.31-99.48,0-53.11-32.72-72.76-13.93-72.76,40.89,0,47.17-23.34,48.13-29.94A2,2,0,0,1,160.81,560.86Z"/><ellipse class="cls-15" cx="129.63" cy="708.8" rx="2.29" ry="2.18"/><circle class="cls-16" cx="129.52" cy="708.8" r="2.18"/><rect class="cls-17" x="127.74" y="708.61" width="3.59" height="0.31" rx="0.15" ry="0.15" transform="translate(299.93 8.7) rotate(24.04)"/><rect class="cls-17" x="127.72" y="708.64" width="3.59" height="0.31" rx="0.15" ry="0.15" transform="translate(-570.57 538.37) rotate(-65.96)"/><ellipse class="cls-15" cx="150.49" cy="703.27" rx="2.29" ry="2.18"/><circle class="cls-16" cx="150.38" cy="703.27" r="2.18"/><rect class="cls-17" x="148.58" y="703.08" width="3.59" height="0.31" rx="0.15" ry="0.15"/><rect class="cls-17" x="148.58" y="703.12" width="3.59" height="0.31" rx="0.15" ry="0.15" transform="translate(-552.89 853.65) rotate(-90)"/><ellipse class="cls-15" cx="129.89" cy="652.81" rx="2.29" ry="2.18"/><circle class="cls-16" cx="129.78" cy="652.81" r="2.18"/><rect class="cls-17" x="127.98" y="652.61" width="3.59" height="0.31" rx="0.15" ry="0.15"/><rect class="cls-17" x="127.98" y="652.65" width="3.59" height="0.31" rx="0.15" ry="0.15" transform="translate(-523.03 782.59) rotate(-90)"/><ellipse class="cls-15" cx="150.49" cy="653.32" rx="2.29" ry="2.18"/><circle class="cls-16" cx="150.38" cy="653.32" r="2.18"/><rect class="cls-17" x="148.6" y="653.13" width="3.59" height="0.31" rx="0.15" ry="0.15" transform="translate(344.62 11.66) rotate(29.81)"/><rect class="cls-17" x="148.58" y="653.16" width="3.59" height="0.31" rx="0.15" ry="0.15" transform="translate(-491.26 459.07) rotate(-60.19)"/><ellipse class="cls-15" cx="114" cy="600.18" rx="2.29" ry="2.18"/><circle class="cls-16" cx="113.89" cy="600.18" r="2.18"/><rect class="cls-17" x="112.12" y="600" width="3.59" height="0.31" rx="0.15" ry="0.15" transform="translate(450.62 90.45) rotate(44.2)"/><rect class="cls-17" x="112.1" y="600.03" width="3.59" height="0.31" rx="0.15" ry="0.15" transform="translate(-395.81 263.44) rotate(-45.8)"/><ellipse class="cls-15" cx="150.49" cy="603.32" rx="2.29" ry="2.18"/><circle class="cls-16" cx="150.38" cy="603.32" r="2.18"/><rect class="cls-17" x="148.56" y="603.13" width="3.59" height="0.31" rx="0.15" ry="0.15" transform="matrix(0.88, -0.48, 0.48, 0.88, -269.61, 144.83)"/><rect class="cls-17" x="148.58" y="603.16" width="3.59" height="0.31" rx="0.15" ry="0.15" transform="translate(-308.09 1023.32) rotate(-118.5)"/><ellipse class="cls-15" cx="163.58" cy="567.94" rx="2.29" ry="2.18"/><circle class="cls-16" cx="163.47" cy="567.94" r="2.18"/><rect class="cls-17" x="161.7" y="567.76" width="3.59" height="0.31" rx="0.15" ry="0.15" transform="translate(366.26 12.81) rotate(36.13)"/><rect class="cls-17" x="161.68" y="567.79" width="3.59" height="0.31" rx="0.15" ry="0.15" transform="translate(-391.64 365.14) rotate(-53.87)"/><ellipse class="cls-15" cx="223.37" cy="568.18" rx="2.29" ry="2.18"/><circle class="cls-16" cx="223.27" cy="568.18" r="2.18"/><rect class="cls-17" x="221.46" y="567.99" width="3.59" height="0.31" rx="0.15" ry="0.15" transform="translate(-167.29 98.99) rotate(-18.32)"/><rect class="cls-17" x="221.47" y="568.02" width="3.59" height="0.31" rx="0.15" ry="0.15" transform="translate(-245.91 958.75) rotate(-108.32)"/><ellipse class="cls-15" cx="236.08" cy="603.51" rx="2.29" ry="2.18"/><circle class="cls-16" cx="235.97" cy="603.51" r="2.18"/><rect class="cls-17" x="234.21" y="603.33" width="3.59" height="0.31" rx="0.15" ry="0.15" transform="translate(554.51 39.18) rotate(50.8)"/><rect class="cls-17" x="234.17" y="603.36" width="3.59" height="0.31" rx="0.15" ry="0.15" transform="translate(-328.33 284.96) rotate(-39.2)"/><ellipse class="cls-15" cx="302.63" cy="590.21" rx="2.29" ry="2.18"/><circle class="cls-16" cx="302.52" cy="590.21" r="2.18"/><rect class="cls-17" x="300.74" y="590.02" width="3.59" height="0.31" rx="0.15" ry="0.15" transform="translate(313.48 -72.94) rotate(28.09)"/><rect class="cls-17" x="300.72" y="590.05" width="3.59" height="0.31" rx="0.15" ry="0.15" transform="translate(-360.61 579.22) rotate(-61.91)"/><ellipse class="cls-15" cx="307.1" cy="646.81" rx="2.29" ry="2.18"/><circle class="cls-16" cx="306.99" cy="646.81" r="2.18"/><rect class="cls-17" x="305.19" y="646.61" width="3.59" height="0.31" rx="0.15" ry="0.15"/><rect class="cls-17" x="305.19" y="646.65" width="3.59" height="0.31" rx="0.15" ry="0.15" transform="translate(-339.82 953.79) rotate(-90)"/><ellipse class="cls-15" cx="236.08" cy="653.32" rx="2.29" ry="2.18"/><circle class="cls-16" cx="235.97" cy="653.32" r="2.18"/><rect class="cls-17" x="234.17" y="653.12" width="3.59" height="0.31" rx="0.15" ry="0.15"/><rect class="cls-17" x="234.17" y="653.16" width="3.59" height="0.31" rx="0.15" ry="0.15" transform="translate(-417.35 889.29) rotate(-90)"/><ellipse class="cls-15" cx="236.12" cy="703.35" rx="2.29" ry="2.18"/><circle class="cls-16" cx="236.01" cy="703.35" r="2.18"/><rect class="cls-17" x="234.23" y="703.16" width="3.59" height="0.31" rx="0.15" ry="0.15" transform="translate(131.2 -31.1) rotate(10.43)"/><rect class="cls-17" x="234.22" y="703.2" width="3.59" height="0.31" rx="0.15" ry="0.15" transform="translate(-498.44 808.15) rotate(-79.57)"/><ellipse class="cls-15" cx="290.4" cy="705.65" rx="2.29" ry="2.18"/><circle class="cls-16" cx="290.3" cy="705.65" r="2.18"/><rect class="cls-17" x="288.51" y="705.45" width="3.59" height="0.31" rx="0.15" ry="0.15" transform="translate(247.57 -56.19) rotate(19.15)"/><rect class="cls-17" x="288.5" y="705.49" width="3.59" height="0.31" rx="0.15" ry="0.15" transform="translate(-471.53 748.36) rotate(-70.85)"/><ellipse class="cls-15" cx="306.7" cy="765.36" rx="2.29" ry="2.18"/><circle class="cls-16" cx="306.59" cy="765.36" r="2.18"/><rect class="cls-17" x="304.8" y="765.17" width="3.59" height="0.31" rx="0.15" ry="0.15"/><rect class="cls-17" x="304.8" y="765.21" width="3.59" height="0.31" rx="0.15" ry="0.15" transform="translate(-458.77 1071.95) rotate(-90)"/><ellipse class="cls-15" cx="121.22" cy="762.46" rx="2.29" ry="2.18"/><circle class="cls-16" cx="121.11" cy="762.46" r="2.18"/><rect class="cls-17" x="119.31" y="762.26" width="3.59" height="0.31" rx="0.15" ry="0.15"/><rect class="cls-17" x="119.31" y="762.3" width="3.59" height="0.31" rx="0.15" ry="0.15" transform="translate(-641.35 883.57) rotate(-90)"/><g id="knob"><circle class="cls-15" cx="339.8" cy="856.38" r="17" transform="translate(-564.93 1030.5) rotate(-79.25)"/><circle class="cls-4" cx="339.8" cy="856.38" r="14.62" transform="translate(-564.93 1030.5) rotate(-79.25)"/><circle class="cls-12" cx="339.8" cy="856.38" r="7.7" transform="translate(-564.93 1030.5) rotate(-79.25)"/><rect class="cls-11" x="335.81" y="855.76" width="7.98" height="1.24" rx="0.62" ry="0.62" transform="translate(165.68 -48.35) rotate(10.75)"/><rect class="cls-11" x="335.81" y="855.76" width="7.98" height="1.24" rx="0.62" ry="0.62" transform="translate(1244.53 682.26) rotate(100.75)"/></g><g id="knob-2" data-name="knob"><circle class="cls-15" cx="295.8" cy="858.37" r="17" transform="translate(-327.52 198.24) rotate(-24.34)"/><circle class="cls-4" cx="295.8" cy="858.37" r="14.62" transform="translate(-327.52 198.24) rotate(-24.34)"/><circle class="cls-12" cx="295.8" cy="858.37" r="7.7" transform="translate(-327.52 198.24) rotate(-24.34)"/><rect class="cls-11" x="291.81" y="857.75" width="7.98" height="1.24" rx="0.62" ry="0.62" transform="translate(-327.52 198.24) rotate(-24.34)"/><rect class="cls-11" x="291.81" y="857.75" width="7.98" height="1.24" rx="0.62" ry="0.62" transform="translate(955.93 235.05) rotate(65.66)"/></g><g id="knob-3" data-name="knob"><circle class="cls-15" cx="325.18" cy="909.75" r="17" transform="translate(-638.36 980.28) rotate(-74.52)"/><circle class="cls-4" cx="325.18" cy="909.75" r="14.62" transform="translate(-638.36 980.28) rotate(-74.52)"/><circle class="cls-12" cx="325.18" cy="909.75" r="7.7" transform="translate(-638.36 980.28) rotate(-74.52)"/><rect class="cls-11" x="321.19" y="909.13" width="7.98" height="1.24" rx="0.62" ry="0.62" transform="translate(254.65 -53.79) rotate(15.48)"/><rect class="cls-11" x="321.19" y="909.13" width="7.98" height="1.24" rx="0.62" ry="0.62" transform="translate(1288.73 839.22) rotate(105.48)"/></g><g id="knob-4" data-name="knob"><circle class="cls-15" cx="314.81" cy="794.68" r="17"/><circle class="cls-4" cx="314.81" cy="794.68" r="14.62"/><circle class="cls-12" cx="314.81" cy="794.68" r="7.7"/></g><g id="knob-5" data-name="knob"><circle class="cls-15" cx="278.8" cy="905.76" r="17" transform="translate(-481.27 339.7) rotate(-36.21)"/><circle class="cls-4" cx="278.8" cy="905.76" r="14.62" transform="translate(-481.27 339.7) rotate(-36.21)"/><circle class="cls-12" cx="278.8" cy="905.76" r="7.7" transform="translate(-302.58 157.34) rotate(-20.73)"/><rect class="cls-11" x="274.81" y="905.14" width="7.98" height="1.24" rx="0.62" ry="0.62" transform="translate(-302.58 157.34) rotate(-20.73)"/><rect class="cls-11" x="274.81" y="905.14" width="7.98" height="1.24" rx="0.62" ry="0.62" transform="translate(1027.22 324.38) rotate(69.27)"/></g><g id="switch"><rect class="cls-15" x="315.69" y="786.6" width="5.39" height="12.54" rx="2.05" ry="2.05" transform="translate(845.84 120.71) rotate(60)"/><rect class="cls-16" x="315.65" y="786.66" width="4.94" height="12.2" rx="2.05" ry="2.05" transform="translate(845.61 120.88) rotate(60)"/></g><g id="plug"><circle class="cls-15" cx="268.52" cy="937.93" r="10.28"/><circle class="cls-16" cx="268.52" cy="937.93" r="7.27"/><circle class="cls-4" cx="268.52" cy="937.93" r="4.51"/></g><g id="Pickup_1" data-name="Pickup 1"><rect class="cls-11" x="154.68" y="579.54" width="77.39" height="41.72" rx="5.21" ry="5.21"/><rect class="cls-12" x="154.68" y="579.54" width="76.39" height="40.72" rx="5.21" ry="5.21"/><circle class="cls-11" cx="165.79" cy="589.87" r="3.58"/><circle class="cls-11" cx="176.82" cy="589.87" r="3.58"/><circle class="cls-11" cx="187.85" cy="589.87" r="3.58"/><circle class="cls-11" cx="198.88" cy="589.87" r="3.58"/><circle class="cls-11" cx="209.91" cy="589.87" r="3.58"/><circle class="cls-11" cx="220.94" cy="589.87" r="3.58"/><circle class="cls-18" cx="165.41" cy="589.87" r="3.58"/><circle class="cls-18" cx="176.44" cy="589.87" r="3.58"/><circle class="cls-18" cx="187.47" cy="589.87" r="3.58"/><circle class="cls-18" cx="198.5" cy="589.87" r="3.58"/><circle class="cls-18" cx="209.53" cy="589.87" r="3.58"/><circle class="cls-18" cx="220.56" cy="589.87" r="3.58"/><rect class="cls-11" x="162.24" y="589.57" width="6.25" height="0.59" rx="0.3" ry="0.3"/><rect class="cls-11" x="173.28" y="589.57" width="6.25" height="0.59" rx="0.3" ry="0.3"/><rect class="cls-11" x="184.32" y="589.57" width="6.25" height="0.59" rx="0.3" ry="0.3"/><rect class="cls-11" x="195.36" y="589.57" width="6.25" height="0.59" rx="0.3" ry="0.3"/><rect class="cls-11" x="206.4" y="589.57" width="6.25" height="0.59" rx="0.3" ry="0.3"/><rect class="cls-11" x="217.44" y="589.57" width="6.25" height="0.59" rx="0.3" ry="0.3"/></g><g id="Pickup_2" data-name="Pickup 2"><rect class="cls-11" x="154.68" y="629.14" width="77.39" height="41.72" rx="5.21" ry="5.21"/><rect class="cls-12" x="154.68" y="629.14" width="76.39" height="40.72" rx="5.21" ry="5.21"/><circle class="cls-11" cx="165.79" cy="639.47" r="3.58"/><circle class="cls-11" cx="176.82" cy="639.47" r="3.58"/><circle class="cls-11" cx="187.85" cy="639.47" r="3.58"/><circle class="cls-11" cx="198.88" cy="639.47" r="3.58"/><circle class="cls-11" cx="209.91" cy="639.47" r="3.58"/><circle class="cls-11" cx="220.94" cy="639.47" r="3.58"/><circle class="cls-18" cx="165.41" cy="639.47" r="3.58"/><circle class="cls-18" cx="176.44" cy="639.47" r="3.58"/><circle class="cls-18" cx="187.47" cy="639.47" r="3.58"/><circle class="cls-18" cx="198.5" cy="639.47" r="3.58"/><circle class="cls-18" cx="209.53" cy="639.47" r="3.58"/><circle class="cls-18" cx="220.56" cy="639.47" r="3.58"/><rect class="cls-11" x="162.24" y="639.18" width="6.25" height="0.59" rx="0.3" ry="0.3"/><rect class="cls-11" x="173.28" y="639.18" width="6.25" height="0.59" rx="0.3" ry="0.3"/><rect class="cls-11" x="184.32" y="639.18" width="6.25" height="0.59" rx="0.3" ry="0.3"/><rect class="cls-11" x="195.36" y="639.18" width="6.25" height="0.59" rx="0.3" ry="0.3"/><rect class="cls-11" x="206.4" y="639.18" width="6.25" height="0.59" rx="0.3" ry="0.3"/><rect class="cls-11" x="217.44" y="639.18" width="6.25" height="0.59" rx="0.3" ry="0.3"/></g><g id="Pickup_3" data-name="Pickup 3"><rect class="cls-11" x="154.68" y="678.75" width="77.39" height="41.72" rx="5.21" ry="5.21"/><rect class="cls-12" x="154.68" y="678.75" width="76.39" height="40.72" rx="5.21" ry="5.21"/><circle class="cls-11" cx="165.79" cy="689.08" r="3.58"/><circle class="cls-11" cx="176.82" cy="689.08" r="3.58"/><circle class="cls-11" cx="187.85" cy="689.08" r="3.58"/><circle class="cls-11" cx="198.88" cy="689.08" r="3.58"/><circle class="cls-11" cx="209.91" cy="689.08" r="3.58"/><circle class="cls-11" cx="220.94" cy="689.08" r="3.58"/><circle class="cls-18" cx="165.41" cy="689.08" r="3.58"/><circle class="cls-18" cx="176.44" cy="689.08" r="3.58"/><circle class="cls-18" cx="187.47" cy="689.08" r="3.58"/><circle class="cls-18" cx="198.5" cy="689.08" r="3.58"/><circle class="cls-18" cx="209.53" cy="689.08" r="3.58"/><circle class="cls-18" cx="220.56" cy="689.08" r="3.58"/><rect class="cls-11" x="162.24" y="688.78" width="6.25" height="0.59" rx="0.3" ry="0.3"/><rect class="cls-11" x="173.28" y="688.78" width="6.25" height="0.59" rx="0.3" ry="0.3"/><rect class="cls-11" x="184.32" y="688.78" width="6.25" height="0.59" rx="0.3" ry="0.3"/><rect class="cls-11" x="195.36" y="688.78" width="6.25" height="0.59" rx="0.3" ry="0.3"/><rect class="cls-11" x="206.4" y="688.78" width="6.25" height="0.59" rx="0.3" ry="0.3"/><rect class="cls-11" x="217.44" y="688.78" width="6.25" height="0.59" rx="0.3" ry="0.3"/></g><path class="cls-11" d="M234.83,830.93h-83l10.84,143.41,20.12,1.35a200,200,0,0,0,23.12.21l17.26-.94,2-.19Z"/><path class="cls-12" d="M234.83,830.93h-85l10.84,143.41,20.12,1.35a200,200,0,0,0,23.12.21l19.26-.94Z"/><path class="cls-18" d="M160.64,974.35l3,3s19.2,1.68,28.65,2.1c10,.44,32.68-1.4,32.68-1.4l-1.85-3.1s-23.39,1.25-31.21,1.16-31.29-1.79-31.29-1.79"/><polygon class="cls-12" points="225.15 974.79 226.91 977.9 224.99 978.08 223.14 974.97 225.15 974.79"/><g id="Bridge"><polygon class="cls-11" points="234.83 830.93 149.8 831.39 149.29 787.89 235.78 787.89 234.83 830.93"/><polygon class="cls-12" points="234.78 831.39 149.8 831.39 149.29 787.89 234.78 787.89 234.78 831.39"/></g><path class="cls-11" d="M234.78,831.39l-3.11-6.95a30,30,0,0,1-1.5-20.37l1.65-5.89H152.29l1.64,4.89a30,30,0,0,1-1.33,22.38l-2.81,5.94Z"/><path class="cls-18" d="M167.55,798.18a2.58,2.58,0,0,1-5.17,0Z"/><path class="cls-18" d="M179.2,798.18a2.58,2.58,0,1,1-5.17,0Z"/><path class="cls-18" d="M190.14,798.18a2.58,2.58,0,1,1-5.17,0Z"/><path class="cls-18" d="M200.52,798.18a2.58,2.58,0,1,1-5.17,0Z"/><path class="cls-18" d="M211.89,798.18a2.58,2.58,0,1,1-5.17,0Z"/><path class="cls-18" d="M223.46,798.18a2.58,2.58,0,1,1-5.17,0Z"/><g id="whammy_bar" data-name="whammy bar"><rect class="cls-19" x="149.29" y="768.93" width="85.54" height="30.24" rx="3" ry="3"/><rect class="cls-11" x="149.29" y="767.93" width="85.54" height="30.24" rx="3" ry="3"/><rect class="cls-12" x="149.29" y="767.93" width="84.27" height="26.05" rx="3" ry="3"/><rect class="cls-11" x="149.79" y="768.14" width="117.04" height="22.05" rx="3" ry="3"/><rect class="cls-12" x="150.26" y="768.14" width="115.31" height="21.19" rx="3" ry="3"/><path class="cls-11" d="M258.08,778.08l23-23,40.29-49.58,5.9,4.12-34.43,42.76A142,142,0,0,1,280.8,765.6l-17.13,16.51a.22.22,0,0,1-.28,0l-5.29-3.71A.23.23,0,0,1,258.08,778.08Z"/><path class="cls-12" d="M258.66,776.67l17.78-17.74a142.05,142.05,0,0,0,9.91-11L322,704.13l5.9,4.12L293.44,751a142,142,0,0,1-12.06,13.18l-17.13,16.51a.22.22,0,0,1-.28,0L258.68,777A.23.23,0,0,1,258.66,776.67Z"/><path class="cls-20" d="M325.26,708.55l-3.83-2.86c-2.23-1.66-2.36-5.22-.32-7.88l52.81-68.68a5.45,5.45,0,0,1,7.55-1.09l1.23.92a5.45,5.45,0,0,1,1.1,7.55L332.9,706.63C330.94,709.34,327.49,710.22,325.26,708.55Z"/><path class="cls-21" d="M325.73,707.8l-3.83-2.86c-2.23-1.66-2.36-5.22-.32-7.88l52.81-68.68a5.45,5.45,0,0,1,7.55-1.09l1.23.92a5.45,5.45,0,0,1,1.1,7.55l-50.89,70.12C331.41,708.59,328,709.46,325.73,707.8Z"/><ellipse class="cls-11" cx="257.71" cy="780.06" rx="6.34" ry="5.84"/><circle class="cls-18" cx="257.21" cy="780.06" r="5.84"/><ellipse class="cls-11" cx="257.35" cy="780.06" rx="3.63" ry="3.49"/><circle class="cls-12" cx="257.21" cy="780.06" r="3.49"/><rect class="cls-11" x="254.17" y="779.81" width="6.1" height="0.5" rx="0.25" ry="0.25" transform="translate(216.81 -40.32) rotate(15.43)"/><rect class="cls-11" x="254.17" y="779.81" width="6.1" height="0.5" rx="0.25" ry="0.25" transform="translate(1077.59 739.66) rotate(105.43)"/></g><circle class="cls-19" cx="164.97" cy="796.37" r="0.57"/><circle class="cls-19" cx="176.62" cy="796.37" r="0.57"/><circle class="cls-19" cx="187.55" cy="796.37" r="0.57"/><circle class="cls-19" cx="197.93" cy="796.37" r="0.57"/><circle class="cls-19" cx="209.3" cy="796.37" r="0.57"/><circle class="cls-19" cx="220.87" cy="796.37" r="0.57"/><polyline class="cls-22" points="164.97 796.37 176.96 113.14 170.26 75.51"/><polyline class="cls-22" points="176.62 796.37 183.66 113.14 170.26 47.22"/><polyline class="cls-22" points="187.55 796.37 189.99 113.14 170.26 21.55"/><polyline class="cls-22" points="197.93 796.37 196.72 113.14 216.53 21.55"/><polyline class="cls-22" points="209.3 796.37 202.45 113.14 216.53 47.22"/><polyline class="cls-22" points="220.88 796.37 208.11 113.14 216.53 75.51"/><circle class="cls-18" cx="154.07" cy="741.45" r="8.41"/><circle class="cls-11" cx="154.07" cy="741.37" r="6.53"/><circle class="cls-18" cx="231.76" cy="741.45" r="8.41"/><circle class="cls-11" cx="231.76" cy="741.37" r="6.53"/><rect class="cls-12" x="149.65" y="735.93" width="86.53" height="10.92" rx="4.34" ry="4.34"/><rect class="cls-11" x="162.2" y="735.93" width="60.95" height="10.92"/><rect class="cls-18" x="163.96" y="735.61" width="4.09" height="11.59" rx="1.6" ry="1.6"/><rect class="cls-18" x="174.84" y="735.57" width="4.09" height="11.59" rx="1.6" ry="1.6"/><rect class="cls-18" x="185.31" y="735.65" width="4.09" height="11.59" rx="1.6" ry="1.6"/><rect class="cls-18" x="195.91" y="735.54" width="4.09" height="11.59" rx="1.6" ry="1.6"/><rect class="cls-18" x="206.82" y="735.58" width="4.09" height="11.59" rx="1.6" ry="1.6"/><rect class="cls-18" x="217.91" y="735.56" width="4.09" height="11.59" rx="1.6" ry="1.6"/><rect class="cls-12" x="160.91" y="739.93" width="63.67" height="2.81"/><rect class="cls-12" x="169.75" y="735.94" width="4.08" height="10.92"/><rect class="cls-12" x="180.01" y="735.93" width="4" height="10.92"/><rect class="cls-12" x="190.39" y="735.93" width="4.09" height="10.92"/><rect class="cls-12" x="201.29" y="735.92" width="4.09" height="10.92"/><rect class="cls-12" x="212.29" y="735.92" width="4.09" height="10.92"/><circle class="cls-18" cx="231.18" cy="741.37" r="3.47" transform="translate(-522.07 930.27) rotate(-86.76)"/><circle class="cls-11" cx="231.18" cy="741.37" r="2.86" transform="translate(-522.07 930.27) rotate(-86.76)"/><circle class="cls-18" cx="154.98" cy="741.45" r="3.47" transform="translate(-594.05 854.27) rotate(-86.76)"/><circle class="cls-11" cx="154.98" cy="741.45" r="2.86" transform="translate(-594.05 854.27) rotate(-86.76)"/><path class="cls-12" d="M195.45,979.23a5.84,5.84,0,0,0,2.22,2.37,2.26,2.26,0,0,1,1.06,1.95c-.05,1.47-1.27,3.48-7.53,3.48s-7.47-2-7.53-3.48a2.26,2.26,0,0,1,1.06-1.95,5.84,5.84,0,0,0,2.22-2.37,1.42,1.42,0,0,1,1-.78l.82-.15a13,13,0,0,1,4.79,0l.82.15A1.42,1.42,0,0,1,195.45,979.23Z"/></g></g></svg>