<svg xmlns="http://www.w3.org/2000/svg" viewBox="0 0 379.11 991.93"><defs><style>.cls-1{fill:#1a1a1a;}.cls-2{fill:#b3b3b3;}.cls-3{fill:#ccc597;}.cls-4{fill:#ccc;}.cls-5{fill:#e6e6e6;}.cls-6{fill:#f6f6e9;}.cls-7{fill:#421c0f;}.cls-8{fill:#bcb48b;}.cls-9{fill:#a09877;}.cls-10{fill:#333;}.cls-11{fill:#4d4d4d;}.cls-12{fill:#e2e2d5;}.cls-13{fill:#eace76;}.cls-14{fill:#d5a940;}.cls-15{fill:#c9961a;}.cls-16{fill:#f7e6a4;}</style></defs><title>1970GibsonFlyingV</title><g id="Layer_2" data-name="Layer 2"><g id="_1970_Gibson_Flying_V_849467" data-name="1970 Gibson Flying V 849467"><g id="body"><path id="body-2" data-name="body" class="cls-1" d="M145.2,556.93,8.64,958.49a17.89,17.89,0,0,0,16.94,23.65h0a19,19,0,0,0,14.52-6.72l120-141.23a40.65,40.65,0,0,1,30.14-14.32h0a40.65,40.65,0,0,1,31.95,14.46L347.47,983.2a14.68,14.68,0,0,0,11.23,5.22h0a20.39,20.39,0,0,0,19.29-27L239.34,556.48a6,6,0,0,0-2.17-2.92c-5.24-3.77-22.09-16.63-22.09-26.29,0-11.72-46.87-11.72-46.87,0,0,14-14.75,23.35-20.23,26.34A6,6,0,0,0,145.2,556.93Z"/><path class="cls-2" d="M362.48,985.23a5.84,5.84,0,0,1-.82,3.14,2.26,2.26,0,0,0,0,2.22c.75,1.27,2.77,2.46,8.28-.51s5.62-5.32,5-6.64a2.26,2.26,0,0,0-1.86-1.21,5.84,5.84,0,0,1-3.08-1,1.42,1.42,0,0,0-1.28-.19l-.79.25a13,13,0,0,0-4.21,2.27L363,984A1.42,1.42,0,0,0,362.48,985.23Z"/><path id="body-3" data-name="body" d="M233.91,554.93,370.47,956.49a17.89,17.89,0,0,1-16.94,23.65h0A19,19,0,0,1,339,973.42L219,832.2a40.65,40.65,0,0,0-30.14-14.32h0A40.65,40.65,0,0,0,157,832.34L31.63,981.2a14.68,14.68,0,0,1-11.23,5.22h0a20.39,20.39,0,0,1-19.29-27L139.77,554.48a6,6,0,0,1,2.17-2.92c5.24-3.77,22.09-16.63,22.09-26.29,0-11.72,46.87-11.72,46.87,0,0,14,14.75,23.35,20.23,26.34A6,6,0,0,1,233.91,554.93Z"/><path class="cls-1" d="M215.06,526.77l-.9-20.62A53.47,53.47,0,0,0,210,487.76L207.61,482l-33.16-1.33-10.16,45.85,50.3.74A.47.47,0,0,0,215.06,526.77Z"/></g><g id="neck"><path class="cls-3" d="M129.43,115.72l1.91,4.94a3,3,0,0,0,3,1.91l5.29-.29a3,3,0,0,0,2.73-2.23l1.36-5.12a3,3,0,0,0-1.27-3.29L138,108.77a3,3,0,0,0-3.52.19l-4.11,3.34A3,3,0,0,0,129.43,115.72Z"/><rect class="cls-3" x="142.81" y="112.83" width="3.13" height="10.06" rx="1.57" ry="1.57" transform="translate(35.02 -33.06) rotate(14.85)"/><rect class="cls-3" x="145.55" y="114.58" width="3.13" height="8.02" rx="1.57" ry="1.57" transform="translate(35.3 -33.74) rotate(14.85)"/><polygon class="cls-4" points="148.93 117.86 150.86 118.59 150.37 120.38 148.26 120.38 148.93 117.86"/><path class="cls-3" d="M138.06,85.53,140,90.47a3,3,0,0,0,3,1.91l5.29-.29A3,3,0,0,0,151,89.86l1.36-5.12A3,3,0,0,0,151,81.45l-4.45-2.87a3,3,0,0,0-3.52.19L139,82.12A3,3,0,0,0,138.06,85.53Z"/><rect class="cls-3" x="151.43" y="82.64" width="3.13" height="10.06" rx="1.57" ry="1.57" transform="matrix(0.97, 0.26, -0.26, 0.97, 27.57, -36.28)"/><rect class="cls-3" x="154.18" y="84.38" width="3.13" height="8.02" rx="1.57" ry="1.57" transform="translate(27.85 -36.96) rotate(14.85)"/><polygon class="cls-4" points="157.56 87.67 159.48 88.39 159 90.18 156.89 90.18 157.56 87.67"/><path class="cls-3" d="M146.28,57.49l1.91,4.94a3,3,0,0,0,3,1.91l5.29-.29a3,3,0,0,0,2.73-2.23l1.36-5.12a3,3,0,0,0-1.27-3.29l-4.45-2.87a3,3,0,0,0-3.52.19l-4.11,3.34A3,3,0,0,0,146.28,57.49Z"/><rect class="cls-3" x="159.66" y="54.6" width="3.13" height="10.06" rx="1.57" ry="1.57" transform="translate(20.66 -39.32) rotate(14.85)"/><rect class="cls-3" x="162.4" y="56.34" width="3.13" height="8.02" rx="1.57" ry="1.57" transform="translate(20.94 -40) rotate(14.85)"/><polygon class="cls-4" points="165.78 59.63 167.71 60.35 167.22 62.15 165.12 62.15 165.78 59.63"/><path class="cls-3" d="M240.52,53.84l-4.14-3.31a3,3,0,0,0-3.52-.16l-4.42,2.91a3,3,0,0,0-1.24,3.3l1.4,5.11a3,3,0,0,0,2.76,2.2l5.29.24a3,3,0,0,0,2.94-1.94l1.87-5A3,3,0,0,0,240.52,53.84Z"/><rect class="cls-3" x="224.96" y="54.48" width="3.13" height="10.06" rx="1.57" ry="1.57" transform="matrix(-0.96, 0.27, -0.27, -0.96, 460.73, 56.82)"/><rect class="cls-3" x="222.23" y="56.26" width="3.13" height="8.02" rx="1.57" ry="1.57" transform="translate(455.55 59.02) rotate(164.62)"/><polygon class="cls-4" points="222.59 61.81 220.56 62.15 220.08 60.35 221.9 59.3 222.59 61.81"/><path class="cls-3" d="M245.76,82.71l-4.14-3.31a3,3,0,0,0-3.52-.16l-4.42,2.91a3,3,0,0,0-1.24,3.3l1.4,5.11a3,3,0,0,0,2.76,2.2l5.29.24a3,3,0,0,0,2.94-1.94l1.87-5A3,3,0,0,0,245.76,82.71Z"/><rect class="cls-3" x="230.21" y="83.36" width="3.13" height="10.06" rx="1.57" ry="1.57" transform="translate(478.69 112.14) rotate(164.62)"/><rect class="cls-3" x="227.47" y="85.13" width="3.13" height="8.02" rx="1.57" ry="1.57" transform="translate(473.51 114.35) rotate(164.62)"/><polygon class="cls-4" points="227.84 90.68 225.81 91.02 225.33 89.23 227.14 88.17 227.84 90.68"/><path class="cls-3" d="M250.73,111.31,246.59,108a3,3,0,0,0-3.52-.16l-4.42,2.91a3,3,0,0,0-1.24,3.3l1.4,5.11a3,3,0,0,0,2.76,2.2l5.29.24a3,3,0,0,0,2.94-1.94l1.87-5A3,3,0,0,0,250.73,111.31Z"/><rect class="cls-3" x="235.17" y="111.96" width="3.13" height="10.06" rx="1.57" ry="1.57" transform="translate(496.03 167) rotate(164.62)"/><rect class="cls-3" x="232.43" y="113.73" width="3.13" height="8.02" rx="1.57" ry="1.57" transform="translate(490.85 169.21) rotate(164.62)"/><polygon class="cls-4" points="232.8 119.28 230.77 119.62 230.29 117.83 232.11 116.77 232.8 119.28"/><path d="M170.81,166.39c0-22.6-12.77-29.75-18.44-31.81a3,3,0,0,1-1.89-3.6l32.67-120A14.84,14.84,0,0,1,197.47,0h0a14.84,14.84,0,0,1,14.61,12.27L232.9,131a3,3,0,0,1-2,3.37c-6.73,2.18-24.68,10.06-24.68,32.05C206.17,175.23,170.81,175.23,170.81,166.39Z"/><path class="cls-1" d="M167.81,166.39c0-22.6-12.77-29.75-18.44-31.81a3,3,0,0,1-1.89-3.6l32.67-120A14.84,14.84,0,0,1,194.47,0h0a14.84,14.84,0,0,1,14.61,12.27L229.9,131a3,3,0,0,1-2,3.37c-6.73,2.18-24.68,10.06-24.68,32.05C203.17,175.23,167.81,175.23,167.81,166.39Z"/><path class="cls-5" d="M170.78,163.85c0-10.88-4-16.38-5.94-18.38A3.12,3.12,0,0,1,164,143c1.45-15.43,23.19-54.7,23.19-54.7,1.05-2.54,5.08-2.4,5.91.21,0,0,16.82,35.59,17.73,54.32a3.42,3.42,0,0,1-1.25,2.77c-2.74,2.34-8.72,8.54-8.72,18.22C200.82,170.62,170.78,170.62,170.78,163.85Z"/><path class="cls-6" d="M169.81,163c0-10.75-4-16.19-5.94-18.17a3.07,3.07,0,0,1-.88-2.42c1.45-15.25,23.19-54.07,23.19-54.07,1.05-2.51,5.08-2.37,5.91.2,0,0,16.82,35.18,17.73,53.7a3.36,3.36,0,0,1-1.25,2.74,23.81,23.81,0,0,0-7.73,18C200.84,169.67,169.81,169.67,169.81,163Z"/><polygon class="cls-5" points="167.81 166.39 167.72 163.09 203.31 163.09 203.17 166.39 167.81 166.39"/><rect class="cls-7" x="196.55" y="155.76" width="2.94" height="2.94" rx="0.78" ry="0.78" transform="translate(449.21 128.38) rotate(135)"/><rect class="cls-7" x="172.92" y="155.76" width="2.94" height="2.94" rx="0.78" ry="0.78" transform="translate(408.88 145.09) rotate(135)"/><rect class="cls-7" x="187.69" y="88.1" width="2.94" height="2.94" rx="0.78" ry="0.78" transform="translate(386.25 19.14) rotate(135)"/><circle class="cls-3" cx="166.9" cy="89.14" r="5.06"/><circle class="cls-8" cx="166.9" cy="89.14" r="3.78"/><circle class="cls-9" cx="166.9" cy="89.14" r="2.31"/><circle class="cls-10" cx="166.9" cy="89.14" r="0.89"/><circle class="cls-3" cx="207.36" cy="59.83" r="5.06"/><circle class="cls-8" cx="207.36" cy="59.83" r="3.78"/><circle class="cls-9" cx="207.36" cy="59.83" r="2.31"/><circle class="cls-10" cx="207.36" cy="59.83" r="0.89"/><circle class="cls-3" cx="212.42" cy="89.14" r="5.06"/><circle class="cls-8" cx="212.42" cy="89.14" r="3.78"/><circle class="cls-9" cx="212.42" cy="89.14" r="2.31"/><circle class="cls-10" cx="212.42" cy="89.14" r="0.89"/><circle class="cls-3" cx="217.47" cy="118.79" r="5.06"/><circle class="cls-8" cx="217.47" cy="118.79" r="3.78"/><circle class="cls-9" cx="217.47" cy="118.79" r="2.31"/><circle class="cls-10" cx="217.47" cy="118.79" r="0.89"/><circle class="cls-3" cx="159.03" cy="118.79" r="5.06"/><circle class="cls-8" cx="159.03" cy="118.79" r="3.78"/><circle class="cls-9" cx="159.03" cy="118.79" r="2.31"/><circle class="cls-10" cx="159.03" cy="118.79" r="0.89"/><circle class="cls-3" cx="174.41" cy="59.83" r="5.06"/><circle class="cls-8" cx="174.41" cy="59.83" r="3.78"/><circle class="cls-9" cx="174.41" cy="59.83" r="2.31"/><circle class="cls-10" cx="174.41" cy="59.83" r="0.89"/></g><g id="Fretboard"><polygon class="cls-10" points="164.4 575.52 174.25 166.37 206.17 166.39 214.01 575.52 164.4 575.52"/><polygon class="cls-11" points="213.01 575.52 203.17 166.37 167.81 166.37 163.41 575.52 213.01 575.52"/><rect class="cls-4" x="163.61" y="556.05" width="48.94" height="1"/><rect class="cls-4" x="163.71" y="546.35" width="48.61" height="1"/><rect class="cls-4" x="163.83" y="535.49" width="48.23" height="1"/><rect class="cls-4" x="163.95" y="524.62" width="47.85" height="1"/><rect class="cls-4" x="164.08" y="512.87" width="47.44" height="1"/><rect class="cls-4" x="164.21" y="500.24" width="47" height="1"/><rect class="cls-4" x="164.35" y="487.02" width="46.54" height="1"/><rect class="cls-4" x="164.5" y="473.22" width="46.06" height="1"/><rect class="cls-4" x="164.67" y="458.09" width="45.53" height="1"/><rect class="cls-4" x="164.83" y="442.68" width="45" height="1"/><rect class="cls-4" x="165.01" y="426.37" width="44.43" height="1"/><rect class="cls-4" x="165.2" y="408.75" width="43.81" height="1"/><rect class="cls-4" x="165.4" y="389.95" width="43.16" height="1"/><rect class="cls-4" x="165.61" y="370.42" width="42.48" height="1"/><rect class="cls-4" x="165.83" y="349.57" width="41.75" height="1"/><rect class="cls-4" x="166.07" y="327.54" width="40.99" height="1"/><rect class="cls-4" x="166.31" y="304.78" width="40.2" height="1"/><rect class="cls-4" x="166.58" y="280.11" width="39.34" height="1"/><rect class="cls-4" x="166.86" y="253.82" width="38.42" height="1"/><rect class="cls-4" x="167.16" y="226.07" width="37.46" height="1"/><rect class="cls-4" x="167.48" y="196.84" width="36.44" height="1"/><rect class="cls-4" x="163.51" y="565.59" width="49.27" height="1"/><polygon class="cls-5" points="181.67 549.14 172.16 554.78 191.19 554.78 181.67 549.14"/><polygon class="cls-5" points="194.22 554.26 203.74 548.62 184.7 548.62 194.22 554.26"/><polygon class="cls-5" points="182.76 527.77 173.25 533.42 192.28 533.42 182.76 527.77"/><polygon class="cls-5" points="195.31 532.9 204.82 527.26 185.79 527.26 195.31 532.9"/><polygon class="cls-5" points="181.94 504.48 172.42 510.12 191.45 510.12 181.94 504.48"/><polygon class="cls-5" points="194.48 509.6 204 503.96 184.97 503.96 194.48 509.6"/><polygon class="cls-5" points="181.94 478.11 172.42 483.75 191.45 483.75 181.94 478.11"/><polygon class="cls-5" points="194.48 483.23 204 477.59 184.97 477.59 194.48 483.23"/><polygon class="cls-5" points="181.94 433.16 172.42 438.8 191.45 438.8 181.94 433.16"/><polygon class="cls-5" points="194.48 438.28 204 432.64 184.97 432.64 194.48 438.28"/><polygon class="cls-5" points="181.4 378.63 171.89 384.27 190.92 384.27 181.4 378.63"/><polygon class="cls-5" points="193.95 383.75 203.46 378.11 184.43 378.11 193.95 383.75"/><polygon class="cls-5" points="181.4 337.15 171.89 342.79 190.92 342.79 181.4 337.15"/><polygon class="cls-5" points="193.95 342.27 203.46 336.63 184.43 336.63 193.95 342.27"/><polygon class="cls-5" points="180.51 290.67 170.99 296.31 190.02 296.31 180.51 290.67"/><polygon class="cls-5" points="193.05 295.79 202.57 290.15 183.54 290.15 193.05 295.79"/><polygon class="cls-5" points="180.51 238.29 170.99 243.93 190.02 243.93 180.51 238.29"/><polygon class="cls-5" points="193.05 243.41 202.57 237.77 183.54 237.77 193.05 243.41"/></g><g id="Plate"><path id="plate-2" data-name="plate" class="cls-6" d="M148.62,575.52h78.57a9,9,0,0,1,8.77,7L284.2,793.07a2,2,0,0,1-3.34,1.88l-55.19-53.63a6,6,0,0,0-4.22-1.7L159,740a3,3,0,0,0-3,3V820.8a9,9,0,0,1-4.22,7.63L40.56,898.15a2,2,0,0,1-3-2.31l102.46-314.1A9,9,0,0,1,148.62,575.52Z"/><path class="cls-12" d="M39.5,899.46a3,3,0,0,1-2.85-3.94l102.46-314.1a10,10,0,0,1,9.51-6.9h78.57a10,10,0,0,1,9.75,7.77l48.24,210.56a3,3,0,0,1-5,2.82L225,742a5,5,0,0,0-3.48-1.41h0L159,741a2,2,0,0,0-2,2V820.8a9.94,9.94,0,0,1-4.69,8.47L41.09,899A3,3,0,0,1,39.5,899.46ZM148.62,576.52A8,8,0,0,0,141,582L38.55,896.15A1,1,0,0,0,40,897.3l111.23-69.72A8,8,0,0,0,155,820.8V743a4,4,0,0,1,4-4l62.46-.4h0a7,7,0,0,1,4.88,2l55.19,53.63a1,1,0,0,0,1.67-.94L235,582.74a8,8,0,0,0-7.8-6.21Z"/><rect class="cls-7" x="276.54" y="784.77" width="2.94" height="2.94" rx="0.78" ry="0.78" transform="translate(637.39 33.7) rotate(45)"/><rect class="cls-7" x="260.97" y="717.28" width="2.94" height="2.94" rx="0.78" ry="0.78" transform="translate(585.1 24.94) rotate(45)"/><rect class="cls-7" x="245.71" y="649.76" width="2.94" height="2.94" rx="0.78" ry="0.78" transform="translate(532.89 15.96) rotate(45)"/><rect class="cls-7" x="228.33" y="578.99" width="2.94" height="2.94" rx="0.78" ry="0.78" transform="translate(477.75 7.52) rotate(45)"/><rect class="cls-7" x="144.73" y="579.53" width="2.94" height="2.94" rx="0.78" ry="0.78" transform="translate(453.65 66.79) rotate(45)"/><rect class="cls-7" x="117.61" y="658.63" width="2.94" height="2.94" rx="0.78" ry="0.78" transform="translate(501.64 109.14) rotate(45)"/><rect class="cls-7" x="92.18" y="735.29" width="2.94" height="2.94" rx="0.78" ry="0.78" transform="translate(548.4 149.57) rotate(45)"/><rect class="cls-7" x="66.9" y="812.24" width="2.94" height="2.94" rx="0.78" ry="0.78" transform="translate(595.4 189.99) rotate(45)"/><rect class="cls-7" x="41.33" y="889.41" width="2.94" height="2.94" rx="0.78" ry="0.78" transform="translate(642.49 230.67) rotate(45)"/><rect class="cls-7" x="95.52" y="855.34" width="2.94" height="2.94" rx="0.78" ry="0.78" transform="translate(634.26 182.37) rotate(45)"/><rect class="cls-7" x="149.33" y="821.81" width="2.94" height="2.94" rx="0.78" ry="0.78" transform="translate(626.31 134.5) rotate(45)"/><rect class="cls-7" x="151.78" y="737.93" width="2.94" height="2.94" rx="0.78" ry="0.78" transform="translate(567.72 108.2) rotate(45)"/><rect class="cls-7" x="221.01" y="733.75" width="2.94" height="2.94" rx="0.78" ry="0.78" transform="translate(585.04 58.02) rotate(45)"/><circle class="cls-4" cx="224.2" cy="601.19" r="2.07" transform="translate(-415.16 547.19) rotate(-64.72)"/><circle class="cls-5" cx="223.96" cy="601.07" r="2.07" transform="translate(-415.19 546.9) rotate(-64.72)"/><rect class="cls-2" x="222.7" y="600.84" width="2.51" height="0.47" rx="0.23" ry="0.23" transform="translate(-415.19 546.9) rotate(-64.72)"/><rect class="cls-2" x="223.72" y="599.82" width="0.47" height="2.51" rx="0.23" ry="0.23" transform="translate(-415.19 546.9) rotate(-64.72)"/><circle class="cls-4" cx="154" cy="601.13" r="2.07"/><circle class="cls-5" cx="153.73" cy="601.13" r="2.07"/><rect class="cls-2" x="153.5" y="599.88" width="0.47" height="2.51" rx="0.23" ry="0.23"/><rect class="cls-2" x="152.47" y="600.9" width="2.51" height="0.47" rx="0.23" ry="0.23"/><circle class="cls-4" cx="224.16" cy="685.88" r="2.07" transform="translate(-303.65 193.85) rotate(-28.91)"/><circle class="cls-5" cx="223.92" cy="686.01" r="2.07" transform="translate(-303.75 193.75) rotate(-28.91)"/><rect class="cls-2" x="223.69" y="684.76" width="0.47" height="2.51" rx="0.23" ry="0.23" transform="translate(-303.74 193.75) rotate(-28.91)"/><rect class="cls-2" x="222.67" y="685.78" width="2.51" height="0.47" rx="0.23" ry="0.23" transform="translate(-303.75 193.75) rotate(-28.91)"/><circle class="cls-4" cx="154.54" cy="685.99" r="2.07" transform="translate(-545.94 624.46) rotate(-72.28)"/><circle class="cls-5" cx="154.28" cy="685.91" r="2.07" transform="translate(-546.05 624.15) rotate(-72.28)"/><rect class="cls-2" x="153.02" y="685.67" width="2.51" height="0.47" rx="0.23" ry="0.23" transform="translate(-546.05 624.15) rotate(-72.28)"/><rect class="cls-2" x="154.05" y="684.65" width="0.47" height="2.51" rx="0.23" ry="0.23" transform="translate(-546.05 624.16) rotate(-72.28)"/></g><circle class="cls-1" cx="107.19" cy="761.39" r="13.2"/><circle class="cls-10" cx="107.19" cy="761.39" r="7.47"/><circle class="cls-13" cx="107.19" cy="761.39" r="5.28"/><circle class="cls-1" cx="93.99" cy="800.51" r="13.2"/><circle class="cls-10" cx="93.99" cy="800.51" r="7.47"/><circle class="cls-13" cx="93.99" cy="800.51" r="5.28"/><circle class="cls-1" cx="131.88" cy="791.92" r="13.2"/><circle class="cls-10" cx="131.88" cy="791.92" r="7.47"/><circle class="cls-13" cx="131.88" cy="791.92" r="5.28"/><circle class="cls-13" cx="81.81" cy="837.86" r="7.2"/><path class="cls-14" d="M84.12,833.13l2.43,2.43a2,2,0,0,1,.52,1.93l-.89,3.32a2,2,0,0,1-1.41,1.41l-3.32.89a2,2,0,0,1-1.93-.52l-2.43-2.43a2,2,0,0,1-.52-1.93l.89-3.32a2,2,0,0,1,1.41-1.41l3.32-.89A2,2,0,0,1,84.12,833.13Z"/><circle class="cls-15" cx="81.81" cy="837.86" r="3.77"/><circle class="cls-13" cx="119.42" cy="825.93" r="7.2"/><path class="cls-14" d="M121.72,821.2l2.43,2.43a2,2,0,0,1,.52,1.93l-.89,3.32a2,2,0,0,1-1.41,1.41l-3.32.89a2,2,0,0,1-1.93-.52l-2.43-2.43a2,2,0,0,1-.52-1.93l.89-3.32a2,2,0,0,1,1.41-1.41l3.32-.89A2,2,0,0,1,121.72,821.2Z"/><circle class="cls-15" cx="119.42" cy="825.93" r="3.77"/><rect class="cls-1" x="113.41" y="820" width="4.47" height="10.41" rx="2.05" ry="2.05" transform="translate(-711.37 723.34) rotate(-75)"/><rect class="cls-10" x="113.69" y="820.36" width="4.1" height="10.12" rx="2.05" ry="2.05" transform="translate(-711.52 723.58) rotate(-75)"/><g id="Pickup2"><rect class="cls-14" x="157.55" y="667.7" width="60.26" height="35.39" rx="2" ry="2"/><rect class="cls-13" x="157.55" y="667.7" width="59.24" height="34.4" rx="2" ry="2"/><ellipse class="cls-14" cx="165.06" cy="693.99" rx="3.07" ry="2.89"/><circle class="cls-16" cx="164.88" cy="693.99" r="2.89"/><path class="cls-14" d="M167.6,693.7h-5.47a.14.14,0,0,0-.14.14v.3a.14.14,0,0,0,.14.14h5.47a.27.27,0,0,0,.27-.27v0A.27.27,0,0,0,167.6,693.7Z"/><ellipse class="cls-14" cx="174.09" cy="693.95" rx="3.06" ry="2.89" transform="translate(-152.79 57.54) rotate(-13.1)"/><ellipse class="cls-16" cx="173.92" cy="693.99" rx="2.89" ry="2.89" transform="translate(-152.8 57.5) rotate(-13.1)"/><path class="cls-14" d="M176.5,693.09l-5.32,1.24a.14.14,0,0,0-.1.17l.07.29a.14.14,0,0,0,.17.1l5.32-1.24a.27.27,0,0,0,.2-.33v0A.27.27,0,0,0,176.5,693.09Z"/><ellipse class="cls-14" cx="182.82" cy="693.99" rx="2.89" ry="3.07" transform="translate(-519.95 839.48) rotate(-86.94)"/><circle class="cls-16" cx="182.65" cy="693.99" r="2.89" transform="translate(-520.1 839.3) rotate(-86.94)"/><path class="cls-14" d="M185.38,693.84l-5.46-.29a.14.14,0,0,0-.15.13l0,.3a.14.14,0,0,0,.13.15l5.46.29a.27.27,0,0,0,.29-.26v0A.27.27,0,0,0,185.38,693.84Z"/><ellipse class="cls-14" cx="191.31" cy="693.99" rx="2.89" ry="3.07" transform="translate(-528.54 687.28) rotate(-74.05)"/><circle class="cls-16" cx="191.15" cy="693.95" r="2.89" transform="translate(-528.61 687.09) rotate(-74.05)"/><path class="cls-14" d="M193.85,694.42l-5.26-1.5a.14.14,0,0,0-.17.1l-.08.29a.14.14,0,0,0,.1.17l5.26,1.5a.27.27,0,0,0,.34-.19v0A.27.27,0,0,0,193.85,694.42Z"/><ellipse class="cls-14" cx="200.04" cy="693.99" rx="3.07" ry="2.89"/><circle class="cls-16" cx="199.87" cy="693.99" r="2.89"/><path class="cls-14" d="M202.59,693.71h-5.47a.14.14,0,0,0-.14.14v.3a.14.14,0,0,0,.14.14h5.47a.27.27,0,0,0,.27-.27v0A.27.27,0,0,0,202.59,693.71Z"/><ellipse class="cls-14" cx="208.49" cy="694.04" rx="3.07" ry="2.89" transform="translate(-123.11 49.68) rotate(-10.51)"/><circle class="cls-16" cx="208.32" cy="694.07" r="2.89" transform="translate(-123.12 49.65) rotate(-10.51)"/><path class="cls-14" d="M210.95,693.29l-5.38,1a.14.14,0,0,0-.11.16l.05.3a.14.14,0,0,0,.16.11l5.38-1a.27.27,0,0,0,.22-.32v0A.27.27,0,0,0,210.95,693.29Z"/></g><rect class="cls-14" x="159.65" y="763.44" width="67.52" height="41.69" rx="3" ry="3" transform="translate(386.83 1568.56) rotate(-180)"/><rect class="cls-13" x="159.65" y="762.44" width="66.43" height="40.97" rx="3" ry="3" transform="translate(385.74 1565.84) rotate(-180)"/><rect class="cls-13" x="159.66" y="779.42" width="66.42" height="7.93"/><polygon class="cls-14" points="159.66 787.35 226.08 787.35 224.12 793.75 161.61 793.75 159.66 787.35"/><rect class="cls-13" x="159.65" y="793.75" width="66.43" height="10.37" rx="3" ry="3" transform="translate(385.74 1597.87) rotate(180)"/><polygon class="cls-14" points="226.08 782.62 159.66 782.62 161.62 776.22 224.12 776.22 226.08 782.62"/><path class="cls-14" d="M168.08,774.11h2.23a.62.62,0,0,0,.55-.91h0a2,2,0,0,1,0-1.88h0a.62.62,0,0,0-.55-.91h-2.23a.62.62,0,0,0-.55.91h0a2,2,0,0,1,0,1.88h0A.62.62,0,0,0,168.08,774.11Z"/><path class="cls-14" d="M178.08,774.11h2.23a.62.62,0,0,0,.55-.91h0a2,2,0,0,1,0-1.88h0a.62.62,0,0,0-.55-.91h-2.23a.62.62,0,0,0-.55.91h0a2,2,0,0,1,0,1.88h0A.62.62,0,0,0,178.08,774.11Z"/><path class="cls-14" d="M187,774.11h2.23a.62.62,0,0,0,.55-.91h0a2,2,0,0,1,0-1.88h0a.62.62,0,0,0-.55-.91H187a.62.62,0,0,0-.55.91h0a2,2,0,0,1,0,1.88h0A.62.62,0,0,0,187,774.11Z"/><path class="cls-14" d="M195.22,774.11h2.23a.62.62,0,0,0,.55-.91h0a2,2,0,0,1,0-1.88h0a.62.62,0,0,0-.55-.91h-2.23a.62.62,0,0,0-.55.91h0a2,2,0,0,1,0,1.88h0A.62.62,0,0,0,195.22,774.11Z"/><path class="cls-14" d="M204.12,774.11h2.23a.62.62,0,0,0,.55-.91h0a2,2,0,0,1,0-1.88h0a.62.62,0,0,0-.55-.91h-2.23a.62.62,0,0,0-.55.91h0a2,2,0,0,1,0,1.88h0A.62.62,0,0,0,204.12,774.11Z"/><path class="cls-14" d="M213.34,774.11h2.23a.62.62,0,0,0,.55-.91h0a2,2,0,0,1,0-1.88h0a.62.62,0,0,0-.55-.91h-2.23a.62.62,0,0,0-.55.91h0a2,2,0,0,1,0,1.88h0A.62.62,0,0,0,213.34,774.11Z"/><ellipse class="cls-14" cx="165.37" cy="798.64" rx="3.83" ry="3.65"/><circle class="cls-16" cx="165.2" cy="798.64" r="3.65"/><ellipse class="cls-14" cx="193.69" cy="798.64" rx="3.83" ry="3.65"/><circle class="cls-16" cx="193.52" cy="798.64" r="3.65"/><ellipse class="cls-14" cx="220.68" cy="798.64" rx="3.83" ry="3.65"/><circle class="cls-16" cx="220.51" cy="798.64" r="3.65"/><rect class="cls-14" x="163.57" y="798.33" width="3.27" height="0.61" rx="0.3" ry="0.3" transform="translate(-637.7 655.59) rotate(-68.21)"/><rect class="cls-14" x="164.89" y="797" width="0.61" height="3.27" rx="0.3" ry="0.3" transform="translate(-637.7 655.59) rotate(-68.21)"/><rect class="cls-14" x="193.38" y="797" width="0.61" height="3.27" rx="0.3" ry="0.3" transform="translate(-507.99 370.87) rotate(-45)"/><rect class="cls-14" x="192.06" y="798.33" width="3.27" height="0.61" rx="0.3" ry="0.3" transform="translate(-507.99 370.87) rotate(-45)"/><rect class="cls-14" x="220.38" y="797.01" width="0.61" height="3.27" rx="0.3" ry="0.3" transform="translate(-230.45 103.66) rotate(-17.54)"/><rect class="cls-14" x="219.05" y="798.33" width="3.27" height="0.61" rx="0.3" ry="0.3" transform="translate(-230.45 103.66) rotate(-17.54)"/><g id="whammy_bar" data-name="whammy bar"><rect class="cls-14" x="159.44" y="744.05" width="67.74" height="24.26" rx="3" ry="3" transform="translate(386.62 1512.35) rotate(180)"/><rect class="cls-13" x="159.65" y="744.05" width="66.43" height="23.62" rx="3" ry="3" transform="translate(385.74 1511.71) rotate(180)"/><rect class="cls-14" x="131.88" y="745.3" width="93.05" height="19.53" rx="3" ry="3" transform="translate(356.82 1510.14) rotate(180)"/><rect class="cls-13" x="132.88" y="745.75" width="91.68" height="18.35" rx="3" ry="3" transform="translate(357.44 1509.84) rotate(180)"/><path class="cls-14" d="M139.41,752.48,122,739.39,90.8,710.13,87,713.57l26.67,25.28a90,90,0,0,0,9.21,7.64l12.94,9.34a.15.15,0,0,0,.19,0l3.38-3.09A.16.16,0,0,0,139.41,752.48Z"/><path class="cls-16" d="M138.91,751.59l-13.47-10.11a90,90,0,0,1-7.59-6.37L90.3,709.24l-3.76,3.44L113.21,738a90,90,0,0,0,9.21,7.64l12.94,9.34a.15.15,0,0,0,.19,0l3.38-3.09A.16.16,0,0,0,138.91,751.59Z"/><path class="cls-1" d="M88.86,714.2l2.33-2.5c1.35-1.45,1-4-.77-5.58L44.59,664.57a3.89,3.89,0,0,0-5.44.19l-.75.8a3.89,3.89,0,0,0,.19,5.44l44.66,42.81C85,715.47,87.5,715.65,88.86,714.2Z"/><path class="cls-10" d="M88.43,713.73l2.33-2.5c1.35-1.45,1-4-.77-5.58L44.16,664.1a3.89,3.89,0,0,0-5.44.19l-.75.8a3.89,3.89,0,0,0,.19,5.44l44.66,42.81C84.54,715,87.07,715.18,88.43,713.73Z"/><ellipse class="cls-14" cx="140.77" cy="755.55" rx="6.34" ry="5.84"/><circle class="cls-16" cx="141.27" cy="755.55" r="5.84"/><ellipse class="cls-14" cx="141.13" cy="755.55" rx="3.63" ry="3.49"/><circle class="cls-13" cx="141.27" cy="755.55" r="3.49"/></g><g id="Pickup2-2" data-name="Pickup2"><rect class="cls-14" x="158.13" y="583.08" width="60.26" height="35.39" rx="2" ry="2"/><rect class="cls-13" x="158.13" y="583.08" width="59.24" height="34.4" rx="2" ry="2"/><ellipse class="cls-14" cx="165.64" cy="591.86" rx="3.07" ry="2.89" transform="translate(-14.92 4.38) rotate(-1.45)"/><circle class="cls-16" cx="165.46" cy="591.86" r="2.89" transform="translate(-14.92 4.38) rotate(-1.45)"/><path class="cls-14" d="M168.18,591.51l-5.47.14a.14.14,0,0,0-.14.14v.3a.14.14,0,0,0,.14.14l5.47-.14a.27.27,0,0,0,.26-.28v0A.27.27,0,0,0,168.18,591.51Z"/><ellipse class="cls-14" cx="174.67" cy="591.82" rx="3.06" ry="2.89"/><ellipse class="cls-16" cx="174.5" cy="591.82" rx="2.89" ry="2.89"/><path class="cls-14" d="M177.21,591.53h-5.46a.14.14,0,0,0-.14.14v.3a.14.14,0,0,0,.14.14h5.46a.27.27,0,0,0,.27-.27v0A.27.27,0,0,0,177.21,591.53Z"/><ellipse class="cls-14" cx="183.4" cy="591.86" rx="2.89" ry="3.07" transform="matrix(0.04, -1, 1, 0.04, -415, 752.63)"/><circle class="cls-16" cx="183.23" cy="591.85" r="2.89" transform="translate(-415.16 752.45) rotate(-87.82)"/><path class="cls-14" d="M186,591.67l-5.46-.21a.14.14,0,0,0-.14.13v.3a.14.14,0,0,0,.13.14l5.46.21a.27.27,0,0,0,.28-.26v0A.27.27,0,0,0,186,591.67Z"/><ellipse class="cls-14" cx="191.89" cy="591.86" rx="3.07" ry="2.89" transform="matrix(0.99, -0.16, 0.16, 0.99, -94.2, 39.35)"/><circle class="cls-16" cx="191.72" cy="591.89" r="2.89" transform="translate(-94.21 39.32) rotate(-9.41)"/><path class="cls-14" d="M194.36,591.16l-5.39.89a.14.14,0,0,0-.11.16l0,.3a.14.14,0,0,0,.16.11l5.39-.89a.27.27,0,0,0,.22-.31v0A.27.27,0,0,0,194.36,591.16Z"/><ellipse class="cls-14" cx="200.62" cy="591.86" rx="3.07" ry="2.89"/><circle class="cls-16" cx="200.45" cy="591.86" r="2.89"/><path class="cls-14" d="M203.17,591.57H197.7a.14.14,0,0,0-.14.14v.3a.14.14,0,0,0,.14.14h5.47a.27.27,0,0,0,.27-.27v0A.27.27,0,0,0,203.17,591.57Z"/><ellipse class="cls-14" cx="209.07" cy="591.9" rx="2.89" ry="3.07" transform="translate(-397.06 755.21) rotate(-85.62)"/><circle class="cls-16" cx="208.9" cy="591.89" r="2.89" transform="translate(-397.2 755.03) rotate(-85.62)"/><path class="cls-14" d="M211.64,591.81l-5.45-.42a.14.14,0,0,0-.15.13l0,.3a.14.14,0,0,0,.13.15l5.45.42a.27.27,0,0,0,.29-.25v0A.27.27,0,0,0,211.64,591.81Z"/></g><g id="Strings"><path class="cls-4" d="M214.46,772.51a.25.25,0,0,1-.25-.24L199.76,164.74c0-5.25,16.77-44.39,17.48-46.05a.25.25,0,1,1,.46.2c-.17.41-17.44,40.71-17.44,45.85l14.45,607.51a.25.25,0,0,1-.24.26Z"/><path class="cls-4" d="M205.23,772.51a.25.25,0,0,1-.25-.25L194.47,164.74c0-4.3,17-72.75,17.7-75.66a.25.25,0,1,1,.48.12c-.18.71-17.69,71.3-17.69,75.54l10.51,607.51a.25.25,0,0,1-.25.25Z"/><path class="cls-4" d="M196.33,772.51a.25.25,0,0,1-.25-.25l-8.2-607.52c0-2.75,18.44-100.78,19.23-105a.25.25,0,0,1,.29-.2.25.25,0,0,1,.2.29c-.19,1-19.22,102.16-19.22,104.86l8.2,607.51a.25.25,0,0,1-.25.25Z"/><path class="cls-4" d="M188.13,772.51a.25.25,0,0,1-.25-.25L181,164.74c0-4.55-6.79-103.89-6.86-104.89a.25.25,0,0,1,.5,0c.07,1,6.86,100.36,6.86,104.92l6.86,607.51a.25.25,0,0,1-.25.25Z"/><path class="cls-4" d="M179.2,772.51a.25.25,0,0,1-.25-.25l-3.67-607.52c0-2.75-8.54-74.84-8.63-75.57a.25.25,0,1,1,.5-.06c.35,3,8.63,72.85,8.63,75.62l3.67,607.52a.25.25,0,0,1-.25.25Z"/><path class="cls-4" d="M169.2,772.51a.25.25,0,0,1-.25-.25c0-4.58-.17-459.79.47-607.52,0-3.87-10.53-45.47-10.64-45.89a.25.25,0,1,1,.48-.12c.44,1.72,10.67,42.07,10.65,46-.64,147.73-.47,602.94-.47,607.52A.25.25,0,0,1,169.2,772.51Z"/></g><g id="Bridge"><circle class="cls-16" cx="221.93" cy="725.88" r="7.13"/><circle class="cls-14" cx="221.93" cy="725.81" r="5.53"/><circle class="cls-16" cx="157.12" cy="722.14" r="7.13"/><circle class="cls-14" cx="157.12" cy="722.08" r="5.53"/><rect class="cls-13" x="153.15" y="719.38" width="73.35" height="9.26" rx="4.34" ry="4.34" transform="translate(338.08 1457.66) rotate(-176.73)"/><rect class="cls-14" x="164.19" y="719.39" width="51.67" height="9.26" transform="translate(338.47 1457.7) rotate(-176.73)"/><rect class="cls-16" x="210.83" y="720.39" width="3.47" height="9.83" rx="1.6" ry="1.6" transform="translate(383.44 1461.55) rotate(-176.73)"/><rect class="cls-16" x="202.08" y="719.62" width="3.47" height="9.83" rx="1.6" ry="1.6" transform="translate(366 1459.51) rotate(-176.73)"/><rect class="cls-16" x="193.48" y="719.33" width="3.47" height="9.83" rx="1.6" ry="1.6" transform="translate(348.83 1458.43) rotate(-176.73)"/><rect class="cls-16" x="184.82" y="718.82" width="3.47" height="9.83" rx="1.6" ry="1.6" transform="translate(331.54 1456.92) rotate(-176.73)"/><rect class="cls-16" x="176.55" y="718.36" width="3.47" height="9.83" rx="1.6" ry="1.6" transform="translate(315.05 1455.54) rotate(-176.73)"/><rect class="cls-16" x="166.21" y="717.8" width="3.47" height="9.83" rx="1.6" ry="1.6" transform="translate(294.41 1453.83) rotate(-176.73)"/><rect class="cls-13" x="162.98" y="722.78" width="53.98" height="2.38" transform="translate(338.36 1457.6) rotate(-176.73)"/><rect class="cls-13" x="205.97" y="720.4" width="3.46" height="9.26" transform="translate(373.74 1460.72) rotate(-176.73)"/><rect class="cls-13" x="197.36" y="719.91" width="3.39" height="9.26" transform="translate(356.49 1459.24) rotate(-176.73)"/><rect class="cls-13" x="188.5" y="719.41" width="3.47" height="9.26" transform="translate(338.88 1457.73) rotate(-176.73)"/><rect class="cls-13" x="180.18" y="718.94" width="3.67" height="9.26" transform="translate(322.49 1456.33) rotate(-176.73)"/><rect class="cls-13" x="169.96" y="718.35" width="3.47" height="9.26" transform="translate(301.9 1454.56) rotate(-176.73)"/><circle class="cls-16" cx="157.44" cy="722.16" r="2.94"/><circle class="cls-14" cx="157.44" cy="722.16" r="2.42"/><circle class="cls-16" cx="221.93" cy="725.88" r="2.94"/><circle class="cls-14" cx="221.93" cy="725.88" r="2.42"/></g><polygon class="cls-2" points="203.31 163.09 206.31 163.09 206.17 166.39 203.17 166.37 203.31 163.09"/></g></g></svg>