<svg xmlns="http://www.w3.org/2000/svg" xmlns:xlink="http://www.w3.org/1999/xlink" viewBox="0 0 327.31 998.98"><defs><style>.cls-1{fill:#f4efdc;}.cls-2,.cls-8{fill:#b3b3b3;}.cls-3{fill:#fbfaf3;}.cls-4{fill:#efe9da;}.cls-5{fill:#ccc;}.cls-6{fill:#e6e6e6;}.cls-15,.cls-17,.cls-7{fill:none;}.cls-15,.cls-8{stroke:#ccc;}.cls-12,.cls-15,.cls-17,.cls-8{stroke-miterlimit:10;}.cls-9{fill:#f9f4e4;}.cls-10{fill:#af8251;}.cls-11{fill:#e3b25d;}.cls-12{fill:#999;}.cls-12,.cls-17{stroke:#e6e6e6;stroke-width:0.5px;}.cls-13{fill:url(#linear-gradient);}.cls-14{fill:#624738;}.cls-16{fill:#f9f6e8;}.cls-17{stroke-linecap:round;}</style><linearGradient id="linear-gradient" x1="129.93" y1="426.27" x2="186.48" y2="425.28" gradientUnits="userSpaceOnUse"><stop offset="0.95" stop-color="#624738"/><stop offset="0.97" stop-color="#644939"/><stop offset="0.97" stop-color="#6c4f3d"/><stop offset="0.98" stop-color="#795b44"/><stop offset="0.99" stop-color="#8c6a4e"/><stop offset="0.99" stop-color="#a47f5b"/><stop offset="1" stop-color="#c1986a"/><stop offset="1" stop-color="#c69c6d"/></linearGradient></defs><title>Asset 21</title><g id="Layer_2" data-name="Layer 2"><g id="_64_Fender_Strat_White_" data-name="64 Fender Strat (White)"><path class="cls-1" d="M51,726.48a103.87,103.87,0,0,0-2.52-20.06c-3.77-16.66-9.59-40.49-15.79-58.59-10.59-30.94-10-52.45-10-52.45,0-41.61,15.92-55.41,25.62-60a14.58,14.58,0,0,1,20.36,9.63c.77,3.17.5,7.06.39,12.29,0,0-.51,23,12.58,38.4,12.87,15.09,44,27.86,55.07.06a2.41,2.41,0,0,1,2.24-1.5l34.66-.19c.81,0,12.11.7,12.11,1.5l-.57,41.86c0,.71,8.5,9.11,9,9.56,4.66,3.84,27.46,20.47,51.33.8,0,0,15.35-12.37,16.07-35.66.4-12.94,7.54-16.21,13.82-16.55a21.55,21.55,0,0,1,16.24,6.49c5,5,9.94,14.17,11.05,28,0,0,1.5,26-11,59.16L286,707.21a91.71,91.71,0,0,0-2.27,48c.37,1.65.77,3.18,1.19,4.52a211.6,211.6,0,0,0,13.69,32.95c20.39,39.7,28.85,74.15,28.7,101.21s-1.15,98.27-162.15,98.27S4.16,920.9,4,893.85s8.31-61.51,28.7-101.21A211.6,211.6,0,0,0,46.4,759.69,101.15,101.15,0,0,0,51,726.48Z"/><g id="strap"><path class="cls-2" d="M165,991.18a5.84,5.84,0,0,0,2.22,2.37,2.26,2.26,0,0,1,1.06,1.95C168.2,997,167,999,160.73,999s-7.47-2-7.53-3.48a2.26,2.26,0,0,1,1.06-1.95,5.84,5.84,0,0,0,2.22-2.37,1.42,1.42,0,0,1,1-.78l.82-.15a13,13,0,0,1,4.79,0l.82.15A1.42,1.42,0,0,1,165,991.18Z"/><path class="cls-2" d="M50.86,531.16a4.93,4.93,0,0,0-1.35-3.61,2.27,2.27,0,0,1-.39-2.19c.52-1.38,2.31-2.89,8.24-.91s6.45,4.28,6,5.69a2.27,2.27,0,0,1-1.63,1.52,4.93,4.93,0,0,0-3.25,2.07"/></g><path class="cls-3" d="M47,723.48a103.87,103.87,0,0,0-2.52-20.06c-3.77-16.66-9.59-40.49-15.79-58.59-10.59-30.94-10-52.45-10-52.45,0-41.61,15.92-55.41,25.62-60a14.58,14.58,0,0,1,20.36,9.63c.77,3.17.5,7.06.39,12.29,0,0-.51,23,12.58,38.4,12.87,15.09,44,27.86,55.07.06a2.41,2.41,0,0,1,2.24-1.5l51.77-.19a1.52,1.52,0,0,1,1.49,1.5l.66,49.58c0,.71.78,1.39,1.33,1.84,4.66,3.84,27.46,20.47,51.33.8,0,0,15.35-12.37,16.07-35.66.4-12.94,7.54-16.21,13.82-16.55a21.55,21.55,0,0,1,16.24,6.49c5,5,9.94,14.17,11.05,28,0,0,1.5,26-11,59.16L282,704.21a91.71,91.71,0,0,0-2.27,48c.37,1.65.77,3.18,1.19,4.52a211.6,211.6,0,0,0,13.69,32.95c20.39,39.7,28.85,74.15,28.7,101.21s-1.15,98.27-162.15,98.27S.16,917.9,0,890.85s8.31-61.51,28.7-101.21A211.6,211.6,0,0,0,42.4,756.69,101.15,101.15,0,0,0,47,723.48Z"/><path class="cls-4" d="M186.86,657.61c0-.85,5.36,2.92,6.11,3.32,38.67,20.92,69.22-.36,77.44-28.24a122.08,122.08,0,0,0,4.75-23.06,3.46,3.46,0,0,1,1.29-2.48,1.77,1.77,0,0,1,.46-.26,5.09,5.09,0,0,1,3.64.18c12.37,5.12,9.71,36.08,7.89,49.78a77.87,77.87,0,0,1-3.75,15.65c-3.16,8.94-8.39,21.48-15.26,39.62-6.36,16.78-2.1,39,1.43,51.9A107.5,107.5,0,0,0,276.63,780l19.1,42.21a182.11,182.11,0,0,1,15.93,49.08,26.39,26.39,0,0,1-.61,11.82c-2.24,7.62-8.65,16.38-27,4-6.41-4.33-14.61-11.79-21.52-17.33a90.2,90.2,0,0,0-18.24-11.42,77.22,77.22,0,0,0-26.47-6.8l-14.91-1.2c-1-.08-4.37-2.73-4.37-4.14l-.62-2.73c0-3.32.75-4.14-2.57-4.13H130.17c-3.31,0-5.41.29-5.41,3.6v7.94a1.94,1.94,0,0,1-1.8,1.95c-7,.52-32-.12-34.82-35.29-2-25.25,3.21-40.71,5.25-45.65,14.18-34.33,18.1-49.24,19.77-54.89,6.6-22.27-1.12-57.13-1.12-57.13l-3.32-15.54a12.5,12.5,0,0,1,1.69-9.56c1.84-2.76,4.9-5.12,9.77-3.56L134.61,637a.74.74,0,0,1,.46.68v25.47a2.89,2.89,0,0,0,2.89,2.89s19.27,3.35,25.7,3.35c6.19,0,24.76-3.35,24.76-3.35,1.6,0-1.79-3.69-1.79-5.29Z"/><g id="string_gauge" data-name="string gauge"><path class="cls-5" d="M206.44,851.48h-6.08a1.64,1.64,0,0,1-1.68-1.6v-9.63c0-2.2-1.89-2.62-4.2-2.62L128,835.3a4.11,4.11,0,0,0-4.2,4v33.42a4.11,4.11,0,0,0,4.2,4h66.47a4.29,4.29,0,0,0,2.8-1,5.76,5.76,0,0,1,3.74-1.45h5.42a5.51,5.51,0,0,0,5.62-5.35v-12A5.51,5.51,0,0,0,206.44,851.48Z"/><path class="cls-6" d="M205.25,851.48h-6.08a1.64,1.64,0,0,1-1.68-1.6V839.29a4.11,4.11,0,0,0-4.2-4H126.83a4.11,4.11,0,0,0-4.2,4v33.42a4.11,4.11,0,0,0,4.2,4H193.3a4.29,4.29,0,0,0,2.8-1,5.76,5.76,0,0,1,3.74-1.45h5.42a5.51,5.51,0,0,0,5.62-5.35v-12A5.51,5.51,0,0,0,205.25,851.48Z"/><circle class="cls-5" cx="131.6" cy="840.25" r="2.62" transform="translate(-708.4 707.09) rotate(-72.09)"/><rect class="cls-2" x="131.38" y="838.42" width="0.44" height="3.66" rx="0.22" ry="0.22" transform="translate(264.77 0.25) rotate(17.91)"/><rect class="cls-2" x="131.38" y="838.42" width="0.44" height="3.66" rx="0.22" ry="0.22" transform="translate(971.61 973.43) rotate(107.91)"/><circle class="cls-5" cx="143.08" cy="840.25" r="2.5" transform="translate(-709.27 840.52) rotate(-80.35)"/><rect class="cls-2" x="141.35" y="840.04" width="3.47" height="0.42" rx="0.21" ry="0.21" transform="translate(-671.74 590.13) rotate(-63.27)"/><rect class="cls-2" x="142.87" y="838.52" width="0.42" height="3.47" rx="0.21" ry="0.21" transform="translate(-671.74 590.14) rotate(-63.27)"/><circle class="cls-5" cx="154.56" cy="840.25" r="2.44" transform="translate(-687.71 983.4) rotate(-89.22)"/><rect class="cls-2" x="152.88" y="840.05" width="3.37" height="0.41" rx="0.2" ry="0.2" transform="translate(-614.1 467.33) rotate(-53.7)"/><rect class="cls-2" x="154.36" y="838.57" width="0.41" height="3.37" rx="0.2" ry="0.2" transform="translate(-614.1 467.32) rotate(-53.7)"/><circle class="cls-5" cx="166.04" cy="840.25" r="2.44" transform="translate(-119.75 32.84) rotate(-8.31)"/><rect class="cls-2" x="164.36" y="840.05" width="3.37" height="0.41" rx="0.2" ry="0.2" transform="translate(-535.72 349.2) rotate(-43.84)"/><rect class="cls-2" x="165.84" y="838.57" width="0.41" height="3.37" rx="0.2" ry="0.2" transform="translate(-535.73 349.21) rotate(-43.84)"/><circle class="cls-5" cx="177.52" cy="840.25" r="2.5" transform="matrix(0.96, -0.3, 0.3, 0.96, -240.31, 89.95)"/><rect class="cls-2" x="175.79" y="840.04" width="3.47" height="0.42" rx="0.21" ry="0.21" transform="translate(-442.27 245.78) rotate(-34.27)"/><rect class="cls-2" x="177.31" y="838.52" width="0.42" height="3.47" rx="0.21" ry="0.21" transform="translate(-442.28 245.79) rotate(-34.27)"/><circle class="cls-5" cx="189" cy="840.25" r="2.62" transform="translate(-342.69 162.72) rotate(-25.45)"/><rect class="cls-2" x="188.78" y="838.42" width="0.44" height="3.66" rx="0.22" ry="0.22" transform="translate(866.53 308.56) rotate(64.55)"/><rect class="cls-2" x="188.78" y="838.42" width="0.44" height="3.66" rx="0.22" ry="0.22" transform="translate(720.69 1517.78) rotate(154.55)"/><path class="cls-5" d="M122.63,872.71C124.17,875,128,875,128,875v1.73s-5.36.69-5.36-4"/><rect class="cls-5" x="127.3" y="874.97" width="66" height="1.77" rx="0.21" ry="0.21"/><path class="cls-5" d="M193.09,876.74a4.54,4.54,0,0,0,3-1.06,5.64,5.64,0,0,1,3.74-1.45s-2.13-1.48-4.11-.39a7.1,7.1,0,0,1-2.64,1.14"/><path class="cls-2" d="M134.15,876.75c0,.66-1.14,1.19-2.55,1.19s-2.55-.53-2.55-1.19Z"/><path class="cls-2" d="M145.63,876.75c0,.66-1.14,1.19-2.55,1.19s-2.55-.53-2.55-1.19Z"/><path class="cls-2" d="M157.11,876.75c0,.66-1.14,1.19-2.55,1.19s-2.55-.53-2.55-1.19Z"/><path class="cls-2" d="M168.59,876.75c0,.66-1.14,1.19-2.55,1.19s-2.55-.53-2.55-1.19Z"/><path class="cls-2" d="M180.07,876.75c0,.66-1.14,1.19-2.55,1.19s-2.55-.53-2.55-1.19Z"/><path class="cls-2" d="M191.55,876.75c0,.66-1.14,1.19-2.55,1.19s-2.55-.53-2.55-1.19Z"/><rect class="cls-5" x="125.43" y="846.75" width="10.8" height="22.26" rx="1.05" ry="1.05"/><rect class="cls-7" x="125.43" y="864.61" width="10.8" height="0.5"/><path class="cls-5" d="M125.43,865.11h10.8a0,0,0,0,1,0,0v3.41a.5.5,0,0,1-.5.5h-9.8a.5.5,0,0,1-.5-.5v-3.41A0,0,0,0,1,125.43,865.11Z"/><rect class="cls-5" x="125.43" y="850.35" width="10.8" height="2.78"/><rect class="cls-8" x="129.17" y="856.8" width="3.32" height="5.85" rx="0.91" ry="0.91"/><path class="cls-5" d="M126.44,846.75h8.79a1,1,0,0,1,1,1v2.59a0,0,0,0,1,0,0h-10.8a0,0,0,0,1,0,0v-2.59A1,1,0,0,1,126.44,846.75Z"/><circle class="cls-7" cx="127.52" cy="851.73" r="1.31"/><circle class="cls-2" cx="127.52" cy="851.73" r="0.9"/><circle class="cls-5" cx="134.06" cy="851.73" r="1.31"/><circle class="cls-2" cx="134.06" cy="851.73" r="0.9"/><rect class="cls-7" x="125.43" y="853.13" width="10.8" height="0.5"/><rect class="cls-7" x="125.43" y="849.81" width="10.8" height="0.5"/><rect class="cls-5" x="137.23" y="846.75" width="10.8" height="22.26" rx="1.05" ry="1.05"/><rect class="cls-7" x="137.23" y="864.61" width="10.8" height="0.5"/><path class="cls-5" d="M137.23,865.11H148a0,0,0,0,1,0,0v3.41a.5.5,0,0,1-.5.5h-9.8a.5.5,0,0,1-.5-.5v-3.41A0,0,0,0,1,137.23,865.11Z"/><rect class="cls-5" x="137.23" y="850.35" width="10.8" height="2.78"/><rect class="cls-8" x="140.97" y="856.8" width="3.32" height="5.85" rx="0.91" ry="0.91"/><path class="cls-5" d="M138.24,846.75H147a1,1,0,0,1,1,1v2.59a0,0,0,0,1,0,0h-10.8a0,0,0,0,1,0,0v-2.59A1,1,0,0,1,138.24,846.75Z"/><circle class="cls-5" cx="139.32" cy="851.73" r="1.31"/><circle class="cls-2" cx="139.32" cy="851.73" r="0.9"/><circle class="cls-5" cx="145.86" cy="851.73" r="1.31"/><circle class="cls-2" cx="145.86" cy="851.73" r="0.9"/><rect class="cls-7" x="137.23" y="853.13" width="10.8" height="0.5"/><rect class="cls-7" x="137.23" y="849.81" width="10.8" height="0.5"/><rect class="cls-5" x="149.09" y="846.73" width="10.8" height="22.26" rx="1.05" ry="1.05"/><rect class="cls-7" x="149.09" y="864.59" width="10.8" height="0.5"/><path class="cls-5" d="M149.09,865.09h10.8a0,0,0,0,1,0,0v3.41a.5.5,0,0,1-.5.5h-9.8a.5.5,0,0,1-.5-.5v-3.41A0,0,0,0,1,149.09,865.09Z"/><rect class="cls-5" x="149.09" y="850.33" width="10.8" height="2.78"/><rect class="cls-8" x="152.83" y="856.78" width="3.32" height="5.85" rx="0.91" ry="0.91"/><path class="cls-5" d="M150.1,846.73h8.79a1,1,0,0,1,1,1v2.59a0,0,0,0,1,0,0h-10.8a0,0,0,0,1,0,0v-2.59A1,1,0,0,1,150.1,846.73Z"/><circle class="cls-5" cx="151.18" cy="851.71" r="1.31"/><circle class="cls-2" cx="151.18" cy="851.71" r="0.9"/><circle class="cls-5" cx="157.72" cy="851.71" r="1.31"/><circle class="cls-2" cx="157.72" cy="851.71" r="0.9"/><rect class="cls-7" x="149.09" y="853.11" width="10.8" height="0.5"/><rect class="cls-7" x="149.09" y="849.8" width="10.8" height="0.5"/><rect class="cls-5" x="160.8" y="846.73" width="10.8" height="22.26" rx="1.05" ry="1.05"/><rect class="cls-7" x="160.8" y="864.59" width="10.8" height="0.5"/><path class="cls-5" d="M160.8,865.09h10.8a0,0,0,0,1,0,0v3.41a.5.5,0,0,1-.5.5h-9.8a.5.5,0,0,1-.5-.5v-3.41A0,0,0,0,1,160.8,865.09Z"/><rect class="cls-5" x="160.8" y="850.33" width="10.8" height="2.78"/><rect class="cls-8" x="164.54" y="856.78" width="3.32" height="5.85" rx="0.91" ry="0.91"/><path class="cls-5" d="M161.8,846.73h8.79a1,1,0,0,1,1,1v2.59a0,0,0,0,1,0,0H160.8a0,0,0,0,1,0,0v-2.59A1,1,0,0,1,161.8,846.73Z"/><circle class="cls-5" cx="162.88" cy="851.71" r="1.31"/><circle class="cls-2" cx="162.88" cy="851.71" r="0.9"/><circle class="cls-5" cx="169.42" cy="851.71" r="1.31"/><circle class="cls-2" cx="169.42" cy="851.71" r="0.9"/><rect class="cls-7" x="160.8" y="853.11" width="10.8" height="0.5"/><rect class="cls-7" x="160.8" y="849.8" width="10.8" height="0.5"/><rect class="cls-5" x="172.66" y="846.57" width="10.8" height="22.26" rx="1.05" ry="1.05"/><rect class="cls-7" x="172.66" y="864.42" width="10.8" height="0.5"/><path class="cls-5" d="M172.66,864.92h10.8a0,0,0,0,1,0,0v3.41a.5.5,0,0,1-.5.5h-9.8a.5.5,0,0,1-.5-.5v-3.41A0,0,0,0,1,172.66,864.92Z"/><rect class="cls-5" x="172.66" y="850.16" width="10.8" height="2.78"/><rect class="cls-8" x="176.4" y="856.62" width="3.32" height="5.85" rx="0.91" ry="0.91"/><path class="cls-5" d="M173.66,846.57h8.79a1,1,0,0,1,1,1v2.59a0,0,0,0,1,0,0h-10.8a0,0,0,0,1,0,0v-2.59A1,1,0,0,1,173.66,846.57Z"/><circle class="cls-5" cx="174.75" cy="851.54" r="1.31"/><circle class="cls-2" cx="174.75" cy="851.54" r="0.9"/><circle class="cls-5" cx="181.29" cy="851.54" r="1.31"/><circle class="cls-2" cx="181.29" cy="851.54" r="0.9"/><rect class="cls-7" x="172.66" y="852.94" width="10.8" height="0.5"/><rect class="cls-7" x="172.66" y="849.63" width="10.8" height="0.5"/><rect class="cls-5" x="184.37" y="846.57" width="10.8" height="22.26" rx="1.05" ry="1.05"/><rect class="cls-7" x="184.37" y="864.42" width="10.8" height="0.5"/><path class="cls-5" d="M184.37,864.92h10.8a0,0,0,0,1,0,0v3.41a.5.5,0,0,1-.5.5h-9.8a.5.5,0,0,1-.5-.5v-3.41A0,0,0,0,1,184.37,864.92Z"/><rect class="cls-5" x="184.37" y="850.16" width="10.8" height="2.78"/><rect class="cls-8" x="188.11" y="856.62" width="3.32" height="5.85" rx="0.91" ry="0.91"/><path class="cls-5" d="M185.37,846.57h8.79a1,1,0,0,1,1,1v2.59a0,0,0,0,1,0,0h-10.8a0,0,0,0,1,0,0v-2.59A1,1,0,0,1,185.37,846.57Z"/><circle class="cls-5" cx="186.46" cy="851.54" r="1.31"/><circle class="cls-2" cx="186.46" cy="851.54" r="0.9"/><circle class="cls-5" cx="192.99" cy="851.54" r="1.31"/><circle class="cls-2" cx="192.99" cy="851.54" r="0.9"/><rect class="cls-7" x="184.37" y="852.94" width="10.8" height="0.5"/><rect class="cls-7" x="184.37" y="849.63" width="10.8" height="0.5"/></g><path class="cls-9" d="M297.66,892.25c-4.07,0-9.14-2-15.08-6-4.18-2.82-9.18-7-14-11.11-2.49-2.1-5.06-4.26-7.44-6.17a91.3,91.3,0,0,0-18.44-11.55,78,78,0,0,0-26.81-6.89l-16.17-1.3a1.31,1.31,0,0,1-1.2-1.3v-5.61a6.59,6.59,0,0,0-6.58-6.58l-63.18.18a7,7,0,0,0-7,7v7.94a1,1,0,0,1-.87,1c-.76.06-1.55.08-2.35.08a30.57,30.57,0,0,1-18.07-5.55c-7.78-5.69-12.26-15.41-13.33-28.9a122.06,122.06,0,0,1,5.19-45.24c.74-2,18.12-49.33,19.79-54.95,3.45-11.66,3-26.71,2-37.29A189,189,0,0,0,111,659.6l-3.32-15.53a11.54,11.54,0,0,1,1.54-8.8c1.6-2.4,3.61-3.61,6-3.61a8.77,8.77,0,0,1,2.67.45l14.19,5.77v25.29a3.9,3.9,0,0,0,3.8,3.89c1.54.27,19.5,3.35,25.79,3.35s24.17-3.23,24.94-3.36a4,4,0,0,0,3.71-3.88v-1.27c0-.11.12-.12.12-.12,10.55,5.69,20.93,8.57,30.92,8.57,25.55,0,42.53-18.78,48-37.38a122.92,122.92,0,0,0,4.78-23.25A2.47,2.47,0,0,1,275,608a.85.85,0,0,1,.19-.12,3.54,3.54,0,0,1,1.19-.2,4.57,4.57,0,0,1,1.73.36c11.78,4.88,9,35.7,7.28,48.72a77,77,0,0,1-3.7,15.45c-1.7,4.83-4,10.63-6.87,18-2.45,6.23-5.23,13.3-8.38,21.62-6.55,17.29-1.93,40.33,1.4,52.52a108.86,108.86,0,0,0,5.83,16.09l19.1,42.21a182,182,0,0,1,15.85,48.84,25.53,25.53,0,0,1-.58,11.36C306.25,889.07,302.74,892.25,297.66,892.25Z"/><path class="cls-4" d="M276.43,608.64a3.56,3.56,0,0,1,1.34.28c7.73,3.2,10.22,21,6.67,47.67a76.08,76.08,0,0,1-3.65,15.25c-1.7,4.81-4,10.61-6.86,17.95-2.45,6.24-5.23,13.3-8.38,21.63-6.65,17.56-2,40.83,1.37,53.13a109.89,109.89,0,0,0,5.89,16.23L291.91,823l0,0,0,0a180.86,180.86,0,0,1,15.75,48.53,24.19,24.19,0,0,1-.55,10.91c-1.7,5.81-4.89,8.75-9.48,8.75-3.86,0-8.75-2-14.52-5.87-4.13-2.79-9.12-7-13.94-11.05-2.49-2.1-5.07-4.27-7.45-6.18a92.38,92.38,0,0,0-18.65-11.67,79,79,0,0,0-27.15-7l-16.17-1.3a.3.3,0,0,1-.28-.3v-5.61a7.59,7.59,0,0,0-7.6-7.58l-63.16.18a8,8,0,0,0-8,8v7.9c-.72.05-1.47.08-2.23.08a29.58,29.58,0,0,1-17.48-5.36c-7.53-5.51-11.88-15-12.92-28.18a121.28,121.28,0,0,1,5.13-44.8c.74-2,18.14-49.37,19.81-55,2.81-9.48,3.48-22.16,2-37.67A186.44,186.44,0,0,0,112,659.4l-3.32-15.54a10.54,10.54,0,0,1,1.39-8c1.43-2.13,3.11-3.17,5.14-3.17a7.71,7.71,0,0,1,2.29.38l13.57,5.51v24.62a4.9,4.9,0,0,0,4.7,4.89c1.94.34,19.6,3.35,25.89,3.35s23.83-3.15,25.07-3.37a5,5,0,0,0,4.58-4.67c10.2,5.3,20.3,8,30,8a48.84,48.84,0,0,0,31.48-11.28,55.33,55.33,0,0,0,17.5-26.82,124.1,124.1,0,0,0,4.82-23.45,1.51,1.51,0,0,1,.51-1.06,2.6,2.6,0,0,1,.77-.11m0-2a4.56,4.56,0,0,0-1.53.26,1.77,1.77,0,0,0-.46.26,3.46,3.46,0,0,0-1.29,2.48,122.08,122.08,0,0,1-4.75,23.06c-5.91,20-23.35,36.67-47.05,36.67-9.27,0-19.51-2.55-30.38-8.43a1.13,1.13,0,0,0-.54-.14,1.11,1.11,0,0,0-1.12,1.12v1.27a3,3,0,0,1-2.89,2.89s-18.57,3.35-24.76,3.35c-6.42,0-25.7-3.35-25.7-3.35a2.89,2.89,0,0,1-2.89-2.89V637.71a.74.74,0,0,0-.46-.68l-14.43-5.86a9.69,9.69,0,0,0-3-.5,8.13,8.13,0,0,0-6.8,4.06,12.5,12.5,0,0,0-1.69,9.56L110,659.82s7.72,34.86,1.12,57.13c-1.67,5.65-19.77,54.89-19.77,54.89a122.13,122.13,0,0,0-5.25,45.65c2.51,31.85,23.31,35.38,32.39,35.38.95,0,1.77,0,2.43-.09a1.94,1.94,0,0,0,1.8-1.95V842.9a6,6,0,0,1,6-6l63.16-.18h0a5.58,5.58,0,0,1,5.58,5.58v5.61a2.3,2.3,0,0,0,2.12,2.29l16.17,1.3a77.22,77.22,0,0,1,26.47,6.8,90.2,90.2,0,0,1,18.24,11.42c6.92,5.54,15.11,13,21.52,17.33,6.66,4.5,11.75,6.21,15.64,6.21,6.85,0,10-5.33,11.4-10.19a26.37,26.37,0,0,0,.6-11.81,182.1,182.1,0,0,0-15.93-49.09L274.63,780A107.5,107.5,0,0,1,268.85,764c-3.53-12.9-7.79-35.11-1.43-51.9,6.87-18.13,12.1-30.68,15.26-39.62a77.87,77.87,0,0,0,3.75-15.65c1.83-13.7,4.49-44.65-7.89-49.78a5.54,5.54,0,0,0-2.11-.43Z"/><g id="jack_plug" data-name="jack plug"><path class="cls-5" d="M290.55,932.81c5.35-7.37-5.78-23-23.36-36.93-30-23.73-37.45-17.52-42.8-10.15-4.93,6.86-8.7,16.73,23.56,37.21,18.93,12,37.39,17.34,42.59,9.86"/><path class="cls-6" d="M289.55,932.81c5.35-7.37-5.78-23-23.36-36.93-30-23.73-37.45-17.52-42.8-10.15-4.93,6.86-8.7,16.73,23.56,37.21,18.93,12,37.39,17.34,42.59,9.86"/><path class="cls-5" d="M243.72,901.46c3.22-4.93,6.54-10,20.65-.76,1.17.76,21.3,13.93,14.76,23.93s-26.65-3.16-27.81-3.92C237.19,911.45,240.5,906.39,243.72,901.46Z"/></g><circle class="cls-1" cx="289.82" cy="869.05" r="12.01"/><circle class="cls-1" cx="255.52" cy="839.3" r="12.01"/><circle class="cls-1" cx="216.73" cy="819.03" r="12.01"/><path class="cls-3" d="M134.59,699.74a8.46,8.46,0,0,1,0-16.93h52.27a8.46,8.46,0,1,1,0,16.93Z"/><path class="cls-1" d="M186.85,683.31a8,8,0,1,1,0,15.93H134.59a8,8,0,0,1,0-15.93h52.27m0-1H134.59a9,9,0,0,0-9,9h0a9,9,0,0,0,9,9h52.27a9,9,0,0,0,9-9h0a9,9,0,0,0-9-9Z"/><path class="cls-3" d="M134.59,760.7a8.46,8.46,0,0,1,0-16.93h52.27a8.46,8.46,0,1,1,0,16.93Z"/><path class="cls-1" d="M186.85,744.28a8,8,0,1,1,0,15.93H134.59a8,8,0,0,1,0-15.93h52.27m0-1H134.59a9,9,0,0,0-9,9h0a9,9,0,0,0,9,9h52.27a9,9,0,0,0,9-9h0a9,9,0,0,0-9-9Z"/><path class="cls-3" d="M187.44,822.73a8.54,8.54,0,0,1-1.36-.11l-51.59-8.39a8.46,8.46,0,0,1,2.72-16.71l51.59,8.39a8.49,8.49,0,0,1,7,9.71A8.54,8.54,0,0,1,187.44,822.73Z"/><path class="cls-1" d="M135.86,797.91h0a8,8,0,0,1,1.27.1l51.59,8.39a8,8,0,0,1-2.56,15.72l-51.59-8.39a8,8,0,0,1,1.28-15.82m0-1a9,9,0,0,0-1.44,17.81L186,823.11a9,9,0,0,0,2.88-17.69L137.3,797a8.93,8.93,0,0,0-1.44-.12Z"/><rect class="cls-2" x="256.82" y="780.19" width="3.47" height="27.5" rx="1.18" ry="1.18" transform="translate(-469.8 385.66) rotate(-42.69)"/><circle class="cls-1" cx="259.98" cy="795.49" r="3.65"/><path class="cls-1" d="M260,792.34a3.15,3.15,0,1,1-3.15,3.15,3.15,3.15,0,0,1,3.15-3.15m0-1a4.15,4.15,0,1,0,4.15,4.15,4.15,4.15,0,0,0-4.15-4.15Z"/><circle class="cls-5" cx="134.46" cy="691.27" r="2.33"/><circle class="cls-5" cx="145.08" cy="691.27" r="2.29" transform="translate(-556.07 776.7) rotate(-85.09)"/><circle class="cls-5" cx="155.7" cy="691.27" r="2.27" transform="translate(-552.06 725.48) rotate(-80.07)"/><circle class="cls-5" cx="166.32" cy="691.27" r="2.27" transform="translate(-544.45 673.19) rotate(-75.01)"/><circle class="cls-5" cx="176.94" cy="691.27" r="2.29" transform="translate(-533.15 621.05) rotate(-69.99)"/><circle class="cls-5" cx="187.56" cy="691.27" r="2.33" transform="translate(-518.4 570.2) rotate(-65.09)"/><circle class="cls-5" cx="134.63" cy="752.43" r="2.33"/><circle class="cls-5" cx="145.25" cy="752.43" r="2.29" transform="translate(-616.84 832.8) rotate(-85.09)"/><circle class="cls-5" cx="155.87" cy="752.43" r="2.27" transform="translate(-612.16 776.26) rotate(-80.07)"/><circle class="cls-5" cx="166.49" cy="752.43" r="2.27" transform="translate(-603.4 718.7) rotate(-75.01)"/><circle class="cls-5" cx="177.11" cy="752.43" r="2.29" transform="matrix(0.34, -0.94, 0.94, 0.34, -590.51, 661.44)"/><circle class="cls-5" cx="187.73" cy="752.43" r="2.33" transform="translate(-573.76 605.76) rotate(-65.09)"/><circle class="cls-5" cx="135.03" cy="805.21" r="2.33" transform="translate(-681.41 800.1) rotate(-80.12)"/><circle class="cls-5" cx="145.49" cy="807.04" r="2.29" transform="translate(-671.95 741.77) rotate(-75.22)"/><circle class="cls-5" cx="155.95" cy="808.86" r="2.27" transform="translate(-657.9 681.54) rotate(-70.2)"/><circle class="cls-5" cx="166.42" cy="810.68" r="2.27" transform="translate(-639.09 620.82) rotate(-65.14)"/><circle class="cls-5" cx="176.88" cy="812.5" r="2.29" transform="translate(-615.72 561.04) rotate(-60.12)"/><circle class="cls-5" cx="187.34" cy="814.32" r="2.33" transform="translate(-588.31 503.55) rotate(-55.21)"/><g id="screws"><circle class="cls-5" cx="115.46" cy="639.6" r="2.62" transform="translate(-287.43 129.6) rotate(-28.08)"/><rect class="cls-2" x="115.24" y="637.77" width="0.44" height="3.66" rx="0.22" ry="0.22" transform="translate(-287.43 129.6) rotate(-28.08)"/><rect class="cls-2" x="115.24" y="637.77" width="0.44" height="3.66" rx="0.22" ry="0.22" transform="translate(625.46 236.71) rotate(61.93)"/><circle class="cls-5" cx="196.93" cy="670.89" r="2.62" transform="translate(-501.83 695.73) rotate(-75.68)"/><rect class="cls-2" x="196.71" y="669.06" width="0.44" height="3.66" rx="0.22" ry="0.22" transform="translate(172.09 -27.86) rotate(14.32)"/><rect class="cls-2" x="196.71" y="669.06" width="0.44" height="3.66" rx="0.22" ry="0.22" transform="translate(895.68 646.05) rotate(104.32)"/><circle class="cls-5" cx="272.7" cy="681.32" r="2.62" transform="translate(-460.08 721.24) rotate(-71.3)"/><rect class="cls-2" x="272.48" y="679.49" width="0.44" height="3.66" rx="0.22" ry="0.22" transform="translate(232.78 -51.46) rotate(18.7)"/><rect class="cls-2" x="272.48" y="679.49" width="0.44" height="3.66" rx="0.22" ry="0.22" transform="translate(1005.49 641.4) rotate(108.7)"/><circle class="cls-5" cx="279.21" cy="621.19" r="2.62" transform="translate(-262.01 207.77) rotate(-28.42)"/><rect class="cls-2" x="278.99" y="619.36" width="0.44" height="3.66" rx="0.22" ry="0.22" transform="translate(-262 207.76) rotate(-28.42)"/><rect class="cls-2" x="278.99" y="619.36" width="0.44" height="3.66" rx="0.22" ry="0.22" transform="translate(692.63 79.97) rotate(61.58)"/><circle class="cls-5" cx="265.54" cy="776.07" r="2.62" transform="translate(-434.28 348.23) rotate(-39.67)"/><rect class="cls-2" x="265.32" y="774.25" width="0.44" height="3.66" rx="0.22" ry="0.22" transform="translate(-434.28 348.23) rotate(-39.67)"/><rect class="cls-2" x="265.32" y="774.25" width="0.44" height="3.66" rx="0.22" ry="0.22" transform="translate(693.38 76.25) rotate(50.33)"/><circle class="cls-5" cx="288.17" cy="826.04" r="2.62" transform="translate(-231.18 122.01) rotate(-17.18)"/><rect class="cls-2" x="287.95" y="824.21" width="0.44" height="3.66" rx="0.22" ry="0.22" transform="translate(-231.18 122.01) rotate(-17.18)"/><rect class="cls-2" x="287.95" y="824.21" width="0.44" height="3.66" rx="0.22" ry="0.22" transform="translate(992.2 306.7) rotate(72.82)"/><circle class="cls-5" cx="299.08" cy="882.53" r="2.62" transform="translate(-626.07 771.11) rotate(-64.41)"/><rect class="cls-2" x="298.86" y="880.7" width="0.44" height="3.66" rx="0.22" ry="0.22" transform="translate(410.49 -42.62) rotate(25.59)"/><rect class="cls-2" x="298.86" y="880.7" width="0.44" height="3.66" rx="0.22" ry="0.22" transform="translate(1224.22 993.94) rotate(115.59)"/><circle class="cls-5" cx="205.56" cy="845.04" r="2.62" transform="translate(-273.85 119.42) rotate(-19.78)"/><rect class="cls-2" x="205.34" y="843.21" width="0.44" height="3.66" rx="0.22" ry="0.22" transform="translate(-273.84 119.42) rotate(-19.78)"/><rect class="cls-2" x="205.34" y="843.21" width="0.44" height="3.66" rx="0.22" ry="0.22" transform="translate(931.18 365.64) rotate(70.22)"/><circle class="cls-5" cx="111.6" cy="844.82" r="2.62" transform="translate(-726.6 691.22) rotate(-72.09)"/><rect class="cls-2" x="111.38" y="842.99" width="0.44" height="3.66" rx="0.22" ry="0.22" transform="translate(265.2 6.62) rotate(17.91)"/><rect class="cls-2" x="111.38" y="842.99" width="0.44" height="3.66" rx="0.22" ry="0.22" transform="translate(949.81 998.42) rotate(107.91)"/><circle class="cls-5" cx="94.43" cy="792.65" r="2.62" transform="translate(-397.59 164.06) rotate(-31.26)"/><rect class="cls-2" x="94.21" y="790.82" width="0.44" height="3.66" rx="0.22" ry="0.22" transform="translate(-397.59 164.06) rotate(-31.26)"/><rect class="cls-2" x="94.21" y="790.82" width="0.44" height="3.66" rx="0.22" ry="0.22" transform="translate(723.02 300.63) rotate(58.74)"/><circle class="cls-5" cx="111.47" cy="741.58" r="2.62" transform="translate(-479.18 279.53) rotate(-43.42)"/><rect class="cls-2" x="111.25" y="739.75" width="0.44" height="3.66" rx="0.22" ry="0.22" transform="translate(-479.18 279.52) rotate(-43.42)"/><rect class="cls-2" x="111.25" y="739.75" width="0.44" height="3.66" rx="0.22" ry="0.22" transform="translate(573.53 150.93) rotate(46.58)"/><circle class="cls-5" cx="200.54" cy="752.43" r="3.3" transform="translate(-422.89 285.85) rotate(-38.27)"/><rect class="cls-2" x="200.27" y="750.12" width="0.55" height="4.61" rx="0.22" ry="0.22" transform="translate(667.12 128.99) rotate(51.73)"/><rect class="cls-2" x="200.27" y="750.12" width="0.55" height="4.61" rx="0.22" ry="0.22" transform="translate(823.98 1219.01) rotate(141.73)"/><circle class="cls-5" cx="121.57" cy="752.24" r="3.3" transform="translate(-594.6 491.96) rotate(-60.85)"/><rect class="cls-2" x="121.3" y="749.93" width="0.55" height="4.61" rx="0.22" ry="0.22" transform="translate(837.74 1012.51) rotate(119.15)"/><rect class="cls-2" x="121.3" y="749.93" width="0.55" height="4.61" rx="0.22" ry="0.22" transform="translate(-138.7 1468.41) rotate(-150.85)"/><circle class="cls-5" cx="200.45" cy="691.27" r="3.3" transform="translate(-278.66 154.16) rotate(-25.56)"/><rect class="cls-2" x="200.17" y="688.97" width="0.55" height="4.61" rx="0.22" ry="0.22" transform="translate(737.57 212.17) rotate(64.44)"/><rect class="cls-2" x="200.17" y="688.97" width="0.55" height="4.61" rx="0.22" ry="0.22" transform="translate(679.56 1228.39) rotate(154.44)"/><circle class="cls-5" cx="121.57" cy="691.27" r="3.3" transform="translate(-473.05 318.37) rotate(-47.93)"/><rect class="cls-2" x="121.3" y="688.97" width="0.55" height="4.61" rx="0.22" ry="0.22" transform="translate(494.48 96.65) rotate(42.07)"/><rect class="cls-2" x="121.3" y="688.97" width="0.55" height="4.61" rx="0.22" ry="0.22" transform="translate(716.2 1064.18) rotate(132.07)"/><circle class="cls-5" cx="121.57" cy="801.91" r="3.3" transform="translate(-604.97 441.39) rotate(-54.99)"/><rect class="cls-2" x="121.3" y="799.61" width="0.55" height="4.61" rx="0.22" ry="0.22" transform="translate(482.1 75.37) rotate(35.01)"/><rect class="cls-2" x="121.3" y="799.61" width="0.55" height="4.61" rx="0.22" ry="0.22" transform="translate(848.12 1162.44) rotate(125.01)"/><circle class="cls-5" cx="200.54" cy="815.73" r="3.3" transform="translate(-618.16 1003.74) rotate(-89.12)"/><rect class="cls-2" x="200.27" y="813.42" width="0.55" height="4.61" rx="0.22" ry="0.22" transform="translate(12.53 -2.98) rotate(0.88)"/><rect class="cls-2" x="200.27" y="813.42" width="0.55" height="4.61" rx="0.22" ry="0.22" transform="translate(1019.25 627.71) rotate(90.88)"/><circle class="cls-5" cx="272.51" cy="809.07" r="3.3" transform="translate(-79.41 31.25) rotate(-5.73)"/><rect class="cls-2" x="272.23" y="806.76" width="0.55" height="4.61" rx="0.22" ry="0.22" transform="translate(-79.41 31.25) rotate(-5.73)"/><rect class="cls-2" x="272.23" y="806.76" width="0.55" height="4.61" rx="0.22" ry="0.22" transform="translate(1050.33 457.14) rotate(84.27)"/><circle class="cls-5" cx="244.49" cy="778.69" r="3.3" transform="translate(-567.73 698.48) rotate(-66.93)"/><rect class="cls-2" x="244.21" y="776.38" width="0.55" height="4.61" rx="0.22" ry="0.22" transform="translate(324.7 -33.53) rotate(23.07)"/><rect class="cls-2" x="244.21" y="776.38" width="0.55" height="4.61" rx="0.22" ry="0.22" transform="translate(1056.71 858.9) rotate(113.07)"/><circle class="cls-5" cx="227.48" cy="887.76" r="2.62" transform="translate(-439.81 259.6) rotate(-32.36)"/><rect class="cls-2" x="227.26" y="885.93" width="0.44" height="3.66" rx="0.22" ry="0.22" transform="translate(855.65 220.47) rotate(57.64)"/><rect class="cls-2" x="227.26" y="885.93" width="0.44" height="3.66" rx="0.22" ry="0.22" transform="matrix(-0.84, 0.54, -0.54, -0.84, 894.78, 1515.93)"/><circle class="cls-5" cx="285.82" cy="929.49" r="2.62" transform="translate(-673.55 1088.4) rotate(-82.31)"/><rect class="cls-2" x="285.6" y="927.66" width="0.44" height="3.66" rx="0.22" ry="0.22" transform="translate(-673.55 1088.38) rotate(-82.31)"/><rect class="cls-2" x="285.6" y="927.66" width="0.44" height="3.66" rx="0.22" ry="0.22" transform="translate(126.9 -29.88) rotate(7.69)"/></g><g id="wang"><polygon class="cls-2" points="201.96 873.8 206.78 862.98 201.7 860.85 197.21 871.01 201.96 873.8"/><circle class="cls-2" cx="204.25" cy="861.89" r="2.76"/><circle class="cls-2" cx="199.59" cy="872.39" r="2.76"/><path class="cls-5" d="M252.33,785.77c1.63-3,2.79-9.73,2.79-16.42,0-9.74-2.36-17.64-5.26-17.64s-5.25,7.9-5.25,17.64c0,7.52,1.4,13.92,3.38,16.46l-.58,11.5a13.26,13.26,0,0,1-2,6.36l-43.66,70a1.68,1.68,0,0,0,.54,2.31l.66.42a1.69,1.69,0,0,0,2.32-.54l45.49-72.18a5.07,5.07,0,0,0,.77-2.13,1,1,0,0,0,0-.17Z"/><path class="cls-1" d="M250.29,786a4.18,4.18,0,0,1-2-.55c-1.93-2.56-3.22-9-3.22-16.08,0-10.1,2.5-17.14,4.75-17.14s4.76,7,4.76,17.14c0,6.51-1.1,13.1-2.68,16.09a2.71,2.71,0,0,1-1.65.54Z"/><path class="cls-1" d="M249.86,752.71c1.49,0,4.26,5.71,4.26,16.64,0,6.26-1.07,12.81-2.57,15.75a2.19,2.19,0,0,1-1.26.38,3.67,3.67,0,0,1-1.62-.43c-1.54-2.14-3.06-7.75-3.06-15.7,0-10.93,2.77-16.64,4.25-16.64m0-1c-2.9,0-5.25,7.9-5.25,17.64,0,7.52,1.4,13.92,3.38,16.46a4.7,4.7,0,0,0,2.3.67,3.21,3.21,0,0,0,2-.71c1.63-3,2.79-9.73,2.79-16.42,0-9.74-2.36-17.64-5.26-17.64Z"/><path class="cls-5" d="M205.14,876c-.82,1-5.43,6.51-7.51-.29a6.46,6.46,0,0,1-.16-3.46c.25-1,.81-2,2-2,2.44,0,2.24,3.37,2.24,3.37l3.34,2.08A.19.19,0,0,1,205.14,876Z"/></g><g id="neck"><rect class="cls-2" x="158.96" y="22.18" width="6.57" height="3.47" rx="1.74" ry="1.74" transform="translate(23.07 -62.84) rotate(23.55)"/><rect class="cls-2" x="152.08" y="46.71" width="6.57" height="3.47" rx="1.74" ry="1.74" transform="translate(32.3 -58.05) rotate(23.55)"/><rect class="cls-2" x="144.61" y="71.15" width="6.57" height="3.47" rx="1.74" ry="1.74" transform="translate(41.45 -53.03) rotate(23.55)"/><rect class="cls-2" x="137.81" y="93.74" width="6.57" height="3.47" rx="1.74" ry="1.74" transform="translate(49.91 -48.43) rotate(23.55)"/><rect class="cls-2" x="131.8" y="116.19" width="3.47" height="6.57" rx="1.74" ry="1.74" transform="translate(-29.34 194.14) rotate(-66.45)"/><rect class="cls-2" x="122.85" y="141.81" width="6.57" height="3.47" rx="1.74" ry="1.74" transform="translate(67.87 -38.45) rotate(23.55)"/><ellipse class="cls-2" cx="119.66" cy="139.85" rx="8.2" ry="6.28" transform="matrix(0.4, -0.92, 0.92, 0.4, -56.35, 193.66)"/><ellipse class="cls-2" cx="126.29" cy="115.87" rx="8.2" ry="6.28" transform="translate(-30.4 185.33) rotate(-66.45)"/><ellipse class="cls-2" cx="133.89" cy="91.9" rx="8.2" ry="6.28" transform="translate(-3.86 177.91) rotate(-66.45)"/><ellipse class="cls-2" cx="140.51" cy="69.09" rx="8.2" ry="6.28" transform="translate(21.03 170.29) rotate(-66.45)"/><ellipse class="cls-2" cx="148.14" cy="44.86" rx="8.2" ry="6.28" transform="matrix(0.4, -0.92, 0.92, 0.4, 47.82, 162.74)"/><ellipse class="cls-2" cx="154.75" cy="20.63" rx="8.2" ry="6.28" transform="matrix(0.4, -0.92, 0.92, 0.4, 74, 154.24)"/><path class="cls-10" d="M137.85,182.39s-.36-8-10.29-14.3c-.63-.4-3.78-.92-3.86-1.66-.74-7,3.86-11.37,6.86-22,5.6-19.86,28-94.19,34.47-117.22,17.55-62.05,82.61,3.05,41.11,22.92l-.36.17A16,16,0,0,0,196.36,63c-.44,4.09.35,9.38,2.05,16.5,5.68,23.8,8.32,43.53,10,52.09a42.42,42.42,0,0,1,.75,10c0,.39,0,.71-.06.93a3.81,3.81,0,0,1-2.06,3c-5.16,2.64-22.91,12.05-24.77,36.81Z"/><path class="cls-11" d="M137.85,182.39A56.75,56.75,0,0,0,123,169.13a2,2,0,0,1-.94-1.86c.28-3.08,2.51-13.23,5.5-23.86,5.6-19.86,28-94.19,34.47-117.22,17.55-62.05,82.61,3.05,41.11,22.92l-.36.17A16,16,0,0,0,193.36,62c-.44,4.09.35,9.38,2.05,16.5,5.68,23.8,8.32,43.53,10,52.09a42.42,42.42,0,0,1,.75,10c0,.39,0,.71-.06.93a3.81,3.81,0,0,1-2.06,3c-5.16,2.64-20.91,13.05-22.77,37.81Z"/><circle class="cls-2" cx="152.98" cy="100.66" r="5.64"/><circle class="cls-2" cx="152.98" cy="100.66" r="3.99"/><circle class="cls-12" cx="152.98" cy="100.66" r="2.82"/><circle class="cls-2" cx="139.04" cy="149.17" r="5.64"/><circle class="cls-2" cx="139.04" cy="149.17" r="3.99"/><circle class="cls-12" cx="139.04" cy="149.17" r="2.82"/><circle class="cls-2" cx="145.77" cy="124.37" r="5.64"/><circle class="cls-2" cx="145.77" cy="124.37" r="3.99"/><circle class="cls-12" cx="145.77" cy="124.37" r="2.82"/><circle class="cls-2" cx="160.98" cy="78.01" r="5.64"/><circle class="cls-2" cx="160.98" cy="78.01" r="3.99"/><circle class="cls-12" cx="160.98" cy="78.01" r="2.82"/><circle class="cls-2" cx="168.16" cy="54.02" r="5.64"/><circle class="cls-2" cx="168.16" cy="54.02" r="3.99"/><circle class="cls-12" cx="168.16" cy="54.02" r="2.82"/><circle class="cls-2" cx="174.69" cy="29.32" r="5.64"/><circle class="cls-2" cx="174.69" cy="29.32" r="3.99"/><circle class="cls-12" cx="174.69" cy="29.32" r="2.82"/></g><g id="fretboard"><path class="cls-13" d="M190.3,660v3.17c0,1.6-2,2.64-4.84,3.06,0,0-16.62,3.18-22.81,3.18-6.42,0-25.7-3.35-25.7-3.35a2.89,2.89,0,0,1-2.89-2.89v-26l4.78-454.82h43.39Z"/><path class="cls-14" d="M189.3,660v3.17c0,1.6-1.21,2.63-2.89,2.89,0,0-18.57,3.35-24.76,3.35-6.42,0-25.7-3.35-25.7-3.35a2.89,2.89,0,0,1-2.89-2.89v-26l4.78-454.82h43.39Z"/><line class="cls-15" x1="133.06" y1="656.42" x2="189.24" y2="656.42"/><line class="cls-15" x1="133.06" y1="644.99" x2="189.05" y2="644.99"/><line class="cls-15" x1="133.06" y1="632.71" x2="188.84" y2="632.71"/><line class="cls-15" x1="133.25" y1="619.77" x2="188.63" y2="619.77"/><line class="cls-15" x1="133.4" y1="605.76" x2="188.39" y2="605.76"/><line class="cls-15" x1="133.55" y1="591.1" x2="188.14" y2="591.1"/><line class="cls-15" x1="133.71" y1="575.57" x2="187.88" y2="575.57"/><line class="cls-15" x1="133.89" y1="559.19" x2="187.6" y2="559.19"/><line class="cls-15" x1="134.06" y1="542.16" x2="187.31" y2="542.16"/><line class="cls-15" x1="134.26" y1="523.4" x2="187" y2="523.4"/><line class="cls-15" x1="134.47" y1="503.78" x2="186.67" y2="503.78"/><line class="cls-15" x1="134.69" y1="482.87" x2="186.31" y2="482.87"/><line class="cls-15" x1="134.92" y1="461.1" x2="185.95" y2="461.1"/><line class="cls-15" x1="135.16" y1="437.6" x2="185.55" y2="437.6"/><line class="cls-15" x1="135.42" y1="413.45" x2="185.14" y2="413.45"/><line class="cls-15" x1="135.69" y1="387.15" x2="184.7" y2="387.15"/><line class="cls-15" x1="135.99" y1="359.12" x2="184.22" y2="359.12"/><line class="cls-15" x1="136.3" y1="329.37" x2="183.72" y2="329.37"/><line class="cls-15" x1="136.63" y1="298.11" x2="183.19" y2="298.11"/><line class="cls-15" x1="136.98" y1="264.48" x2="182.64" y2="264.48"/><line class="cls-15" x1="137.35" y1="229.34" x2="182.03" y2="229.34"/><path class="cls-5" d="M138,188.6h43.19a.2.2,0,0,1,.2.2l.06,3.26a.2.2,0,0,1-.2.2H138a.2.2,0,0,1-.2-.2V188.8A.2.2,0,0,1,138,188.6Z"/><circle class="cls-5" cx="161.18" cy="651.2" r="3.22"/><circle class="cls-5" cx="161.18" cy="626.54" r="3.22"/><circle class="cls-5" cx="161.18" cy="599.2" r="3.22"/><circle class="cls-5" cx="161.15" cy="568.11" r="3.22"/><circle class="cls-5" cx="171.92" cy="514.17" r="3.22"/><circle class="cls-5" cx="149.62" cy="514.17" r="3.22"/><circle class="cls-5" cx="161.15" cy="450.17" r="3.22"/><circle class="cls-5" cx="161.15" cy="400.63" r="3.22"/><circle class="cls-5" cx="161.15" cy="344.9" r="3.22"/><circle class="cls-5" cx="161.15" cy="282.04" r="3.22"/></g><circle class="cls-16" cx="216.73" cy="819.03" r="6.79"/><circle class="cls-16" cx="255.52" cy="839.3" r="6.79"/><polygon class="cls-2" points="253.04 904.41 250.32 907.38 246.78 908.18 244.26 906.22 244.42 902.35 247.45 898.95 251.34 898.36 253.55 900.74 253.04 904.41"/><circle class="cls-16" cx="290" cy="869.05" r="6.79"/><ellipse class="cls-6" cx="250.25" cy="904.5" rx="4.81" ry="2.54" transform="translate(-586.7 479.94) rotate(-47.64)"/><ellipse class="cls-2" cx="251.17" cy="905.1" rx="3.37" ry="0.86" transform="translate(-600.26 508.41) rotate(-49.51)"/><g id="Layer_17" data-name="Layer 17"><line class="cls-17" x1="130.83" y1="860.73" x2="141.86" y2="149.17"/><line class="cls-17" x1="154.49" y1="860.71" x2="155.8" y2="100.66"/><line class="cls-17" x1="142.63" y1="860.73" x2="148.59" y2="124.37"/><line class="cls-17" x1="166.2" y1="860.71" x2="163.8" y2="78.01"/><line class="cls-17" x1="178.06" y1="860.54" x2="170.98" y2="54.02"/><line class="cls-17" x1="189.76" y1="860.73" x2="177.51" y2="29.32"/></g></g></g></svg>