<svg xmlns="http://www.w3.org/2000/svg" viewBox="0 0 1181.97 759.79"><defs><style>.cls-1{fill:#fff;}</style></defs><title>jimi_home</title><g id="Layer_2" data-name="Layer 2"><g id="Home"><g id="_Group_" data-name="&lt;Group&gt;"><g id="_Group_2" data-name="&lt;Group&gt;"><path class="cls-1" d="M707.86,101.26h0a8.64,8.64,0,0,1,1.9-1.12c4.53-1.91,9.57-5.79,13.5-4.89,3.13.71,7.51,7.94,6.72,11.14-1.3,5.25-6.19,9.7-9.91,14.2-.87,1.06-3.13,1.18-4.78,1.33-9.65.84-20.76,2.65-21.68,13.45-.8,9.4,4.16,19.3,5.93,26.38,10.48-3.34,17.4-5.91,24.53-7.56,1.68-.39,4.77,1.8,6,3.62,4.5,6.7-3.93,31.48-10.32,36.58-12.46,9.93-24.06,21-35.75,31.84-1.54,1.43-1.53,4.54-3.22,10.11L723.59,229c.83,12.72,2.33,26.66,2.45,40.6.09,9.32-6.22,14-14.54,18.44-15.81,8.41-30.38,19.13-45.61,28.66a216.62,216.62,0,0,1-22,12.44c-13.79,6.52-18.06,19.53-24.61,31.06l2.62,2c5.3-7.18,10.16-14.76,16.06-21.41a46.24,46.24,0,0,1,13.79-10.39c6.28-3.09,11.82-2.72,14.84,5.82,2.47,6.95,17.3,10.11,22.68,5.49,2.1-1.8,2.92-5.33,5.17-6.69s5.56-1,6.93-1.21c2.63-5.65,4.7-10.1,6.78-14.55l5.26.33q3.75,25.67,7.52,51.33c-15.77,10.69-12.8,31.59-24.41,48.07-3.17-10.22-5.36-17.32-7.57-24.44l12.74-3.69c-.21-1.07-.43-2.14-.64-3.2H681.68c2,10.49,4.59,21.45,6,32.56,2.57,19.83-3.35,29.47-21.63,37.32-3.48,1.5-6.71,3.59-10.2,5.08-10.2,4.36-9.68,11-4.63,19.16,11.5,18.57,10.67,23.24-6.35,37,1.82,4.83,3.64,9.93,5.68,14.93a23.14,23.14,0,0,0,2.83,4.12L672,516.24l11,6.58,18.14-6.54c-3.25-7.35-6.65-15-10-22.67l3.38,1.62c6.4-8.62,12.11-17.88,19.34-25.74,13-14.17,12.75-32.25,16.36-49.28.68-3.21,1.67-7.26,4-9.05,8.7-6.74,7.18-12.42.49-19.72-2.33-2.54-1.44-8.05-1.82-10.74l11.52-13.95c-5.3-6.56-9-11.09-12.61-15.61l15-6.38.67-2.51-13.58-13,12-11.21,2.34,1.74c.8-6.44,1.6-12.88,2.56-20.56l-11.81,9.35-2.24-2c1.18-2.29,2.7-4.48,3.5-6.9,3.95-12.08,14.87-22,3.14-37.64-5.3-7.07.36-22.38,1-33.94.24-3.95.49-7.89,2.83-12.36,5.67,14.63,11.75,29.12,16.69,44,1.09,3.26-1.84,7.85-3.45,13.82,4.17,2.7,9.1,6.49,14.53,9.27,7.17,3.66,8.81,7.61,6.47,16.06-4,14.39-5.45,29.47-7.91,44.28-3.37,20.32-6.87,40.62-9.9,61-.84,5.66.2,11.58-.31,17.32-.8,9-2.41,17.89-3.24,26.86a92,92,0,0,0,.22,15c0,.43,3,.65,6.63,1.38v12.08l-2.75,2.24c11,6.66,23.19,12,32.62,20.41,7.07,6.31,10.58,16.6,15.67,25.12l15.22,16.28,15.08,17.93c9.1,6.77,18.11,13.66,27.43,20.11,1,.7,3.86-1.86,5.79-1.76a61.23,61.23,0,0,1,14.06,2c2.37.7,4.2,5.1,6.14,5,13.23-.64,26.43-2,40.76-3.27l-6.5-14.37,12.4,4.6c17.66-17,16.66-23.73,2.06-43.62q-34-46.35-64.43-95.26c-6.74-10.87-7.93-25.2-11.38-37l27.51-10.33c-10.92-1-23.73,4.64-31.11-2.63-.18-.17-.35-.35-.52-.54a12.58,12.58,0,0,1-1-1.24,18.26,18.26,0,0,1-2.08-3.95c-.12-.31-.23-.63-.35-1l-.24-.72a37.92,37.92,0,0,1-1.28-6l.25-.07.73-.25c23.62.26,23.9-.39,25.38-28-9.55,9.2-12.48,23.44-25.38,28h-1l0,0c0,.12,0,.23,0,.35-2.34.64-4.65,1.35-7,1.79-.59.12-1.36-.73-4.8-2.77,6.61-7.49,12.81-14.5,20.87-23.64l-39.12,1.81-11.35-20.86,6.79,4.38c-2.81-22.25-18.85-41-11.73-64.37-12.84-8.89-1.77-23.59-5.27-35.67-7.15,28.15-.47,55.34,6.12,82.53C812,307,808.76,302,807.3,296.64c-9.84-36.46-10.12-72.66,6-107.53,4.42-9.52,11.67-17.74,17.62-26.55l3.57,2.18-8.24,14.5,2.19,2c6.48-5.9,12.86-11.93,19.49-17.65,3.38-2.92,7-7.06,10.92-7.65,28.66-4.26,57.56-11.12,83.39,10.56,12.15,10.21,26,18.42,39.22,27.31,21.25,14.26,28.45,36.89,35.75,59.47.45,1.41-.2,3.17-.4,5.41-14.2-1.22-24.15,4.27-30.24,15.71,18.44,11.72,40.7,15.3,49,38.58,3,8.35,10.27,15.3,16.12,22.46,4.61,5.63,2.4,23.27-4.44,25.53-7.57,2.5-15.73,3.24-26.55,5.31l26.67-25.2c-24.13,4.38-35.68,24-51.65,37.87-10.81,9.4-22.63,17.63-33.07,25.68,18,4.81,35.52-4.56,53.34-13.75,13.94-7.19,28.46-13.25,42.72-19.82l2.73,3.86q-11.3,12.57-22.58,25.16l2.57,3,23.87-13.79,1.58,1.84c-2.78,5.92-6.53,11.63-7.91,17.86-.64,2.85,4.68,9.87,5.08,9.7,15.64-6.57,14.76,9.65,23,15.68l-18,5.47c.3,1.18.61,2.36.91,3.54a64.84,64.84,0,0,1,8.22-.36c9.62.76,17.77,3.27,20.89,14.28,1.76,6.23,5.46,11.9,8.69,18.67l-8.94,1-1.23,2.14c1.08.41,2.41.56,3.2,1.29,6.35,5.82,13.41,11.1,18.69,17.78,11.38,14.42,22.94,28.9,32.3,44.62,8,13.48,13.33,28.62,19.3,43.25,2.68,6.57,2.7,14.48,6.26,20.37,7,11.54,5,22.29.07,35.2l-21.91-29.75-2.27,1.48a56.57,56.57,0,0,0,2.17,5.47c8.35,16.32,8.31,16.22-7,25.47-2.26,1.36-3.7,4.09-5.52,6.19l12.63,9.12L1145.9,666l-20.64-7c-.09-1.31-.27-4-.53-8-36,17.48-66.92-1.58-101.62-9.14-.23.53-1.84,4.15-3.39,7.63l23.76,18.38c-.22,1-1,4.49-2,8.71,8.2,1.94,20-1.44,21.5,12.51.11,1,5.82,2.08,8.84,1.87,4.71-.33,9.33-1.73,15.6-3-11.6,14.44-15,14.8-28.16,7-4.72-2.81-10.65-3.53-16-5.43-12.47-4.46-26.86-6.55-36.82-14.3-10.56-8.23-21.42-8.48-32.68-9.42-12.09-1-24.34-.23-36.53-.23l-.3,4.12c17.84,1.46,36.54.09,53.26,5.19,16.1,4.91,30.17,16.51,47,26.25-3.14,1.89-5.56,4.59-8,4.59-8.78,0-17.87.32-26.3-1.73-18.76-4.56-37.17-10.53-55.77-15.78a14.14,14.14,0,0,0-10.21.79l25.81,11.79c-.19.79-.39,1.59-.58,2.39-11.53,0-23.15.76-34.54-.5-3.17-.35-5.91-6.55-8.43-10.34-2.21-3.31-3.82-7-5.7-10.53l-4.31.31c-1.25,11.24-2.49,22.47-4,36.17L895.5,706c-4.93,9.71-10,19.77-16,31.63l-8.71-9.73c-1.13,6.67-2.11,12.48-3.68,21.77-10.16-14.82,2.44-24,2.34-37.26l-31.53,16.82-25.13-23.44c-7.65,10.52-16.28,13.3-27.91,8.48-9.92-4.12-11.37-9.53-5.26-17.27,4.89-6.2,10.74-11.63,17.13-18.43l-27.16-1.69c6.92-23.29-21.43-56.09-52.52-65.53-.64-4.35-1.28-8.61-1.9-12.83-.38-2.54-.75-5.06-1.12-7.58l-2.42.25c0,2.44.57,5.26.57,7.7a7.1,7.1,0,0,1-.89,3.89c-3.45,5.34-8.67,13.31-13.3,13.41-12.86.27-25.8-2.93-38.58-4.73.43-24.28-2.5-31-15.34-34.89,2.61,5.24,5.07,10.2,7.53,15.17-9.16-2.49-17.63-6.41-13.52-15.88,2-4.5,9.75-6.48,15.22-9.79-3.05-5.91-2.86-4.23-43.17.48-20.76,2.42-23.19,19.6-33.27,31.4l33.6-20.52L627,599.13l3-1.91-5.35-10.5c11,.5,16.54,6,25.64,24.88L631.44,619c-.24,3.53-.39,7.3-.76,11-1.61,16-7.17,19.82-22.93,23.07-9.76,2-18.43,9-27.75,13.41C566.49,672.94,552.83,679,539.74,688c2.57.47,5.41,1.9,7.65,1.25,20.5-6,41.06-11.84,61.26-18.72,12.57-4.28,24.52-9.84,35.49,3,.5,12.82-6.24,19.14-18.74,20.22-6.3.55-12.9.18-18.81,2-10.1,3.13-19.63,8-29.64,11.5-12.45,4.29-25.15,7.88-37.76,11.7a66.71,66.71,0,0,1-6.77,1.27c1.89,6.24,3.57,11.8,4.67,15.42l20.67,1.19c1.14-2,2.77-4.8,5.39-9.36,1.41,4.52,2.35,7.52,3.4,10.87l32.85-7.9c.26-2.49.64-6.07,1.21-11.5,9.41-2,19.3-4.42,29.33-5.82.75-.11,4.71,8.41,3.4,10.27-7.4,10.54-15.81,20.39-24.3,30.11-1.07,1.23-4.88-.35-7,.49-3.58,1.45-6.8,3.79-10.18,5.75h-5.07q.61-5.65,1.24-11.3l-3.92-2.54-15.08,13.84H368.67c-2.15-3.57-3.9-7.47-6.52-10.66-7.8-9.49-16-18.69-13-29.68-15.15-11.88-28.82-22.58-42.42-33.37-.2-.15.42-1.34.69-2.14l8.6,4.59c1.09-1.14,2.19-2.27,3.29-3.41-4.1-4.19-7.82-8.93-12.52-12.28-1.72-1.23-8.41,1-8.39,1.37.28,5.43.16,11.45,2.59,16,2.13,4,7.16,6.61,11.24,9.36,3.55,2.4,7.56,4.14,11.36,6.17-2.75,2.55-4.65,2.76-6.55,2.7-8.65-.26-17.75-.41-21.27,9.46-3.78,10.62,2,19.3,9.53,25.55,3.37,2.8,10.24,2.94,15,1.9,2.42-.53,5.79-7,5-9.64-1.41-4.74-5.26-9-8.92-12.68-1.33-1.31-5.06-.21-7.7-.21-.12-1.48-.25-3-.38-4.44,4.55-.47,10.31-2.88,13.38-1,4.77,3,11.23,9.3,10.72,13.44-1.2,9.88-6.05,19.31-9.43,28.92H302.72c-7.22-8.14-15.14-15.77-21.42-24.57-5.57-7.81-9-17.08-13.91-25.41C261.48,699.74,251.83,693,244.05,685c-8.55-8.86-16.57-9.65-26.55-9.67,3.76,4,9.25,4.41,12.88,7.25,10,7.81,20.16,15.81,28.38,25.35,4.51,5.24,5.22,13.74,7.56,20.54,1.45.27,5.24,0,5.81,1.26,2.95,6.4,4.93,13.23,7.56,19.79,1.43,3.55,3.49,6.85,5.27,10.27H216.47c-18.31-6.3-36.63-12.56-54.91-18.91C140,733.39,118.39,726.09,97,718.2c-13.54-5-26.67-10.92-34.28-24.52a11.16,11.16,0,0,0-5.59-4.88c-11.6-3.91-17.49-10.93-14.7-24.06-2.24,2.9-4.49,5.8-8.25,10.64L20.54,636.29H18.65v15.61C8.81,643.12-2.61,608.2.53,596.62c3.53-13,15.28-19.72,27.42-13.89,13.62,6.55,26.26,15.11,39.53,22.42,5,2.76,10.61,4.47,17.64,7.35-.28-5.8-1-9.52-.48-13s1.46-9,3.81-10.06c4.63-2.06,11.32-2.35,8.12-9.07-1.85-3.89-8-5.77-12.21-8.5-1.66-1.07-3.42-2-6.75-3.9l19.33-8.16.45-3.33c-6.45-1.68-12.83-3.89-19.38-4.9-7-1.09-14.82-1.46-13.14-11.11,1.5-8.63,5.89-17,16.7-15.17,7.77,1.28,16.08,3.61,22.48,7.94,10.26,6.92,25.64,7.14,30.23,22.18.44,1.44,5.33,2.16,8.14,2.13q21.49-.23,43-1.08c7.51-.3,15-1.17,22.94-1.82-6.15,20.26-26.65,32.13-51,30.36-7.82-.57-15.66-2.48-23.42-2.13-7.23.33-14.36,2.85-22.4,6.44,3.7.72,7.4,2,11.1,2,5.84,0,11.69-.93,17.54-1.38,7.6-.6,14.15,1.06,13.93,10.28-.21,8.64-3.48,16.11-13.7,16.63-9.32.48-18.68.1-28,.1l-.75,5.75c12.85,4.48,25.58,9.35,38.58,13.36,20.93,6.47,26.26,14.64,24,36.88-.57,5.47.76,11.14,1.35,18.22,4.56-11.62,6.18-23.17,12.7-30.1,5.67-6,16.89-6.78,25.65-9.9,5.07-1.81,10.12-3.68,15.18-5.51-2.82-5.59-4.5-12.31-8.69-16.54-9-9-18.82-16.92-33.56-12.74-3.65,1-8.5-2.18-11.61-3.09L223.77,604c.17.6.49,1.83.82,3.09,4.92-3.5,9.75-6.11,13.54-9.8,10.29-10,19.42-10.14,30.2,0,6.7,6.31,16.22,6.67,22.6-1.21,10.79-13.34,22.61-26.48,30.29-41.58,13.36-26.26,29.45-35.39,57.15-25.16,11.52,4.26,22.21,11.9,31.88,19.73,11.78,9.54,21.52,21.57,33.14,31.33,24.14,20.28,56.72,15,67.63-10.33,6-13.86.67-31-12.06-39.06-12-7.54-22.29-2.75-32.7,15.57l-7.07-3.75c1.21-1.76,2-3.12,3-4.31,13.65-16.35,7.34-46.38-11.69-55.57-12-5.81-22.36,1.19-26.11,18.22-10.44.08-20,1.93-22.31,14.95-.32,1.8-4.22,3-6.46,4.43-.65-3.51-1.29-7-1.41-7.69H368.05l-.66-5.21c7.64-1,15.26-2.57,22.92-2.86,20.54-.81,38.37-14.95,41.47-34.31.6-3.77,2.65-9.06-.94-11.63-.17-.12-.35-.23-.54-.34a4.94,4.94,0,0,0-.61-.3A7,7,0,0,0,429,458c-.25-.08-.51-.16-.78-.22a13.74,13.74,0,0,0-2.35-.35h0c-2.47-4.27-4.28-9.29-7.78-12.45-1.49-1.35-9.53,1.56-9.48,1.92.8,6.66,2.37,13.22,4.2,21.73-1.19.89-4,3.26-7.06,5.26s-6.37,3.65-12.62,7.16l-2.62-.93c11.43-19.53,17.82-38.34,8.29-58.12h-21l-1.2-3.14,11.92-11.32c-6.26-5.24-14.29-7.81-18,.5-3.44,7.77-.34,12,4.77,15.29,3.62,2.35,8.25,4.25,12.27,6.68l-10,2.92,9,7.76-8.34,10.44,8,3.38-9,9.45c.54.79,1.07,1.59,1.61,2.39l19.54-11.91c-6.42,9.86-10,18.42-16.14,24.14a405.54,405.54,0,0,1-43.75,35.85c-7.48,5.21-17.69,6.51-26.66,9.59l-3.95-4.13c2.52-4.56,4.43-9.62,7.67-13.6,12.55-15.44,18-33.17,17.11-52.7-.42-9.83-1.64-19,.72-29.3,1.85-8.1-4.44-18.87-9.1-27.38-3.27-6-9.42-10.73-15.07-15-9.3-7-10.17-16.38-7.73-26.06,2.62-10.43,11.62-12.62,21.07-12.31a68.88,68.88,0,0,1,13.69,2.19c13.15,3.14,18.08-1.16,16.49-14.33-.29-2.44-.14-6.32,1.34-7.38,17.35-12.41,35-24.4,54.68-37.95v35.22c8.69-12.72.71-32.47,19.5-39.79-.3-.71-.4-1.36-.62-1.4a15.62,15.62,0,0,1-5.3-1.59c10.34-2.45,13.83-18.5,28.39-13.07,1.44.54,4.16-2.14,6.19-3.47,12.05-7.83,24.08-15.7,37.83-24.69,14.15,29.37,9.07,57.21,8.41,88.58-14.49-11.12-27.17-11.62-39.08-2.72-3.19,2.38-4.64,7.07-7.32,11.41,6.35,3.28,21.28-8.25,14.16,11.43,6.4-1.42,11.77-1.42,15.77-3.75,8.57-5,12.58-1.54,14.77,6.41,7,25.53,7.67,51-6.92,74-4.3,6.77-14.33,10.52-22.45,14-5,2.13-11.32,1.09-17.07,1.48-.79-21.26,4-30.55,23.91-42.69l-15.72-3.77L455.75,404c-4.57-20.17,10.56-33.91,12.92-50.66l-3.49-2q-7.68,12.3-15.34,24.62l-1.54-.08c1.15-5.29,3.28-10.59,3.22-15.86-.11-8.44-.54-17.19-3-25.18-2.33-7.68-2.62-13.31,3.47-19.38,5.14-5.12,8.54-11.95,13.36-17.44,3.46-3.95,8-6.94,12.51-10.72l-30.86-14.25c-19.17,18.82-15.4,46.42-23.78,69.62-.93-3.85-2-8.14-3-12.42l-4.21.86c1.78,9.5,3.57,19,5.46,29-9.5,4.66-9.4,5.59,5.91,16.36H389.66c13.66,12.74,19.81,34.29,45.33,23.76-7.66,9.32,18.06,19.24-3.47,27.1,16.54,17.11,24.7,40.84,46.38,56.7-.5-7.64-.81-12.24-1.34-20.31,5.81,9.95,9.08,16.67,13.49,22.53,1.78,2.37,6.07,2.84,9.22,4.17l3.52-9.43-11.31-2.79c-.18-3.3-.43-7.7-.68-12.23l10.92-6-4.81-3.19c4.33-15.47,8.32-29.78,12.28-43.94L522.1,419c-6.88-8.4-6.88-8.4,2.64-29.34V413.4l13.8-9.47c-1.32-7.44-2.3-15.36-4.27-23-1-3.91-4.52-7.15-5.6-11.06a32.75,32.75,0,0,1-.66-12.64c.62-4.83,2.41-9.51,4.06-15.61a39.08,39.08,0,0,0,7-2.29c6.66-3.24,6.67-7.53.84-11.59-8.45-5.88-16.57-9.91-16-23.9.47-11-7-22.36-11.21-34.52l12.06-.55c-1.2-4.29-2.23-7.94-4.14-14.76l14.57,9,2.35-1.85q-11-15.72-22-31.45l2.35-2.54c15.54,7.72,32.95,12.21,43.84,27.91,1.37,2,2.74,4.61,4.73,5.4C578.53,265.29,590.64,270,603,274c10.93,3.52,22.36,6.61,28.88-8.24l4.43,13.41c18.68-8.29,20.22-25,21.09-39.36,1.23-20.47-4.56-41.12.24-61.85,4.54-19.64,8.46-39.23,22-55.47,4.9-5.85,7.15-13.93,12.15-24.16l16,2.91Zm433.83,451.91.21-4-43.11,2.06c.08,1.63.16,3.26.25,4.88Zm-122-125L992.3,441.89C1010.18,445.09,1016.5,442,1019.69,428.13Zm-48.08-3.71c.17-1.23.33-2.45.5-3.68l-55.8-8.29c-.18,1.38-.37,2.75-.55,4.12ZM968.37,215c-14.79-1.76-18.77,2.39-17,16.21,1.16-.58,2.52-.88,3.33-1.71C959.07,225,963.3,220.39,968.37,215Zm-33.44,163.2-1.92-4.5L905,386.09c.46,1.07.93,2.13,1.39,3.19ZM892.07,650.5c2.18,0,6.28-4.54,6-6.55-.39-3-3.63-7.69-6.06-8-5.53-.6-11.45.54-16.91,2-2.74.75-7.07,4.09-6.87,5.82,1.38,12.11-7.14,16.51-15.89,20.73L857.79,677c6.65-5.84,14.13-10.25,18.39-16.77S884.4,650.56,892.07,650.5ZM859,600.17l4-3.83-28.61-25-2.7,2.9Zm-62.57-59.51c-3.29-5.91-5.46-9.81-5.89-10.6l-65.16,21L756,597.82l-3,3.11L712.93,574l-1.14,1.33c11.26,9.42,23.13,18.21,33.57,28.47,8.35,8.2,16.35,10.14,27.87,4.21-7.84-10.73-14.42-21.54-22.78-30.75-11.74-12.91-11-17.69,5.91-23.28C769.39,549.69,782.4,545.34,796.43,540.66Zm-54-86.24c5.7-28.87,4.74-32.14-8.69-31.9C736.36,432.27,738.93,441.72,742.39,454.42ZM702,599.07l-22.52-7.32-11.68,9.17C677.67,610.23,695.4,608.12,702,599.07Zm-16.11-441c7.69-10.06,3.9-15.28-7.47-19.47-11.56,24.8-21.52,49.15-20,76.26l4.34,1.41c1.22-2.65,3.57-5.33,3.5-7.94C665.73,188.75,674.62,172.9,685.93,158.1Zm-3.4,219.63c7.54-18.09,7.54-18.09-3.65-26.95C680.18,360.41,681.2,367.9,682.53,377.73Zm-27.29,27.92c4.72,1.32,9.15,3.67,16.08,6.53-7.81-14.1-46.24-28.65-60.37-25.82-1.72,4.62-3.35,8.66-4.7,12.79-.72,2.21-1.78,6.38-1.27,6.61,10.18,4.69,3.15,10.74.82,15.42-4,8.13-9.28,15.67-14,23.45l3.06,2c9.61-13.32,19.06-26.76,29-39.87,2.07-2.74,6-6.15,8.75-5.92C640.2,401.46,647.78,403.57,655.24,405.65Zm-13.13,79.08-5.52-10.16-17.33,25.16c10.82,4,13.13-.81,11.83-9Zm-52.89,37.81c5.34-10.68,3.57-14.36-9.78-17.9a24.79,24.79,0,0,1-3.92-1.4q-.79-.35-1.56-.75a31.09,31.09,0,0,1-4.76-3c-.35-.26-.69-.53-1-.82a35.37,35.37,0,0,1-2.92-2.69c-.31-.32-.62-.64-.92-1s-.63-.71-.94-1.07c-.49-.59-1-1.19-1.43-1.8l-.25-.34c-.49-.67-.95-1.35-1.39-2s-.74-1.21-1.08-1.82l0,0c-2.81-5.11-4.26-10.69-3.61-15.78l.31,0-.06-.25c2.65-.89,5.32-1.78,8.18-2.72l1.73-.57,1.53-.5,2.38-.78,3.8-1.24-40.26-31.24c-1.42,4.95-2.53,8.79-4,13.8-3.69-2.94-6.35-5.5-9.41-7.42-9.54-6-13.7-4.29-13.58.8,8.05,5,14.2,8,19.34,12.2,3.89,3.2,3.49,11.26,12.94,7.78,2-.74,15,.31,17.3,9.84l-.34.11a1.79,1.79,0,0,0,0,.23c-1.79.11-4.46,0-4.64.55-1.52,5-2.47,10.26-4,17.15l-6-8-32.82,19.95C533.17,517.18,561.15,519.62,589.22,522.54Zm-13.17,58.58c.76-1.83-1.11-5.85-3-7.46-3.55-3.06-8-5.1-13.76-8.61,1.73,4.94,4.4,9.22,4.37,13.47s-1.61,9.7-4.41,13c-7.81,9.19-16.6,17.54-25,26.22l2.49,2.93c9.44-5.94,19.92-10.75,28-18.21C570.32,597.26,572.94,588.59,576.05,581.12Zm-36.64,15.39c7.08-6.72,7.52-17.12,3.22-26.73-2.09,6.33-4.18,12.66-6.21,18.84L529.86,552c1.92,1.59,4.51,3.48,6.78,5.71s4.07,4.71,7.29,8.51c-3.19-16.55-9.48-22.13-26-23.49,3.18,8.71,5.86,16.15,8.63,23.57,6.54,17.59,1.32,25.2-17,30.57-7.92,2.33-17.59,8.7-20.36,15.66-2.52,6.31,2.51,16.24,5.73,23.94.84,2,3.38,3.24,5.88,4.58l-.06.62c-3.59,7.11-7.66,11.46-7.05,15s6.49,8.9,9.15,8.43c5-.91,13.72-6.31,13.31-8.31-1.66-8.17-6.18-15.77-9.37-23,2.36-2,8.8-5.26,10.93-10.3,1.29-3.05-3.37-9.69-6.9-13.11-1.2-1.15-7.16,2.63-14.23,5.47,6.54-8.62,10.88-11.16,19.94-10.55C524.14,605.84,533.81,601.82,539.41,596.51Zm-45.66-191-6.88-10.38c-2.48,2.43-4.89,4.95-7.47,7.27-3.69,3.31-7.53,6.44-11.25,9.71-2.67,2.35-5.27,4.79-7.9,7.19l2,2.25Zm-6.58,231.36c-1.39-5.82-3.54-10.91-3.57-16s2.08-10.26,4.06-19c-11.18,6.9-15.72,14.79-14.56,25.48C473.87,634.36,477.84,638.55,487.17,636.83ZM475.44,705c.4-3.65,1.1-6.78,1-9.89-.22-7.61-2.16-15.44-.89-22.75,1.69-9.72-1-16.42-8.9-21.43-5.9-3.76-12-7.13-18.62-11-6.18,9.18-11.07,16.46-16,23.72-9.75,14.43-9.17,20.51,6.59,28.76C449.59,698.19,462.26,700.67,475.44,705Zm-115-333.47c.52-.49-2.89-7.61-5.11-8-3.73-.63-8,1.67-12,2.74l1.32,4.16,10.95-.67-13.25,10.84,2.43,3.16C350.11,379.84,355.65,376.1,360.44,371.57ZM289.69,694.65l-.45-6.9L262,690.16l-.48,3.61,10.81,9.81c1-5.32,1.59-8.21,1.91-9.81Zm-9.48-20.57c3.88-9.7-3.06-24-14.21-29.3-14.28-6.77-29-2.76-34.71,9.69-3.24,7.13-6.1,14.52,2.41,16.9,4.42-7.87,6.66-17.33,11.21-18.62,6-1.7,16.71.72,20.42,5.35,11.43,14.3-11.53,13.14-12.52,22.71C265,685.78,276.73,682.76,280.21,674.08Zm-80.27,20.86c1.35-3-1.81-8.09-3-12.24l-4.23.84c-1.56,6.41-3.12,12.81-5.49,22.51C192.84,701.44,198.15,699,199.94,694.94Zm-32.1-21c1.08-4.43,4.47-10.74,2.73-12.88a16.62,16.62,0,0,0-5.7-4.13c-3-1.47-6.52-2.74-10.1-4.56-2.45,12.64-4.28,22.09-6.11,31.55l3.66.79c3.11-8.19-2.75-20.67,11.87-26.22l-1.35,13.83Zm-61.35-3.6c21.94-9.47,25.92-16.48,15.53-30,1.32,12.28-1.77,17.85-12.73,16.31,1.49-3.64,2.71-6.66,3.94-9.68L111,644c-4.16,2.22-12.09,5.12-11.83,6.54C100.42,657.39,103.86,663.83,106.49,670.33Z"/><path class="cls-1" d="M930.22,715.7c20.71-9,20.71-9,21.59,7.07Z"/><path class="cls-1" d="M906.65,514.14l3.33,2.34-9.87,13.22c2,2.14,5.3,5.64,8.69,9.25-1.56,1-2.65,1.94-2.84,1.78-15.29-12.41-30.5-24.91-45.56-37.27l11.73-17.4,18.69,5,9.31,33.42C903.32,519.45,905,516.79,906.65,514.14Z"/><path class="cls-1" d="M859.62,549.1c2.4.88,2.89,7,1.48,11.74l-5.21-9.68-3.55,1.4c.87,3.4,1.74,6.79,3,11.83l-12.66-5.57-15.08-17.93.69-.6,16.06,8.31C849.16,548.6,854.92,547.39,859.62,549.1Z"/><path class="cls-1" d="M861,368.57l-.73.25-.3-.26Z"/><path class="cls-1" d="M860.23,368.82l-.25.07c0-.11,0-.22,0-.33Z"/><path class="cls-1" d="M859.93,368.56c0,.11,0,.22,0,.33h0c0-.12,0-.23,0-.35Z"/><path class="cls-1" d="M831.23,518.71c8,6.73-.7,11.2-2.41,16.64a22.94,22.94,0,0,0-.49,4.94l-.69.6-15.22-16.28c.34-.23.67-.63,1-.68C819.66,523.08,822.87,511.69,831.23,518.71Z"/><path class="cls-1" d="M813.08,750.92c5.18-1.21,10.93,1,9.65,8.87H792.29C799.19,756.72,805.85,752.6,813.08,750.92Z"/><path class="cls-1" d="M825.33,329.6l-6.79-4.38q-2-6.57-4.09-13.13c-6.59-27.19-13.27-54.38-6.12-82.53,3.5,12.08-7.57,26.78,5.27,35.67C806.48,288.61,822.52,307.35,825.33,329.6Z"/><path class="cls-1" d="M821.37,419.58c8.09,5.65,3.12,13.07-2.46,19.95L802,424.85C810.21,422.41,818.29,417.42,821.37,419.58Z"/><path class="cls-1" d="M824.64,124.66c-7.42,7.51-19.44,6.57-26-2.82Z"/><path class="cls-1" d="M797,185.46c3.48-9.26,12.61-16.4,19.21-24.49-25.93,41.54-33.27,84.26-15.43,132.22C789.65,280.92,782.7,253,786,232.92,788.62,216.88,791.33,200.54,797,185.46Z"/><path class="cls-1" d="M813.71,116.15l-34.42,8.3c6.25-7.6,17.86-10.3,10.16-21.27Z"/><path class="cls-1" d="M746.16,97.59l-3.7,4.65-16.11-13,3.43-4.55Z"/><path class="cls-1" d="M717,138.12c-.45,2.07-.91,4.14-1.36,6.2H700q2-6.23,4-12.45Z"/><path class="cls-1" d="M715.13,598.55l-3,.37c0-2.44-.57-5.26-.57-7.7L714,591C714.38,593.49,714.75,596,715.13,598.55Z"/><path class="cls-1" d="M707.88,101.25h0Z"/><path class="cls-1" d="M683.32,511l-2.9.56c-6.11-7.36-12.27-14.68-18.32-22.1-4.48-5.48-2.43-8.83,10.18-14.05C676,487.43,679.66,499.21,683.32,511Z"/><path class="cls-1" d="M639.85,154.56c4.52,18.33-7.79,46.27-25.74,56.73-43.61,25.44-62,16.48-81.6-3.29C577.19,205.7,621.08,202.83,639.85,154.56Z"/><path class="cls-1" d="M634.57,565.58c-6.1,20.91-6.21,20.94-22.95,5.24Z"/><path class="cls-1" d="M613.89,122.76c12.91,32.27-14.29,69.47-46.42,67.95-7.67-.37-16.36-4.71-22,5.85-1.25,2.34-10.14,3.58-12.57,1.64-4.15-3.32-6.61-9.32-8.5-14.64-1-2.79.7-6.54,1.39-11.26l20.63-1L548,168.5l-11.22-5.41c13.51-20.18,36.55-23.76,57.4-33.57.71,3.41,1.23,6.54,2,9.59.75,2.86,1.78,5.64,3.63,11.41C605.22,139.89,609.06,132.3,613.89,122.76Zm-28.07,38.89L593.71,143l-3.22-1.44L561.9,162.4C571.31,176.55,577.84,157.18,585.82,161.65Z"/><path class="cls-1" d="M591.82,33.21c3.24,5.59,6.94,9.06,6.85,12.44A44.09,44.09,0,0,1,594.27,64c-1.54,3-6.94,5.63-10.62,5.66-4.79,0-9.61-2.66-14.39-4.17-10.63,31-33.41,44.3-65,45.18L503,115l20.91,13.5-18,28.57L501.74,155c-.44,2.81-.82,5.31-1.21,7.81l-2.6.64c-2-7.64-6.2-15.46-5.61-22.9,1.45-18.12,5.12-36.07,6-54.21-6.26,13-10.17,28.07-19.39,38.41-11.1,12.46-27.33,5.05-42.31,1.65l-8.36-25.88c10.66,9.13,18.71,6,28,1.81,14.69-6.67,26.92-15.74,34.53-29.71,4.21-7.74,5.61-17,8.57-25.44.67-1.94,2.57-4.95,3.85-4.92,11.47.25,23,.39,34.35,2,9.29,1.28,17.7,4.2,25.07-5.34,4.2-5.42,11-8.82,16.65-13.11Z"/><path class="cls-1" d="M593.71,143l-7.89,18.62c-8-4.47-14.51,14.9-23.92.75l28.59-20.81Z"/><path class="cls-1" d="M601.41,94.13l-17.27,7.46c-1.63-8.78-3.17-17.09-5.23-28.21Z"/><path class="cls-1" d="M588.06,748.49q-.61,5.64-1.24,11.3H569.06l15.08-13.84Z"/><path class="cls-1" d="M570.15,109.53l7.07,3.2c-.44,11.71-40.49,34.84-56.58,31.06,11.47-7.48,15.14-20.22,29.94-20.85C556.72,122.67,562.54,115,570.15,109.53Z"/><path class="cls-1" d="M560,11.08c1.31,6.72,2,10.23,3.19,16.39l-23.28,5.62-2.44-4.59Z"/><path class="cls-1" d="M560.32,489.73c.44.69.9,1.37,1.39,2C561.22,491.1,560.75,490.42,560.32,489.73Z"/><path class="cls-1" d="M559.24,487.91c.34.61.7,1.22,1.08,1.82C559.94,489.13,559.58,488.52,559.24,487.91Z"/><path class="cls-1" d="M564,469.1c-2.86.94-5.53,1.83-8.18,2.72,0,0,0,0,0-.05Z"/><path class="cls-1" d="M555.86,471.82l.06.25,0,0-.07,0-.14-.05-.1-.06Z"/><path class="cls-1" d="M555.92,472.07l-.31,0a.57.57,0,0,1,0-.13h0l.14.05.07,0Z"/><path class="cls-1" d="M555.86,471.82l-.3.1.1.06h0a.57.57,0,0,0,0,.13h-.13a1.79,1.79,0,0,1,0-.23l.34-.11S555.86,471.8,555.86,471.82Z"/><path class="cls-1" d="M555.8,472l-.14-.05Z"/><path class="cls-1" d="M555.61,472.1c-.65,5.09.8,10.67,3.61,15.78-2.84-5.1-4.31-10.66-3.74-15.77Z"/><path class="cls-1" d="M516.76.08c9.1,10.35-8.15,20.63-3.12,34.17-9.22-1.28-15.69,10-25.27.4-2.09-2.11-15.16,2-18.14,6.48-6.34,9.61-15.47,10.18-24.44,13.48S425.15,60,425,72.4l56-12.14C474,69.32,469.2,75.41,463.47,82.7V73.16c-4,3.9-6.29,7.14-9.41,9-6,3.68-15,10.92-18.36,9-8-4.64-16.46-12.74-19.24-21.24-3.26-9.92-.58-21.66,11.41-27.48A8.44,8.44,0,0,0,431.24,39c10-18.49,28.65-26.74,45.39-36.54C483.22-1.39,493.28.6,501.78.12,506.06-.12,510.37.08,516.76.08Z"/><path class="cls-1" d="M509.76,652.44l-3,1.56c-.72-1.24-1.5-2.45-2.13-3.73-.76-1.54-1.39-3.15-3.76-8.6l.06-.62a17.75,17.75,0,0,1,4.08,2.74C507.22,646,508.21,649.51,509.76,652.44Z"/><path class="cls-1" d="M502.26,551.58c6.38,13.22-5.89,30-21.28,28.92Z"/><path class="cls-1" d="M460.44,550.81c8.87,5.52,9.51,13.52,5.9,21-4.27,8.84-12.61,5.42-18.83,2.45-5.65-2.7-10.25-7.61-14.82-12.12C460,568.79,462.86,567.75,460.44,550.81Z"/><path class="cls-1" d="M478.39,207.46,447.7,240.63c3.93-13.81,9.14-27.78-4.45-39.94C459.14,190.9,467.14,206.06,478.39,207.46Z"/><path class="cls-1" d="M396.71,223.57C418,208.9,435,206,448.44,217.35l-84,65.65C357.61,263.61,370.13,241.92,396.71,223.57Z"/><path class="cls-1" d="M425.85,457.43h0Z"/><path class="cls-1" d="M403.86,385.08c8.61,3.71,18.33-6.89,25,5.4C419.34,395.93,410.69,399.84,403.86,385.08Z"/><path class="cls-1" d="M411.46,486.19c.28,1.44.55,2.88.83,4.32l-40,7.94c-.33-1.91-.67-3.81-1-5.71Z"/><path class="cls-1" d="M361.06,759.79H341.55V756.9l8.85-15.69Z"/><path class="cls-1" d="M343.43,738.46c-.6,5.9-1.13,11-1.88,18.44v2.89H330.62Z"/><path class="cls-1" d="M281.75,542.76q3.46,5,6.94,9.89L284,557.28c-2.7-2.44-6.21-4.49-7.69-7.52C275.78,548.58,279.81,545.16,281.75,542.76Z"/><path class="cls-1" d="M246,478.71c2.29.24,6.35,3.42,6.11,4.38-.86,3.47-3.2,6.57-6.47,12.5-2.09-6.65-3.12-9.9-5.14-16.32v-.74A38,38,0,0,1,246,478.71Z"/><path class="cls-1" d="M240.52,478.53v.74c-11.07,31.58-30.32,49-60.85,47.71,6.41-9.76,10.9-22.87,20.07-29.1C212,489.56,224.53,479.13,240.52,478.53Z"/><path class="cls-1" d="M229.39,559c.07,2.77-2.84,5.62-6.06,11.11-3.17-4.7-6.16-7.18-5.87-9.19.37-2.62,3-6.38,5.28-6.83C224.7,553.68,229.34,557.15,229.39,559Z"/><path class="cls-1" d="M222.88,439c1.8,7.21,3.3,15.58-5.91,19.74-8.38,3.78-21.34-2.88-26.1-12.41-3.84-7.68-8.41-15-13.64-24.2,7.2-9.43,22.16-10.13,34.38-10.32,11.8-.19,4.39,10,2.23,15.3C217.68,431.95,221.9,435.06,222.88,439Z"/><path class="cls-1" d="M172.22,460.92c1,11.09,5,23.09,2,33-2,6.5-13.42,11.87-21.64,14.31-11,3.26-22.07,4.29-28.39,16.09-1.14,2.13-8.55,2.73-12.1,1.42-11-4.06-21.45-9.53-32.23-14.18-13.43-5.79-16-11.95-8.38-24.41,4.1-6.69,9.91-12.34,15.24-18.81,11,6.31,20.54,15.25,31.22,17,13.06,2.12,27.16-1.43,40.65-3.54,1.73-.27,2.66-6.52,3.72-10.08,1.11-3.74,1.93-7.56,2.88-11.35Z"/></g></g></g></g></svg>