<svg xmlns="http://www.w3.org/2000/svg" viewBox="0 0 193.42 512.6"><defs><style>.cls-1{fill:#182b49;}</style></defs><title>logoIconBlue</title><g id="Layer_2" data-name="Layer 2"><g id="Layer_3" data-name="Layer 3"><g id="body"><g id="body-2" data-name="body"><path class="cls-1" d="M121.8,287.9,192.92,497a9.32,9.32,0,0,1-8.82,12.32h0a9.92,9.92,0,0,1-7.56-3.5l-62.48-73.54a21.17,21.17,0,0,0-15.69-7.46h0a21.17,21.17,0,0,0-16.64,7.53L16.47,509.88a7.64,7.64,0,0,1-5.85,2.72h0a10.62,10.62,0,0,1-10-14.06l72.2-210.87a3.11,3.11,0,0,1,1.13-1.52c2.73-2,11.5-8.66,11.5-13.69,0-6.1,24.41-6.1,24.41,0,0,7.28,7.68,12.16,10.53,13.72A3.11,3.11,0,0,1,121.8,287.9Z"/></g></g><g id="neck"><path class="cls-1" d="M89.43,86.65c0-11.77-6.65-15.49-9.6-16.56a1.56,1.56,0,0,1-1-1.88l17-62.51A7.73,7.73,0,0,1,103.31,0h0a7.73,7.73,0,0,1,7.61,6.39L121.76,68.2A1.56,1.56,0,0,1,120.7,70c-3.51,1.14-12.85,5.24-12.85,16.69C107.85,91.25,89.43,91.25,89.43,86.65Z"/></g><g id="Fretboard"><polygon class="cls-1" points="84.31 299.71 89.43 86.65 107.85 86.65 110.14 299.71 84.31 299.71"/></g></g></g></svg>