<svg xmlns="http://www.w3.org/2000/svg" viewBox="0 0 332.58 983.45"><defs><style>.cls-1{fill:#e8d19a;}.cls-2{fill:#ab431d;}.cls-3,.cls-9{fill:#fcfdfb;}.cls-17,.cls-22,.cls-3{stroke:#e6e6e6;}.cls-17,.cls-21,.cls-22,.cls-3{stroke-miterlimit:10;}.cls-3{stroke-width:2px;}.cls-4{fill:#ccc;}.cls-5{fill:#b3b3b3;}.cls-6{fill:#94491d;}.cls-17,.cls-7{fill:#999;}.cls-8{fill:#eace76;}.cls-10{fill:#f7e6a4;}.cls-11{fill:#333;}.cls-12{fill:#c9961a;}.cls-13{fill:#d5a940;}.cls-14{fill:#ccc597;}.cls-15{fill:#93644d;}.cls-16{fill:#af795b;}.cls-17,.cls-22{stroke-width:0.5px;}.cls-18{fill:#e6e6e6;}.cls-19{fill:#301713;}.cls-20{fill:#47251e;}.cls-21,.cls-22{fill:none;}.cls-21{stroke:#ccc;}</style></defs><title>1960DanElectroBronze</title><g id="Layer_2" data-name="Layer 2"><g id="_1960_Dan_Electro_Bronze" data-name="1960 Dan Electro Bronze"><path class="cls-1" d="M137.56,594.23c-34.66,34.66-75.72-40.63-100-16.39C19.2,596.23,72,660.62,72,699.11c0,46.26-68,48-68,172.08,0,49.17,27.24,112.26,161.5,112.26,80.42,0,167.08-33.74,167.08-113.08,0-121.35-67.19-133.43-67.19-181.91,0-50.46,53.43-91.6,30.32-114.72-17.34-17.34-60.32,52.76-96.69,16.39C188.13,579.24,148.45,583.34,137.56,594.23Z"/><path class="cls-2" d="M133.56,594.23c-34.66,34.66-75.72-40.63-100-16.39C15.2,596.23,68,660.62,68,699.11c0,46.26-68,61.08-68,172.08,0,49.17,35.48,112.26,161.5,112.26,80.42,0,167.08-33.74,167.08-113.08,0-118.53-67.19-133.43-67.19-181.91,0-50.46,53.43-91.6,30.32-114.72-17.34-17.34-60.32,52.76-96.69,16.39C184.13,579.24,144.45,583.34,133.56,594.23Z"/><g id="Plate"><path id="Plate-2" data-name="Plate" class="cls-3" d="M205.33,685.38c7.3,10.59,9.64,24.36,6.92,37.33-1.45,6.93-5.06,16.53-5.71,21-3.63,25.06,12.1,47,34.11,54,44.5,14.13,45.43-8.26,44.48-22.78-.56-8.58-3.42-19.89-10.29-34.78a136.19,136.19,0,0,0-7.22-13.59c-3.13-5.17-9.7-19.27-10.41-47.44a50.43,50.43,0,0,1,.69-9.49c1.77-10.71,7.75-37.52,7.06-48.14-.8-12.33-23.84-24.6-41-4.32a186.38,186.38,0,0,0-19.4,27.29,41.48,41.48,0,0,0-5.18,26.67,28.7,28.7,0,0,0,5,12.93Q204.88,684.72,205.33,685.38Z"/><circle class="cls-4" cx="245.19" cy="792.5" r="2.62" transform="translate(-223.19 107.81) rotate(-17.18)"/><rect class="cls-5" x="244.97" y="790.67" width="0.44" height="3.66" rx="0.22" ry="0.22" transform="translate(-223.18 107.8) rotate(-17.18)"/><rect class="cls-5" x="244.97" y="790.67" width="0.44" height="3.66" rx="0.22" ry="0.22" transform="translate(929.88 324.13) rotate(72.82)"/><circle class="cls-4" cx="224.1" cy="626.51" r="2.62" transform="translate(-175.09 94.17) rotate(-17.18)"/><rect class="cls-5" x="223.88" y="624.68" width="0.44" height="3.66" rx="0.22" ry="0.22" transform="translate(-175.08 94.17) rotate(-17.18)"/><rect class="cls-5" x="223.88" y="624.68" width="0.44" height="3.66" rx="0.22" ry="0.22" transform="translate(756.44 227.32) rotate(72.82)"/></g><g id="Bridge"><path id="Bridge-2" data-name="Bridge" class="cls-5" d="M190.63,858.87H138.05c-4.92,0-10.08-4.43-11.57-10.24l-5.38-21.1c-2.11-8.28,1.4-15.69,8-15.69h70.48c6.6,0,10.11,7.4,8,15.69l-5.38,21.1C200.71,854.44,195.56,858.87,190.63,858.87Z"/><path id="Bridge-3" data-name="Bridge" class="cls-4" d="M189.63,856H137.05c-4.92,0-10.08-4.16-11.57-9.62l-5.38-19.81c-2.11-7.77,1.4-14.72,8-14.72h70.48c6.6,0,10.11,6.95,8,14.72l-5.38,19.81C199.71,851.83,194.56,856,189.63,856Z"/><path id="Bridge-4" data-name="Bridge" class="cls-6" d="M183.18,838.43H143.51c-3.71,0-7.61-1.45-8.73-3.35l-4.06-6.89c-1.59-2.71,1.05-5.12,6-5.12h53.18c5,0,7.63,2.42,6,5.12l-4.06,6.89C190.78,837,186.89,838.43,183.18,838.43Z"/><path class="cls-7" d="M164,853.33a4.53,4.53,0,0,1-5-4,4.43,4.43,0,0,1,4.16-4.74,4.53,4.53,0,0,1,5,4A4.43,4.43,0,0,1,164,853.33Z"/><circle class="cls-5" cx="163.34" cy="848.98" r="4.37" transform="translate(-74.36 17.75) rotate(-5.07)"/><rect class="cls-4" x="163.1" y="846.98" width="0.48" height="4.01" rx="0.22" ry="0.22" transform="translate(994.58 611.28) rotate(84.93)"/><rect class="cls-4" x="163.1" y="846.98" width="0.48" height="4.01" rx="0.22" ry="0.22" transform="translate(401.05 1680.22) rotate(174.93)"/><path class="cls-7" d="M127.52,823a4.55,4.55,0,0,1-5-4,4.45,4.45,0,0,1,4.2-4.74,4.55,4.55,0,0,1,5,4A4.45,4.45,0,0,1,127.52,823Z"/><circle class="cls-5" cx="126.86" cy="818.7" r="4.37" transform="translate(-71.83 14.41) rotate(-5.07)"/><rect class="cls-4" x="126.61" y="816.69" width="0.48" height="4.01" rx="0.22" ry="0.22" transform="translate(931.14 620.01) rotate(84.93)"/><rect class="cls-4" x="126.61" y="816.69" width="0.48" height="4.01" rx="0.22" ry="0.22" transform="translate(325.54 1622.98) rotate(174.93)"/><path class="cls-7" d="M200.45,823a4.48,4.48,0,0,1-4.9-4,4.41,4.41,0,0,1,4.1-4.74,4.48,4.48,0,0,1,4.9,4A4.41,4.41,0,0,1,200.45,823Z"/><circle class="cls-5" cx="199.9" cy="818.7" r="4.37" transform="translate(-71.54 20.86) rotate(-5.07)"/><rect class="cls-4" x="199.65" y="816.69" width="0.48" height="4.01" rx="0.22" ry="0.22" transform="translate(997.73 547.26) rotate(84.93)"/><rect class="cls-4" x="199.65" y="816.69" width="0.48" height="4.01" rx="0.22" ry="0.22" transform="matrix(-1, 0.09, -0.09, -1, 471.34, 1616.53)"/><path class="cls-8" d="M142.34,858.87a2.26,2.26,0,1,1-4.52,0Z"/><path class="cls-8" d="M151.81,858.87a2.26,2.26,0,1,1-4.52,0Z"/><path class="cls-8" d="M161.28,858.87a2.26,2.26,0,1,1-4.52,0Z"/><path class="cls-8" d="M170.75,858.87a2.26,2.26,0,1,1-4.52,0Z"/><path class="cls-8" d="M180.22,858.87a2.26,2.26,0,1,1-4.52,0Z"/><path class="cls-8" d="M189.69,858.87a2.26,2.26,0,1,1-4.52,0Z"/></g><g id="pickup2"><rect class="cls-5" x="118.32" y="788.15" width="92.93" height="15.86" rx="7.45" ry="7.45" transform="translate(40.84 -7.37) rotate(2.93)"/><rect class="cls-4" x="118.34" y="788.12" width="91.89" height="14.9" rx="7.45" ry="7.45" transform="translate(40.81 -7.35) rotate(2.93)"/><rect class="cls-5" x="118.36" y="794.19" width="91.84" height="2.46" rx="1.23" ry="1.23" transform="translate(40.8 -7.35) rotate(2.93)"/></g><g id="pickup"><rect class="cls-5" x="118.84" y="696.43" width="91.89" height="15.86" rx="7.45" ry="7.45" transform="translate(36.16 -7.49) rotate(2.93)"/><rect class="cls-4" x="117.83" y="696.38" width="91.89" height="14.9" rx="7.45" ry="7.45" transform="translate(36.13 -7.44) rotate(2.93)"/><rect class="cls-5" x="117.84" y="702.45" width="91.84" height="2.46" rx="1.23" ry="1.23" transform="translate(36.12 -7.44) rotate(2.93)"/></g><circle class="cls-9" cx="228.08" cy="901.3" r="17.61"/><circle class="cls-9" cx="257.01" cy="863.87" r="17.61"/><circle class="cls-10" cx="273.26" cy="821.63" r="7.25"/><circle class="cls-11" cx="228.08" cy="901.3" r="16.11"/><circle class="cls-8" cx="273.26" cy="821.63" r="5.42"/><circle class="cls-11" cx="257.01" cy="863.87" r="16.11"/><circle class="cls-5" cx="228.08" cy="901.3" r="8.2"/><circle class="cls-5" cx="257.01" cy="863.87" r="8.2"/><rect class="cls-12" x="273.4" y="814.79" width="4.47" height="10.41" rx="2.05" ry="2.05" transform="translate(847.95 171.29) rotate(60)"/><rect class="cls-13" x="273.37" y="814.84" width="4.1" height="10.12" rx="2.05" ry="2.05" transform="translate(847.77 171.43) rotate(60)"/><rect class="cls-5" x="127.68" y="106.25" width="6.57" height="3.47" rx="1.74" ry="1.74"/><ellipse class="cls-14" cx="123.56" cy="107.19" rx="6.28" ry="8.2"/><rect class="cls-5" x="127.68" y="72.98" width="11.69" height="3.47" rx="1.74" ry="1.74"/><ellipse class="cls-14" cx="123.56" cy="73.92" rx="6.28" ry="8.2"/><rect class="cls-5" x="127.68" y="37.42" width="11.69" height="3.47" rx="1.74" ry="1.74"/><ellipse class="cls-14" cx="123.56" cy="38.36" rx="6.28" ry="8.2"/><rect class="cls-5" x="183.08" y="36.62" width="11.69" height="3.47" rx="1.74" ry="1.74" transform="translate(377.85 76.72) rotate(-180)"/><ellipse class="cls-14" cx="198.89" cy="39.16" rx="6.28" ry="8.2"/><rect class="cls-5" x="183.2" y="72.84" width="11.69" height="3.47" rx="1.74" ry="1.74" transform="translate(378.1 149.15) rotate(-180)"/><ellipse class="cls-14" cx="199.02" cy="75.37" rx="6.28" ry="8.2"/><rect class="cls-5" x="183.2" y="105.76" width="11.69" height="3.47" rx="1.74" ry="1.74" transform="translate(378.1 214.99) rotate(-180)"/><ellipse class="cls-14" cx="199.02" cy="108.29" rx="6.28" ry="8.2"/><path id="Neck" class="cls-15" d="M187.51,165.37l5.38-56a23.13,23.13,0,0,0-.19-5.88L190,86.32a94,94,0,0,1,.07-30.2l2.84-17.21a12.35,12.35,0,0,0,0-3.88L188.94,9.25A10.9,10.9,0,0,0,178.17,0H150.8a10.9,10.9,0,0,0-10.73,9l-4.68,26.57a12.35,12.35,0,0,0,.05,4.56L139.62,61a53.83,53.83,0,0,1,.13,20.44l-4.12,22.06a23.13,23.13,0,0,0-.24,6.87l6.28,55"/><path id="Neck-2" data-name="Neck" class="cls-16" d="M184.51,165.37l5.38-56a23.13,23.13,0,0,0-.19-5.88L187,86.32a94,94,0,0,1,.07-30.2l2.84-17.21a12.35,12.35,0,0,0,0-3.88L185.94,9.25A10.9,10.9,0,0,0,175.17,0H147.8a10.9,10.9,0,0,0-10.73,9l-4.68,26.57a12.35,12.35,0,0,0,.05,4.56L136.62,61a53.83,53.83,0,0,1,.13,20.44l-4.12,22.06a23.13,23.13,0,0,0-.24,6.87l6.28,55"/><circle class="cls-5" cx="145.85" cy="108.29" r="5.84"/><circle class="cls-5" cx="145.85" cy="108.29" r="4.13"/><circle class="cls-17" cx="145.85" cy="108.29" r="2.92"/><circle class="cls-5" cx="177.36" cy="107.99" r="5.84"/><circle class="cls-5" cx="177.36" cy="107.99" r="4.13"/><circle class="cls-17" cx="177.36" cy="107.99" r="2.92"/><circle class="cls-5" cx="145.85" cy="75.37" r="5.84"/><circle class="cls-5" cx="145.85" cy="75.37" r="4.13"/><circle class="cls-17" cx="145.85" cy="75.37" r="2.92"/><circle class="cls-5" cx="177.36" cy="75.37" r="5.84"/><circle class="cls-5" cx="177.36" cy="75.37" r="4.13"/><circle class="cls-17" cx="177.36" cy="75.37" r="2.92"/><circle class="cls-5" cx="145.85" cy="39.16" r="5.84"/><circle class="cls-5" cx="145.85" cy="39.16" r="4.13"/><circle class="cls-17" cx="145.85" cy="39.16" r="2.92"/><circle class="cls-5" cx="177.36" cy="39.16" r="5.84"/><circle class="cls-5" cx="177.36" cy="39.16" r="4.13"/><circle class="cls-17" cx="177.36" cy="39.16" r="2.92"/><polygon class="cls-18" points="138.3 162.24 138.66 165.37 184.51 165.37 184.81 162.24 138.3 162.24"/><path id="Fretboard" class="cls-19" d="M136,629l2.69-463.61h48.86l7.08,463.55a6.16,6.16,0,0,1-6.32,6.1h-46A6.17,6.17,0,0,1,136,629Z"/><path id="Fretboard-2" data-name="Fretboard" class="cls-20" d="M136,627.71l2.69-462.34h45.86l9.08,462.28a6.11,6.11,0,0,1-6.21,6.09h-45.2A6.11,6.11,0,0,1,136,627.71Z"/><line class="cls-21" x1="135.99" y1="619.2" x2="193.43" y2="619.2"/><line class="cls-21" x1="136.05" y1="609.19" x2="193.23" y2="609.19"/><line class="cls-21" x1="136.11" y1="598.4" x2="193.02" y2="598.4"/><line class="cls-21" x1="136.23" y1="577.41" x2="192.61" y2="577.41"/><line class="cls-21" x1="136.32" y1="562.2" x2="192.31" y2="562.2"/><line class="cls-21" x1="136.41" y1="546.79" x2="192.01" y2="546.79"/><line class="cls-21" x1="136.51" y1="531" x2="191.7" y2="531"/><line class="cls-21" x1="136.61" y1="512.78" x2="191.34" y2="512.78"/><line class="cls-21" x1="136.72" y1="494.44" x2="190.98" y2="494.44"/><line class="cls-21" x1="136.84" y1="474.11" x2="190.58" y2="474.11"/><line class="cls-21" x1="136.97" y1="452.98" x2="190.16" y2="452.98"/><line class="cls-21" x1="137.09" y1="432.33" x2="189.76" y2="432.33"/><line class="cls-21" x1="137.23" y1="408.27" x2="189.29" y2="408.27"/><line class="cls-21" x1="137.36" y1="385.76" x2="188.84" y2="385.76"/><line class="cls-21" x1="137.52" y1="359.02" x2="188.32" y2="359.02"/><line class="cls-21" x1="137.69" y1="330.28" x2="187.75" y2="330.28"/><line class="cls-21" x1="137.85" y1="302.2" x2="187.2" y2="302.2"/><line class="cls-21" x1="137.99" y1="271" x2="186.59" y2="271"/><line class="cls-21" x1="138.22" y1="239.58" x2="185.97" y2="239.58"/><line class="cls-21" x1="138.43" y1="203.26" x2="185.26" y2="203.26"/><line class="cls-21" x1="136.17" y1="588" x2="192.82" y2="588"/><g id="Dots"><ellipse class="cls-4" cx="163.24" cy="593.22" rx="3.11" ry="3.04"/><ellipse class="cls-4" cx="163.77" cy="570.93" rx="3.11" ry="3.04"/><ellipse class="cls-4" cx="163.54" cy="538.84" rx="3.11" ry="3.04"/><ellipse class="cls-4" cx="148.77" cy="485.14" rx="3.11" ry="3.04"/><ellipse class="cls-4" cx="179.66" cy="485.14" rx="3.11" ry="3.04"/><ellipse class="cls-4" cx="162.74" cy="421.72" rx="3.11" ry="3.04"/><ellipse class="cls-4" cx="162.63" cy="372.64" rx="3.11" ry="3.04"/><ellipse class="cls-4" cx="162.24" cy="315.78" rx="3.11" ry="3.04"/><ellipse class="cls-4" cx="162.24" cy="255.55" rx="3.11" ry="3.04"/></g><g id="Strings"><polyline class="cls-22" points="140.07 858.87 142.93 163.8 142.93 108.29"/><polyline class="cls-22" points="149.57 858.87 148.77 163.8 148.77 75.37"/><polyline class="cls-22" points="159.12 858.87 156.77 163.8 148.77 39.16"/><polyline class="cls-22" points="168.29 858.87 163.77 163.8 174.44 39.16"/><polyline class="cls-22" points="177.69 858.87 172.06 163.8 174.44 75.37"/><polyline class="cls-22" points="187.43 858.87 179.66 163.8 180.28 107.99"/></g><polygon class="cls-5" points="184.81 162.24 187.79 162.48 187.51 165.37 184.51 165.37 184.81 162.24"/></g></g></svg>