<svg xmlns="http://www.w3.org/2000/svg" viewBox="0 0 335.65 978.05"><defs><style>.cls-1{fill:#333;}.cls-14,.cls-2,.cls-5,.cls-7{fill:#1a1a1a;}.cls-2,.cls-5{stroke:#d3b86c;stroke-width:2px;}.cls-11,.cls-14,.cls-2,.cls-21,.cls-5{stroke-miterlimit:10;}.cls-3{fill:#4d4d4d;}.cls-4{fill:#666;}.cls-21,.cls-5{stroke-linecap:round;}.cls-6{fill:#a8945d;}.cls-8{fill:#eace76;}.cls-9{fill:#999;}.cls-10{fill:#b3b3b3;}.cls-11,.cls-21{fill:none;}.cls-11{stroke:#ccc;}.cls-12{fill:#d5a940;}.cls-13{fill:#ccc;}.cls-14{stroke:#666;}.cls-15{fill:#f7e6a4;}.cls-16{fill:gray;}.cls-17{fill:#d3b86c;}.cls-18{fill:#e6e6e6;}.cls-19{fill:#c9961a;}.cls-20{fill:#f2d78f;}.cls-21{stroke:#e6e6e6;stroke-width:0.5px;}</style></defs><title>1956 Gibson Les Paul Custom</title><g id="Layer_2" data-name="Layer 2"><g id="_1956_Gibson_Les_Paul_Custom" data-name="1956 Gibson Les Paul Custom"><g id="Body"><path class="cls-1" d="M141.43,537c-.92,0-1.82-.08-2.74-.08-5.84,0-51.84-1.34-73.12,35.51a72.47,72.47,0,0,0-2.45,61.74c7.59,17.39,17.1,41.19,17.1,51.36,0,25.19-20.83,42.09-49.81,81.58a119.68,119.68,0,0,0-15.85,29.85,122.6,122.6,0,0,0-8.4,38.43C2.21,909.81,70.62,978,143.09,978H175.8c160.4,0,204.14-149.48,112.74-243.59q-1.67-1.72-3.37-3.42s-34.74-33.5-6.89-90c6.67-13.53,10.84-30.64,8.49-46.58-1.92-13.07-15.63-24.18-27.52-5.86-5.07,7.82-7.83,16.83-18.12,19.08-18.07,4-41.25-4.09-48-67.82-.17-1.63-4.1-3.1-5.75-3.1Z"/><path class="cls-2" d="M136.43,535c-.92,0-1.82-.08-2.74-.08-5.84,0-51.84-1.34-73.12,35.51a72.47,72.47,0,0,0-2.45,61.74c7.59,17.39,17.1,41.19,17.1,51.36,0,25.19-20.83,42.09-49.81,81.58A119.68,119.68,0,0,0,9.56,794.92a122.6,122.6,0,0,0-8.4,38.43C-2.79,907.81,65.62,976,138.09,976H170.8c160.4,0,204.14-149.48,112.74-243.59q-1.67-1.72-3.37-3.42s-34.74-33.5-6.89-90c6.67-13.53,10.84-30.64,8.49-46.58-1.92-13.07-11.56-19.56-23.46-1.24-5.07,7.82-11.89,12.21-22.18,14.46-18.07,4-43.31-1.39-44-68a3,3,0,0,0-3-3Z"/></g><g id="Plate"><path class="cls-3" d="M268.66,710.13l2.64-2.83s3.66,9.45,4.48,10.42l-2.39,2.5Z"/><polygon class="cls-4" points="263.91 714.43 269.04 709.73 274.12 719.51 268.21 725.31 263.91 714.43"/><path id="Plate-2" data-name="Plate" class="cls-5" d="M192.09,588.61s14.63,17.13,26.36,20.91a10.28,10.28,0,0,1,6.43,6l53.65,136c3.67,9.3-3.78,19.19-14,18.58,0,0-17.82-.33-23.64-1.41-9.27-1.71-33.58-.72-42.55-.72"/><ellipse class="cls-3" cx="201.03" cy="609.36" rx="2.71" ry="2.62"/><circle class="cls-1" cx="200.94" cy="609.36" r="2.62"/><rect class="cls-3" x="199.17" y="609.18" width="3.53" height="0.36" rx="0.18" ry="0.18" transform="translate(387.62 -4.52) rotate(35.16)"/><rect class="cls-3" x="199.17" y="609.18" width="3.53" height="0.36" rx="0.18" ry="0.18" transform="translate(-412.94 422.68) rotate(-54.84)"/><ellipse class="cls-3" cx="244.92" cy="741.03" rx="2.71" ry="2.62"/><circle class="cls-1" cx="244.82" cy="741.03" r="2.62"/><rect class="cls-3" x="243.06" y="740.85" width="3.53" height="0.36" rx="0.18" ry="0.18" transform="translate(-245.43 133.81) rotate(-20.63)"/><rect class="cls-3" x="243.06" y="740.85" width="3.53" height="0.36" rx="0.18" ry="0.18" transform="translate(-362.4 1231.28) rotate(-110.63)"/></g><g id="Neck"><path class="cls-6" d="M126.73,37.74l-7.29-7.19a2.3,2.3,0,0,0-2.13-.6l-12.92,3a2.3,2.3,0,0,0-1.78,2.24v8.36a2.3,2.3,0,0,0,1.78,2.24l12.92,3a2.3,2.3,0,0,0,2.13-.6L126.73,41A2.3,2.3,0,0,0,126.73,37.74Z"/><path class="cls-6" d="M127.71,70.59l-7.29-7.19a2.3,2.3,0,0,0-2.13-.6l-12.92,3A2.3,2.3,0,0,0,103.59,68V76.4a2.3,2.3,0,0,0,1.78,2.24l12.92,3a2.3,2.3,0,0,0,2.13-.6l7.29-7.19A2.3,2.3,0,0,0,127.71,70.59Z"/><path class="cls-6" d="M126.73,99.5l-7.29-7.19a2.3,2.3,0,0,0-2.13-.6l-12.92,3A2.3,2.3,0,0,0,102.62,97v8.36a2.3,2.3,0,0,0,1.78,2.24l12.92,3a2.3,2.3,0,0,0,2.13-.6l7.29-7.19A2.3,2.3,0,0,0,126.73,99.5Z"/><path class="cls-6" d="M199.48,41l7.29,7.19a2.3,2.3,0,0,0,2.13.6l12.92-3a2.3,2.3,0,0,0,1.78-2.24V35.19A2.3,2.3,0,0,0,221.82,33l-12.92-3a2.3,2.3,0,0,0-2.13.6l-7.29,7.19A2.3,2.3,0,0,0,199.48,41Z"/><path class="cls-6" d="M198.5,73.86,205.79,81a2.3,2.3,0,0,0,2.13.6l12.92-3a2.3,2.3,0,0,0,1.78-2.24V68a2.3,2.3,0,0,0-1.78-2.24l-12.92-3a2.3,2.3,0,0,0-2.13.6l-7.29,7.19A2.3,2.3,0,0,0,198.5,73.86Z"/><path class="cls-6" d="M200.35,102.77l7.29,7.19a2.3,2.3,0,0,0,2.13.6l12.92-3a2.3,2.3,0,0,0,1.78-2.24V97a2.3,2.3,0,0,0-1.78-2.24l-12.92-3a2.3,2.3,0,0,0-2.13.6l-7.29,7.19A2.3,2.3,0,0,0,200.35,102.77Z"/><g id="Headstock"><path d="M167.52,8.88c-8.06-8.06-18.88-1.38-24.37.8-4.9,1.95-16.21,0-16.21,0A2,2,0,0,0,125,12.15c2.39,9.67,10,47.43,1.78,108.44-1.49,11,18.77-7.48,18.77,40.37h43.92c0-47.92,20.3-29.09,18.77-40.37-8.24-61-.6-98.77,1.78-108.44.31-1.26-3.62-12.42-10.37-4.9,0,0-2.88,4.37-7.78,2.43-5.49-2.18-16.3-8.87-24.36-.8Z"/></g><g id="Headstock-2" data-name="Headstock"><path class="cls-7" d="M140.56,159v-1c0-31.38-8.72-33.46-13.94-34.7-2.67-.64-5.44-1.3-4.83-5.81,8.17-60.54.72-98-1.76-108.07a3,3,0,0,1,2.91-3.71h.17a66.38,66.38,0,0,0,9.66.85,17.29,17.29,0,0,0,6-.79c.73-.29,1.56-.66,2.46-1.07,3.46-1.55,8.19-3.68,13-3.68a13.63,13.63,0,0,1,9.3,3.5,13.62,13.62,0,0,1,9.3-3.5c4.79,0,9.52,2.13,13,3.68.9.41,1.73.78,2.46,1.07a17.29,17.29,0,0,0,6,.79,66.27,66.27,0,0,0,9.66-.85h.17A3,3,0,0,1,207,9.39c-2.48,10-9.94,47.52-1.76,108.07.63,4.63-2.17,5.29-4.87,5.92-5.2,1.23-13.89,3.28-13.89,34.58v1Z"/><path class="cls-8" d="M172.82,2c5.79,0,11.53,3.27,15.07,4.68a18.55,18.55,0,0,0,6.38.87,66.91,66.91,0,0,0,9.83-.87A2,2,0,0,1,206,9.15c-2.39,9.67-10,47.43-1.78,108.44,1.52,11.29-18.77-7.55-18.77,40.37H141.56c0-47.86-20.26-29.34-18.77-40.37,8.24-61,.6-98.77-1.78-108.44a2,2,0,0,1,1.94-2.47,66.9,66.9,0,0,0,9.83.87,18.56,18.56,0,0,0,6.38-.87C142.69,5.27,148.43,2,154.22,2a12.65,12.65,0,0,1,9.3,3.87h0A12.64,12.64,0,0,1,172.82,2m0-2a14.55,14.55,0,0,0-9.3,3.2A14.57,14.57,0,0,0,154.22,0c-5,0-9.85,2.18-13.39,3.76-.88.4-1.71.77-2.42,1a15.9,15.9,0,0,1-5.64.72,65.15,65.15,0,0,1-9.49-.84l-.17,0h-.17a4,4,0,0,0-3.89,4.95c2.47,10,9.89,47.33,1.74,107.69-.73,5.41,2.92,6.28,5.59,6.92,4.93,1.17,13.17,3.14,13.17,33.73v2h47.92v-2c0-13.55,1.66-23.06,4.94-28.26,2.53-4,5.53-4.73,8.18-5.35s6.38-1.51,5.64-7C198.08,57,205.51,19.63,208,9.63a4,4,0,0,0-3.89-4.95h-.17l-.17,0a65.36,65.36,0,0,1-9.49.84,15.9,15.9,0,0,1-5.64-.72c-.7-.28-1.54-.65-2.42-1.05C182.66,2.18,177.82,0,172.82,0Z"/></g><g id="neck-2" data-name="neck"><polygon class="cls-9" points="137.46 619.28 143.56 157.96 189.48 157.96 196.32 619.28 137.46 619.28"/></g><g id="neck-3" data-name="neck"><polygon class="cls-7" points="134.45 620.28 140.57 156.96 186.44 156.96 195.54 620.28 134.45 620.28"/><path class="cls-10" d="M185.46,158l9.06,461.31H135.46L141.56,158h43.9m2-2H139.58l0,2-6.1,461.32,0,2h63.13l0-2-9.06-461.32,0-2Z"/></g><g id="frets"><line class="cls-11" x1="135.59" y1="609.75" x2="194.33" y2="609.75"/><line class="cls-11" x1="135.73" y1="598.84" x2="194.12" y2="598.84"/><line class="cls-11" x1="135.88" y1="587.23" x2="193.89" y2="587.23"/><line class="cls-11" x1="136.04" y1="574.91" x2="193.65" y2="574.91"/><line class="cls-11" x1="136.21" y1="562.23" x2="193.4" y2="562.23"/><line class="cls-11" x1="136.39" y1="548.68" x2="193.13" y2="548.68"/><line class="cls-11" x1="136.58" y1="534.6" x2="192.86" y2="534.6"/><line class="cls-11" x1="136.77" y1="519.82" x2="192.56" y2="519.82"/><line class="cls-11" x1="136.98" y1="504.15" x2="192.26" y2="504.15"/><line class="cls-11" x1="137.2" y1="487.61" x2="191.93" y2="487.61"/><line class="cls-11" x1="137.44" y1="469.83" x2="191.58" y2="469.83"/><line class="cls-11" x1="137.68" y1="451.35" x2="191.22" y2="451.35"/><line class="cls-11" x1="137.95" y1="430.93" x2="190.82" y2="430.93"/><line class="cls-11" x1="138.23" y1="409.81" x2="190.4" y2="409.81"/><line class="cls-11" x1="138.51" y1="388.16" x2="189.98" y2="388.16"/><line class="cls-11" x1="138.83" y1="364.22" x2="189.51" y2="364.22"/><line class="cls-11" x1="139.16" y1="339.58" x2="189.02" y2="339.58"/><line class="cls-11" x1="139.5" y1="313.89" x2="188.52" y2="313.89"/><line class="cls-11" x1="139.86" y1="285.9" x2="187.97" y2="285.9"/><line class="cls-11" x1="140.15" y1="256.51" x2="187.39" y2="256.51"/><line class="cls-11" x1="140.66" y1="226.06" x2="186.79" y2="226.06"/><line class="cls-11" x1="141.09" y1="193.32" x2="186.15" y2="193.32"/></g><circle class="cls-12" cx="140.15" cy="67.16" r="5.07"/><rect class="cls-8" x="137.65" y="59.76" width="5" height="9.1" rx="2.5" ry="2.5"/><circle class="cls-12" cx="140.15" cy="64.31" r="0.75"/><circle class="cls-12" cx="140.15" cy="34.53" r="5.07"/><rect class="cls-8" x="137.65" y="27.14" width="5" height="9.1" rx="2.5" ry="2.5"/><circle class="cls-12" cx="140.15" cy="31.69" r="0.75"/><circle class="cls-12" cx="140.15" cy="100.73" r="5.07"/><rect class="cls-8" x="137.65" y="93.34" width="5" height="9.1" rx="2.5" ry="2.5"/><circle class="cls-12" cx="140.15" cy="97.89" r="0.75"/><circle class="cls-12" cx="186.41" cy="34.53" r="5.07"/><rect class="cls-8" x="183.91" y="27.14" width="5" height="9.1" rx="2.5" ry="2.5"/><circle class="cls-12" cx="186.41" cy="31.69" r="0.75"/><circle class="cls-12" cx="186.41" cy="67.16" r="5.07"/><rect class="cls-8" x="183.91" y="59.76" width="5" height="9.1" rx="2.5" ry="2.5"/><circle class="cls-12" cx="186.41" cy="64.31" r="0.75"/><circle class="cls-12" cx="186.41" cy="100.73" r="5.07"/><rect class="cls-8" x="183.91" y="93.34" width="5" height="9.1" rx="2.5" ry="2.5"/><circle class="cls-12" cx="186.41" cy="97.89" r="0.75"/><rect class="cls-13" x="146.25" y="590" width="37.42" height="6.19"/><rect class="cls-13" x="146.36" y="538.62" width="36.61" height="6.19"/><rect class="cls-13" x="147.36" y="507.76" width="35.65" height="8.56"/><rect class="cls-13" x="148.68" y="454.88" width="30.11" height="11.68"/><rect class="cls-13" x="149.09" y="391.61" width="28.94" height="15.09"/><rect class="cls-13" x="149.7" y="343.2" width="28.77" height="17.66"/><rect class="cls-13" x="150.56" y="290.11" width="26.17" height="20.45"/><rect class="cls-13" x="152.08" y="229.28" width="23.29" height="24.67"/><rect class="cls-13" x="152.36" y="162.48" width="21.86" height="27.32"/><rect class="cls-13" x="147.27" y="565.47" width="35.06" height="6.19"/></g><g id="Electrics"><circle class="cls-1" cx="242.48" cy="840" r="14.85"/><circle class="cls-7" cx="242.48" cy="840" r="11.54"/><circle class="cls-1" cx="288.83" cy="813.61" r="14.85"/><circle class="cls-7" cx="288.83" cy="813.61" r="11.54"/><circle class="cls-1" cx="242.48" cy="899.02" r="14.85"/><circle class="cls-7" cx="242.48" cy="899.02" r="11.54"/><circle class="cls-1" cx="285.52" cy="872.64" r="14.85"/><circle class="cls-7" cx="285.52" cy="872.64" r="11.54"/><g id="Pickup_2" data-name="Pickup 2"><rect class="cls-3" x="120.8" y="732.13" width="89.37" height="34.02" rx="3" ry="3"/><rect class="cls-14" x="120.8" y="732.13" width="88.37" height="33.02" rx="3" ry="3"/><circle class="cls-8" cx="133.71" cy="749.13" r="3.14"/><circle class="cls-8" cx="146.3" cy="749.13" r="3.14"/><circle class="cls-8" cx="158.89" cy="749.13" r="3.14"/><circle class="cls-8" cx="171.48" cy="749.13" r="3.14"/><circle class="cls-8" cx="184.08" cy="749.13" r="3.14"/><circle class="cls-8" cx="196.67" cy="749.13" r="3.14"/><rect class="cls-15" x="131.12" y="748.87" width="5.19" height="0.53" rx="0.27" ry="0.27"/><rect class="cls-15" x="143.71" y="748.87" width="5.19" height="0.53" rx="0.27" ry="0.27"/><rect class="cls-15" x="156.3" y="748.87" width="5.19" height="0.53" rx="0.27" ry="0.27"/><rect class="cls-15" x="168.89" y="748.87" width="5.19" height="0.53" rx="0.27" ry="0.27"/><rect class="cls-15" x="181.48" y="748.87" width="5.19" height="0.53" rx="0.27" ry="0.27"/><rect class="cls-15" x="194.07" y="748.87" width="5.19" height="0.53" rx="0.27" ry="0.27"/><circle class="cls-8" cx="177.79" cy="749.13" r="2.44"/><rect class="cls-15" x="176.49" y="748.99" width="2.59" height="0.28" rx="0.14" ry="0.14" transform="translate(255.08 -16.92) rotate(19.11)"/><rect class="cls-15" x="176.49" y="748.99" width="2.59" height="0.28" rx="0.14" ry="0.14" transform="translate(943.84 826.43) rotate(109.11)"/><circle class="cls-8" cx="152.7" cy="749.13" r="2.44"/><rect class="cls-15" x="151.4" y="748.99" width="2.59" height="0.28" rx="0.14" ry="0.14" transform="translate(825.78 386.54) rotate(73.21)"/><rect class="cls-15" x="151.4" y="748.99" width="2.59" height="0.28" rx="0.14" ry="0.14" transform="translate(515.29 1422.22) rotate(163.21)"/></g><g id="Pickup_1" data-name="Pickup 1"><rect class="cls-3" x="120.8" y="619.28" width="89.37" height="34.02" rx="3" ry="3"/><rect class="cls-14" x="120.8" y="619.28" width="88.37" height="33.02" rx="3" ry="3"/><ellipse class="cls-3" cx="204.89" cy="647.91" rx="2.71" ry="2.62"/><circle class="cls-1" cx="204.79" cy="647.91" r="2.62"/><rect class="cls-3" x="203.02" y="647.73" width="3.53" height="0.36" rx="0.18" ry="0.18" transform="translate(-215.18 113.73) rotate(-20.63)"/><rect class="cls-3" x="203.02" y="647.73" width="3.53" height="0.36" rx="0.18" ry="0.18" transform="translate(-329.39 1067.88) rotate(-110.63)"/><ellipse class="cls-3" cx="125.66" cy="623.83" rx="2.69" ry="2.62"/><circle class="cls-1" cx="125.58" cy="623.83" r="2.62"/><rect class="cls-3" x="123.81" y="623.65" width="3.53" height="0.36" rx="0.18" ry="0.18" transform="translate(380.59 40.82) rotate(35.01)"/><rect class="cls-3" x="123.81" y="623.65" width="3.53" height="0.36" rx="0.18" ry="0.18" transform="translate(-457.43 368.82) rotate(-54.99)"/><ellipse cx="138.36" cy="630.78" rx="2.53" ry="2.39"/><circle class="cls-1" cx="138.5" cy="630.78" r="2.39"/><rect class="cls-3" x="136.15" y="630.57" width="4.69" height="0.42" rx="0.21" ry="0.21"/><ellipse cx="138.5" cy="640.79" rx="2.53" ry="2.39"/><circle class="cls-1" cx="138.64" cy="640.79" r="2.39"/><rect class="cls-3" x="136.29" y="640.58" width="4.69" height="0.42" rx="0.21" ry="0.21"/><ellipse cx="164.92" cy="630.78" rx="2.53" ry="2.39"/><circle class="cls-1" cx="165.06" cy="630.78" r="2.39"/><rect class="cls-3" x="162.71" y="630.57" width="4.69" height="0.42" rx="0.21" ry="0.21"/><ellipse cx="165.06" cy="640.79" rx="2.53" ry="2.39"/><circle class="cls-1" cx="165.2" cy="640.79" r="2.39"/><rect class="cls-3" x="162.85" y="640.58" width="4.69" height="0.42" rx="0.21" ry="0.21"/><ellipse cx="192.02" cy="630.78" rx="2.53" ry="2.39"/><circle class="cls-1" cx="192.16" cy="630.78" r="2.39"/><rect class="cls-3" x="189.81" y="630.57" width="4.69" height="0.42" rx="0.21" ry="0.21"/><ellipse cx="192.16" cy="640.79" rx="2.53" ry="2.39"/><circle class="cls-1" cx="192.3" cy="640.79" r="2.39"/><rect class="cls-3" x="189.96" y="640.58" width="4.69" height="0.42" rx="0.21" ry="0.21"/><rect class="cls-4" x="129.24" y="630.78" width="4.48" height="10.02" rx="1" ry="1"/><rect class="cls-4" x="142.64" y="630.78" width="4.48" height="10.02" rx="1" ry="1"/><rect class="cls-4" x="156.05" y="630.78" width="4.48" height="10.02" rx="1" ry="1"/><rect class="cls-4" x="169.45" y="630.78" width="4.48" height="10.02" rx="1" ry="1"/><rect class="cls-4" x="182.86" y="630.78" width="4.48" height="10.02" rx="1" ry="1"/><rect class="cls-4" x="196.27" y="630.78" width="4.48" height="10.02" rx="1" ry="1"/></g><circle class="cls-1" cx="88.03" cy="597.75" r="14.62"/><circle class="cls-16" cx="88.03" cy="597.73" r="8.91"/><circle class="cls-3" cx="88.03" cy="597.73" r="5.85"/><rect class="cls-17" x="75.99" y="593.5" width="13.8" height="5.38" rx="2.69" ry="2.69" transform="translate(176.46 1.58) rotate(16.86)"/><circle class="cls-1" cx="288.83" cy="813.61" r="6.24"/><circle class="cls-1" cx="242.48" cy="840" r="6.24"/><circle class="cls-1" cx="285.52" cy="872.64" r="6.24"/><circle class="cls-1" cx="242.48" cy="899.02" r="6.24"/></g><circle class="cls-12" cx="125.47" cy="790.42" r="8.72"/><circle class="cls-12" cx="204.63" cy="787.05" r="8.72"/><circle class="cls-8" cx="126.47" cy="790.42" r="8.72"/><circle class="cls-8" cx="203.63" cy="787.05" r="8.72"/><rect class="cls-18" x="121.43" y="783.17" width="87.21" height="11.13" rx="5.56" ry="5.56" transform="translate(-34.24 7.95) rotate(-2.5)"/><rect class="cls-12" x="133.67" y="784.35" width="8.68" height="11.13" transform="translate(-28.8 5.58) rotate(-2.1)"/><rect class="cls-8" x="134.48" y="783.88" width="6.69" height="1.62" rx="0.57" ry="0.57" transform="translate(-28.61 5.57) rotate(-2.1)"/><rect class="cls-8" x="135.75" y="785.16" width="4.28" height="2.76" transform="translate(-28.68 5.57) rotate(-2.1)"/><rect class="cls-8" x="134.6" y="787.11" width="6.69" height="1.62" rx="0.57" ry="0.57" transform="matrix(1, -0.04, 0.04, 1, -28.73, 5.57)"/><rect class="cls-19" x="134.49" y="792.41" width="7.35" height="3.22" transform="translate(-28.95 5.59) rotate(-2.1)"/><rect class="cls-8" x="134.73" y="790.79" width="6.69" height="1.62" rx="0.57" ry="0.57" transform="translate(-28.86 5.58) rotate(-2.1)"/><polygon class="cls-20" points="142.31 788.57 133.63 788.88 134.43 792.54 141.78 792.28 142.31 788.57"/><rect class="cls-8" x="136.02" y="792.39" width="4.28" height="2.76" transform="translate(-28.94 5.59) rotate(-2.1)"/><rect class="cls-8" x="134.86" y="794.34" width="6.69" height="1.62" rx="0.57" ry="0.57" transform="translate(-28.99 5.59) rotate(-2.1)"/><rect class="cls-12" x="144.37" y="783.89" width="8.68" height="11.13" transform="translate(-28.78 5.97) rotate(-2.1)"/><rect class="cls-8" x="145.16" y="783.39" width="6.69" height="1.62" rx="0.57" ry="0.57" transform="translate(-28.59 5.96) rotate(-2.1)"/><rect class="cls-8" x="146.44" y="784.67" width="4.28" height="2.76" transform="translate(-28.65 5.96) rotate(-2.1)"/><rect class="cls-8" x="145.28" y="786.62" width="6.69" height="1.62" rx="0.57" ry="0.57" transform="translate(-28.7 5.96) rotate(-2.1)"/><rect class="cls-19" x="145.18" y="791.92" width="7.35" height="3.22" transform="translate(-28.93 5.98) rotate(-2.1)"/><rect class="cls-8" x="145.42" y="790.3" width="6.69" height="1.62" rx="0.57" ry="0.57" transform="translate(-28.84 5.97) rotate(-2.1)"/><polygon class="cls-20" points="153 788.07 144.32 788.39 145.12 792.05 152.46 791.78 153 788.07"/><rect class="cls-8" x="146.7" y="791.9" width="4.28" height="2.76" transform="matrix(1, -0.04, 0.04, 1, -28.92, 5.98)"/><rect class="cls-8" x="145.55" y="793.85" width="6.69" height="1.62" rx="0.57" ry="0.57" transform="translate(-28.97 5.98) rotate(-2.1)"/><rect class="cls-12" x="155.07" y="783.42" width="8.68" height="11.13" transform="translate(-28.75 6.36) rotate(-2.1)"/><rect class="cls-8" x="155.85" y="782.9" width="6.69" height="1.62" rx="0.57" ry="0.57" transform="translate(-28.56 6.35) rotate(-2.1)"/><rect class="cls-8" x="157.12" y="784.18" width="4.28" height="2.76" transform="translate(-28.63 6.35) rotate(-2.1)"/><rect class="cls-8" x="155.97" y="786.12" width="6.69" height="1.62" rx="0.57" ry="0.57" transform="translate(-28.68 6.35) rotate(-2.1)"/><rect class="cls-19" x="155.86" y="791.43" width="7.35" height="3.22" transform="translate(-28.9 6.37) rotate(-2.1)"/><rect class="cls-8" x="156.1" y="789.8" width="6.69" height="1.62" rx="0.57" ry="0.57" transform="matrix(1, -0.04, 0.04, 1, -28.81, 6.36)"/><polygon class="cls-20" points="163.68 787.58 155 787.9 155.81 791.56 163.15 791.29 163.68 787.58"/><rect class="cls-8" x="157.39" y="791.41" width="4.28" height="2.76" transform="translate(-28.89 6.37) rotate(-2.1)"/><rect class="cls-8" x="156.23" y="793.35" width="6.69" height="1.62" rx="0.57" ry="0.57" transform="translate(-28.94 6.37) rotate(-2.1)"/><rect class="cls-12" x="165.77" y="782.95" width="8.68" height="11.13" transform="translate(-28.73 6.75) rotate(-2.1)"/><rect class="cls-8" x="166.53" y="782.41" width="6.69" height="1.62" rx="0.57" ry="0.57" transform="translate(-28.54 6.74) rotate(-2.1)"/><rect class="cls-8" x="167.81" y="783.69" width="4.28" height="2.76" transform="translate(-28.6 6.74) rotate(-2.1)"/><rect class="cls-8" x="166.65" y="785.63" width="6.69" height="1.62" rx="0.57" ry="0.57" transform="translate(-28.65 6.74) rotate(-2.1)"/><rect class="cls-19" x="166.55" y="790.93" width="7.35" height="3.22" transform="translate(-28.88 6.76) rotate(-2.1)"/><rect class="cls-8" x="166.79" y="789.31" width="6.69" height="1.62" rx="0.57" ry="0.57" transform="translate(-28.79 6.75) rotate(-2.1)"/><polygon class="cls-20" points="174.37 787.09 165.69 787.41 166.49 791.07 173.83 790.8 174.37 787.09"/><rect class="cls-8" x="168.07" y="790.92" width="4.28" height="2.76" transform="translate(-28.87 6.76) rotate(-2.1)"/><rect class="cls-8" x="166.92" y="792.86" width="6.69" height="1.62" rx="0.57" ry="0.57" transform="translate(-28.92 6.76) rotate(-2.1)"/><rect class="cls-12" x="176.46" y="782.48" width="8.68" height="11.13" transform="translate(-28.71 7.14) rotate(-2.1)"/><rect class="cls-8" x="177.22" y="781.92" width="6.69" height="1.62" rx="0.57" ry="0.57" transform="translate(-28.51 7.13) rotate(-2.1)"/><rect class="cls-8" x="178.49" y="783.2" width="4.28" height="2.76" transform="translate(-28.58 7.13) rotate(-2.1)"/><rect class="cls-8" x="177.34" y="785.14" width="6.69" height="1.62" rx="0.57" ry="0.57" transform="translate(-28.63 7.14) rotate(-2.1)"/><rect class="cls-19" x="177.23" y="790.44" width="7.35" height="3.22" transform="translate(-28.85 7.15) rotate(-2.1)"/><rect class="cls-8" x="177.47" y="788.82" width="6.69" height="1.62" rx="0.57" ry="0.57" transform="translate(-28.76 7.14) rotate(-2.1)"/><polygon class="cls-20" points="185.06 786.6 176.37 786.92 177.18 790.58 184.52 790.31 185.06 786.6"/><rect class="cls-8" x="178.76" y="790.43" width="4.28" height="2.76" transform="translate(-28.84 7.15) rotate(-2.1)"/><rect class="cls-8" x="177.6" y="792.37" width="6.69" height="1.62" rx="0.57" ry="0.57" transform="translate(-28.89 7.15) rotate(-2.1)"/><rect class="cls-12" x="187.16" y="782.02" width="8.68" height="11.13" transform="translate(-28.68 7.53) rotate(-2.1)"/><rect class="cls-8" x="187.9" y="781.43" width="6.69" height="1.62" rx="0.57" ry="0.57" transform="translate(-28.49 7.52) rotate(-2.1)"/><rect class="cls-8" x="189.18" y="782.7" width="4.28" height="2.76" transform="matrix(1, -0.04, 0.04, 1, -28.55, 7.52)"/><rect class="cls-8" x="188.02" y="784.65" width="6.69" height="1.62" rx="0.57" ry="0.57" transform="translate(-28.6 7.53) rotate(-2.1)"/><rect class="cls-19" x="187.92" y="789.95" width="7.35" height="3.22" transform="translate(-28.83 7.54) rotate(-2.1)"/><rect class="cls-8" x="188.16" y="788.33" width="6.69" height="1.62" rx="0.57" ry="0.57" transform="translate(-28.74 7.53) rotate(-2.1)"/><polygon class="cls-20" points="195.74 786.11 187.06 786.42 187.86 790.09 195.2 789.82 195.74 786.11"/><rect class="cls-8" x="189.44" y="789.93" width="4.28" height="2.76" transform="translate(-28.82 7.54) rotate(-2.1)"/><rect class="cls-8" x="188.29" y="791.88" width="6.69" height="1.62" rx="0.57" ry="0.57" transform="translate(-28.87 7.54) rotate(-2.1)"/><circle class="cls-12" cx="126.47" cy="790.42" r="1.68"/><circle class="cls-12" cx="203.63" cy="787.05" r="1.68"/><rect class="cls-12" x="114.29" y="820.96" width="104.06" height="17.58" rx="7.8" ry="7.8"/><rect class="cls-8" x="114.29" y="820.96" width="103.06" height="16.58" rx="7.8" ry="7.8"/><rect class="cls-15" x="133.52" y="820.96" width="64.31" height="16.58" rx="6" ry="6"/><circle class="cls-10" cx="124.36" cy="829.25" r="6.79"/><circle class="cls-13" cx="123.64" cy="829.25" r="6.79"/><circle class="cls-10" cx="208" cy="829.25" r="6.79"/><circle class="cls-13" cx="207.28" cy="829.25" r="6.79"/><rect class="cls-18" x="116.85" y="828.53" width="14.15" height="1.44" rx="0.72" ry="0.72"/><rect class="cls-18" x="200.35" y="828.67" width="14.15" height="1.44" rx="0.72" ry="0.72" transform="translate(647.22 96.25) rotate(45)"/><g id="Strings"><polyline class="cls-21" points="138.99 822.03 138.21 792.39 145.73 158.27 140.15 97.89"/><polyline class="cls-21" points="149.54 822.03 148.9 791.92 152.46 158.27 140.15 64.31"/><polyline class="cls-21" points="160.09 822.03 159.42 158.27 140.15 31.69"/><polyline class="cls-21" points="170.19 822.03 167.05 158.27 186.41 31.69"/><polyline class="cls-21" points="180.44 822.03 174.05 158.27 186.41 64.31"/><polyline class="cls-21" points="192.09 822.03 181.19 158.27 186.41 97.89"/></g><polygon class="cls-9" points="187.41 155.96 189.55 156.07 189.49 158.91 187.47 158.61 187.41 155.96"/></g></g></svg>