<svg xmlns="http://www.w3.org/2000/svg" viewBox="0 0 332.58 983.45"><defs><style>.cls-1{fill:#e8d19a;}.cls-2{fill:#ab431d;}.cls-3{fill:#fcfdfb;}.cls-4{fill:#e6e6e6;}.cls-5{fill:#ccc;}.cls-6{fill:#b3b3b3;}.cls-7{fill:#94491d;}.cls-8{fill:#999;}.cls-9{fill:#eace76;}.cls-10{fill:#f7e6a4;}.cls-11{fill:#333;}.cls-12{fill:#c9961a;}.cls-13{fill:#d5a940;}.cls-14{fill:#ccc597;}.cls-15{fill:#93644d;}.cls-16{fill:#af795b;}.cls-17{fill:#301713;}.cls-18{fill:#47251e;}</style></defs><title>1960 Dan Electro Bronze</title><g id="Layer_2" data-name="Layer 2"><g id="_1960_Dan_Electro_Bronze" data-name="1960 Dan Electro Bronze"><path class="cls-1" d="M137.56,594.23c-34.66,34.66-75.72-40.63-100-16.39C19.2,596.23,72,660.62,72,699.11c0,46.26-68,48-68,172.08,0,49.17,27.24,112.26,161.5,112.26,80.42,0,167.08-33.74,167.08-113.08,0-121.35-67.19-133.43-67.19-181.91,0-50.46,53.43-91.6,30.32-114.72-17.34-17.34-60.32,52.76-96.69,16.39C188.13,579.24,148.45,583.34,137.56,594.23Z"/><path class="cls-2" d="M133.56,594.23c-34.66,34.66-75.72-40.63-100-16.39C15.2,596.23,68,660.62,68,699.11c0,46.26-68,61.08-68,172.08,0,49.17,35.48,112.26,161.5,112.26,80.42,0,167.08-33.74,167.08-113.08,0-118.53-67.19-133.43-67.19-181.91,0-50.46,53.43-91.6,30.32-114.72-17.34-17.34-60.32,52.76-96.69,16.39C184.13,579.24,144.45,583.34,133.56,594.23Z"/><g id="Plate"><path id="Plate-2" data-name="Plate" class="cls-3" d="M205.33,685.38c7.3,10.59,9.64,24.36,6.92,37.33-1.45,6.93-5.06,16.53-5.71,21-3.63,25.06,12.1,47,34.11,54,44.5,14.13,45.43-8.26,44.48-22.78-.56-8.58-3.42-19.89-10.29-34.78a136.19,136.19,0,0,0-7.22-13.59c-3.13-5.17-9.7-19.27-10.41-47.44a50.43,50.43,0,0,1,.69-9.49c1.77-10.71,7.75-37.52,7.06-48.14-.8-12.33-23.84-24.6-41-4.32a186.38,186.38,0,0,0-19.4,27.29,41.48,41.48,0,0,0-5.18,26.67,28.7,28.7,0,0,0,5,12.93Q204.88,684.72,205.33,685.38Z"/><path class="cls-4" d="M264.48,803.24c-6.52,0-14.53-1.52-24.13-4.57a50.17,50.17,0,0,1-34.79-55.06,83.4,83.4,0,0,1,2.67-10c1.16-3.8,2.35-7.73,3.05-11.07,2.73-13,.26-26.35-6.77-36.56q-.44-.64-.91-1.27a29.5,29.5,0,0,1-5.22-13.38,42.4,42.4,0,0,1,5.3-27.32,187.84,187.84,0,0,1,19.51-27.44c8.13-9.58,19-13.3,29.19-9.95,7.6,2.51,13.2,8.62,13.6,14.85.53,8.2-2.79,25.62-5.22,38.35-.76,4-1.43,7.46-1.85,10a49.51,49.51,0,0,0-.68,9.31c.71,28.26,7.41,42.25,10.26,46.95a138,138,0,0,1,7.28,13.69c6.25,13.56,9.74,25.38,10.38,35.13.57,8.82.2,18.58-6.89,24.14C275.64,801.83,270.75,803.24,264.48,803.24Zm-19.7-195.86c-5.55,0-13,2.05-20.08,10.45A185.87,185.87,0,0,0,205.4,645a40.39,40.39,0,0,0-5.05,26,27.55,27.55,0,0,0,4.85,12.49q.49.66,1,1.33h0c7.34,10.65,9.92,24.54,7.08,38.1-.72,3.43-1.93,7.4-3.09,11.24a83,83,0,0,0-2.61,9.74A48.18,48.18,0,0,0,241,796.76c17.9,5.68,30.37,5.91,37.05.68,6.36-5,6.67-14.14,6.13-22.44-.62-9.5-4-21.09-10.2-34.42a135.76,135.76,0,0,0-7.17-13.49c-2.93-4.84-9.83-19.19-10.55-47.93a51.53,51.53,0,0,1,.71-9.68c.43-2.58,1.09-6.05,1.86-10.07,2.41-12.62,5.71-29.9,5.19-37.84-.35-5.44-5.38-10.81-12.23-13.08A22.42,22.42,0,0,0,244.78,607.38Z"/><circle class="cls-5" cx="245.19" cy="792.5" r="2.62" transform="translate(-223.19 107.81) rotate(-17.18)"/><rect class="cls-6" x="244.97" y="790.67" width="0.44" height="3.66" rx="0.22" ry="0.22" transform="translate(-223.18 107.8) rotate(-17.18)"/><rect class="cls-6" x="244.97" y="790.67" width="0.44" height="3.66" rx="0.22" ry="0.22" transform="translate(929.88 324.13) rotate(72.82)"/><circle class="cls-5" cx="224.1" cy="626.51" r="2.62" transform="translate(-175.09 94.17) rotate(-17.18)"/><rect class="cls-6" x="223.88" y="624.68" width="0.44" height="3.66" rx="0.22" ry="0.22" transform="translate(-175.08 94.17) rotate(-17.18)"/><rect class="cls-6" x="223.88" y="624.68" width="0.44" height="3.66" rx="0.22" ry="0.22" transform="translate(756.44 227.32) rotate(72.82)"/></g><g id="Bridge"><path id="Bridge-2" data-name="Bridge" class="cls-6" d="M190.63,858.87H138.05c-4.92,0-10.08-4.43-11.57-10.24l-5.38-21.1c-2.11-8.28,1.4-15.69,8-15.69h70.48c6.6,0,10.11,7.4,8,15.69l-5.38,21.1C200.71,854.44,195.56,858.87,190.63,858.87Z"/><path id="Bridge-3" data-name="Bridge" class="cls-5" d="M189.63,856H137.05c-4.92,0-10.08-4.16-11.57-9.62l-5.38-19.81c-2.11-7.77,1.4-14.72,8-14.72h70.48c6.6,0,10.11,6.95,8,14.72l-5.38,19.81C199.71,851.83,194.56,856,189.63,856Z"/><path id="Bridge-4" data-name="Bridge" class="cls-7" d="M183.18,838.43H143.51c-3.71,0-7.61-1.45-8.73-3.35l-4.06-6.89c-1.59-2.71,1.05-5.12,6-5.12h53.18c5,0,7.63,2.42,6,5.12l-4.06,6.89C190.78,837,186.89,838.43,183.18,838.43Z"/><path class="cls-8" d="M164,853.33a4.53,4.53,0,0,1-5-4,4.43,4.43,0,0,1,4.16-4.74,4.53,4.53,0,0,1,5,4A4.43,4.43,0,0,1,164,853.33Z"/><circle class="cls-6" cx="163.34" cy="848.98" r="4.37" transform="translate(-74.36 17.75) rotate(-5.07)"/><rect class="cls-5" x="163.1" y="846.98" width="0.48" height="4.01" rx="0.22" ry="0.22" transform="translate(994.58 611.28) rotate(84.93)"/><rect class="cls-5" x="163.1" y="846.98" width="0.48" height="4.01" rx="0.22" ry="0.22" transform="translate(401.05 1680.22) rotate(174.93)"/><path class="cls-8" d="M127.52,823a4.55,4.55,0,0,1-5-4,4.45,4.45,0,0,1,4.2-4.74,4.55,4.55,0,0,1,5,4A4.45,4.45,0,0,1,127.52,823Z"/><circle class="cls-6" cx="126.86" cy="818.7" r="4.37" transform="translate(-71.83 14.41) rotate(-5.07)"/><rect class="cls-5" x="126.61" y="816.69" width="0.48" height="4.01" rx="0.22" ry="0.22" transform="translate(931.14 620.01) rotate(84.93)"/><rect class="cls-5" x="126.61" y="816.69" width="0.48" height="4.01" rx="0.22" ry="0.22" transform="translate(325.54 1622.98) rotate(174.93)"/><path class="cls-8" d="M200.45,823a4.48,4.48,0,0,1-4.9-4,4.41,4.41,0,0,1,4.1-4.74,4.48,4.48,0,0,1,4.9,4A4.41,4.41,0,0,1,200.45,823Z"/><circle class="cls-6" cx="199.9" cy="818.7" r="4.37" transform="translate(-71.54 20.86) rotate(-5.07)"/><rect class="cls-5" x="199.65" y="816.69" width="0.48" height="4.01" rx="0.22" ry="0.22" transform="translate(997.73 547.26) rotate(84.93)"/><rect class="cls-5" x="199.65" y="816.69" width="0.48" height="4.01" rx="0.22" ry="0.22" transform="matrix(-1, 0.09, -0.09, -1, 471.34, 1616.53)"/><path class="cls-9" d="M142.34,858.87a2.26,2.26,0,1,1-4.52,0Z"/><path class="cls-9" d="M151.81,858.87a2.26,2.26,0,1,1-4.52,0Z"/><path class="cls-9" d="M161.28,858.87a2.26,2.26,0,1,1-4.52,0Z"/><path class="cls-9" d="M170.75,858.87a2.26,2.26,0,1,1-4.52,0Z"/><path class="cls-9" d="M180.22,858.87a2.26,2.26,0,1,1-4.52,0Z"/><path class="cls-9" d="M189.69,858.87a2.26,2.26,0,1,1-4.52,0Z"/></g><g id="pickup2"><rect class="cls-6" x="118.32" y="788.15" width="92.93" height="15.86" rx="7.45" ry="7.45" transform="translate(40.84 -7.37) rotate(2.93)"/><rect class="cls-5" x="118.34" y="788.12" width="91.89" height="14.9" rx="7.45" ry="7.45" transform="translate(40.81 -7.35) rotate(2.93)"/><rect class="cls-6" x="118.36" y="794.19" width="91.84" height="2.46" rx="1.23" ry="1.23" transform="translate(40.8 -7.35) rotate(2.93)"/></g><g id="pickup"><rect class="cls-6" x="118.84" y="696.43" width="91.89" height="15.86" rx="7.45" ry="7.45" transform="translate(36.16 -7.49) rotate(2.93)"/><rect class="cls-5" x="117.83" y="696.38" width="91.89" height="14.9" rx="7.45" ry="7.45" transform="translate(36.13 -7.44) rotate(2.93)"/><rect class="cls-6" x="117.84" y="702.45" width="91.84" height="2.46" rx="1.23" ry="1.23" transform="translate(36.12 -7.44) rotate(2.93)"/></g><circle class="cls-3" cx="228.08" cy="901.3" r="17.61"/><circle class="cls-3" cx="257.01" cy="863.87" r="17.61"/><circle class="cls-10" cx="273.26" cy="821.63" r="7.25"/><circle class="cls-11" cx="228.08" cy="901.3" r="16.11"/><circle class="cls-9" cx="273.26" cy="821.63" r="5.42"/><circle class="cls-11" cx="257.01" cy="863.87" r="16.11"/><circle class="cls-6" cx="228.08" cy="901.3" r="8.2"/><circle class="cls-6" cx="257.01" cy="863.87" r="8.2"/><rect class="cls-12" x="270.43" y="817.76" width="10.41" height="4.47" rx="2.05" ry="2.05" transform="translate(-373.07 247.68) rotate(-30)"/><rect class="cls-13" x="270.36" y="817.85" width="10.12" height="4.1" rx="2.05" ry="2.05" transform="translate(-373.05 247.56) rotate(-30)"/><rect class="cls-6" x="127.68" y="106.25" width="6.57" height="3.47" rx="1.74" ry="1.74"/><ellipse class="cls-14" cx="123.56" cy="107.19" rx="6.28" ry="8.2"/><rect class="cls-6" x="127.68" y="72.98" width="11.69" height="3.47" rx="1.74" ry="1.74"/><ellipse class="cls-14" cx="123.56" cy="73.92" rx="6.28" ry="8.2"/><rect class="cls-6" x="127.68" y="37.42" width="11.69" height="3.47" rx="1.74" ry="1.74"/><ellipse class="cls-14" cx="123.56" cy="38.36" rx="6.28" ry="8.2"/><rect class="cls-6" x="183.08" y="36.62" width="11.69" height="3.47" rx="1.74" ry="1.74" transform="translate(377.85 76.72) rotate(-180)"/><ellipse class="cls-14" cx="198.89" cy="39.16" rx="6.28" ry="8.2"/><rect class="cls-6" x="183.2" y="72.84" width="11.69" height="3.47" rx="1.74" ry="1.74" transform="translate(378.1 149.15) rotate(-180)"/><ellipse class="cls-14" cx="199.02" cy="75.37" rx="6.28" ry="8.2"/><rect class="cls-6" x="183.2" y="105.76" width="11.69" height="3.47" rx="1.74" ry="1.74" transform="translate(378.1 214.99) rotate(-180)"/><ellipse class="cls-14" cx="199.02" cy="108.29" rx="6.28" ry="8.2"/><path id="Neck" class="cls-15" d="M187.51,165.37l5.38-56a23.13,23.13,0,0,0-.19-5.88L190,86.32a94,94,0,0,1,.07-30.2l2.84-17.21a12.35,12.35,0,0,0,0-3.88L188.94,9.25A10.9,10.9,0,0,0,178.17,0H150.8a10.9,10.9,0,0,0-10.73,9l-4.68,26.57a12.35,12.35,0,0,0,.05,4.56L139.62,61a53.83,53.83,0,0,1,.13,20.44l-4.12,22.06a23.13,23.13,0,0,0-.24,6.87l6.28,55"/><path id="Neck-2" data-name="Neck" class="cls-16" d="M184.51,165.37l5.38-56a23.13,23.13,0,0,0-.19-5.88L187,86.32a94,94,0,0,1,.07-30.2l2.84-17.21a12.35,12.35,0,0,0,0-3.88L185.94,9.25A10.9,10.9,0,0,0,175.17,0H147.8a10.9,10.9,0,0,0-10.73,9l-4.68,26.57a12.35,12.35,0,0,0,.05,4.56L136.62,61a53.83,53.83,0,0,1,.13,20.44l-4.12,22.06a23.13,23.13,0,0,0-.24,6.87l6.28,55"/><circle class="cls-6" cx="145.85" cy="108.29" r="5.84"/><circle class="cls-6" cx="145.85" cy="108.29" r="4.13"/><circle class="cls-8" cx="145.85" cy="108.29" r="2.92"/><path class="cls-4" d="M145.85,111.46a3.17,3.17,0,1,1,3.17-3.17A3.17,3.17,0,0,1,145.85,111.46Zm0-5.84a2.67,2.67,0,1,0,2.67,2.67A2.67,2.67,0,0,0,145.85,105.62Z"/><circle class="cls-6" cx="177.36" cy="107.99" r="5.84"/><circle class="cls-6" cx="177.36" cy="107.99" r="4.13"/><circle class="cls-8" cx="177.36" cy="107.99" r="2.92"/><path class="cls-4" d="M177.36,111.16a3.17,3.17,0,1,1,3.17-3.17A3.17,3.17,0,0,1,177.36,111.16Zm0-5.84A2.67,2.67,0,1,0,180,108,2.67,2.67,0,0,0,177.36,105.32Z"/><circle class="cls-6" cx="145.85" cy="75.37" r="5.84"/><circle class="cls-6" cx="145.85" cy="75.37" r="4.13"/><circle class="cls-8" cx="145.85" cy="75.37" r="2.92"/><path class="cls-4" d="M145.85,78.54A3.17,3.17,0,1,1,149,75.37,3.17,3.17,0,0,1,145.85,78.54Zm0-5.84a2.67,2.67,0,1,0,2.67,2.67A2.67,2.67,0,0,0,145.85,72.7Z"/><circle class="cls-6" cx="177.36" cy="75.37" r="5.84"/><circle class="cls-6" cx="177.36" cy="75.37" r="4.13"/><circle class="cls-8" cx="177.36" cy="75.37" r="2.92"/><path class="cls-4" d="M177.36,78.54a3.17,3.17,0,1,1,3.17-3.17A3.17,3.17,0,0,1,177.36,78.54Zm0-5.84A2.67,2.67,0,1,0,180,75.37,2.67,2.67,0,0,0,177.36,72.7Z"/><circle class="cls-6" cx="145.85" cy="39.16" r="5.84"/><circle class="cls-6" cx="145.85" cy="39.16" r="4.13"/><circle class="cls-8" cx="145.85" cy="39.16" r="2.92"/><path class="cls-4" d="M145.85,42.33A3.17,3.17,0,1,1,149,39.16,3.17,3.17,0,0,1,145.85,42.33Zm0-5.84a2.67,2.67,0,1,0,2.67,2.67A2.67,2.67,0,0,0,145.85,36.49Z"/><circle class="cls-6" cx="177.36" cy="39.16" r="5.84"/><circle class="cls-6" cx="177.36" cy="39.16" r="4.13"/><circle class="cls-8" cx="177.36" cy="39.16" r="2.92"/><path class="cls-4" d="M177.36,42.33a3.17,3.17,0,1,1,3.17-3.17A3.17,3.17,0,0,1,177.36,42.33Zm0-5.84A2.67,2.67,0,1,0,180,39.16,2.67,2.67,0,0,0,177.36,36.49Z"/><polygon class="cls-4" points="138.3 162.24 138.66 165.37 184.51 165.37 184.81 162.24 138.3 162.24"/><path id="Fretboard" class="cls-17" d="M136,629l2.69-463.61h48.86l7.08,463.55a6.16,6.16,0,0,1-6.32,6.1h-46A6.17,6.17,0,0,1,136,629Z"/><path id="Fretboard-2" data-name="Fretboard" class="cls-18" d="M136,627.71l2.69-462.34h45.86l9.08,462.28a6.11,6.11,0,0,1-6.21,6.09h-45.2A6.11,6.11,0,0,1,136,627.71Z"/><rect class="cls-5" x="135.99" y="618.7" width="57.44" height="1"/><rect class="cls-5" x="136.05" y="608.69" width="57.19" height="1"/><rect class="cls-5" x="136.11" y="597.9" width="56.91" height="1"/><rect class="cls-5" x="136.23" y="576.91" width="56.38" height="1"/><rect class="cls-5" x="136.32" y="561.7" width="55.99" height="1"/><rect class="cls-5" x="136.41" y="546.29" width="55.59" height="1"/><rect class="cls-5" x="136.51" y="530.5" width="55.19" height="1"/><rect class="cls-5" x="136.61" y="512.28" width="54.72" height="1"/><rect class="cls-5" x="136.72" y="493.94" width="54.26" height="1"/><rect class="cls-5" x="136.84" y="473.61" width="53.74" height="1"/><rect class="cls-5" x="136.97" y="452.48" width="53.2" height="1"/><rect class="cls-5" x="137.09" y="431.83" width="52.67" height="1"/><rect class="cls-5" x="137.23" y="407.77" width="52.06" height="1"/><rect class="cls-5" x="137.36" y="385.26" width="51.48" height="1"/><rect class="cls-5" x="137.52" y="358.52" width="50.8" height="1"/><rect class="cls-5" x="137.69" y="329.78" width="50.07" height="1"/><rect class="cls-5" x="137.85" y="301.7" width="49.35" height="1"/><rect class="cls-5" x="137.99" y="270.5" width="48.6" height="1"/><rect class="cls-5" x="138.22" y="239.08" width="47.75" height="1"/><rect class="cls-5" x="138.43" y="202.76" width="46.82" height="1"/><rect class="cls-5" x="136.17" y="587.5" width="56.65" height="1"/><g id="Dots"><ellipse class="cls-5" cx="163.24" cy="593.22" rx="3.11" ry="3.04"/><ellipse class="cls-5" cx="163.77" cy="570.93" rx="3.11" ry="3.04"/><ellipse class="cls-5" cx="163.54" cy="538.84" rx="3.11" ry="3.04"/><ellipse class="cls-5" cx="148.77" cy="485.14" rx="3.11" ry="3.04"/><ellipse class="cls-5" cx="179.66" cy="485.14" rx="3.11" ry="3.04"/><ellipse class="cls-5" cx="162.74" cy="421.72" rx="3.11" ry="3.04"/><ellipse class="cls-5" cx="162.63" cy="372.64" rx="3.11" ry="3.04"/><ellipse class="cls-5" cx="162.24" cy="315.78" rx="3.11" ry="3.04"/><ellipse class="cls-5" cx="162.24" cy="255.55" rx="3.11" ry="3.04"/></g><g id="Strings"><polygon class="cls-4" points="140.32 858.87 139.82 858.87 142.68 163.8 142.68 108.29 143.18 108.29 143.18 163.8 140.32 858.87"/><polygon class="cls-4" points="149.32 858.87 148.52 163.8 148.52 75.37 149.02 75.37 149.02 163.8 149.82 858.87 149.32 858.87"/><polygon class="cls-4" points="158.87 858.87 156.52 163.8 148.52 39.17 149.02 39.14 157.02 163.79 159.37 858.87 158.87 858.87"/><polygon class="cls-4" points="168.04 858.87 163.52 163.8 174.2 39.14 174.69 39.18 164.02 163.82 168.54 858.87 168.04 858.87"/><polygon class="cls-4" points="177.44 858.87 171.82 163.81 174.2 75.37 174.7 75.38 172.32 163.81 177.94 858.87 177.44 858.87"/><polygon class="cls-4" points="187.18 858.87 179.41 163.81 180.03 107.98 180.53 107.99 179.91 163.81 187.68 858.87 187.18 858.87"/></g><polygon class="cls-6" points="184.81 162.24 187.79 162.48 187.51 165.37 184.51 165.37 184.81 162.24"/></g></g></svg>