<svg xmlns="http://www.w3.org/2000/svg" viewBox="0 0 385.31 995.85"><defs><style>.cls-1{fill:#e5dfcf;}.cls-12,.cls-2{fill:#f9f4e4;}.cls-3{fill:#1a1a1a;}.cls-4{fill:#333;}.cls-5{fill:#ccc;}.cls-20,.cls-6{fill:none;}.cls-6{stroke:#ccc;}.cls-12,.cls-20,.cls-6{stroke-miterlimit:10;}.cls-12,.cls-6{stroke-width:2px;}.cls-7{fill:#a8945d;}.cls-8{fill:#bca866;}.cls-9{fill:#d5a940;}.cls-10{fill:#eace76;}.cls-11{fill:#999;}.cls-12{stroke:#c1bcb2;}.cls-13{fill:#4d4d4d;}.cls-14{fill:#666;}.cls-15{fill:gray;}.cls-16{fill:#f7e6a4;}.cls-17{fill:#c9961a;}.cls-18{fill:#e0cda6;}.cls-19{fill:#f2e3c2;}.cls-20{stroke:#e6e6e6;stroke-linecap:round;stroke-width:0.5px;}</style></defs><title>1967 Gibson SG Custom</title><g id="Layer_2" data-name="Layer 2"><g id="_1967_Gibson_SG_Custom_white_rosewood_" data-name="1967 Gibson SG Custom (white/rosewood)"><g id="Back"><path class="cls-1" d="M321.66,729.93c0-49.67,61.39-97.73-22.34-181.35-1.78-1.78-8.77-3-9.87,2.39-2.63,13-4.3,39.72-28.84,39.72-30.07,0-37.76-33.29-37.76-33.29L198.2,563V546.34H168.85S164,575.1,132.16,575.1c-26,0-30.62-26.63-33.4-40.11-1.16-5.62-5.67-5.46-7.56-3.61C2.6,618.21,67.56,668.12,67.56,719.7,67.56,779.39,1,792.25,1,886.12,1,995.85,198.2,995.78,198.2,995.78s186.36.07,186.36-105.6C384.56,799.79,321.66,787.4,321.66,729.93Z"/></g><g id="Front"><path class="cls-2" d="M318.15,728.64c0-49.35,60.91-97.1-22.17-180.18-1.77-1.77-6-1.92-7.09,3.45-2.61,12.9-7,38.38-31.32,38.38-29.83,0-34.4-27.52-34.4-27.52H195.65V546.24H166.53s-4.84,28.58-36.4,28.58c-25.76,0-30.38-26.45-33.14-39.85-1.15-5.58-5.63-5.42-7.5-3.59C1.59,617.64,66,667.23,66,718.48c0,59.3-66,72.08-66,165.34,0,109,195.65,109,195.65,109s184.9.07,184.9-104.92C380.56,798.05,318.15,785.75,318.15,728.64Z"/></g><polygon id="Fretboard" class="cls-3" points="212.44 129.45 174.19 129.45 164.25 577.17 225.08 577.17 212.44 129.45"/><polygon id="Fretboard-2" data-name="Fretboard" class="cls-4" points="210.44 129.45 174.19 129.45 161.24 577.17 223.39 577.17 210.44 129.45"/><rect class="cls-5" x="174.04" y="544.13" width="39.79" height="6.19" rx="1" ry="1"/><rect class="cls-5" x="174.04" y="518.85" width="39.79" height="6.19" rx="1" ry="1"/><rect class="cls-5" x="174.04" y="491.13" width="39.79" height="6.19" rx="1" ry="1"/><rect class="cls-5" x="174.04" y="461.12" width="39.79" height="6.19" rx="1" ry="1"/><rect class="cls-5" x="173.29" y="407.25" width="38.06" height="11.01" rx="1" ry="1"/><rect class="cls-5" x="176.03" y="346.53" width="32.59" height="12.83" rx="1" ry="1"/><rect class="cls-5" x="177.17" y="300.01" width="30.29" height="15.75" rx="1" ry="1"/><rect class="cls-5" x="179.23" y="250.49" width="26.17" height="17.47" rx="1" ry="1"/><rect class="cls-5" x="181.16" y="195.05" width="22.32" height="20.98" rx="1" ry="1"/><rect class="cls-5" x="182.18" y="133.98" width="20.27" height="22.66" rx="1" ry="1"/><line class="cls-6" x1="161.93" y1="553.42" x2="222.71" y2="553.42"/><line class="cls-6" x1="162.3" y1="540.78" x2="222.34" y2="540.78"/><line class="cls-6" x1="162.66" y1="528.34" x2="221.98" y2="528.34"/><line class="cls-6" x1="163.03" y1="515.48" x2="221.61" y2="515.48"/><line class="cls-6" x1="163.44" y1="501.38" x2="221.2" y2="501.38"/><line class="cls-6" x1="163.85" y1="487.14" x2="220.87" y2="487.14"/><line class="cls-6" x1="164.24" y1="472.21" x2="220.36" y2="472.21"/><line class="cls-6" x1="164.74" y1="456.44" x2="219.9" y2="456.44"/><line class="cls-6" x1="165.24" y1="439.02" x2="219.4" y2="439.02"/><line class="cls-6" x1="165.74" y1="421.88" x2="218.9" y2="421.88"/><line class="cls-6" x1="166.26" y1="403.63" x2="218.37" y2="403.63"/><line class="cls-6" x1="166.82" y1="384.27" x2="217.81" y2="384.27"/><line class="cls-6" x1="167.43" y1="363.4" x2="217.21" y2="363.4"/><line class="cls-6" x1="168.04" y1="342.24" x2="216.6" y2="342.24"/><line class="cls-6" x1="168.7" y1="319.57" x2="215.94" y2="319.57"/><line class="cls-6" x1="169.37" y1="296.2" x2="215.27" y2="296.2"/><line class="cls-6" x1="170.07" y1="272.01" x2="214.57" y2="272.01"/><line class="cls-6" x1="170.82" y1="246.29" x2="213.82" y2="246.29"/><line class="cls-6" x1="171.59" y1="219.6" x2="213.05" y2="219.6"/><line class="cls-6" x1="172.4" y1="191.54" x2="212.24" y2="191.54"/><line class="cls-6" x1="173.23" y1="162.23" x2="211.39" y2="162.23"/><line class="cls-6" x1="161.26" y1="576.14" x2="223.37" y2="576.14"/><line class="cls-6" x1="161.6" y1="564.78" x2="223.03" y2="564.78"/><path class="cls-7" d="M162.51,17.15,155.22,10a2.3,2.3,0,0,0-2.13-.6l-12.92,3a2.3,2.3,0,0,0-1.78,2.24V23a2.3,2.3,0,0,0,1.78,2.24l12.92,3a2.3,2.3,0,0,0,2.13-.6l7.29-7.19A2.3,2.3,0,0,0,162.51,17.15Z"/><path class="cls-7" d="M163.48,50l-7.29-7.19a2.3,2.3,0,0,0-2.13-.6l-12.92,3a2.3,2.3,0,0,0-1.78,2.24v8.36a2.3,2.3,0,0,0,1.78,2.24l12.92,3a2.3,2.3,0,0,0,2.13-.6l7.29-7.19A2.3,2.3,0,0,0,163.48,50Z"/><path class="cls-7" d="M162.51,78.91l-7.29-7.19a2.3,2.3,0,0,0-2.13-.6l-12.92,3a2.3,2.3,0,0,0-1.78,2.24v8.36A2.3,2.3,0,0,0,140.17,87l12.92,3a2.3,2.3,0,0,0,2.13-.6l7.29-7.19A2.3,2.3,0,0,0,162.51,78.91Z"/><path class="cls-7" d="M225.25,20.42l7.29,7.19a2.3,2.3,0,0,0,2.13.6l12.92-3A2.3,2.3,0,0,0,249.37,23V14.6a2.3,2.3,0,0,0-1.78-2.24l-12.92-3a2.3,2.3,0,0,0-2.13.6l-7.29,7.19A2.3,2.3,0,0,0,225.25,20.42Z"/><path class="cls-7" d="M223.28,53.27l7.29,7.19a2.3,2.3,0,0,0,2.13.6l12.92-3a2.3,2.3,0,0,0,1.78-2.24V47.46a2.3,2.3,0,0,0-1.78-2.24l-12.92-3a2.3,2.3,0,0,0-2.13.6L223.28,50A2.3,2.3,0,0,0,223.28,53.27Z"/><path class="cls-7" d="M225.13,82.18l7.29,7.19a2.3,2.3,0,0,0,2.13.6l12.92-3a2.3,2.3,0,0,0,1.78-2.24V76.37a2.3,2.3,0,0,0-1.78-2.24l-12.92-3a2.3,2.3,0,0,0-2.13.6l-7.29,7.19A2.3,2.3,0,0,0,225.13,82.18Z"/><g id="Headstock"><path d="M194.22,3.22c-6.69-6.69-15.67-1.15-20.22.66-4.07,1.62-13.45,0-13.45,0a1.66,1.66,0,0,0-1.61,2.05c2,8,8.32,39.36,1.48,90C159.17,105.1,176,89.73,176,129.45h36.45c0-39.77,16.85-24.14,15.58-33.51-6.84-50.64-.5-82,1.48-90a1.66,1.66,0,0,0-1.61-2.05s-9.38,1.62-13.45,0c-4.56-1.81-13.53-7.36-20.22-.67Z"/></g><g id="Headstock-2" data-name="Headstock"><path class="cls-3" d="M175.19,128.45c-.2-26.54-8.23-28.44-13-29.58-2.31-.55-2.93-.69-2.64-2.8,6.83-50.57.58-82-1.5-90.38a.64.64,0,0,1,.12-.56.66.66,0,0,1,.46-.25,55.81,55.81,0,0,0,8.22.72,16,16,0,0,0,5.67-.79c.63-.25,1.34-.57,2.11-.92C177.45,2.61,181,1,184.6,1a9.48,9.48,0,0,1,7,2.92l.67.67L193,4a9.52,9.52,0,0,1,7-3c3.58,0,7.15,1.6,10,2.89.78.35,1.49.67,2.12.92a16,16,0,0,0,5.67.79,56,56,0,0,0,8.22-.72.66.66,0,0,1,.46.25.64.64,0,0,1,.12.56c-2.08,8.42-8.33,39.81-1.5,90.38.3,2.19-.39,2.36-2.67,2.89-4.8,1.13-12.8,3-13,29.49Z"/><path class="cls-8" d="M200,2c3.37,0,6.83,1.55,9.61,2.8.77.35,1.5.67,2.16.94a16.72,16.72,0,0,0,6,.86,56,56,0,0,0,7.7-.62c-2.2,9.18-8.11,40.48-1.39,90.23.17,1.29.17,1.29-1.91,1.78-6.49,1.52-13.4,5.22-13.76,29.46H176.18c-.36-24.3-7.29-28-13.81-29.55a6.43,6.43,0,0,1-1.86-.6,2.07,2.07,0,0,1,0-1.09c6.71-49.75.81-81-1.39-90.23a56,56,0,0,0,7.7.62,16.73,16.73,0,0,0,6-.86c.66-.26,1.38-.59,2.15-.93,2.78-1.25,6.24-2.8,9.61-2.8a8.53,8.53,0,0,1,6.3,2.63L192.32,6l1.41-1.41A8.52,8.52,0,0,1,200,2m0-2a10.49,10.49,0,0,0-7.71,3.21h0A10.5,10.5,0,0,0,184.6,0c-4.81,0-9.57,2.71-12.5,3.88a15.4,15.4,0,0,1-5.3.72,55.54,55.54,0,0,1-8.16-.72A1.66,1.66,0,0,0,157,5.93c2,8,8.32,39.36,1.48,90-1.24,9.16,15.69-6.21,15.69,33.51h36.27c0-39.77,16.93-24.14,15.67-33.51-6.84-50.64-.5-82,1.48-90A1.66,1.66,0,0,0,226,3.88a55.55,55.55,0,0,1-8.16.72,15.4,15.4,0,0,1-5.3-.72C209.61,2.72,204.84,0,200,0Z"/></g><circle class="cls-9" cx="172.18" cy="53.26" r="5.07"/><rect class="cls-10" x="169.68" y="45.86" width="5" height="9.1" rx="2.5" ry="2.5"/><circle class="cls-9" cx="172.18" cy="50.41" r="0.75"/><circle class="cls-9" cx="172.18" cy="20.63" r="5.07"/><rect class="cls-10" x="169.68" y="13.24" width="5" height="9.1" rx="2.5" ry="2.5"/><circle class="cls-9" cx="172.18" cy="17.79" r="0.75"/><circle class="cls-9" cx="172.18" cy="86.83" r="5.07"/><rect class="cls-10" x="169.68" y="79.44" width="5" height="9.1" rx="2.5" ry="2.5"/><circle class="cls-9" cx="172.18" cy="83.98" r="0.75"/><circle class="cls-9" cx="212.44" cy="20.63" r="5.07"/><rect class="cls-10" x="209.94" y="13.24" width="5" height="9.1" rx="2.5" ry="2.5"/><circle class="cls-9" cx="212.44" cy="17.79" r="0.75"/><circle class="cls-9" cx="212.44" cy="53.26" r="5.07"/><rect class="cls-10" x="209.94" y="45.86" width="5" height="9.1" rx="2.5" ry="2.5"/><circle class="cls-9" cx="212.44" cy="50.41" r="0.75"/><circle class="cls-9" cx="212.44" cy="86.83" r="5.07"/><rect class="cls-10" x="209.94" y="79.44" width="5" height="9.1" rx="2.5" ry="2.5"/><circle class="cls-9" cx="212.44" cy="83.98" r="0.75"/><polygon class="cls-5" points="210.5 131.45 174.17 131.45 174.17 129.45 210.46 129.45 210.5 131.45"/><polygon class="cls-11" points="210.46 129.45 212.44 129.45 212.5 131.33 210.5 131.45 210.46 129.45"/><path class="cls-12" d="M160.81,577.17h62.66a2,2,0,0,1,1.76,1c3.37,6.25,22.06,38.46,49.22,38.46,30.8,0,21.54-31.82,28.22-25.14,35.57,35.57-5.5,91.67-5.5,137.18,0,15.39,6.43,30.09,13.79,43.6,2.47,4.53,4.53,9.08,4.53,11.62,0,9.24-27.57,4.5-36.94,0-15.78-7.58-35.35-13.34-68.75-13.34-32,0-46.42,12.17-62.08,15.39-8.75,1.8-38.12,3.49-35.4-4.93,5.79-17.91,12.31-73.2,12.31-99.48,0-53.11-32.72-72.76-13.93-72.76,40.89,0,47.17-23.34,48.13-29.94A2,2,0,0,1,160.81,577.17Z"/><ellipse class="cls-13" cx="129.63" cy="725.1" rx="2.29" ry="2.18"/><circle class="cls-14" cx="129.52" cy="725.1" r="2.18"/><rect class="cls-15" x="127.74" y="724.91" width="3.59" height="0.31" rx="0.15" ry="0.15" transform="translate(306.57 10.11) rotate(24.04)"/><rect class="cls-15" x="127.72" y="724.95" width="3.59" height="0.31" rx="0.15" ry="0.15" transform="translate(-585.46 548.04) rotate(-65.96)"/><ellipse class="cls-13" cx="150.49" cy="719.58" rx="2.29" ry="2.18"/><circle class="cls-14" cx="150.38" cy="719.58" r="2.18"/><rect class="cls-15" x="148.58" y="719.38" width="3.59" height="0.31" rx="0.15" ry="0.15"/><rect class="cls-15" x="148.58" y="719.42" width="3.59" height="0.31" rx="0.15" ry="0.15" transform="translate(-569.2 869.95) rotate(-90)"/><ellipse class="cls-13" cx="129.89" cy="669.11" rx="2.29" ry="2.18"/><circle class="cls-14" cx="129.78" cy="669.11" r="2.18"/><rect class="cls-15" x="127.98" y="668.92" width="3.59" height="0.31" rx="0.15" ry="0.15"/><rect class="cls-15" x="127.98" y="668.96" width="3.59" height="0.31" rx="0.15" ry="0.15" transform="translate(-539.33 798.89) rotate(-90)"/><ellipse class="cls-13" cx="150.49" cy="669.62" rx="2.29" ry="2.18"/><circle class="cls-14" cx="150.38" cy="669.62" r="2.18"/><rect class="cls-15" x="148.6" y="669.43" width="3.59" height="0.31" rx="0.15" ry="0.15" transform="translate(352.72 13.82) rotate(29.81)"/><rect class="cls-15" x="148.58" y="669.47" width="3.59" height="0.31" rx="0.15" ry="0.15" transform="matrix(0.5, -0.87, 0.87, 0.5, -505.41, 467.27)"/><ellipse class="cls-13" cx="114" cy="616.49" rx="2.29" ry="2.18"/><circle class="cls-14" cx="113.89" cy="616.49" r="2.18"/><rect class="cls-15" x="112.12" y="616.31" width="3.59" height="0.31" rx="0.15" ry="0.15" transform="translate(461.99 95.07) rotate(44.2)"/><rect class="cls-15" x="112.1" y="616.34" width="3.59" height="0.31" rx="0.15" ry="0.15" transform="translate(-407.5 268.38) rotate(-45.8)"/><ellipse class="cls-13" cx="150.49" cy="619.62" rx="2.29" ry="2.18"/><circle class="cls-14" cx="150.38" cy="619.62" r="2.18"/><rect class="cls-15" x="148.56" y="619.43" width="3.59" height="0.31" rx="0.15" ry="0.15" transform="translate(-277.39 146.8) rotate(-28.5)"/><rect class="cls-15" x="148.58" y="619.47" width="3.59" height="0.31" rx="0.15" ry="0.15" transform="translate(-322.42 1047.41) rotate(-118.5)"/><ellipse class="cls-13" cx="163.58" cy="584.25" rx="2.29" ry="2.18"/><circle class="cls-14" cx="163.47" cy="584.25" r="2.18"/><rect class="cls-15" x="161.7" y="584.06" width="3.59" height="0.31" rx="0.15" ry="0.15" transform="translate(375.88 15.94) rotate(36.13)"/><rect class="cls-15" x="161.68" y="584.1" width="3.59" height="0.31" rx="0.15" ry="0.15" transform="translate(-404.81 371.83) rotate(-53.87)"/><ellipse class="cls-13" cx="223.37" cy="584.48" rx="2.29" ry="2.18"/><circle class="cls-14" cx="223.27" cy="584.48" r="2.18"/><rect class="cls-15" x="221.46" y="584.29" width="3.59" height="0.31" rx="0.15" ry="0.15" transform="translate(-172.42 99.82) rotate(-18.32)"/><rect class="cls-15" x="221.47" y="584.33" width="3.59" height="0.31" rx="0.15" ry="0.15" transform="translate(-261.39 980.18) rotate(-108.32)"/><ellipse class="cls-13" cx="236.08" cy="619.82" rx="2.29" ry="2.18"/><circle class="cls-14" cx="235.97" cy="619.82" r="2.18"/><rect class="cls-15" x="234.21" y="619.64" width="3.59" height="0.31" rx="0.15" ry="0.15" transform="translate(567.14 45.18) rotate(50.8)"/><rect class="cls-15" x="234.17" y="619.66" width="3.59" height="0.31" rx="0.15" ry="0.15" transform="translate(-338.64 288.63) rotate(-39.2)"/><ellipse class="cls-13" cx="302.63" cy="606.51" rx="2.29" ry="2.18"/><circle class="cls-14" cx="302.52" cy="606.51" r="2.18"/><rect class="cls-15" x="300.74" y="606.32" width="3.59" height="0.31" rx="0.15" ry="0.15" transform="translate(321.16 -71.02) rotate(28.09)"/><rect class="cls-15" x="300.72" y="606.36" width="3.59" height="0.31" rx="0.15" ry="0.15" transform="translate(-375 587.85) rotate(-61.91)"/><ellipse class="cls-13" cx="307.1" cy="663.11" rx="2.29" ry="2.18"/><circle class="cls-14" cx="306.99" cy="663.11" r="2.18"/><rect class="cls-15" x="305.19" y="662.92" width="3.59" height="0.31" rx="0.15" ry="0.15"/><rect class="cls-15" x="305.19" y="662.96" width="3.59" height="0.31" rx="0.15" ry="0.15" transform="translate(-356.13 970.1) rotate(-90)"/><ellipse class="cls-13" cx="236.08" cy="669.62" rx="2.29" ry="2.18"/><circle class="cls-14" cx="235.97" cy="669.62" r="2.18"/><rect class="cls-15" x="234.17" y="669.43" width="3.59" height="0.31" rx="0.15" ry="0.15"/><rect class="cls-15" x="234.17" y="669.47" width="3.59" height="0.31" rx="0.15" ry="0.15" transform="translate(-433.66 905.59) rotate(-90)"/><ellipse class="cls-13" cx="236.12" cy="719.66" rx="2.29" ry="2.18"/><circle class="cls-14" cx="236.01" cy="719.66" r="2.18"/><rect class="cls-15" x="234.23" y="719.46" width="3.59" height="0.31" rx="0.15" ry="0.15" transform="translate(134.16 -30.83) rotate(10.43)"/><rect class="cls-15" x="234.22" y="719.5" width="3.59" height="0.31" rx="0.15" ry="0.15" transform="translate(-514.48 821.51) rotate(-79.57)"/><ellipse class="cls-13" cx="290.4" cy="721.95" rx="2.29" ry="2.18"/><circle class="cls-14" cx="290.3" cy="721.95" r="2.18"/><rect class="cls-15" x="288.51" y="721.76" width="3.59" height="0.31" rx="0.15" ry="0.15" transform="translate(252.92 -55.29) rotate(19.15)"/><rect class="cls-15" x="288.5" y="721.8" width="3.59" height="0.31" rx="0.15" ry="0.15" transform="translate(-486.94 759.32) rotate(-70.85)"/><ellipse class="cls-13" cx="306.7" cy="781.67" rx="2.29" ry="2.18"/><circle class="cls-14" cx="306.59" cy="781.67" r="2.18"/><rect class="cls-15" x="304.8" y="781.47" width="3.59" height="0.31" rx="0.15" ry="0.15"/><rect class="cls-15" x="304.8" y="781.51" width="3.59" height="0.31" rx="0.15" ry="0.15" transform="translate(-475.08 1088.26) rotate(-90)"/><ellipse class="cls-13" cx="121.22" cy="778.76" rx="2.29" ry="2.18"/><circle class="cls-14" cx="121.11" cy="778.76" r="2.18"/><rect class="cls-15" x="119.31" y="778.57" width="3.59" height="0.31" rx="0.15" ry="0.15"/><rect class="cls-15" x="119.31" y="778.61" width="3.59" height="0.31" rx="0.15" ry="0.15" transform="translate(-657.66 899.87) rotate(-90)"/><g id="knob"><circle class="cls-13" cx="339.8" cy="872.69" r="17" transform="translate(-580.95 1043.77) rotate(-79.25)"/><circle class="cls-4" cx="339.8" cy="872.69" r="14.62" transform="translate(-580.95 1043.77) rotate(-79.25)"/><circle class="cls-10" cx="339.8" cy="872.69" r="7.7" transform="translate(-580.95 1043.77) rotate(-79.25)"/><rect class="cls-9" x="335.81" y="872.06" width="7.98" height="1.24" rx="0.62" ry="0.62" transform="translate(168.72 -48.06) rotate(10.75)"/><rect class="cls-9" x="335.81" y="872.06" width="7.98" height="1.24" rx="0.62" ry="0.62" transform="translate(1260.55 701.61) rotate(100.75)"/></g><g id="knob-2" data-name="knob"><circle class="cls-13" cx="295.8" cy="874.68" r="17" transform="translate(-334.24 199.69) rotate(-24.34)"/><circle class="cls-4" cx="295.8" cy="874.68" r="14.62" transform="translate(-334.24 199.69) rotate(-24.34)"/><circle class="cls-10" cx="295.8" cy="874.68" r="7.7" transform="translate(-334.24 199.69) rotate(-24.34)"/><rect class="cls-9" x="291.81" y="874.06" width="7.98" height="1.24" rx="0.62" ry="0.62" transform="translate(-334.24 199.69) rotate(-24.34)"/><rect class="cls-9" x="291.81" y="874.06" width="7.98" height="1.24" rx="0.62" ry="0.62" transform="translate(970.79 244.63) rotate(65.66)"/></g><g id="knob-3" data-name="knob"><circle class="cls-13" cx="325.18" cy="926.06" r="17" transform="matrix(0.27, -0.96, 0.96, 0.27, -654.08, 992.23)"/><circle class="cls-4" cx="325.18" cy="926.06" r="14.62" transform="translate(-654.08 992.23) rotate(-74.52)"/><circle class="cls-10" cx="325.18" cy="926.06" r="7.7" transform="translate(-654.08 992.23) rotate(-74.52)"/><rect class="cls-9" x="321.19" y="925.44" width="7.98" height="1.24" rx="0.62" ry="0.62" transform="translate(259.01 -53.2) rotate(15.48)"/><rect class="cls-9" x="321.19" y="925.44" width="7.98" height="1.24" rx="0.62" ry="0.62" transform="matrix(-0.27, 0.96, -0.96, -0.27, 1304.44, 859.88)"/></g><g id="knob-4" data-name="knob"><circle class="cls-13" cx="314.81" cy="810.99" r="17"/><circle class="cls-4" cx="314.81" cy="810.99" r="14.62"/><circle class="cls-10" cx="314.81" cy="810.99" r="7.7"/></g><g id="knob-5" data-name="knob"><circle class="cls-13" cx="278.8" cy="922.07" r="17" transform="translate(-490.9 342.85) rotate(-36.21)"/><circle class="cls-4" cx="278.8" cy="922.07" r="14.62" transform="translate(-490.9 342.85) rotate(-36.21)"/><circle class="cls-10" cx="278.8" cy="922.07" r="7.7" transform="translate(-308.35 158.4) rotate(-20.73)"/><rect class="cls-9" x="274.81" y="921.45" width="7.98" height="1.24" rx="0.62" ry="0.62" transform="translate(-308.35 158.4) rotate(-20.73)"/><rect class="cls-9" x="274.81" y="921.45" width="7.98" height="1.24" rx="0.62" ry="0.62" transform="translate(1042.47 334.92) rotate(69.27)"/></g><g id="switch"><rect class="cls-13" x="315.69" y="802.9" width="5.39" height="12.54" rx="2.05" ry="2.05" transform="translate(859.96 128.86) rotate(60)"/><rect class="cls-14" x="315.65" y="802.97" width="4.94" height="12.2" rx="2.05" ry="2.05" transform="translate(859.74 129.03) rotate(60)"/></g><g id="plug"><circle class="cls-13" cx="268.52" cy="954.24" r="10.28"/><circle class="cls-14" cx="268.52" cy="954.24" r="7.27"/><circle class="cls-4" cx="268.52" cy="954.24" r="4.51"/></g><g id="Pickup_1" data-name="Pickup 1"><rect class="cls-9" x="154.68" y="595.84" width="77.39" height="41.72" rx="5.21" ry="5.21"/><rect class="cls-10" x="154.68" y="595.84" width="76.39" height="40.72" rx="5.21" ry="5.21"/><circle class="cls-9" cx="165.79" cy="606.17" r="3.58"/><circle class="cls-9" cx="176.82" cy="606.17" r="3.58"/><circle class="cls-9" cx="187.85" cy="606.17" r="3.58"/><circle class="cls-9" cx="198.88" cy="606.17" r="3.58"/><circle class="cls-9" cx="209.91" cy="606.17" r="3.58"/><circle class="cls-9" cx="220.94" cy="606.17" r="3.58"/><circle class="cls-16" cx="165.41" cy="606.17" r="3.58"/><circle class="cls-16" cx="176.44" cy="606.17" r="3.58"/><circle class="cls-16" cx="187.47" cy="606.17" r="3.58"/><circle class="cls-16" cx="198.5" cy="606.17" r="3.58"/><circle class="cls-16" cx="209.53" cy="606.17" r="3.58"/><circle class="cls-16" cx="220.56" cy="606.17" r="3.58"/><rect class="cls-9" x="162.24" y="605.88" width="6.25" height="0.59" rx="0.3" ry="0.3"/><rect class="cls-9" x="173.28" y="605.88" width="6.25" height="0.59" rx="0.3" ry="0.3"/><rect class="cls-9" x="184.32" y="605.88" width="6.25" height="0.59" rx="0.3" ry="0.3"/><rect class="cls-9" x="195.36" y="605.88" width="6.25" height="0.59" rx="0.3" ry="0.3"/><rect class="cls-9" x="206.4" y="605.88" width="6.25" height="0.59" rx="0.3" ry="0.3"/><rect class="cls-9" x="217.44" y="605.88" width="6.25" height="0.59" rx="0.3" ry="0.3"/></g><g id="Pickup_2" data-name="Pickup 2"><rect class="cls-9" x="154.68" y="645.45" width="77.39" height="41.72" rx="5.21" ry="5.21"/><rect class="cls-10" x="154.68" y="645.45" width="76.39" height="40.72" rx="5.21" ry="5.21"/><circle class="cls-9" cx="165.79" cy="655.78" r="3.58"/><circle class="cls-9" cx="176.82" cy="655.78" r="3.58"/><circle class="cls-9" cx="187.85" cy="655.78" r="3.58"/><circle class="cls-9" cx="198.88" cy="655.78" r="3.58"/><circle class="cls-9" cx="209.91" cy="655.78" r="3.58"/><circle class="cls-9" cx="220.94" cy="655.78" r="3.58"/><circle class="cls-16" cx="165.41" cy="655.78" r="3.58"/><circle class="cls-16" cx="176.44" cy="655.78" r="3.58"/><circle class="cls-16" cx="187.47" cy="655.78" r="3.58"/><circle class="cls-16" cx="198.5" cy="655.78" r="3.58"/><circle class="cls-16" cx="209.53" cy="655.78" r="3.58"/><circle class="cls-16" cx="220.56" cy="655.78" r="3.58"/><rect class="cls-9" x="162.24" y="655.48" width="6.25" height="0.59" rx="0.3" ry="0.3"/><rect class="cls-9" x="173.28" y="655.48" width="6.25" height="0.59" rx="0.3" ry="0.3"/><rect class="cls-9" x="184.32" y="655.48" width="6.25" height="0.59" rx="0.3" ry="0.3"/><rect class="cls-9" x="195.36" y="655.48" width="6.25" height="0.59" rx="0.3" ry="0.3"/><rect class="cls-9" x="206.4" y="655.48" width="6.25" height="0.59" rx="0.3" ry="0.3"/><rect class="cls-9" x="217.44" y="655.48" width="6.25" height="0.59" rx="0.3" ry="0.3"/></g><g id="Pickup_3" data-name="Pickup 3"><rect class="cls-9" x="154.68" y="695.05" width="77.39" height="41.72" rx="5.21" ry="5.21"/><rect class="cls-10" x="154.68" y="695.05" width="76.39" height="40.72" rx="5.21" ry="5.21"/><circle class="cls-9" cx="165.79" cy="705.38" r="3.58"/><circle class="cls-9" cx="176.82" cy="705.38" r="3.58"/><circle class="cls-9" cx="187.85" cy="705.38" r="3.58"/><circle class="cls-9" cx="198.88" cy="705.38" r="3.58"/><circle class="cls-9" cx="209.91" cy="705.38" r="3.58"/><circle class="cls-9" cx="220.94" cy="705.38" r="3.58"/><circle class="cls-16" cx="165.41" cy="705.38" r="3.58"/><circle class="cls-16" cx="176.44" cy="705.38" r="3.58"/><circle class="cls-16" cx="187.47" cy="705.38" r="3.58"/><circle class="cls-16" cx="198.5" cy="705.38" r="3.58"/><circle class="cls-16" cx="209.53" cy="705.38" r="3.58"/><circle class="cls-16" cx="220.56" cy="705.38" r="3.58"/><rect class="cls-9" x="162.24" y="705.09" width="6.25" height="0.59" rx="0.3" ry="0.3"/><rect class="cls-9" x="173.28" y="705.09" width="6.25" height="0.59" rx="0.3" ry="0.3"/><rect class="cls-9" x="184.32" y="705.09" width="6.25" height="0.59" rx="0.3" ry="0.3"/><rect class="cls-9" x="195.36" y="705.09" width="6.25" height="0.59" rx="0.3" ry="0.3"/><rect class="cls-9" x="206.4" y="705.09" width="6.25" height="0.59" rx="0.3" ry="0.3"/><rect class="cls-9" x="217.44" y="705.09" width="6.25" height="0.59" rx="0.3" ry="0.3"/></g><path class="cls-9" d="M234.83,847.24h-83l10.84,143.41L182.76,992a200,200,0,0,0,23.12.21l17.26-.94,2-.19Z"/><path class="cls-10" d="M234.83,847.24h-85l10.84,143.41L180.76,992a200,200,0,0,0,23.12.21l19.26-.94Z"/><path class="cls-16" d="M160.64,990.65l3,3s19.2,1.68,28.65,2.1c10,.44,32.68-1.4,32.68-1.4l-1.85-3.1s-23.39,1.25-31.21,1.16-31.29-1.79-31.29-1.79"/><polygon class="cls-10" points="225.15 991.09 226.91 994.21 224.99 994.38 223.14 991.28 225.15 991.09"/><g id="Bridge"><polygon class="cls-9" points="234.83 847.24 149.8 847.69 149.29 804.19 235.78 804.19 234.83 847.24"/><polygon class="cls-10" points="234.78 847.69 149.8 847.69 149.29 804.19 234.78 804.19 234.78 847.69"/></g><path class="cls-9" d="M234.78,847.69l-3.11-6.95a30,30,0,0,1-1.5-20.37l1.65-5.89H152.29l1.64,4.89a30,30,0,0,1-1.33,22.38l-2.81,5.94Z"/><path class="cls-16" d="M167.55,814.48a2.58,2.58,0,0,1-5.17,0Z"/><path class="cls-16" d="M179.2,814.48a2.58,2.58,0,1,1-5.17,0Z"/><path class="cls-16" d="M190.14,814.48a2.58,2.58,0,1,1-5.17,0Z"/><path class="cls-16" d="M200.52,814.48a2.58,2.58,0,1,1-5.17,0Z"/><path class="cls-16" d="M211.89,814.48a2.58,2.58,0,1,1-5.17,0Z"/><path class="cls-16" d="M223.46,814.48a2.58,2.58,0,1,1-5.17,0Z"/><g id="whammy_bar" data-name="whammy bar"><rect class="cls-17" x="149.29" y="785.24" width="85.54" height="30.24" rx="3" ry="3"/><rect class="cls-9" x="149.29" y="784.24" width="85.54" height="30.24" rx="3" ry="3"/><rect class="cls-10" x="149.29" y="784.24" width="84.27" height="26.05" rx="3" ry="3"/><rect class="cls-9" x="149.79" y="784.44" width="117.04" height="22.05" rx="3" ry="3"/><rect class="cls-10" x="150.26" y="784.44" width="115.31" height="21.19" rx="3" ry="3"/><path class="cls-9" d="M258.08,794.38l23-23,40.29-49.58,5.9,4.12-34.43,42.76a142,142,0,0,1-12.06,13.18l-17.13,16.51a.22.22,0,0,1-.28,0l-5.29-3.71A.23.23,0,0,1,258.08,794.38Z"/><path class="cls-10" d="M258.66,793l17.78-17.74a142.05,142.05,0,0,0,9.91-11L322,720.43l5.9,4.12-34.43,42.76a142,142,0,0,1-12.06,13.18L264.25,797a.22.22,0,0,1-.28,0l-5.29-3.71A.23.23,0,0,1,258.66,793Z"/><path class="cls-18" d="M325.26,724.86,321.43,722c-2.23-1.66-2.36-5.22-.32-7.88l52.81-68.68a5.45,5.45,0,0,1,7.55-1.09l1.23.92a5.45,5.45,0,0,1,1.1,7.55L332.9,722.94C330.94,725.65,327.49,726.52,325.26,724.86Z"/><path class="cls-19" d="M325.73,724.11l-3.83-2.86c-2.23-1.66-2.36-5.22-.32-7.88l52.81-68.68a5.45,5.45,0,0,1,7.55-1.09l1.23.92a5.45,5.45,0,0,1,1.1,7.55l-50.89,70.12C331.41,724.89,328,725.77,325.73,724.11Z"/><ellipse class="cls-9" cx="257.71" cy="796.37" rx="6.34" ry="5.84"/><circle class="cls-16" cx="257.21" cy="796.37" r="5.84"/><ellipse class="cls-9" cx="257.35" cy="796.37" rx="3.63" ry="3.49"/><circle class="cls-10" cx="257.21" cy="796.37" r="3.49"/><rect class="cls-9" x="254.17" y="796.12" width="6.1" height="0.5" rx="0.25" ry="0.25" transform="translate(221.15 -39.73) rotate(15.43)"/><rect class="cls-9" x="254.17" y="796.12" width="6.1" height="0.5" rx="0.25" ry="0.25" transform="translate(1093.31 760.3) rotate(105.43)"/></g><circle class="cls-17" cx="164.97" cy="812.68" r="0.57"/><circle class="cls-17" cx="176.62" cy="812.68" r="0.57"/><circle class="cls-17" cx="187.55" cy="812.68" r="0.57"/><circle class="cls-17" cx="197.93" cy="812.68" r="0.57"/><circle class="cls-17" cx="209.3" cy="812.68" r="0.57"/><circle class="cls-17" cx="220.87" cy="812.68" r="0.57"/><polyline class="cls-20" points="164.97 812.68 176.96 129.45 172.18 83.98"/><polyline class="cls-20" points="176.62 812.68 183.66 129.45 172.18 50.41"/><polyline class="cls-20" points="187.55 812.68 189.99 129.45 172.18 17.79"/><polyline class="cls-20" points="197.93 812.68 196.72 129.45 212.44 17.79"/><polyline class="cls-20" points="209.3 812.68 202.45 129.45 212.44 50.41"/><polyline class="cls-20" points="220.88 812.68 208.11 129.45 212.44 83.98"/><circle class="cls-16" cx="154.07" cy="757.76" r="8.41"/><circle class="cls-9" cx="154.07" cy="757.68" r="6.53"/><circle class="cls-16" cx="231.76" cy="757.76" r="8.41"/><circle class="cls-9" cx="231.76" cy="757.68" r="6.53"/><rect class="cls-10" x="149.65" y="752.24" width="86.53" height="10.92" rx="4.34" ry="4.34"/><rect class="cls-9" x="162.2" y="752.24" width="60.95" height="10.92"/><rect class="cls-16" x="163.96" y="751.91" width="4.09" height="11.59" rx="1.6" ry="1.6"/><rect class="cls-16" x="174.84" y="751.88" width="4.09" height="11.59" rx="1.6" ry="1.6"/><rect class="cls-16" x="185.31" y="751.96" width="4.09" height="11.59" rx="1.6" ry="1.6"/><rect class="cls-16" x="195.91" y="751.84" width="4.09" height="11.59" rx="1.6" ry="1.6"/><rect class="cls-16" x="206.82" y="751.89" width="4.09" height="11.59" rx="1.6" ry="1.6"/><rect class="cls-16" x="217.91" y="751.87" width="4.09" height="11.59" rx="1.6" ry="1.6"/><rect class="cls-10" x="160.91" y="756.24" width="63.67" height="2.81"/><rect class="cls-10" x="169.75" y="752.25" width="4.08" height="10.92"/><rect class="cls-10" x="180.01" y="752.24" width="4" height="10.92"/><rect class="cls-10" x="190.39" y="752.24" width="4.09" height="10.92"/><rect class="cls-10" x="201.29" y="752.23" width="4.09" height="10.92"/><rect class="cls-10" x="212.29" y="752.23" width="4.09" height="10.92"/><circle class="cls-16" cx="231.18" cy="757.68" r="3.47" transform="translate(-538.35 945.66) rotate(-86.76)"/><circle class="cls-9" cx="231.18" cy="757.68" r="2.86" transform="translate(-538.35 945.66) rotate(-86.76)"/><circle class="cls-16" cx="154.98" cy="757.76" r="3.47" transform="translate(-610.33 869.65) rotate(-86.76)"/><circle class="cls-9" cx="154.98" cy="757.76" r="2.86" transform="translate(-610.33 869.65) rotate(-86.76)"/></g></g></svg>