<svg xmlns="http://www.w3.org/2000/svg" viewBox="0 0 794.17 677.08"><defs><style>.cls-1{fill:#fbb03b;}.cls-2{fill:#65c8d0;}.cls-3{fill:#fff;}.cls-4{fill:#fcee21;}.cls-5{fill:#f2d7f4;}.cls-6{fill:#333;}.cls-7{fill:#f2f2f2;}</style></defs><title>CLOUDY-SUN</title><g id="Layer_2" data-name="Layer 2"><g id="CLOUDY_WITH_SUN" data-name="CLOUDY WITH SUN"><g id="sunny_cloud" data-name="sunny cloud"><path class="cls-1" d="M723.31,71.36A243,243,0,0,1,618.68,476.49c.06-1.42.09-2.84.09-4.27q0-3.1-.16-6.18c95.92-28.77,165.81-117.73,165.81-223,0-128.56-104.22-232.78-232.79-232.78-96.81,0-179.82,59.1-214.91,143.19-3.35-.73-6.74-1.32-10.17-1.75A242.91,242.91,0,0,1,723.31,71.36Z" transform="translate(-0.25 -0.25)"/><path class="cls-1" d="M774.42,243a222.9,222.9,0,0,0-428-87.06q-4.78-1.47-9.72-2.53C371.81,69.35,454.82,10.25,551.63,10.25,680.2,10.25,784.42,114.47,784.42,243c0,105.28-69.89,194.24-165.81,223-.17-3.4-.49-6.78-1-10.12A223.14,223.14,0,0,0,774.42,243Z" transform="translate(-0.25 -0.25)"/><path class="cls-1" d="M656.48,194.79c0,15.38-12.46,0-27.84,0s-27.84,15.38-27.84,0a27.84,27.84,0,1,1,55.68,0Z" transform="translate(-0.25 -0.25)"/><path class="cls-1" d="M606.54,322.44a12.76,12.76,0,0,1,15.17,15.89,73.06,73.06,0,0,1-41,46.66,118.56,118.56,0,0,0-11.36-9.27,11.14,11.14,0,0,0-4.74-3.23l-1.5-1A118.34,118.34,0,0,0,576,328.85C586.32,327,597.51,324.52,606.54,322.44Z" transform="translate(-0.25 -0.25)"/><path class="cls-2" d="M618.77,472.22c0,1.43,0,2.85-.09,4.27q-5,1.44-10.14,2.66c.16-2.29.23-4.6.23-6.93,0-1.16,0-2.31-.06-3.46q5-1.25,9.9-2.72Q618.77,469.12,618.77,472.22Z" transform="translate(-0.25 -0.25)"/><path class="cls-2" d="M617.66,455.92c.46,3.34.78,6.72,1,10.12q-4.91,1.47-9.9,2.72-.15-5.1-.78-10.08Q612.83,457.42,617.66,455.92Z" transform="translate(-0.25 -0.25)"/><path class="cls-2" d="M608.54,479.15q5.1-1.22,10.14-2.66A119,119,0,0,1,505.36,591a118.89,118.89,0,0,1-195.85,54,118.91,118.91,0,0,1-195.84-54A118.91,118.91,0,0,1,55.89,371.53,118.92,118.92,0,0,1,209.8,207.86a119,119,0,0,1,116.75-56.17q-2,4.78-3.68,9.64a109,109,0,0,0-109,59.74A108.91,108.91,0,0,0,69.61,375.23a108.9,108.9,0,0,0,49.53,205.88l2.37,0a108.89,108.89,0,0,0,188,49.58,108.89,108.89,0,0,0,188-49.58c.79,0,1.57,0,2.36,0A108.87,108.87,0,0,0,608.54,479.15Z" transform="translate(-0.25 -0.25)"/><path class="cls-2" d="M608.71,468.76c0,1.15.06,2.3.06,3.46,0,2.33-.07,4.64-.23,6.93q-5.07,1.22-10.2,2.21.44-4.51.43-9.14c0-.39,0-.78,0-1.17Q603.77,470,608.71,468.76Z" transform="translate(-0.25 -0.25)"/><path class="cls-2" d="M617.66,455.92q-4.83,1.5-9.73,2.76a108.71,108.71,0,0,0-38.13-69.93A70.47,70.47,0,0,0,580.73,385,118.15,118.15,0,0,1,617.66,455.92Z" transform="translate(-0.25 -0.25)"/><path class="cls-2" d="M607.93,458.68q.63,5,.78,10.08-4.93,1.26-9.95,2.29-.06-5.08-.62-10.06C601.43,460.29,604.69,459.53,607.93,458.68Z" transform="translate(-0.25 -0.25)"/><path class="cls-2" d="M607.93,458.68c-3.24.85-6.5,1.61-9.79,2.31a98.34,98.34,0,0,0-42-70.09,72.72,72.72,0,0,0,13.62-2.15A108.71,108.71,0,0,1,607.93,458.68Z" transform="translate(-0.25 -0.25)"/><path class="cls-2" d="M598.34,481.36q5.13-1,10.2-2.21a108.87,108.87,0,0,1-108.66,102c-.79,0-1.57,0-2.36,0a108.89,108.89,0,0,1-188,49.58,108.89,108.89,0,0,1-188-49.58l-2.37,0A108.9,108.9,0,0,1,69.61,375.23a108.91,108.91,0,0,1,144.3-154.16,109,109,0,0,1,109-59.74q-1.72,4.83-3.23,9.74-4.1-.34-8.25-.34a98.42,98.42,0,0,0-88.54,54.81,10,10,0,0,1-13.79,4.28,98.91,98.91,0,0,0-131,140,10,10,0,0,1-3.86,14.31,98.9,98.9,0,0,0,45,187l2.16,0a10,10,0,0,1,10,7.93A98.9,98.9,0,0,0,302,624a10,10,0,0,1,15,0,98.9,98.9,0,0,0,170.74-45,10,10,0,0,1,10-7.93l2.15,0A99,99,0,0,0,598.34,481.36Z" transform="translate(-0.25 -0.25)"/><path class="cls-3" d="M598.76,471.05c0,.39,0,.78,0,1.17q0,4.62-.43,9.14a245.47,245.47,0,0,1-46.71,4.46A241.81,241.81,0,0,1,445.2,461.38a45.64,45.64,0,0,0,7.51-7.58,233.83,233.83,0,0,0,146.05,17.25Z" transform="translate(-0.25 -0.25)"/><path class="cls-3" d="M598.14,461q.55,5,.62,10.06a233.83,233.83,0,0,1-146-17.25,45.55,45.55,0,0,0,5.29-8.49,222.08,222.08,0,0,0,93.63,20.51A225.19,225.19,0,0,0,598.14,461Z" transform="translate(-0.25 -0.25)"/><path class="cls-3" d="M556.18,390.9a98.34,98.34,0,0,1,42,70.09,225.19,225.19,0,0,1-46.51,4.83A222.08,222.08,0,0,1,458,445.31a46.24,46.24,0,0,0-72.82-54.2,223.48,223.48,0,0,1-45.73-216.35A98.67,98.67,0,0,1,399.2,224.1a10,10,0,0,0,13.44,4.29,97.8,97.8,0,0,1,45.14-10.88,98.91,98.91,0,0,1,97.69,114.27c-1.41.11-2.7.16-3.84.16-11.44,0-37.27-5.45-54.9-9.5a12.76,12.76,0,0,0-15.17,15.89A73,73,0,0,0,551.63,391C553.16,391,554.68,391,556.18,390.9Z" transform="translate(-0.25 -0.25)"/><path class="cls-2" d="M576.67,316.4a119.71,119.71,0,0,1-.65,12.45c-3.57.65-7,1.24-10.26,1.72a110.46,110.46,0,0,0,.91-14.17,108.94,108.94,0,0,0-158.6-96.91,109.16,109.16,0,0,0-65.35-54.18q1.76-4.71,3.72-9.34a118.54,118.54,0,0,1,65.76,50.6A119.33,119.33,0,0,1,447,198c1.25,6.61,7,2.74,15.06-.41A119,119,0,0,1,576.67,316.4Z" transform="translate(-0.25 -0.25)"/><path class="cls-2" d="M576,328.85a118.34,118.34,0,0,1-12.89,42.68l1.5,1a34.41,34.41,0,0,0-12.19-2.23,108.46,108.46,0,0,0,13.32-39.69C569,330.09,572.45,329.5,576,328.85Z" transform="translate(-0.25 -0.25)"/><path class="cls-2" d="M580.73,385a70.47,70.47,0,0,1-10.93,3.76q-2.94-2.47-6.06-4.73c4-1.43,6.49-3.56,6.49-5.94a3.92,3.92,0,0,0-.86-2.36A118.56,118.56,0,0,1,580.73,385Z" transform="translate(-0.25 -0.25)"/><path class="cls-2" d="M569.37,375.72a3.92,3.92,0,0,1,.86,2.36c0,2.38-2.52,4.51-6.49,5.94a109.41,109.41,0,0,0-14.32-8.79c1-1.63,2-3.29,3-5a34.41,34.41,0,0,1,12.19,2.23Q567,374.05,569.37,375.72Z" transform="translate(-0.25 -0.25)"/><path class="cls-2" d="M566.67,316.4a110.46,110.46,0,0,1-.91,14.17c-3.83.58-7.33,1-10.29,1.21A98.92,98.92,0,0,0,412.64,228.39a10,10,0,0,1-13.44-4.29,98.67,98.67,0,0,0-59.75-49.34q1.53-4.77,3.27-9.45a109.16,109.16,0,0,1,65.35,54.18,108.94,108.94,0,0,1,158.6,96.91Z" transform="translate(-0.25 -0.25)"/><path class="cls-4" d="M564.63,372.49a11.14,11.14,0,0,1,4.74,3.23Q567,374.06,564.63,372.49Z" transform="translate(-0.25 -0.25)"/><path class="cls-2" d="M563.74,384q3.12,2.25,6.06,4.73a72.72,72.72,0,0,1-13.62,2.15q-4-2.76-8.25-5.14c1.2.11,2.43.16,3.7.16A36.17,36.17,0,0,0,563.74,384Z" transform="translate(-0.25 -0.25)"/><path class="cls-2" d="M565.76,330.57a108.46,108.46,0,0,1-13.32,39.69h-.81A36.9,36.9,0,0,0,540,372a9.41,9.41,0,0,1,1-2.17,98.24,98.24,0,0,0,14.46-38C558.43,331.57,561.93,331.15,565.76,330.57Z" transform="translate(-0.25 -0.25)"/><path class="cls-3" d="M556.18,390.9c-1.5.09-3,.14-4.55.14a73,73,0,0,1-70.07-52.71,12.76,12.76,0,0,1,15.17-15.89c17.63,4.05,43.46,9.5,54.9,9.5,1.14,0,2.43,0,3.84-.16a98.24,98.24,0,0,1-14.46,38,9.41,9.41,0,0,0-1,2.17c-4.23,1.43-6.93,3.63-6.93,6.09,0,3.8,6.39,7,14.89,7.68Q552.2,388.15,556.18,390.9Z" transform="translate(-0.25 -0.25)"/><path class="cls-2" d="M563.74,384a36.17,36.17,0,0,1-12.11,1.9c-1.27,0-2.5-.05-3.7-.16-1-.55-2-1.1-3.07-1.63A10,10,0,0,1,540,372a36.9,36.9,0,0,1,11.66-1.74h.81c-1,1.68-2,3.34-3,5A109.41,109.41,0,0,1,563.74,384Z" transform="translate(-0.25 -0.25)"/><path class="cls-3" d="M544.86,384.13c1,.53,2.06,1.08,3.07,1.63-8.5-.72-14.89-3.88-14.89-7.68,0-2.46,2.7-4.66,6.93-6.09a10,10,0,0,0,4.89,12.14Z" transform="translate(-0.25 -0.25)"/><path class="cls-1" d="M502.47,194.79c0,15.38-12.47,0-27.84,0a34.26,34.26,0,0,0-12.53,2.81q-2.15-.09-4.32-.09c-3.59,0-7.17.16-10.74.5a18.14,18.14,0,0,1-.25-3.22,27.84,27.84,0,0,1,55.68,0Z" transform="translate(-0.25 -0.25)"/><path class="cls-5" d="M482.8,478a20.25,20.25,0,1,1-20.25,20.25A20.25,20.25,0,0,1,482.8,478Z" transform="translate(-0.25 -0.25)"/><path class="cls-4" d="M576.67,316.4A119,119,0,0,0,462.1,197.6a34.26,34.26,0,0,1,12.53-2.81c15.37,0,27.84,15.38,27.84,0a27.84,27.84,0,0,0-55.68,0A18.14,18.14,0,0,0,447,198a119.33,119.33,0,0,0-34.84,8.56A118.54,118.54,0,0,0,346.44,156a222.8,222.8,0,1,1,271.22,300A118.15,118.15,0,0,0,580.73,385a73.06,73.06,0,0,0,41-46.66,12.76,12.76,0,0,0-15.17-15.89c-9,2.08-20.22,4.52-30.52,6.41A119.71,119.71,0,0,0,576.67,316.4Zm52-121.61c15.38,0,27.84,15.38,27.84,0a27.84,27.84,0,1,0-55.68,0C600.8,210.17,613.26,194.79,628.64,194.79Z" transform="translate(-0.25 -0.25)"/><path class="cls-3" d="M482.8,478A20.25,20.25,0,1,0,503,498.2,20.25,20.25,0,0,0,482.8,478Zm-37.6-16.57a241.81,241.81,0,0,0,106.43,24.44,245.47,245.47,0,0,0,46.71-4.46,99,99,0,0,1-98.46,89.75l-2.15,0a10,10,0,0,0-10,7.93A98.9,98.9,0,0,1,317,624a10,10,0,0,0-15,0,98.91,98.91,0,0,1-170.74-45,10,10,0,0,0-10-7.93l-2.16,0a98.9,98.9,0,0,1-45-187A10,10,0,0,0,78,369.82a98.91,98.91,0,0,1,131-140,10,10,0,0,0,13.79-4.28,98.42,98.42,0,0,1,88.54-54.81q4.15,0,8.25.34A243.52,243.52,0,0,0,373.45,408a46.23,46.23,0,0,0,71.75,53.43Zm-77.95,57a12.76,12.76,0,0,0-15.17-15.89c-17.62,4.05-43.45,9.5-54.9,9.5s-37.28-5.45-54.91-9.5a12.76,12.76,0,0,0-15.16,15.89,72.93,72.93,0,0,0,140.14,0Zm-143-93.1A46.23,46.23,0,1,0,178,471.52,46.23,46.23,0,0,0,224.27,425.29ZM131.81,498.2a20.25,20.25,0,1,0-20.25,20.24A20.25,20.25,0,0,0,131.81,498.2Z" transform="translate(-0.25 -0.25)"/><path class="cls-2" d="M457.78,197.51q2.17,0,4.32.09c-8,3.15-13.81,7-15.06.41C450.61,197.67,454.19,197.51,457.78,197.51Z" transform="translate(-0.25 -0.25)"/><path class="cls-6" d="M462.55,425.29a46,46,0,0,1-4.55,20,223,223,0,0,1-63.9-44.75q-4.62-4.62-8.92-9.45a46.24,46.24,0,0,1,77.37,34.18Z" transform="translate(-0.25 -0.25)"/><path class="cls-6" d="M458,445.31a45.55,45.55,0,0,1-5.29,8.49,232.71,232.71,0,0,1-54.56-35.75,7.76,7.76,0,0,0,1.12-4,7.84,7.84,0,0,0-7.84-7.84,7.73,7.73,0,0,0-4.45,1.39q-4.35-4.35-8.46-8.92a46.9,46.9,0,0,1,6.66-7.55q4.31,4.83,8.92,9.45A223,223,0,0,0,458,445.31Z" transform="translate(-0.25 -0.25)"/><path class="cls-6" d="M452.71,453.8a45.64,45.64,0,0,1-7.51,7.58A242.71,242.71,0,0,1,385.46,420l.43-.46a7.82,7.82,0,0,0,12.26-1.52A232.71,232.71,0,0,0,452.71,453.8Z" transform="translate(-0.25 -0.25)"/><path class="cls-6" d="M445.2,461.38A46.24,46.24,0,0,1,373.45,408q3.18,3.43,6.51,6.76,2.71,2.71,5.5,5.32A242.71,242.71,0,0,0,445.2,461.38Z" transform="translate(-0.25 -0.25)"/><path class="cls-7" d="M399.27,414a7.76,7.76,0,0,1-1.12,4q-5.76-5-11.17-10.47a7.73,7.73,0,0,1,4.45-1.39A7.84,7.84,0,0,1,399.27,414Z" transform="translate(-0.25 -0.25)"/><path class="cls-7" d="M398.15,418.05A7.83,7.83,0,1,1,387,407.58Q392.39,413,398.15,418.05Z" transform="translate(-0.25 -0.25)"/><path class="cls-6" d="M387,407.58a7.83,7.83,0,0,0-1.09,12l-.43.46q-2.79-2.61-5.5-5.32-3.33-3.33-6.51-6.76a45.66,45.66,0,0,1,5.07-9.29Q382.63,403.24,387,407.58Z" transform="translate(-0.25 -0.25)"/><path class="cls-3" d="M385.18,391.11a46.9,46.9,0,0,0-6.66,7.55,233.16,233.16,0,0,1-48.77-226.23,95.78,95.78,0,0,1,9.7,2.33,223.48,223.48,0,0,0,45.73,216.35Z" transform="translate(-0.25 -0.25)"/><path class="cls-3" d="M378.52,398.66a45.66,45.66,0,0,0-5.07,9.29,243.52,243.52,0,0,1-53.81-236.88,99.47,99.47,0,0,1,10.11,1.36,233.16,233.16,0,0,0,48.77,226.23Z" transform="translate(-0.25 -0.25)"/><path class="cls-6" d="M352.08,502.5a12.76,12.76,0,0,1,15.17,15.89,72.93,72.93,0,0,1-140.14,0,12.76,12.76,0,0,1,15.16-15.89c17.63,4.05,43.46,9.5,54.91,9.5S334.46,506.55,352.08,502.5Zm-36.31,55.65c0-4.33-8.32-7.83-18.59-7.83s-18.6,3.5-18.6,7.83,8.33,7.83,18.6,7.83S315.77,562.47,315.77,558.15Z" transform="translate(-0.25 -0.25)"/><path class="cls-2" d="M346.44,156q-2,4.62-3.72,9.34-4.77-1.44-9.71-2.43,1.76-4.77,3.71-9.44Q341.65,154.49,346.44,156Z" transform="translate(-0.25 -0.25)"/><path class="cls-2" d="M342.72,165.31q-1.74,4.68-3.27,9.45a95.78,95.78,0,0,0-9.7-2.33q1.53-4.83,3.26-9.55Q337.94,163.87,342.72,165.31Z" transform="translate(-0.25 -0.25)"/><path class="cls-2" d="M336.72,153.44q-2,4.66-3.71,9.44-5-1-10.14-1.55,1.74-4.86,3.68-9.64C330,152.12,333.37,152.71,336.72,153.44Z" transform="translate(-0.25 -0.25)"/><path class="cls-2" d="M333,162.88q-1.72,4.72-3.26,9.55a99.47,99.47,0,0,0-10.11-1.36q1.51-4.91,3.23-9.74Q328,161.87,333,162.88Z" transform="translate(-0.25 -0.25)"/><path class="cls-5" d="M297.18,550.32c10.27,0,18.59,3.5,18.59,7.83S307.45,566,297.18,566s-18.6-3.51-18.6-7.83S286.91,550.32,297.18,550.32Z" transform="translate(-0.25 -0.25)"/><path class="cls-6" d="M178,379.06a46.23,46.23,0,1,1-46.23,46.23A46.23,46.23,0,0,1,178,379.06Zm-14.43,35a7.84,7.84,0,1,0-7.83,7.84A7.84,7.84,0,0,0,163.61,414Z" transform="translate(-0.25 -0.25)"/><path class="cls-7" d="M155.78,406.19a7.84,7.84,0,1,1-7.84,7.84A7.84,7.84,0,0,1,155.78,406.19Z" transform="translate(-0.25 -0.25)"/><path class="cls-5" d="M111.56,478A20.25,20.25,0,1,1,91.31,498.2,20.25,20.25,0,0,1,111.56,478Z" transform="translate(-0.25 -0.25)"/></g></g></g></svg>