<svg xmlns="http://www.w3.org/2000/svg" viewBox="0 0 618.52 526.59"><defs><style>.cls-1{fill:#fff;}.cls-2{fill:#65c8d0;}.cls-3{fill:#f2d7f4;}.cls-4{fill:#333;}.cls-5{fill:#f2f2f2;}</style></defs><title>CLOUD</title><g id="Layer_2" data-name="Layer 2"><g id="CLOUD"><g id="cloud-2" data-name="cloud"><path class="cls-1" d="M544.86,233.65a98.9,98.9,0,0,1-45,187c-.72,0-1.44,0-2.15,0a10.05,10.05,0,0,0-10,7.93,98.9,98.9,0,0,1-170.74,45,10,10,0,0,0-15,0,98.9,98.9,0,0,1-170.75-45,10,10,0,0,0-10-7.93c-.71,0-1.43,0-2.14,0a98.91,98.91,0,0,1-45-187A10,10,0,0,0,78,219.34a98.91,98.91,0,0,1,131.05-140,10,10,0,0,0,13.79-4.28,98.91,98.91,0,0,1,176.34-1.44,10,10,0,0,0,13.45,4.28A97.84,97.84,0,0,1,457.77,67,98.9,98.9,0,0,1,541,219.34a10,10,0,0,0,3.86,14.31ZM503,347.71A20.25,20.25,0,1,0,482.79,368,20.25,20.25,0,0,0,503,347.71Zm-40.5-72.9A46.23,46.23,0,1,0,416.31,321,46.23,46.23,0,0,0,462.54,274.81Zm-95.3,93.1A12.76,12.76,0,0,0,352.08,352c-17.63,4.05-43.46,9.5-54.91,9.5s-37.28-5.45-54.9-9.5a12.76,12.76,0,0,0-15.17,15.89,72.93,72.93,0,0,0,140.14,0Zm-143-93.1A46.24,46.24,0,1,0,178,321,46.24,46.24,0,0,0,224.27,274.81Zm-92.47,72.9A20.25,20.25,0,1,0,111.55,368,20.25,20.25,0,0,0,131.8,347.71Z" transform="translate(-0.25 -0.25)"/><path class="cls-2" d="M563.13,221a118.91,118.91,0,0,1-57.78,219.46,118.9,118.9,0,0,1-195.84,54,118.91,118.91,0,0,1-195.85-54A118.92,118.92,0,0,1,55.88,221,118.93,118.93,0,0,1,209.79,57.37,118.92,118.92,0,0,1,412.2,56.09,118.93,118.93,0,0,1,563.13,221Zm35.64,100.69a98.57,98.57,0,0,0-53.91-88.09A10,10,0,0,1,541,219.34,98.92,98.92,0,0,0,412.64,77.9a10,10,0,0,1-13.45-4.28,98.91,98.91,0,0,0-176.34,1.44,10,10,0,0,1-13.79,4.28A98.91,98.91,0,0,0,78,219.34a10,10,0,0,1-3.86,14.31,98.91,98.91,0,0,0,45,187c.71,0,1.43,0,2.14,0a10,10,0,0,1,10,7.93,98.9,98.9,0,0,0,170.75,45,10,10,0,0,1,15,0,98.9,98.9,0,0,0,170.74-45,10.05,10.05,0,0,1,10-7.93c.71,0,1.43,0,2.15,0A99,99,0,0,0,598.77,321.74Z" transform="translate(-0.25 -0.25)"/><path class="cls-3" d="M482.79,327.46a20.25,20.25,0,1,1-20.25,20.25A20.25,20.25,0,0,1,482.79,327.46Z" transform="translate(-0.25 -0.25)"/><path class="cls-4" d="M416.31,228.57a46.24,46.24,0,1,1-46.23,46.24A46.23,46.23,0,0,1,416.31,228.57Zm-17.05,35a7.84,7.84,0,1,0-7.84,7.83A7.84,7.84,0,0,0,399.26,263.55Z" transform="translate(-0.25 -0.25)"/><path class="cls-5" d="M391.42,255.71a7.84,7.84,0,1,1-7.83,7.84A7.84,7.84,0,0,1,391.42,255.71Z" transform="translate(-0.25 -0.25)"/><path class="cls-4" d="M352.08,352a12.76,12.76,0,0,1,15.16,15.89,72.93,72.93,0,0,1-140.14,0A12.76,12.76,0,0,1,242.27,352c17.62,4.05,43.45,9.5,54.9,9.5S334.45,356.07,352.08,352Zm-36.31,55.65c0-4.33-8.33-7.84-18.6-7.84s-18.59,3.51-18.59,7.84,8.32,7.83,18.59,7.83S315.77,412,315.77,407.67Z" transform="translate(-0.25 -0.25)"/><path class="cls-3" d="M297.17,399.83c10.27,0,18.6,3.51,18.6,7.84s-8.33,7.83-18.6,7.83-18.59-3.51-18.59-7.83S286.9,399.83,297.17,399.83Z" transform="translate(-0.25 -0.25)"/><path class="cls-4" d="M178,228.57a46.24,46.24,0,1,1-46.23,46.24A46.24,46.24,0,0,1,178,228.57Zm-14.42,35a7.84,7.84,0,1,0-7.84,7.83A7.84,7.84,0,0,0,163.61,263.55Z" transform="translate(-0.25 -0.25)"/><ellipse class="cls-5" cx="155.52" cy="263.3" rx="7.84" ry="7.84"/><path class="cls-3" d="M111.55,327.46A20.25,20.25,0,1,1,91.3,347.71,20.25,20.25,0,0,1,111.55,327.46Z" transform="translate(-0.25 -0.25)"/></g></g></g></svg>