<svg xmlns="http://www.w3.org/2000/svg" viewBox="0 0 1111.32 526.59"><defs><style>.cls-1{fill:#65c8d0;}.cls-2{fill:#fff;}.cls-3{fill:#f2d7f4;}.cls-4{fill:#333;}.cls-5{fill:#f2f2f2;}</style></defs><title>CLOUDY</title><g id="Layer_2" data-name="Layer 2"><g id="CLOUDY"><g id="very_cloudy" data-name="very cloudy"><path class="cls-1" d="M1055.93,221a118.91,118.91,0,0,1-57.78,219.46,118.9,118.9,0,0,1-195.84,54,118.91,118.91,0,0,1-195.85-54,117.93,117.93,0,0,1-50.55-13.94,113.57,113.57,0,0,0,10.1-6.08,108.34,108.34,0,0,0,45.93,10.14c.79,0,1.58,0,2.36,0a108.9,108.9,0,0,0,188,49.58,108.9,108.9,0,0,0,188-49.58l2.37,0a108.9,108.9,0,0,0,49.54-205.88A108.92,108.92,0,0,0,900.87,69,108.92,108.92,0,0,0,706.7,70.59a108.94,108.94,0,0,0-145,37.63q-2.67-4.81-5.78-9.35a118.9,118.9,0,0,1,146.68-41.5A118.92,118.92,0,0,1,905,56.09a118.93,118.93,0,0,1,150.93,165Z" transform="translate(-0.25 -0.25)"/><path class="cls-1" d="M1042.22,224.75a108.9,108.9,0,0,1-49.54,205.88l-2.37,0a108.9,108.9,0,0,1-188,49.58,108.9,108.9,0,0,1-188-49.58c-.78,0-1.57,0-2.36,0A108.34,108.34,0,0,1,566,420.49q4.82-3.22,9.28-6.9a98.4,98.4,0,0,0,36.65,7c.72,0,1.43,0,2.15,0a10,10,0,0,1,10,7.93,98.9,98.9,0,0,0,170.74,45,10,10,0,0,1,15,0,98.9,98.9,0,0,0,170.74-45,10,10,0,0,1,10-7.93c.72,0,1.43,0,2.15,0a98.9,98.9,0,0,0,45-187,10,10,0,0,1-3.86-14.31A98.92,98.92,0,0,0,905.44,77.9,10,10,0,0,1,892,73.62a98.91,98.91,0,0,0-176.34,1.44,10,10,0,0,1-13.79,4.28A98.91,98.91,0,0,0,567,119a114.69,114.69,0,0,0-5.32-10.78,108.94,108.94,0,0,1,145-37.63A108.92,108.92,0,0,1,900.87,69a108.92,108.92,0,0,1,141.35,155.74Z" transform="translate(-0.25 -0.25)"/><path class="cls-2" d="M1037.66,233.65a98.9,98.9,0,0,1-45,187c-.72,0-1.43,0-2.15,0a10,10,0,0,0-10,7.93,98.9,98.9,0,0,1-170.74,45,10,10,0,0,0-15,0,98.9,98.9,0,0,1-170.74-45,10,10,0,0,0-10-7.93c-.72,0-1.43,0-2.15,0a98.4,98.4,0,0,1-36.65-7,119.38,119.38,0,0,0,34.42-46.35A20.25,20.25,0,0,0,618.24,333q.53-5.55.53-11.24a118.39,118.39,0,0,0-46.69-94.5,10,10,0,0,0-1.27-7.9q-2-3.15-3.8-6.44a118.92,118.92,0,0,0,0-93.9A98.91,98.91,0,0,1,701.86,79.34a10,10,0,0,0,13.79-4.28A98.91,98.91,0,0,1,892,73.62a10,10,0,0,0,13.45,4.28A97.87,97.87,0,0,1,950.57,67a98.9,98.9,0,0,1,83.23,152.31,10,10,0,0,0,3.86,14.31ZM995.84,347.71A20.25,20.25,0,1,0,975.59,368,20.25,20.25,0,0,0,995.84,347.71Zm-40.5-72.9A46.23,46.23,0,1,0,909.11,321,46.23,46.23,0,0,0,955.34,274.81ZM860,367.91A12.76,12.76,0,0,0,844.88,352c-17.63,4.05-43.46,9.5-54.91,9.5s-37.28-5.45-54.9-9.5a12.76,12.76,0,0,0-15.17,15.89,72.93,72.93,0,0,0,140.14,0Zm-143-93.1A46.24,46.24,0,1,0,670.83,321,46.24,46.24,0,0,0,717.07,274.81Z" transform="translate(-0.25 -0.25)"/><path class="cls-3" d="M975.59,327.46a20.25,20.25,0,1,1-20.25,20.25A20.25,20.25,0,0,1,975.59,327.46Z" transform="translate(-0.25 -0.25)"/><path class="cls-4" d="M909.11,228.57a46.24,46.24,0,1,1-46.23,46.24A46.23,46.23,0,0,1,909.11,228.57Zm-17,35a7.84,7.84,0,1,0-7.83,7.83A7.84,7.84,0,0,0,892.06,263.55Z" transform="translate(-0.25 -0.25)"/><path class="cls-5" d="M884.23,255.71a7.84,7.84,0,1,1-7.84,7.84A7.84,7.84,0,0,1,884.23,255.71Z" transform="translate(-0.25 -0.25)"/><path class="cls-4" d="M844.88,352A12.76,12.76,0,0,1,860,367.91a72.93,72.93,0,0,1-140.14,0A12.76,12.76,0,0,1,735.07,352c17.62,4.05,43.46,9.5,54.9,9.5S827.25,356.07,844.88,352Zm-36.31,55.65c0-4.33-8.33-7.84-18.6-7.84s-18.59,3.51-18.59,7.84,8.32,7.83,18.59,7.83S808.57,412,808.57,407.67Z" transform="translate(-0.25 -0.25)"/><path class="cls-3" d="M790,399.83c10.27,0,18.6,3.51,18.6,7.84s-8.33,7.83-18.6,7.83-18.59-3.51-18.59-7.83S779.7,399.83,790,399.83Z" transform="translate(-0.25 -0.25)"/><path class="cls-4" d="M670.83,228.57a46.24,46.24,0,1,1-46.23,46.24A46.24,46.24,0,0,1,670.83,228.57Zm-14.42,35a7.84,7.84,0,1,0-7.84,7.83A7.84,7.84,0,0,0,656.41,263.55Z" transform="translate(-0.25 -0.25)"/><ellipse class="cls-5" cx="648.32" cy="263.3" rx="7.84" ry="7.84"/><path class="cls-3" d="M618.24,333a20.25,20.25,0,0,1-8.53,34.26A117.45,117.45,0,0,0,618.24,333Z" transform="translate(-0.25 -0.25)"/><path class="cls-1" d="M618.77,321.74q0,5.68-.53,11.24a20.07,20.07,0,0,0-9.65-5.07q.18-3.06.18-6.17a108.72,108.72,0,0,0-43.6-87.15c.59-.32,1.19-.63,1.79-.94a10.05,10.05,0,0,0,5.1-6.3.43.43,0,0,0,0-.11A118.39,118.39,0,0,1,618.77,321.74Z" transform="translate(-0.25 -0.25)"/><path class="cls-1" d="M618.24,333a117.45,117.45,0,0,1-8.53,34.26,20.3,20.3,0,0,1-10.86,0,107.9,107.9,0,0,0,9.74-39.29A20.07,20.07,0,0,1,618.24,333Z" transform="translate(-0.25 -0.25)"/><path class="cls-1" d="M608.77,321.74q0,3.11-.18,6.17a19.81,19.81,0,0,0-4.24-.45,20.19,20.19,0,0,0-5.8.85q.23-3.25.22-6.57a98.47,98.47,0,0,0-42.86-81.51,99.33,99.33,0,0,1,9.26-5.64A108.72,108.72,0,0,1,608.77,321.74Z" transform="translate(-0.25 -0.25)"/><path class="cls-1" d="M604.35,327.46a19.81,19.81,0,0,1,4.24.45,107.9,107.9,0,0,1-9.74,39.29,20.09,20.09,0,0,1-8.71-5.07,98.22,98.22,0,0,0,8.41-33.82A20.19,20.19,0,0,1,604.35,327.46Z" transform="translate(-0.25 -0.25)"/><path class="cls-1" d="M604.35,368a20.16,20.16,0,0,0,5.36-.72,119.38,119.38,0,0,1-34.42,46.35,97.6,97.6,0,0,1-10.09-4.72,109.23,109.23,0,0,0,33.65-41.67A20,20,0,0,0,604.35,368Z" transform="translate(-0.25 -0.25)"/><path class="cls-2" d="M598.77,321.74q0,3.31-.22,6.57a20.24,20.24,0,0,0-8.41,33.82,99.38,99.38,0,0,1-34.23,41,98.87,98.87,0,0,1,0-162.95A98.47,98.47,0,0,1,598.77,321.74Z" transform="translate(-0.25 -0.25)"/><path class="cls-2" d="M598.55,328.31a98.22,98.22,0,0,1-8.41,33.82,20.24,20.24,0,0,1,8.41-33.82Z" transform="translate(-0.25 -0.25)"/><path class="cls-1" d="M590.14,362.13a20.09,20.09,0,0,0,8.71,5.07,109.23,109.23,0,0,1-33.65,41.67,98.6,98.6,0,0,1-9.29-5.69A99.38,99.38,0,0,0,590.14,362.13Z" transform="translate(-0.25 -0.25)"/><path class="cls-1" d="M576.67,165.92a118.69,118.69,0,0,1-9.66,47,96,96,0,0,1-5.8-12.84,109.37,109.37,0,0,0,0-68.25A97.85,97.85,0,0,1,567,119,118.06,118.06,0,0,1,576.67,165.92Z" transform="translate(-0.25 -0.25)"/><path class="cls-1" d="M570.81,219.34a10,10,0,0,1,1.27,7.9q-4.3-3.27-9-6.19,2.1-4,3.88-8.15Q568.78,216.18,570.81,219.34Z" transform="translate(-0.25 -0.25)"/><path class="cls-1" d="M565.2,408.87a97.6,97.6,0,0,0,10.09,4.72q-4.45,3.67-9.28,6.9a104.81,104.81,0,0,1-10.1-5.37A106.17,106.17,0,0,0,565.2,408.87Z" transform="translate(-0.25 -0.25)"/><path class="cls-1" d="M562.4,224.75a108.55,108.55,0,0,1-6.49-11.6,108.23,108.23,0,0,0,5.3-13.09A96,96,0,0,0,567,212.9q-1.78,4.14-3.88,8.15,4.64,2.91,9,6.19a.43.43,0,0,1,0,.11,10.05,10.05,0,0,1-5.1,6.3c-.6.31-1.2.62-1.79.94a110.22,110.22,0,0,0-9.26-6.24Q559.09,226.44,562.4,224.75Z" transform="translate(-0.25 -0.25)"/><path class="cls-1" d="M566.67,165.92a108.89,108.89,0,0,1-5.46,34.14,98.46,98.46,0,0,1-5.3-21.85,100.5,100.5,0,0,0,.76-12.29,99,99,0,0,0-.76-12.24,97.88,97.88,0,0,1,5.3-21.87A108.42,108.42,0,0,1,566.67,165.92Z" transform="translate(-0.25 -0.25)"/><path class="cls-1" d="M561.69,108.22A114.69,114.69,0,0,1,567,119a97.85,97.85,0,0,0-5.8,12.81,107.34,107.34,0,0,0-5.3-13.14A106,106,0,0,1,561.69,108.22Z" transform="translate(-0.25 -0.25)"/><path class="cls-1" d="M555.91,213.15a108.55,108.55,0,0,0,6.49,11.6q-3.31,1.7-6.49,3.6-3.18-1.91-6.49-3.6A108.55,108.55,0,0,0,555.91,213.15Z" transform="translate(-0.25 -0.25)"/><path class="cls-1" d="M555.91,178.21a98.46,98.46,0,0,0,5.3,21.85,108.23,108.23,0,0,1-5.3,13.09,108.23,108.23,0,0,1-5.3-13.09A98.46,98.46,0,0,0,555.91,178.21Z" transform="translate(-0.25 -0.25)"/><path class="cls-1" d="M555.91,415.12a104.81,104.81,0,0,0,10.1,5.37,113.57,113.57,0,0,1-10.1,6.08,113.57,113.57,0,0,1-10.1-6.08A104.81,104.81,0,0,0,555.91,415.12Z" transform="translate(-0.25 -0.25)"/><path class="cls-1" d="M555.91,228.35a110.22,110.22,0,0,1,9.26,6.24,99.33,99.33,0,0,0-9.26,5.64,99.33,99.33,0,0,0-9.26-5.64A110.22,110.22,0,0,1,555.91,228.35Z" transform="translate(-0.25 -0.25)"/><path class="cls-1" d="M561.69,108.22a106,106,0,0,0-5.78,10.45,106,106,0,0,0-5.78-10.45q2.67-4.81,5.78-9.35Q559,103.4,561.69,108.22Z" transform="translate(-0.25 -0.25)"/><path class="cls-1" d="M555.91,403.18a98.6,98.6,0,0,0,9.29,5.69,106.17,106.17,0,0,1-9.29,6.25,106.17,106.17,0,0,1-9.29-6.25A98.6,98.6,0,0,0,555.91,403.18Z" transform="translate(-0.25 -0.25)"/><path class="cls-2" d="M555.91,153.68a99,99,0,0,1,.76,12.24,100.5,100.5,0,0,1-.76,12.29,100.5,100.5,0,0,1-.76-12.29A99,99,0,0,1,555.91,153.68Z" transform="translate(-0.25 -0.25)"/><path class="cls-1" d="M561.21,131.81a97.88,97.88,0,0,0-5.3,21.87,97.88,97.88,0,0,0-5.3-21.87,107.34,107.34,0,0,1,5.3-13.14A107.34,107.34,0,0,1,561.21,131.81Z" transform="translate(-0.25 -0.25)"/><path class="cls-2" d="M555.91,153.68a99,99,0,0,0-.76,12.24,100.5,100.5,0,0,0,.76,12.29,98.46,98.46,0,0,1-5.3,21.85,109.37,109.37,0,0,1,0-68.25A97.88,97.88,0,0,1,555.91,153.68Z" transform="translate(-0.25 -0.25)"/><path class="cls-1" d="M555.91,213.15a108.55,108.55,0,0,1-6.49,11.6q3.31,1.7,6.49,3.6a110.22,110.22,0,0,0-9.26,6.24c-.59-.32-1.19-.63-1.79-.94a10.05,10.05,0,0,1-5.1-6.3.43.43,0,0,1,0-.11q4.31-3.27,9-6.19-2.1-4-3.88-8.15a96,96,0,0,0,5.8-12.84A108.23,108.23,0,0,0,555.91,213.15Z" transform="translate(-0.25 -0.25)"/><path class="cls-1" d="M555.91,98.87q-3.1,4.53-5.78,9.35A109,109,0,0,0,408.07,69a108.91,108.91,0,0,0-194.16,1.58A108.91,108.91,0,0,0,69.61,224.75a108.9,108.9,0,0,0,49.53,205.88l2.37,0a108.9,108.9,0,0,0,188,49.58,108.9,108.9,0,0,0,188-49.58c.78,0,1.57,0,2.36,0a108.34,108.34,0,0,0,45.93-10.14,113.57,113.57,0,0,0,10.1,6.08,117.93,117.93,0,0,1-50.55,13.94,118.9,118.9,0,0,1-195.85,54,118.91,118.91,0,0,1-195.84-54A118.91,118.91,0,0,1,55.89,221,118.92,118.92,0,0,1,209.79,57.37,118.92,118.92,0,0,1,412.2,56.09,118.9,118.9,0,0,1,555.91,98.87Z" transform="translate(-0.25 -0.25)"/><path class="cls-1" d="M550.13,108.22a106,106,0,0,1,5.78,10.45,107.34,107.34,0,0,0-5.3,13.14,97.85,97.85,0,0,0-5.8-12.81A114.69,114.69,0,0,1,550.13,108.22Z" transform="translate(-0.25 -0.25)"/><path class="cls-2" d="M545.15,165.92a108.89,108.89,0,0,0,5.46,34.14,96,96,0,0,1-5.8,12.84,118.92,118.92,0,0,1,0-93.9,97.85,97.85,0,0,1,5.8,12.81A108.42,108.42,0,0,0,545.15,165.92Z" transform="translate(-0.25 -0.25)"/><path class="cls-2" d="M546.65,234.59a99.33,99.33,0,0,1,9.26,5.64,98.87,98.87,0,0,0,0,162.95,98.6,98.6,0,0,1-9.29,5.69,108.9,108.9,0,0,1,0-174.28Z" transform="translate(-0.25 -0.25)"/><path class="cls-1" d="M555.91,415.12a104.81,104.81,0,0,1-10.1,5.37q-4.82-3.22-9.28-6.9a97.6,97.6,0,0,0,10.09-4.72A106.17,106.17,0,0,0,555.91,415.12Z" transform="translate(-0.25 -0.25)"/><path class="cls-2" d="M544.86,233.65c.6.31,1.2.62,1.79.94a109,109,0,0,0-41.49,108.56l-2.52.48a20.31,20.31,0,0,0-9.27-13.2q-.31-4.3-.32-8.69a118.39,118.39,0,0,1,46.69-94.5.43.43,0,0,0,0,.11A10.05,10.05,0,0,0,544.86,233.65Z" transform="translate(-0.25 -0.25)"/><path class="cls-1" d="M550.13,108.22A114.69,114.69,0,0,0,544.81,119a99,99,0,0,0-87-52A97.91,97.91,0,0,0,412.64,77.9a10,10,0,0,1-13.44-4.28,98.92,98.92,0,0,0-176.35,1.44,10,10,0,0,1-13.79,4.28,98.91,98.91,0,0,0-131,140,10,10,0,0,1-3.86,14.31,98.9,98.9,0,0,0,45,187c.72,0,1.43,0,2.15,0a10,10,0,0,1,10,7.93,98.9,98.9,0,0,0,170.74,45,10,10,0,0,1,15,0,98.9,98.9,0,0,0,170.74-45,10.06,10.06,0,0,1,10-7.93l2.15,0a98.4,98.4,0,0,0,36.65-7q4.46,3.67,9.28,6.9a108.34,108.34,0,0,1-45.93,10.14c-.79,0-1.58,0-2.36,0a108.9,108.9,0,0,1-188,49.58,108.9,108.9,0,0,1-188-49.58l-2.37,0A108.9,108.9,0,0,1,69.61,224.75,108.91,108.91,0,0,1,213.91,70.59,108.91,108.91,0,0,1,408.07,69a109,109,0,0,1,142.06,39.21Z" transform="translate(-0.25 -0.25)"/><path class="cls-1" d="M544.81,212.9q1.78,4.14,3.88,8.15-4.63,2.91-9,6.19a10,10,0,0,1,1.27-7.9Q543,216.19,544.81,212.9Z" transform="translate(-0.25 -0.25)"/><path class="cls-2" d="M544.81,212.9q-1.77,3.28-3.8,6.44a10,10,0,0,0-1.27,7.9A118.39,118.39,0,0,0,493,321.74q0,4.38.32,8.69a20.25,20.25,0,1,0,5.85,29.13,119.34,119.34,0,0,0,37.31,54,98.4,98.4,0,0,1-36.65,7l-2.15,0a10.06,10.06,0,0,0-10,7.93,98.9,98.9,0,0,1-170.74,45,10,10,0,0,0-15,0,98.9,98.9,0,0,1-170.74-45,10,10,0,0,0-10-7.93c-.72,0-1.43,0-2.15,0a98.9,98.9,0,0,1-45-187A10,10,0,0,0,78,219.34a98.91,98.91,0,0,1,131-140,10,10,0,0,0,13.79-4.28A98.92,98.92,0,0,1,399.2,73.62a10,10,0,0,0,13.44,4.28A97.91,97.91,0,0,1,457.78,67a99,99,0,0,1,87,52,118.92,118.92,0,0,0,0,93.9Zm-82.26,61.91A46.24,46.24,0,1,0,416.32,321,46.23,46.23,0,0,0,462.55,274.81Zm-95.3,93.1A12.76,12.76,0,0,0,352.08,352c-17.62,4.05-43.45,9.5-54.9,9.5s-37.28-5.45-54.91-9.5a12.76,12.76,0,0,0-15.16,15.89,72.93,72.93,0,0,0,140.14,0Zm-143-93.1A46.23,46.23,0,1,0,178,321,46.23,46.23,0,0,0,224.27,274.81Zm-92.46,72.9A20.25,20.25,0,1,0,111.56,368,20.25,20.25,0,0,0,131.81,347.71Z" transform="translate(-0.25 -0.25)"/><path class="cls-2" d="M546.62,408.87a97.6,97.6,0,0,1-10.09,4.72,119.34,119.34,0,0,1-37.31-54,20.31,20.31,0,0,0,3.42-15.93l2.52-.48A108.84,108.84,0,0,0,546.62,408.87Z" transform="translate(-0.25 -0.25)"/><path class="cls-3" d="M502.64,343.63a20.31,20.31,0,0,1-3.42,15.93,117.67,117.67,0,0,1-5.85-29.13A20.31,20.31,0,0,1,502.64,343.63Z" transform="translate(-0.25 -0.25)"/><path class="cls-3" d="M499.22,359.56a20.24,20.24,0,1,1-5.85-29.13A117.67,117.67,0,0,0,499.22,359.56Z" transform="translate(-0.25 -0.25)"/><path class="cls-4" d="M416.32,228.57a46.24,46.24,0,1,1-46.24,46.24A46.23,46.23,0,0,1,416.32,228.57Zm-17,35a7.84,7.84,0,1,0-7.84,7.83A7.84,7.84,0,0,0,399.27,263.55Z" transform="translate(-0.25 -0.25)"/><ellipse class="cls-5" cx="391.18" cy="263.3" rx="7.84" ry="7.84"/><path class="cls-4" d="M352.08,352a12.76,12.76,0,0,1,15.17,15.89,72.93,72.93,0,0,1-140.14,0A12.76,12.76,0,0,1,242.27,352c17.63,4.05,43.46,9.5,54.91,9.5S334.46,356.07,352.08,352Zm-36.31,55.65c0-4.33-8.32-7.84-18.59-7.84s-18.6,3.51-18.6,7.84,8.33,7.83,18.6,7.83S315.77,412,315.77,407.67Z" transform="translate(-0.25 -0.25)"/><path class="cls-3" d="M297.18,399.83c10.27,0,18.59,3.51,18.59,7.84s-8.32,7.83-18.59,7.83-18.6-3.51-18.6-7.83S286.91,399.83,297.18,399.83Z" transform="translate(-0.25 -0.25)"/><path class="cls-4" d="M178,228.57a46.24,46.24,0,1,1-46.23,46.24A46.23,46.23,0,0,1,178,228.57Zm-14.43,35a7.84,7.84,0,1,0-7.83,7.83A7.84,7.84,0,0,0,163.61,263.55Z" transform="translate(-0.25 -0.25)"/><path class="cls-5" d="M155.78,255.71a7.84,7.84,0,1,1-7.84,7.84A7.84,7.84,0,0,1,155.78,255.71Z" transform="translate(-0.25 -0.25)"/><path class="cls-3" d="M111.56,327.46a20.25,20.25,0,1,1-20.25,20.25A20.25,20.25,0,0,1,111.56,327.46Z" transform="translate(-0.25 -0.25)"/></g></g></g></svg>