<svg xmlns="http://www.w3.org/2000/svg" viewBox="0 0 1109.68 902"><defs><style>.cls-1,.cls-6{fill:#b3b3b3;}.cls-1{stroke:#666;stroke-linecap:round;stroke-linejoin:round;stroke-width:20px;}.cls-2{fill:#333;}.cls-3{fill:#ccc;}.cls-4{fill:#f2d7f4;}.cls-5{fill:#f2f2f2;}.cls-7{fill:#666;}.cls-8{fill:#fcee21;}</style></defs><title>DARK-LIGHTNING</title><g id="Layer_2" data-name="Layer 2"><g id="DARK_CLOUDS_WITH_LIGHTNING" data-name="DARK CLOUDS WITH LIGHTNING"><g id="dark_cloud" data-name="dark cloud"><path class="cls-1" d="M1040.32,224.49A108.92,108.92,0,0,0,899,68.76a108.92,108.92,0,0,0-194.17,1.58,108.91,108.91,0,0,0-144.3,154.16A108.91,108.91,0,0,0,610,430.38c.79,0,1.58,0,2.37,0a108.9,108.9,0,0,0,188,49.58,108.9,108.9,0,0,0,188-49.58c.79,0,1.57,0,2.37,0a108.91,108.91,0,0,0,49.54-205.89Z"/><circle class="cls-2" cx="788.08" cy="399.58" r="42.27"/><circle class="cls-2" cx="907.22" cy="274.55" r="46.23"/><circle class="cls-2" cx="668.94" cy="274.55" r="46.23"/><circle class="cls-3" cx="973.7" cy="347.46" r="20.25"/><circle class="cls-3" cx="602.46" cy="347.46" r="20.25"/><ellipse class="cls-4" cx="788.08" cy="426.44" rx="18.59" ry="7.83"/><circle class="cls-5" cx="646.68" cy="263.3" r="7.84"/><circle class="cls-5" cx="882.33" cy="263.3" r="7.84"/></g><g id="dark_cloud-2" data-name="dark cloud"><path class="cls-6" d="M549.17,224.49A108.92,108.92,0,0,0,407.82,68.76a108.92,108.92,0,0,0-194.17,1.58A108.91,108.91,0,0,0,69.35,224.49a108.91,108.91,0,0,0,49.54,205.89c.79,0,1.58,0,2.37,0a108.9,108.9,0,0,0,188,49.58,108.9,108.9,0,0,0,188-49.58c.79,0,1.57,0,2.37,0a108.91,108.91,0,0,0,49.54-205.89Z"/><path class="cls-7" d="M390.74,526.59a119,119,0,0,1-81.48-32.33,118.91,118.91,0,0,1-195.85-54A118.91,118.91,0,0,1,55.64,220.79,118.92,118.92,0,0,1,209.54,57.12a118.92,118.92,0,0,1,202.41-1.29,118.93,118.93,0,0,1,150.93,165,118.91,118.91,0,0,1-57.78,219.46,118.93,118.93,0,0,1-114.36,86.34Zm-81.48-56.67a10,10,0,0,1,7.48,3.36,98.9,98.9,0,0,0,170.74-45,10,10,0,0,1,10-7.93l2.15,0a98.91,98.91,0,0,0,45-187,10,10,0,0,1-3.85-14.31A98.92,98.92,0,0,0,412.39,77.65a10,10,0,0,1-13.44-4.28A98.92,98.92,0,0,0,222.6,74.8a10,10,0,0,1-13.79,4.28,98.91,98.91,0,0,0-131,140,10,10,0,0,1-3.85,14.31,98.91,98.91,0,0,0,45,187l2.15,0a10,10,0,0,1,10,7.93,98.9,98.9,0,0,0,170.74,45A10,10,0,0,1,309.26,469.93Z"/><circle class="cls-2" cx="296.93" cy="399.58" r="42.27"/><ellipse class="cls-4" cx="296.93" cy="426.44" rx="18.59" ry="7.83"/><circle class="cls-2" cx="416.06" cy="274.55" r="46.23"/><circle class="cls-2" cx="177.79" cy="274.55" r="46.23"/><circle class="cls-3" cx="482.55" cy="347.46" r="20.25"/><circle class="cls-3" cx="111.31" cy="347.46" r="20.25"/><circle class="cls-5" cx="155.52" cy="263.3" r="7.84"/><circle class="cls-5" cx="391.18" cy="263.3" r="7.84"/></g><polygon class="cls-8" points="420.71 744.8 503.19 597.59 321.83 744.8 420.71 744.8"/><path class="cls-8" d="M420.71,754.8H321.83a10,10,0,0,1-6.3-17.76L496.89,589.82a10,10,0,0,1,15,12.65L429.43,749.68A10,10,0,0,1,420.71,754.8ZM350,734.8h64.83l54.08-96.52Z"/><polygon class="cls-8" points="369.13 744.8 286.65 892 468.01 744.8 369.13 744.8"/><path class="cls-8" d="M286.65,902a10,10,0,0,1-8.72-14.89L360.4,739.91a10,10,0,0,1,8.72-5.11H468a10,10,0,0,1,6.3,17.76L292.95,899.77A10,10,0,0,1,286.65,902ZM375,754.8l-54.08,96.52L439.82,754.8Z"/><polygon class="cls-8" points="659.75 744.8 742.23 597.59 560.87 744.8 659.75 744.8"/><path class="cls-8" d="M659.75,754.8H560.87a10,10,0,0,1-6.3-17.76L735.93,589.82a10,10,0,0,1,15,12.65L668.47,749.68A10,10,0,0,1,659.75,754.8Zm-70.69-20h64.83L708,638.28Z"/><polygon class="cls-8" points="608.16 744.8 525.68 892 707.04 744.8 608.16 744.8"/><path class="cls-8" d="M525.68,902A10,10,0,0,1,517,887.12l82.48-147.21a10,10,0,0,1,8.72-5.11H707a10,10,0,0,1,6.3,17.76L532,899.77A10,10,0,0,1,525.68,902ZM614,754.8l-54.08,96.52L678.86,754.8Z"/></g></g></svg>