<svg xmlns="http://www.w3.org/2000/svg" viewBox="0 0 898.69 526.59"><defs><style>.cls-1{fill:#e6e6e6;}.cls-2{fill:#ccc;}.cls-3{fill:#333;}.cls-4{fill:#f2d7f4;}.cls-5{fill:#f2f2f2;}</style></defs><title>FOGGY</title><g id="Layer_2" data-name="Layer 2"><g id="FOGGY"><g id="dark_cloud" data-name="dark cloud"><path class="cls-1" d="M865.42,384.82H588.21a109,109,0,0,0,18.4-83.66H846.88a23.34,23.34,0,0,0,23.27-23.27h0a23.34,23.34,0,0,0-23.27-23.27H585.57a109.36,109.36,0,0,0-36.4-30.12,108.31,108.31,0,0,0,17.18-55.16H846.88a23.27,23.27,0,0,0,0-46.54H557.64a109,109,0,0,0-149.82-54,108.92,108.92,0,0,0-194.17,1.58A108.91,108.91,0,0,0,69.35,224.49a108.91,108.91,0,0,0,49.54,205.89c.79,0,1.58,0,2.37,0a108.9,108.9,0,0,0,188,49.58,108.9,108.9,0,0,0,188-49.58c.79,0,1.57,0,2.37,0,3.8,0,365.79,1,365.79,1a23.34,23.34,0,0,0,23.27-23.27h0A23.34,23.34,0,0,0,865.42,384.82Z"/><path class="cls-2" d="M390.74,526.59a119,119,0,0,1-81.48-32.33,118.91,118.91,0,0,1-195.85-54A118.91,118.91,0,0,1,55.64,220.79,118.92,118.92,0,0,1,209.54,57.12a118.92,118.92,0,0,1,202.41-1.29A119,119,0,0,1,564,112.8H846.88a33.27,33.27,0,1,1,0,66.54H575.63a118.68,118.68,0,0,1-12.75,41.47,120.52,120.52,0,0,1,27.45,23.81H846.88a33.27,33.27,0,0,1,0,66.54H618.07c.3,3.44.45,6.89.45,10.33a118.15,118.15,0,0,1-12.6,53.33h259.5a33.27,33.27,0,0,1,0,66.54l-360.35-1a118.93,118.93,0,0,1-114.33,86.2Zm-81.48-56.67a10,10,0,0,1,7.48,3.36,98.9,98.9,0,0,0,170.74-45,10,10,0,0,1,10-7.93l2.15,0c3.77,0,351,.95,365.81,1a13.27,13.27,0,0,0,0-26.54H588.22A10,10,0,0,1,580.08,379a98.19,98.19,0,0,0,18.44-57.51A99.81,99.81,0,0,0,596.79,303a10,10,0,0,1,9.83-11.86H846.88a13.27,13.27,0,0,0,0-26.54H585.57a10,10,0,0,1-7.89-3.85,100,100,0,0,0-33.07-27.37,10,10,0,0,1-3.85-14.31A98.63,98.63,0,0,0,556.35,169a10,10,0,0,1,10-9.67H846.88a13.27,13.27,0,1,0,0-26.54H557.65a10,10,0,0,1-9.19-6.06,98.84,98.84,0,0,0-90.93-60,97.8,97.8,0,0,0-45.13,10.88,10,10,0,0,1-13.44-4.28A98.92,98.92,0,0,0,222.6,74.8a10,10,0,0,1-13.79,4.28,98.91,98.91,0,0,0-131,140,10,10,0,0,1-3.85,14.31,98.91,98.91,0,0,0,45,187l2.15,0a10,10,0,0,1,10,7.93,98.9,98.9,0,0,0,170.74,45A10,10,0,0,1,309.26,469.93Z"/><path class="cls-3" d="M237.67,347.56a11,11,0,0,0-12.1,13.18,72.92,72.92,0,0,0,142.71,0,11,11,0,0,0-12.1-13.18c-17.43,2.3-46.82,5.91-59.25,5.91S255.1,349.86,237.67,347.56Z"/><circle class="cls-3" cx="416.06" cy="274.55" r="46.23"/><circle class="cls-3" cx="177.79" cy="274.55" r="46.23"/><circle class="cls-2" cx="482.55" cy="347.46" r="20.25"/><circle class="cls-2" cx="111.31" cy="347.46" r="20.25"/><ellipse class="cls-4" cx="296.93" cy="399.58" rx="18.59" ry="7.83"/><circle class="cls-5" cx="155.52" cy="263.3" r="7.84"/><circle class="cls-5" cx="391.18" cy="263.3" r="7.84"/></g></g></g></svg>