<svg xmlns="http://www.w3.org/2000/svg" viewBox="0 0 1120.78 526.59"><defs><style>.cls-1{fill:#e6e6e6;}.cls-2{fill:#ccc;}.cls-3{fill:#333;}.cls-4{fill:#f2d7f4;}.cls-5{fill:#f2f2f2;}</style></defs><title>GREY-CLOUDY</title><g id="Layer_2" data-name="Layer 2"><g id="GREY_CLOUDY" data-name="GREY CLOUDY"><g id="dark_cloud" data-name="dark cloud"><path class="cls-1" d="M1051.43,224.49A108.92,108.92,0,0,0,910.08,68.76a108.92,108.92,0,0,0-194.17,1.58,108.91,108.91,0,0,0-144.3,154.16,108.91,108.91,0,0,0,49.54,205.89c.79,0,1.58,0,2.37,0a108.9,108.9,0,0,0,188,49.58,108.9,108.9,0,0,0,188-49.58c.79,0,1.57,0,2.37,0a108.91,108.91,0,0,0,49.54-205.89Z"/><path class="cls-2" d="M893,526.59a119,119,0,0,1-81.48-32.33,118.91,118.91,0,0,1-195.85-54A118.91,118.91,0,0,1,557.9,220.79,118.92,118.92,0,0,1,711.8,57.12a118.92,118.92,0,0,1,202.41-1.29,118.93,118.93,0,0,1,150.93,165,118.91,118.91,0,0,1-57.78,219.46A118.93,118.93,0,0,1,893,526.59Zm-81.48-56.67a10,10,0,0,1,7.48,3.36,98.9,98.9,0,0,0,170.74-45,10,10,0,0,1,10-7.93l2.15,0a98.91,98.91,0,0,0,45-187,10,10,0,0,1-3.85-14.31A98.92,98.92,0,0,0,914.65,77.65a10,10,0,0,1-13.44-4.28A98.92,98.92,0,0,0,724.86,74.8a10,10,0,0,1-13.79,4.28,98.91,98.91,0,0,0-131,140,10,10,0,0,1-3.85,14.31,98.91,98.91,0,0,0,45,187l2.15,0h.21a10,10,0,0,1,9.78,7.93,98.9,98.9,0,0,0,170.74,45A10,10,0,0,1,811.52,469.93Z"/><path class="cls-3" d="M739.93,347.56a11,11,0,0,0-12.1,13.18,72.92,72.92,0,0,0,142.71,0,11,11,0,0,0-12.1-13.18c-17.43,2.3-46.82,5.91-59.25,5.91S757.36,349.86,739.93,347.56Z"/><circle class="cls-3" cx="918.32" cy="274.55" r="46.23"/><circle class="cls-3" cx="668.84" cy="274.55" r="46.23"/><circle class="cls-2" cx="984.81" cy="347.46" r="20.25"/><ellipse class="cls-4" cx="799.19" cy="391.75" rx="18.59" ry="7.83"/><circle class="cls-5" cx="657.78" cy="263.3" r="7.84"/><circle class="cls-5" cx="893.44" cy="263.3" r="7.84"/></g><g id="dark_cloud-2" data-name="dark cloud"><path class="cls-1" d="M549.17,224.49A108.92,108.92,0,0,0,407.82,68.76a108.92,108.92,0,0,0-194.17,1.58A108.91,108.91,0,0,0,69.35,224.49a108.91,108.91,0,0,0,49.54,205.89c.79,0,1.58,0,2.37,0a108.9,108.9,0,0,0,188,49.58,108.9,108.9,0,0,0,188-49.58c.79,0,1.57,0,2.37,0a108.91,108.91,0,0,0,49.54-205.89Z"/><path class="cls-2" d="M390.74,526.59a119,119,0,0,1-81.48-32.33,118.91,118.91,0,0,1-195.85-54A118.91,118.91,0,0,1,55.64,220.79,118.92,118.92,0,0,1,209.54,57.12,118.92,118.92,0,0,1,412,55.84a118.93,118.93,0,0,1,150.93,165,118.91,118.91,0,0,1-57.78,219.46,118.93,118.93,0,0,1-114.36,86.34Zm-81.48-56.67a10,10,0,0,1,7.48,3.36,98.9,98.9,0,0,0,170.74-45,10,10,0,0,1,10-7.93l2.15,0a98.91,98.91,0,0,0,45-187,10,10,0,0,1-3.85-14.31A98.92,98.92,0,0,0,412.39,77.65a10,10,0,0,1-13.44-4.28A98.92,98.92,0,0,0,222.6,74.8a10,10,0,0,1-13.79,4.28,98.91,98.91,0,0,0-131,140,10,10,0,0,1-3.85,14.31,98.91,98.91,0,0,0,45,187l2.15,0h.21a10,10,0,0,1,9.78,7.93,98.9,98.9,0,0,0,170.74,45A10,10,0,0,1,309.26,469.93Z"/><path class="cls-3" d="M237.67,347.56a11,11,0,0,0-12.1,13.18,72.92,72.92,0,0,0,142.71,0,11,11,0,0,0-12.1-13.18c-17.43,2.3-46.82,5.91-59.25,5.91S255.1,349.86,237.67,347.56Z"/><circle class="cls-3" cx="416.06" cy="274.55" r="46.23"/><circle class="cls-3" cx="177.79" cy="274.55" r="46.23"/><circle class="cls-2" cx="482.55" cy="347.46" r="20.25"/><circle class="cls-2" cx="111.31" cy="347.46" r="20.25"/><ellipse class="cls-4" cx="296.93" cy="391.75" rx="18.59" ry="7.83"/><circle class="cls-5" cx="155.52" cy="263.3" r="7.84"/><circle class="cls-5" cx="391.18" cy="263.3" r="7.84"/></g></g></g></svg>