<svg xmlns="http://www.w3.org/2000/svg" viewBox="0 0 797.52 688.34"><defs><style>.cls-1{fill:#fcee21;}.cls-2{fill:#fbb03b;}.cls-3{fill:#e6e6e6;}.cls-4{fill:#ccc;}.cls-5{fill:#333;}.cls-6{fill:#f2d7f4;}.cls-7{fill:#f2f2f2;}</style></defs><title>GREY-SUN</title><g id="Layer_2" data-name="Layer 2"><g id="GREY_CLOUD_WITH_SUN" data-name="GREY CLOUD WITH SUN"><circle class="cls-1" cx="554.74" cy="242.78" r="232.78"/><path class="cls-2" d="M554.74,485.57A242.78,242.78,0,0,1,383.07,71.11,242.78,242.78,0,1,1,726.41,414.46,241.19,241.19,0,0,1,554.74,485.57Zm0-465.57A222.78,222.78,0,0,0,397.21,400.32,222.78,222.78,0,1,0,712.27,85.25,221.32,221.32,0,0,0,554.74,20Z"/><path class="cls-2" d="M659.59,194.54c0,15.38-12.46,0-27.84,0s-27.84,15.38-27.84,0a27.84,27.84,0,1,1,55.68,0Z"/><path class="cls-2" d="M609.65,322.19a12.76,12.76,0,0,1,15.16,15.89,72.93,72.93,0,0,1-140.14,0,12.76,12.76,0,0,1,15.16-15.89c17.63,4.05,43.46,9.5,54.91,9.5S592,326.24,609.65,322.19Z"/><ellipse class="cls-1" cx="554.74" cy="377.84" rx="18.59" ry="7.83"/><path class="cls-2" d="M505.57,194.54c0,15.38-12.46,0-27.84,0s-27.84,15.38-27.84,0a27.84,27.84,0,1,1,55.68,0Z"/><g id="dark_cloud" data-name="dark cloud"><path class="cls-3" d="M549.17,386.24A108.92,108.92,0,0,0,407.82,230.5a108.92,108.92,0,0,0-194.17,1.58A108.91,108.91,0,0,0,69.35,386.24a108.91,108.91,0,0,0,49.54,205.89c.79,0,1.58,0,2.37,0a108.9,108.9,0,0,0,188,49.58,108.9,108.9,0,0,0,188-49.58c.79,0,1.57,0,2.37,0a108.91,108.91,0,0,0,49.54-205.89Z"/><path class="cls-4" d="M390.74,688.34A119,119,0,0,1,309.26,656a118.91,118.91,0,0,1-195.85-54A118.91,118.91,0,0,1,55.64,382.54a118.92,118.92,0,0,1,153.9-163.67,118.92,118.92,0,0,1,202.41-1.29,118.93,118.93,0,0,1,150.93,165A118.91,118.91,0,0,1,505.11,602a118.93,118.93,0,0,1-114.36,86.34Zm-81.48-56.67h0a10,10,0,0,1,7.48,3.36,98.9,98.9,0,0,0,170.74-45,10,10,0,0,1,10-7.93l2.15,0a98.91,98.91,0,0,0,45-187,10,10,0,0,1-3.85-14.31A98.92,98.92,0,0,0,412.39,239.4a10,10,0,0,1-13.44-4.28,98.92,98.92,0,0,0-176.35,1.44,10,10,0,0,1-13.79,4.28,98.91,98.91,0,0,0-131,140,10,10,0,0,1-3.85,14.31,98.91,98.91,0,0,0,45,187l2.15,0A10,10,0,0,1,131,590a98.9,98.9,0,0,0,170.74,45A10,10,0,0,1,309.26,631.67Z"/><path class="cls-5" d="M237.67,509.3a11,11,0,0,0-12.1,13.18,72.92,72.92,0,0,0,142.71,0,11,11,0,0,0-12.1-13.18c-17.43,2.3-46.82,5.91-59.25,5.91S255.1,511.6,237.67,509.3Z"/><circle class="cls-5" cx="416.06" cy="436.3" r="46.23"/><circle class="cls-5" cx="177.79" cy="436.3" r="46.23"/><circle class="cls-4" cx="482.55" cy="509.21" r="20.25"/><circle class="cls-4" cx="111.31" cy="509.21" r="20.25"/><ellipse class="cls-6" cx="296.93" cy="553.49" rx="18.59" ry="7.83"/><circle class="cls-7" cx="155.52" cy="425.04" r="7.84"/><circle class="cls-7" cx="391.18" cy="425.04" r="7.84"/></g></g></g></svg>