<svg xmlns="http://www.w3.org/2000/svg" viewBox="0 0 903.37 710.99"><defs><style>.cls-1{fill:#efdf6f;stroke:#edd440;}.cls-1,.cls-3{stroke-linecap:round;stroke-linejoin:round;stroke-width:20px;}.cls-2{fill:#edd440;}.cls-3{fill:#e6e6e6;stroke:#ccc;}.cls-4{fill:#333;}.cls-5{fill:#ccc;}.cls-6{fill:#f2d7f4;}.cls-7{fill:#f2f2f2;}</style></defs><title>GREY-MOON</title><g id="Layer_2" data-name="Layer 2"><g id="NIGHT_CLOUDY" data-name="NIGHT CLOUDY"><path class="cls-1" d="M841.3,326C712.73,326,608.51,221.81,608.51,93.24A232.21,232.21,0,0,1,623.86,10C520.36,33.65,443.14,126.27,443.14,236.93c0,128.56,104.22,232.78,232.78,232.78,99.23,0,183.94-62.09,217.44-149.54A233.51,233.51,0,0,1,841.3,326Z"/><path class="cls-2" d="M605.35,229.84c0,12.16-9.86,0-22,0s-22,12.16-22,0a22,22,0,1,1,44,0Z"/><circle class="cls-2" cx="635.9" cy="353.64" r="30.55"/><path class="cls-2" d="M531.07,229.84c0,12.16-9.86,0-22,0s-22,12.16-22,0a22,22,0,1,1,44,0Z"/><g id="dark_cloud" data-name="dark cloud"><path class="cls-3" d="M549.17,408.89A108.92,108.92,0,0,0,407.82,253.15a108.92,108.92,0,0,0-194.17,1.58A108.91,108.91,0,0,0,69.35,408.89a108.91,108.91,0,0,0,49.54,205.89c.79,0,1.58,0,2.37,0a108.9,108.9,0,0,0,188,49.58,108.9,108.9,0,0,0,188-49.58c.79,0,1.57,0,2.37,0a108.91,108.91,0,0,0,49.54-205.89Z"/><path class="cls-4" d="M237.67,532a11,11,0,0,0-12.1,13.18,72.92,72.92,0,0,0,142.71,0A11,11,0,0,0,356.18,532c-17.43,2.3-46.82,5.91-59.25,5.91S255.1,534.25,237.67,532Z"/><circle class="cls-4" cx="416.06" cy="458.95" r="46.23"/><circle class="cls-4" cx="177.79" cy="458.95" r="46.23"/><circle class="cls-5" cx="482.55" cy="531.86" r="20.25"/><circle class="cls-5" cx="111.31" cy="531.86" r="20.25"/><ellipse class="cls-6" cx="296.93" cy="576.15" rx="18.59" ry="7.83"/><circle class="cls-7" cx="155.52" cy="447.69" r="7.84"/><circle class="cls-7" cx="391.18" cy="447.69" r="7.84"/></g></g></g></svg>