<svg xmlns="http://www.w3.org/2000/svg" viewBox="0 0 809.7 921.66"><defs><style>.cls-1{fill:#fcee21;}.cls-2{fill:#fbb03b;}.cls-3{fill:#e6e6e6;}.cls-4{fill:#ccc;}.cls-5{fill:#333;}.cls-6{fill:#f2d7f4;}.cls-7{fill:#f2f2f2;}.cls-8{fill:#65c8d0;}</style></defs><title>LIGHT-RAIN</title><g id="Layer_2" data-name="Layer 2"><g id="LIGHT_RAIN" data-name="LIGHT RAIN"><circle class="cls-1" cx="566.92" cy="242.78" r="232.78"/><path class="cls-2" d="M566.92,485.57A242.78,242.78,0,0,1,395.25,71.11,242.78,242.78,0,1,1,738.59,414.46,241.19,241.19,0,0,1,566.92,485.57Zm0-465.57A222.78,222.78,0,0,0,409.39,400.32,222.78,222.78,0,0,0,724.45,85.25,221.32,221.32,0,0,0,566.92,20Z"/><path class="cls-2" d="M671.77,194.54c0,15.38-12.46,0-27.84,0s-27.84,15.38-27.84,0a27.84,27.84,0,1,1,55.68,0Z"/><path class="cls-2" d="M621.83,322.19A12.76,12.76,0,0,1,637,338.08a72.93,72.93,0,0,1-140.14,0A12.76,12.76,0,0,1,512,322.19c17.63,4.05,43.46,9.5,54.91,9.5S604.2,326.24,621.83,322.19Z"/><ellipse class="cls-1" cx="566.92" cy="377.84" rx="18.59" ry="7.83"/><path class="cls-2" d="M517.75,194.54c0,15.38-12.46,0-27.84,0s-27.84,15.38-27.84,0a27.84,27.84,0,1,1,55.68,0Z"/><g id="dark_cloud" data-name="dark cloud"><path class="cls-3" d="M549.17,405A108.92,108.92,0,0,0,407.82,249.27a108.92,108.92,0,0,0-194.17,1.58A108.91,108.91,0,0,0,69.35,405a108.91,108.91,0,0,0,49.54,205.89c.79,0,1.58,0,2.37,0a108.9,108.9,0,0,0,188,49.58,108.9,108.9,0,0,0,188-49.58c.79,0,1.57,0,2.37,0A108.91,108.91,0,0,0,549.17,405Z"/><path class="cls-4" d="M390.74,707.1a119,119,0,0,1-81.48-32.33,118.91,118.91,0,0,1-195.85-54A118.91,118.91,0,0,1,55.64,401.31a118.92,118.92,0,0,1,153.9-163.67,118.92,118.92,0,0,1,202.41-1.29,118.93,118.93,0,0,1,150.93,165,118.91,118.91,0,0,1-57.78,219.46A118.93,118.93,0,0,1,390.74,707.1Zm-81.48-56.67a10,10,0,0,1,7.48,3.36,98.9,98.9,0,0,0,170.74-45,10,10,0,0,1,10-7.93l2.15,0a98.91,98.91,0,0,0,45-187,10,10,0,0,1-3.85-14.31A98.92,98.92,0,0,0,412.39,258.16a10,10,0,0,1-13.44-4.28,98.92,98.92,0,0,0-176.34,1.44,10,10,0,0,1-13.79,4.28,98.91,98.91,0,0,0-131,140,10,10,0,0,1-3.85,14.31,98.91,98.91,0,0,0,45,187l2.15,0a10,10,0,0,1,10,7.93,98.9,98.9,0,0,0,170.74,45A10,10,0,0,1,309.26,650.44Z"/><path class="cls-5" d="M237.67,528.07a11,11,0,0,0-12.1,13.18,72.92,72.92,0,0,0,142.71,0,11,11,0,0,0-12.1-13.18c-17.43,2.3-46.82,5.91-59.25,5.91S255.1,530.37,237.67,528.07Z"/><circle class="cls-5" cx="416.06" cy="455.07" r="46.23"/><circle class="cls-5" cx="177.79" cy="455.07" r="46.23"/><circle class="cls-4" cx="482.55" cy="527.97" r="20.25"/><circle class="cls-4" cx="111.31" cy="527.97" r="20.25"/><ellipse class="cls-6" cx="296.93" cy="572.26" rx="18.59" ry="7.83"/><circle class="cls-7" cx="155.52" cy="443.81" r="7.84"/><circle class="cls-7" cx="391.18" cy="443.81" r="7.84"/></g><path class="cls-8" d="M262.62,895.52c8.24-14.35,8.24-35.39,8.24-57.67,0-24.27,0-51.64,11.06-73.31a3.59,3.59,0,0,0-1.41-4.75h0A3.59,3.59,0,0,0,275.7,761c-13.14,20.48-36.78,34.27-57.75,46.5-19.24,11.22-37.42,21.82-45.66,36.17h0a52.08,52.08,0,0,0,90.32,51.87Z"/><path class="cls-8" d="M408.79,895.52C417,881.17,417,860.12,417,837.85c0-24.27,0-51.64,11.06-73.31a3.59,3.59,0,0,0-1.41-4.75h0a3.59,3.59,0,0,0-4.81,1.18c-13.14,20.48-36.78,34.27-57.75,46.5-19.24,11.22-37.42,21.82-45.66,36.17h0a52.08,52.08,0,0,0,90.32,51.87Z"/></g></g></svg>