<svg xmlns="http://www.w3.org/2000/svg" viewBox="0 0 470.22 479.72"><defs><style>.cls-1{fill:#efdf6f;stroke:#edd440;stroke-linecap:round;stroke-linejoin:round;stroke-width:20px;}.cls-2{fill:#edd440;}</style></defs><title>MOON</title><g id="Layer_2" data-name="Layer 2"><g id="NIGHT_CLEAR_SKY" data-name="NIGHT CLEAR SKY"><path class="cls-1" d="M408.15,326C279.59,326,175.37,221.81,175.37,93.24A232.21,232.21,0,0,1,190.71,10C87.22,33.65,10,126.27,10,236.93c0,128.56,104.22,232.78,232.78,232.78,99.23,0,183.94-62.09,217.44-149.54A233.51,233.51,0,0,1,408.15,326Z"/><path class="cls-2" d="M172.21,229.84c0,12.16-9.86,0-22,0s-22,12.16-22,0a22,22,0,0,1,44,0Z"/><circle class="cls-2" cx="202.76" cy="353.64" r="30.55"/><path class="cls-2" d="M97.92,229.84c0,12.16-9.86,0-22,0s-22,12.16-22,0a22,22,0,0,1,44,0Z"/></g></g></svg>