<svg xmlns="http://www.w3.org/2000/svg" viewBox="0 0 503.15 503.15"><defs><style>.cls-1{fill:#174579;}.cls-2{fill:#399377;}.cls-3{fill:#f47d43;}.cls-4{fill:#df5032;}.cls-5{fill:#0a7fc6;}.cls-6{fill:#af70af;}.cls-7{fill:#ffd600;}</style></defs><title>RAINBOW</title><g id="Layer_2" data-name="Layer 2"><g id="RAINBOW"><g id="_Group_" data-name="&lt;Group&gt;"><path class="cls-1" d="M254.64,157.37a94.34,94.34,0,1,1-94.34,94.34A94.34,94.34,0,0,1,254.64,157.37Zm-62.89,94.34a62.89,62.89,0,1,0,62.89-62.89A62.9,62.9,0,0,0,191.74,251.71Z"/><path class="cls-2" d="M254.64,94.47A157.23,157.23,0,1,1,97.4,251.71,157.23,157.23,0,0,1,254.64,94.47ZM128.85,251.71A125.79,125.79,0,1,0,254.64,125.92,125.79,125.79,0,0,0,128.85,251.71Z"/><path class="cls-3" d="M254.64,31.58c121.57,0,220.13,98.55,220.13,220.13S376.21,471.83,254.64,471.83,34.51,373.28,34.51,251.71,133.06,31.58,254.64,31.58ZM443.32,251.71C443.32,147.5,358.85,63,254.64,63S66,147.5,66,251.71s84.48,188.68,188.68,188.68S443.32,355.92,443.32,251.71Z"/><path class="cls-4" d="M251.57,0C390.52,0,503.15,112.63,503.15,251.57S390.52,503.15,251.57,503.15,0,390.51,0,251.57,112.64,0,251.57,0ZM474.77,251.71c0-121.57-98.55-220.13-220.13-220.13S34.51,130.13,34.51,251.71s98.55,220.13,220.13,220.13S474.77,373.28,474.77,251.71Z"/><path class="cls-5" d="M254.64,125.92A125.79,125.79,0,1,1,128.85,251.71,125.78,125.78,0,0,1,254.64,125.92ZM160.3,251.71a94.34,94.34,0,1,0,94.34-94.34A94.34,94.34,0,0,0,160.3,251.71Z"/><path class="cls-6" d="M254.64,188.81a62.89,62.89,0,1,1-62.89,62.89A62.89,62.89,0,0,1,254.64,188.81Zm-31.45,62.89a31.45,31.45,0,1,0,31.45-31.45A31.45,31.45,0,0,0,223.19,251.71Z"/><path class="cls-7" d="M97.4,251.71A157.23,157.23,0,1,0,254.64,94.47,157.24,157.24,0,0,0,97.4,251.71ZM254.64,63c104.21,0,188.68,84.47,188.68,188.68S358.85,440.39,254.64,440.39,66,355.92,66,251.71,150.44,63,254.64,63Z"/></g></g></g></svg>