<svg xmlns="http://www.w3.org/2000/svg" viewBox="0 0 1104.53 966.4"><defs><style>.cls-1{fill:#b3b3b3;stroke:#666;}.cls-1,.cls-7{stroke-linecap:round;stroke-linejoin:round;stroke-width:20px;}.cls-2{fill:#333;}.cls-3{fill:#ccc;}.cls-4{fill:#f2d7f4;}.cls-5{fill:#f2f2f2;}.cls-6{fill:#5bb0b2;}.cls-7{fill:#e6e6e6;stroke:#ccc;}</style></defs><title>RAIN_SHOWER</title><g id="Layer_2" data-name="Layer 2"><g id="RAIN_SHOWER" data-name="RAIN SHOWER"><g id="dark_cloud" data-name="dark cloud"><path class="cls-1" d="M1035.18,224.49A108.92,108.92,0,0,0,893.83,68.76a108.92,108.92,0,0,0-194.17,1.58,108.91,108.91,0,0,0-144.3,154.16A108.91,108.91,0,0,0,604.9,430.38c.79,0,1.58,0,2.37,0a108.9,108.9,0,0,0,188,49.58,108.9,108.9,0,0,0,188-49.58c.79,0,1.57,0,2.37,0a108.91,108.91,0,0,0,49.54-205.89Z"/><circle class="cls-2" cx="782.94" cy="383.03" r="42.27"/><circle class="cls-2" cx="902.08" cy="274.55" r="46.23"/><circle class="cls-2" cx="663.8" cy="274.55" r="46.23"/><circle class="cls-3" cx="968.56" cy="347.46" r="20.25"/><circle class="cls-3" cx="597.32" cy="347.46" r="20.25"/><ellipse class="cls-4" cx="782.94" cy="410.84" rx="18.59" ry="7.83"/><circle class="cls-5" cx="637.22" cy="263.3" r="7.84"/><circle class="cls-5" cx="877.19" cy="263.3" r="7.84"/></g><path class="cls-6" d="M354.35,724.56c8.24-14.35,8.24-35.39,8.24-57.67,0-24.27,0-51.64,11.06-73.31a3.59,3.59,0,0,0-1.41-4.75h0a3.59,3.59,0,0,0-4.81,1.18c-13.14,20.48-36.78,34.27-57.75,46.5-19.24,11.22-37.42,21.82-45.66,36.17h0a52.08,52.08,0,0,0,90.32,51.87Z"/><path class="cls-6" d="M500.53,724.56c8.24-14.35,8.24-35.39,8.24-57.67,0-24.27,0-51.64,11.06-73.31a3.59,3.59,0,0,0-1.41-4.75h0a3.59,3.59,0,0,0-4.81,1.18c-13.14,20.48-36.78,34.27-57.75,46.5-19.24,11.22-37.42,21.82-45.66,36.17h0a52.08,52.08,0,0,0,90.32,51.87Z"/><path class="cls-6" d="M650.36,724.56c8.24-14.35,8.24-35.39,8.24-57.67,0-24.27,0-51.64,11.06-73.31a3.59,3.59,0,0,0-1.41-4.75h0a3.59,3.59,0,0,0-4.81,1.18c-13.14,20.48-36.78,34.27-57.75,46.5-19.24,11.22-37.42,21.82-45.66,36.17h0a52.08,52.08,0,0,0,90.32,51.87Z"/><path class="cls-6" d="M809.91,724.56c8.24-14.35,8.24-35.39,8.24-57.67,0-24.27,0-51.64,11.06-73.31a3.59,3.59,0,0,0-1.41-4.75h0A3.59,3.59,0,0,0,823,590c-13.14,20.48-36.78,34.27-57.75,46.5-19.24,11.22-37.42,21.82-45.66,36.17h0a52.08,52.08,0,0,0,90.32,51.87Z"/><g id="dark_cloud-2" data-name="dark cloud"><path class="cls-7" d="M549.17,235.75A108.92,108.92,0,0,0,407.82,80,108.92,108.92,0,0,0,213.65,81.6,108.91,108.91,0,0,0,69.35,235.75a108.91,108.91,0,0,0,49.54,205.89c.79,0,1.58,0,2.37,0a108.9,108.9,0,0,0,188,49.58,108.9,108.9,0,0,0,188-49.58c.79,0,1.57,0,2.37,0a108.91,108.91,0,0,0,49.54-205.89Z"/><circle class="cls-2" cx="296.93" cy="383.03" r="42.27"/><circle class="cls-2" cx="416.06" cy="285.81" r="46.23"/><circle class="cls-2" cx="177.79" cy="285.81" r="46.23"/><circle class="cls-3" cx="482.55" cy="358.72" r="20.25"/><circle class="cls-3" cx="111.31" cy="358.72" r="20.25"/><ellipse class="cls-4" cx="296.93" cy="410.84" rx="18.59" ry="7.83"/><circle class="cls-5" cx="155.52" cy="274.55" r="7.84"/><circle class="cls-5" cx="391.18" cy="274.55" r="7.84"/></g><path class="cls-6" d="M411,940.25c8.24-14.35,8.24-35.39,8.24-57.67,0-24.27,0-51.64,11.06-73.31a3.59,3.59,0,0,0-1.41-4.75h0a3.59,3.59,0,0,0-4.81,1.18c-13.14,20.48-36.78,34.27-57.75,46.5-19.24,11.22-37.42,21.82-45.66,36.17h0A52.08,52.08,0,0,0,411,940.25Z"/><path class="cls-6" d="M557.16,940.25c8.24-14.35,8.24-35.39,8.24-57.67,0-24.27,0-51.64,11.06-73.31a3.59,3.59,0,0,0-1.41-4.75h0a3.59,3.59,0,0,0-4.81,1.18c-13.14,20.48-36.78,34.27-57.75,46.5-19.24,11.22-37.42,21.82-45.66,36.17h0a52.08,52.08,0,0,0,90.32,51.87Z"/><path class="cls-6" d="M707,940.25c8.24-14.35,8.24-35.39,8.24-57.67,0-24.27,0-51.64,11.06-73.31a3.59,3.59,0,0,0-1.41-4.75h0a3.59,3.59,0,0,0-4.81,1.18c-13.14,20.48-36.78,34.27-57.75,46.5-19.24,11.22-37.42,21.82-45.66,36.17h0A52.08,52.08,0,0,0,707,940.25Z"/></g></g></svg>