<svg xmlns="http://www.w3.org/2000/svg" viewBox="0 0 1106.58 764.93"><defs><style>.cls-1{fill:#e6e6e6;}.cls-2{fill:#ccc;}.cls-3{fill:#333;}.cls-4{fill:#f2d7f4;}.cls-5{fill:#f2f2f2;}</style></defs><title>SNOWY</title><g id="Layer_2" data-name="Layer 2"><g id="SNOWY"><g id="dark_cloud" data-name="dark cloud"><path class="cls-1" d="M1037.23,224.49A108.92,108.92,0,0,0,895.88,68.76a108.92,108.92,0,0,0-194.17,1.58,108.91,108.91,0,0,0-144.3,154.16A108.91,108.91,0,0,0,607,430.38c.79,0,1.58,0,2.37,0a108.9,108.9,0,0,0,188,49.58,108.9,108.9,0,0,0,188-49.58c.79,0,1.57,0,2.37,0a108.91,108.91,0,0,0,49.54-205.89Z"/><path class="cls-2" d="M878.8,526.59a119,119,0,0,1-81.48-32.33,118.91,118.91,0,0,1-195.85-54A118.91,118.91,0,0,1,543.7,220.79,118.92,118.92,0,0,1,697.61,57.12,118.92,118.92,0,0,1,900,55.84a118.93,118.93,0,0,1,150.93,165,118.91,118.91,0,0,1-57.78,219.46A118.93,118.93,0,0,1,878.8,526.59Zm-81.48-56.67a10,10,0,0,1,7.48,3.36,98.9,98.9,0,0,0,170.74-45,10,10,0,0,1,10-7.93l2.15,0a98.91,98.91,0,0,0,45-187,10,10,0,0,1-3.85-14.31A98.92,98.92,0,0,0,900.45,77.65,10,10,0,0,1,887,73.37,98.92,98.92,0,0,0,710.66,74.8a10,10,0,0,1-13.79,4.28,98.91,98.91,0,0,0-131,140A10,10,0,0,1,562,233.4a98.91,98.91,0,0,0,45,187l2.15,0a10,10,0,0,1,10,7.93,98.9,98.9,0,0,0,170.74,45A10,10,0,0,1,797.32,469.93Z"/><path class="cls-3" d="M725.74,347.56a11,11,0,0,0-12.1,13.18,72.92,72.92,0,0,0,142.71,0,11,11,0,0,0-12.1-13.18c-17.43,2.3-46.82,5.91-59.25,5.91S743.17,349.86,725.74,347.56Z"/><circle class="cls-3" cx="904.13" cy="274.55" r="46.23"/><circle class="cls-3" cx="665.85" cy="274.55" r="46.23"/><circle class="cls-2" cx="970.61" cy="347.46" r="20.25"/><circle class="cls-2" cx="599.37" cy="347.46" r="20.25"/><ellipse class="cls-4" cx="784.99" cy="399.58" rx="18.59" ry="7.83"/><circle class="cls-5" cx="643.59" cy="263.3" r="7.84"/><circle class="cls-5" cx="879.24" cy="263.3" r="7.84"/></g><path class="cls-1" d="M386.61,660.64H348l27.32-27.32a5.25,5.25,0,0,0,0-7.41l-13.48-13.48a5.25,5.25,0,0,0-7.41,0l-27.32,27.32V601.13a5.25,5.25,0,0,0-5.24-5.24H302.8a5.25,5.25,0,0,0-5.24,5.24v38.63l-27.32-27.32a5.25,5.25,0,0,0-7.41,0l-13.48,13.48a5.25,5.25,0,0,0,0,7.41l27.32,27.32H238a5.25,5.25,0,0,0-5.24,5.24v19.06a5.25,5.25,0,0,0,5.24,5.24h38.63l-27.32,27.32a5.25,5.25,0,0,0,0,7.41l13.48,13.48a5.25,5.25,0,0,0,7.41,0l27.32-27.32v38.63a5.25,5.25,0,0,0,5.24,5.24h19.06a5.25,5.25,0,0,0,5.24-5.24V711.06l27.32,27.32a5.25,5.25,0,0,0,7.41,0l13.48-13.48a5.25,5.25,0,0,0,0-7.41L348,690.18h38.63a5.25,5.25,0,0,0,5.24-5.24V665.88A5.25,5.25,0,0,0,386.61,660.64Z"/><path class="cls-2" d="M321.86,764.93H302.8a15.25,15.25,0,0,1-15.24-15.24V735.2l-10.25,10.25a15.25,15.25,0,0,1-21.55,0L242.29,732a15.25,15.25,0,0,1,0-21.55l10.25-10.25H238a15.25,15.25,0,0,1-15.24-15.24V665.88A15.25,15.25,0,0,1,238,650.64h14.49L242.29,640.4a15.25,15.25,0,0,1,0-21.55l13.48-13.48a15.25,15.25,0,0,1,21.55,0l10.25,10.25V601.13a15.25,15.25,0,0,1,15.24-15.24h19.06a15.25,15.25,0,0,1,15.24,15.24v14.49l10.25-10.25a15.25,15.25,0,0,1,21.55,0l13.48,13.48a15.25,15.25,0,0,1,0,21.55l-10.25,10.25h14.49a15.25,15.25,0,0,1,15.24,15.24v19.06a15.25,15.25,0,0,1-15.24,15.24H372.12l10.25,10.25a15.25,15.25,0,0,1,0,21.55l-13.48,13.48a15.25,15.25,0,0,1-21.55,0L337.09,735.2v14.49A15.25,15.25,0,0,1,321.86,764.93Zm-14.3-20h9.53V711.06A10,10,0,0,1,334.16,704l23.95,23.95,6.74-6.74-23.95-23.95A10,10,0,0,1,348,680.18h33.87v-9.53H348a10,10,0,0,1-7.07-17.07l23.95-23.95-6.74-6.74-23.95,23.95a10,10,0,0,1-17.07-7.07V605.89h-9.53v33.87a10,10,0,0,1-17.07,7.07l-23.95-23.95-6.74,6.74,23.95,23.95a10,10,0,0,1-7.07,17.07H242.81v9.53h33.87a10,10,0,0,1,7.07,17.07L259.8,721.2l6.74,6.74L290.49,704a10,10,0,0,1,17.07,7.07Zm79-74.28h0Z"/><path class="cls-1" d="M638.21,660.64H599.58l27.32-27.32a5.25,5.25,0,0,0,0-7.41l-13.48-13.48a5.25,5.25,0,0,0-7.41,0L578.7,639.76V601.13a5.25,5.25,0,0,0-5.24-5.24H554.4a5.25,5.25,0,0,0-5.24,5.24v38.63l-27.32-27.32a5.25,5.25,0,0,0-7.41,0L501,625.92a5.25,5.25,0,0,0,0,7.41l27.32,27.32H489.65a5.25,5.25,0,0,0-5.24,5.24v19.06a5.25,5.25,0,0,0,5.24,5.24h38.63L501,717.49a5.25,5.25,0,0,0,0,7.41l13.48,13.48a5.25,5.25,0,0,0,7.41,0l27.32-27.32v38.63a5.25,5.25,0,0,0,5.24,5.24h19.06a5.25,5.25,0,0,0,5.24-5.24V711.06L606,738.38a5.25,5.25,0,0,0,7.41,0L626.9,724.9a5.25,5.25,0,0,0,0-7.41l-27.32-27.32h38.63a5.25,5.25,0,0,0,5.24-5.24V665.88A5.25,5.25,0,0,0,638.21,660.64Z"/><path class="cls-2" d="M573.46,764.93H554.4a15.25,15.25,0,0,1-15.24-15.24V735.2l-10.25,10.25a15.25,15.25,0,0,1-21.55,0L493.89,732a15.25,15.25,0,0,1,0-21.55l10.25-10.25H489.65a15.25,15.25,0,0,1-15.24-15.24V665.88a15.25,15.25,0,0,1,15.24-15.24h14.49L493.89,640.4a15.25,15.25,0,0,1,0-21.55l13.48-13.48a15.25,15.25,0,0,1,21.55,0l10.25,10.25V601.13a15.25,15.25,0,0,1,15.24-15.24h19.06a15.25,15.25,0,0,1,15.24,15.24v14.49l10.25-10.25a15.25,15.25,0,0,1,21.55,0L634,618.85a15.25,15.25,0,0,1,0,21.55l-10.25,10.25h14.49a15.25,15.25,0,0,1,15.24,15.24v19.06a15.25,15.25,0,0,1-15.24,15.24H623.72L634,710.42A15.25,15.25,0,0,1,634,732l-13.48,13.48a15.25,15.25,0,0,1-21.55,0L588.7,735.2v14.49A15.25,15.25,0,0,1,573.46,764.93Zm-14.3-20h9.53V711.06A10,10,0,0,1,585.77,704l23.95,23.95,6.74-6.74-23.95-23.95a10,10,0,0,1,7.07-17.07h33.87v-9.53H599.58a10,10,0,0,1-7.07-17.07l23.95-23.95-6.74-6.74-23.95,23.95a10,10,0,0,1-17.07-7.07V605.89h-9.53v33.87a10,10,0,0,1-17.07,7.07l-23.95-23.95-6.74,6.74,23.95,23.95a10,10,0,0,1-7.07,17.07H494.41v9.53h33.87a10,10,0,0,1,7.07,17.07L511.4,721.2l6.74,6.74L542.09,704a10,10,0,0,1,17.07,7.07Zm79-74.28h0Z"/><path class="cls-1" d="M889.82,660.64H851.18l27.32-27.32a5.25,5.25,0,0,0,0-7.41L865,612.44a5.25,5.25,0,0,0-7.41,0L830.3,639.76V601.13a5.25,5.25,0,0,0-5.24-5.24H806a5.25,5.25,0,0,0-5.24,5.24v38.63l-27.32-27.32a5.25,5.25,0,0,0-7.41,0l-13.48,13.48a5.25,5.25,0,0,0,0,7.41l27.32,27.32H741.25a5.25,5.25,0,0,0-5.24,5.24v19.06a5.25,5.25,0,0,0,5.24,5.24h38.63l-27.32,27.32a5.25,5.25,0,0,0,0,7.41L766,738.38a5.25,5.25,0,0,0,7.41,0l27.32-27.32v38.63a5.25,5.25,0,0,0,5.24,5.24h19.06a5.25,5.25,0,0,0,5.24-5.24V711.06l27.32,27.32a5.25,5.25,0,0,0,7.41,0L878.5,724.9a5.25,5.25,0,0,0,0-7.41l-27.32-27.32h38.63a5.25,5.25,0,0,0,5.24-5.24V665.88A5.25,5.25,0,0,0,889.82,660.64Z"/><path class="cls-2" d="M825.06,764.93H806a15.25,15.25,0,0,1-15.24-15.24V735.2l-10.25,10.25a15.25,15.25,0,0,1-21.55,0L745.5,732a15.25,15.25,0,0,1,0-21.55l10.25-10.25H741.25A15.25,15.25,0,0,1,726,684.94V665.88a15.25,15.25,0,0,1,15.24-15.24h14.49L745.5,640.4a15.25,15.25,0,0,1,0-21.55L759,605.37a15.25,15.25,0,0,1,21.55,0l10.25,10.25V601.13A15.25,15.25,0,0,1,806,585.89h19.06a15.25,15.25,0,0,1,15.24,15.24v14.49l10.25-10.25a15.26,15.26,0,0,1,21.55,0l13.48,13.48a15.25,15.25,0,0,1,0,21.55l-10.25,10.25h14.49a15.25,15.25,0,0,1,15.24,15.24v19.06a15.25,15.25,0,0,1-15.24,15.24H875.33l10.25,10.25a15.26,15.26,0,0,1,0,21.55l-13.48,13.48a15.26,15.26,0,0,1-21.55,0L840.3,735.2v14.49A15.25,15.25,0,0,1,825.06,764.93Zm-14.3-20h9.53V711.06A10,10,0,0,1,837.37,704l23.95,23.95,6.74-6.74-23.95-23.95a10,10,0,0,1,7.07-17.07h33.87v-9.53H851.18a10,10,0,0,1-7.07-17.07l23.95-23.95-6.74-6.74-23.95,23.95a10,10,0,0,1-17.07-7.07V605.89h-9.53v33.87a10,10,0,0,1-17.07,7.07l-23.95-23.95L763,629.62,787,653.57a10,10,0,0,1-7.07,17.07H746v9.53h33.87A10,10,0,0,1,787,697.25L763,721.2l6.74,6.74L793.7,704a10,10,0,0,1,17.07,7.07Zm79-74.28h0Z"/><g id="dark_cloud-2" data-name="dark cloud"><path class="cls-1" d="M549.17,235.75A108.92,108.92,0,0,0,407.82,80,108.92,108.92,0,0,0,213.65,81.6,108.91,108.91,0,0,0,69.35,235.75a108.91,108.91,0,0,0,49.54,205.89c.79,0,1.58,0,2.37,0a108.9,108.9,0,0,0,188,49.58,108.9,108.9,0,0,0,188-49.58c.79,0,1.57,0,2.37,0a108.91,108.91,0,0,0,49.54-205.89Z"/><path class="cls-2" d="M390.74,537.85a119,119,0,0,1-81.48-32.33,118.91,118.91,0,0,1-195.85-54A118.91,118.91,0,0,1,55.64,232.05,118.92,118.92,0,0,1,209.54,68.38a118.92,118.92,0,0,1,202.41-1.29,118.93,118.93,0,0,1,150.93,165,118.91,118.91,0,0,1-57.78,219.46,118.93,118.93,0,0,1-114.36,86.34Zm-81.48-56.66a10,10,0,0,1,7.48,3.36,98.9,98.9,0,0,0,170.74-45,10,10,0,0,1,10-7.93l2.15,0a98.91,98.91,0,0,0,45-187,10,10,0,0,1-3.85-14.31A98.92,98.92,0,0,0,412.39,88.91a10,10,0,0,1-13.44-4.28A98.92,98.92,0,0,0,222.6,86.06a10,10,0,0,1-13.79,4.28,98.91,98.91,0,0,0-131,140,10,10,0,0,1-3.85,14.31,98.91,98.91,0,0,0,45,187l2.15,0a10,10,0,0,1,10,7.93,98.9,98.9,0,0,0,170.74,45A10,10,0,0,1,309.26,481.19Z"/><path class="cls-3" d="M237.67,358.82A11,11,0,0,0,225.57,372a72.92,72.92,0,0,0,142.71,0,11,11,0,0,0-12.1-13.18c-17.43,2.3-46.82,5.91-59.25,5.91S255.1,361.11,237.67,358.82Z"/><circle class="cls-3" cx="416.06" cy="285.81" r="46.23"/><circle class="cls-3" cx="177.79" cy="285.81" r="46.23"/><circle class="cls-2" cx="482.55" cy="358.72" r="20.25"/><circle class="cls-2" cx="111.31" cy="358.72" r="20.25"/><ellipse class="cls-4" cx="296.93" cy="410.84" rx="18.59" ry="7.83"/><circle class="cls-5" cx="155.52" cy="274.55" r="7.84"/><circle class="cls-5" cx="391.18" cy="274.55" r="7.84"/></g></g></g></svg>