<svg xmlns="http://www.w3.org/2000/svg" viewBox="0 0 1106.58 1107.21"><defs><style>.cls-1{fill:#efdf6f;}.cls-2{fill:#edd440;}.cls-3{fill:#e6e6e6;}.cls-4{fill:#ccc;}.cls-5{fill:#333;}.cls-6{fill:#f2d7f4;}.cls-7{fill:#f2f2f2;}</style></defs><title>SNOWY-NIGHT</title><g id="Layer_2" data-name="Layer 2"><g id="NIGHT_SNOWY" data-name="NIGHT SNOWY"><path class="cls-1" d="M752.16,326C623.6,326,519.38,221.81,519.38,93.25A232.21,232.21,0,0,1,534.72,10C431.23,33.65,354,126.27,354,236.93c0,128.56,104.22,232.78,232.78,232.78,99.23,0,183.94-62.09,217.44-149.54A233.51,233.51,0,0,1,752.16,326Z"/><path class="cls-2" d="M586.79,479.72a242.79,242.79,0,0,1-189-395.16A243.76,243.76,0,0,1,532.49.25a10,10,0,0,1,11.57,13.33,223,223,0,0,0,50.57,237.2A221.32,221.32,0,0,0,752.16,316a224.07,224.07,0,0,0,49.84-5.6,10,10,0,0,1,11.57,13.33,242.86,242.86,0,0,1-226.78,156ZM519.24,24.59A222.89,222.89,0,0,0,364,236.93a222.82,222.82,0,0,0,423.63,96.51A245,245,0,0,1,752.16,336,242.78,242.78,0,0,1,509.38,93.25,242.21,242.21,0,0,1,519.24,24.59Z"/><path class="cls-2" d="M516.21,229.84c0,12.16-9.86,0-22,0s-22,12.16-22,0a22,22,0,1,1,44,0Z"/><circle class="cls-2" cx="546.76" cy="353.64" r="30.55"/><path class="cls-2" d="M441.93,229.84c0,12.16-9.86,0-22,0s-22,12.16-22,0a22,22,0,0,1,44,0Z"/><g id="dark_cloud" data-name="dark cloud"><path class="cls-3" d="M1037.23,566.77A108.92,108.92,0,0,0,895.88,411a108.92,108.92,0,0,0-194.17,1.58,108.91,108.91,0,0,0-144.3,154.16A108.91,108.91,0,0,0,607,772.66c.79,0,1.58,0,2.37,0a108.9,108.9,0,0,0,188,49.58,108.9,108.9,0,0,0,188-49.58c.79,0,1.57,0,2.37,0a108.91,108.91,0,0,0,49.54-205.89Z"/><path class="cls-4" d="M878.8,868.87a119,119,0,0,1-81.48-32.33,118.91,118.91,0,0,1-195.85-54A118.91,118.91,0,0,1,543.7,563.07,118.92,118.92,0,0,1,697.61,399.4,118.92,118.92,0,0,1,900,398.12a118.93,118.93,0,0,1,150.93,165,118.91,118.91,0,0,1-57.78,219.46A118.93,118.93,0,0,1,878.8,868.87Zm-81.48-56.67a10,10,0,0,1,7.48,3.36,98.9,98.9,0,0,0,170.74-45,10,10,0,0,1,10-7.93l2.15,0a98.91,98.91,0,0,0,45-187,10,10,0,0,1-3.85-14.31A98.92,98.92,0,0,0,900.45,419.93,10,10,0,0,1,887,415.65a98.92,98.92,0,0,0-176.34,1.44,10,10,0,0,1-13.79,4.28,98.91,98.91,0,0,0-131,140A10,10,0,0,1,562,575.68a98.91,98.91,0,0,0,45,187l2.15,0a10,10,0,0,1,10,7.93,98.9,98.9,0,0,0,170.74,45A10,10,0,0,1,797.32,812.21Z"/><path class="cls-5" d="M725.74,689.84A11,11,0,0,0,713.63,703a72.92,72.92,0,0,0,142.71,0,11,11,0,0,0-12.1-13.18c-17.43,2.3-46.82,5.91-59.25,5.91S743.17,692.14,725.74,689.84Z"/><circle class="cls-5" cx="904.13" cy="616.84" r="46.23"/><circle class="cls-5" cx="665.85" cy="616.84" r="46.23"/><circle class="cls-4" cx="970.61" cy="689.74" r="20.25"/><circle class="cls-4" cx="599.37" cy="689.74" r="20.25"/><ellipse class="cls-6" cx="784.99" cy="741.86" rx="18.59" ry="7.83"/><circle class="cls-7" cx="643.59" cy="605.58" r="7.84"/><circle class="cls-7" cx="879.24" cy="605.58" r="7.84"/></g><path class="cls-3" d="M386.61,1002.92H348l27.32-27.32a5.25,5.25,0,0,0,0-7.41l-13.48-13.48a5.25,5.25,0,0,0-7.41,0L327.09,982V943.41a5.25,5.25,0,0,0-5.24-5.24H302.8a5.25,5.25,0,0,0-5.24,5.24V982l-27.32-27.32a5.25,5.25,0,0,0-7.41,0L249.36,968.2a5.25,5.25,0,0,0,0,7.41l27.32,27.32H238a5.25,5.25,0,0,0-5.24,5.24v19.06a5.25,5.25,0,0,0,5.24,5.24h38.63l-27.32,27.32a5.25,5.25,0,0,0,0,7.41l13.48,13.48a5.25,5.25,0,0,0,7.41,0l27.32-27.32V1092a5.25,5.25,0,0,0,5.24,5.24h19.06a5.25,5.25,0,0,0,5.24-5.24v-38.63l27.32,27.32a5.25,5.25,0,0,0,7.41,0l13.48-13.48a5.25,5.25,0,0,0,0-7.41L348,1032.46h38.63a5.25,5.25,0,0,0,5.24-5.24v-19.06A5.25,5.25,0,0,0,386.61,1002.92Z"/><path class="cls-4" d="M321.86,1107.21H302.8A15.25,15.25,0,0,1,287.56,1092v-14.49l-10.25,10.25a15.26,15.26,0,0,1-21.55,0l-13.48-13.48a15.26,15.26,0,0,1,0-21.55l10.25-10.25H238a15.25,15.25,0,0,1-15.24-15.24v-19.06A15.25,15.25,0,0,1,238,992.92h14.49l-10.25-10.25a15.26,15.26,0,0,1,0-21.55l13.48-13.48a15.26,15.26,0,0,1,21.55,0l10.25,10.25V943.41a15.25,15.25,0,0,1,15.24-15.24h19.06a15.25,15.25,0,0,1,15.24,15.24V957.9l10.25-10.25a15.25,15.25,0,0,1,21.55,0l13.48,13.48a15.25,15.25,0,0,1,0,21.55l-10.25,10.25h14.49a15.25,15.25,0,0,1,15.24,15.24v19.06a15.25,15.25,0,0,1-15.24,15.24H372.12l10.25,10.25a15.26,15.26,0,0,1,0,21.55l-13.48,13.48a15.25,15.25,0,0,1-21.55,0l-10.25-10.25V1092A15.25,15.25,0,0,1,321.86,1107.21Zm-14.3-20h9.53v-33.87a10,10,0,0,1,17.07-7.07l23.95,23.95,6.74-6.74-23.95-23.95a10,10,0,0,1,7.07-17.07h33.87v-9.53H348a10,10,0,0,1-7.07-17.07l23.95-23.95-6.74-6.74-23.95,23.95A10,10,0,0,1,317.09,982V948.17h-9.53V982a10,10,0,0,1-17.07,7.07l-23.95-23.95-6.74,6.74,23.95,23.95a10,10,0,0,1-7.07,17.07H242.81v9.53h33.87a10,10,0,0,1,7.07,17.07l-23.95,23.95,6.74,6.74,23.95-23.95a10,10,0,0,1,17.07,7.07Zm79-74.28h0Z"/><path class="cls-3" d="M638.21,1002.92H599.58l27.32-27.32a5.25,5.25,0,0,0,0-7.41l-13.48-13.48a5.25,5.25,0,0,0-7.41,0L578.7,982V943.41a5.25,5.25,0,0,0-5.24-5.24H554.4a5.25,5.25,0,0,0-5.24,5.24V982l-27.32-27.32a5.25,5.25,0,0,0-7.41,0L501,968.2a5.25,5.25,0,0,0,0,7.41l27.32,27.32H489.65a5.25,5.25,0,0,0-5.24,5.24v19.06a5.25,5.25,0,0,0,5.24,5.24h38.63L501,1059.77a5.25,5.25,0,0,0,0,7.41l13.48,13.48a5.25,5.25,0,0,0,7.41,0l27.32-27.32V1092a5.25,5.25,0,0,0,5.24,5.24h19.06a5.25,5.25,0,0,0,5.24-5.24v-38.63L606,1080.66a5.25,5.25,0,0,0,7.41,0l13.48-13.48a5.25,5.25,0,0,0,0-7.41l-27.32-27.32h38.63a5.25,5.25,0,0,0,5.24-5.24v-19.06A5.25,5.25,0,0,0,638.21,1002.92Z"/><path class="cls-4" d="M573.46,1107.21H554.4A15.25,15.25,0,0,1,539.17,1092v-14.49l-10.25,10.25a15.25,15.25,0,0,1-21.55,0l-13.48-13.48a15.25,15.25,0,0,1,0-21.55l10.25-10.25H489.65a15.25,15.25,0,0,1-15.24-15.24v-19.06a15.25,15.25,0,0,1,15.24-15.24h14.49l-10.25-10.25a15.26,15.26,0,0,1,0-21.55l13.48-13.48a15.25,15.25,0,0,1,21.55,0l10.25,10.25V943.41a15.25,15.25,0,0,1,15.24-15.24h19.06a15.25,15.25,0,0,1,15.24,15.24V957.9l10.25-10.25a15.26,15.26,0,0,1,21.55,0L634,961.13a15.25,15.25,0,0,1,0,21.55l-10.25,10.25h14.49a15.25,15.25,0,0,1,15.24,15.24v19.06a15.25,15.25,0,0,1-15.24,15.24H623.72L634,1052.7a15.26,15.26,0,0,1,0,21.55l-13.48,13.48a15.25,15.25,0,0,1-21.55,0l-10.25-10.25V1092A15.25,15.25,0,0,1,573.46,1107.21Zm-14.3-20h9.53v-33.87a10,10,0,0,1,17.07-7.07l23.95,23.95,6.74-6.74-23.95-23.95a10,10,0,0,1,7.07-17.07h33.87v-9.53H599.58a10,10,0,0,1-7.07-17.07l23.95-23.95-6.74-6.74-23.95,23.95A10,10,0,0,1,568.7,982V948.17h-9.53V982a10,10,0,0,1-17.07,7.07l-23.95-23.95-6.74,6.74,23.95,23.95a10,10,0,0,1-7.07,17.07H494.41v9.53h33.87a10,10,0,0,1,7.07,17.07l-23.95,23.95,6.74,6.74,23.95-23.95a10,10,0,0,1,17.07,7.07Zm79-74.28h0Z"/><path class="cls-3" d="M889.82,1002.92H851.18l27.32-27.32a5.25,5.25,0,0,0,0-7.41L865,954.73a5.25,5.25,0,0,0-7.41,0L830.3,982V943.41a5.25,5.25,0,0,0-5.24-5.24H806a5.25,5.25,0,0,0-5.24,5.24V982l-27.32-27.32a5.25,5.25,0,0,0-7.41,0L752.57,968.2a5.25,5.25,0,0,0,0,7.41l27.32,27.32H741.25a5.25,5.25,0,0,0-5.24,5.24v19.06a5.25,5.25,0,0,0,5.24,5.24h38.63l-27.32,27.32a5.25,5.25,0,0,0,0,7.41L766,1080.66a5.25,5.25,0,0,0,7.41,0l27.32-27.32V1092a5.25,5.25,0,0,0,5.24,5.24h19.06a5.25,5.25,0,0,0,5.24-5.24v-38.63l27.32,27.32a5.25,5.25,0,0,0,7.41,0l13.48-13.48a5.25,5.25,0,0,0,0-7.41l-27.32-27.32h38.63a5.25,5.25,0,0,0,5.24-5.24v-19.06A5.25,5.25,0,0,0,889.82,1002.92Z"/><path class="cls-4" d="M825.06,1107.21H806A15.25,15.25,0,0,1,790.77,1092v-14.49l-10.25,10.25a15.25,15.25,0,0,1-21.55,0l-13.48-13.48a15.26,15.26,0,0,1,0-21.55l10.25-10.25H741.25A15.25,15.25,0,0,1,726,1027.22v-19.06a15.25,15.25,0,0,1,15.24-15.24h14.49L745.5,982.68a15.26,15.26,0,0,1,0-21.55L759,947.65a15.26,15.26,0,0,1,21.55,0l10.25,10.25V943.41A15.25,15.25,0,0,1,806,928.17h19.06a15.25,15.25,0,0,1,15.24,15.24V957.9l10.25-10.25a15.25,15.25,0,0,1,21.55,0l13.48,13.48a15.25,15.25,0,0,1,0,21.55l-10.25,10.25h14.49a15.25,15.25,0,0,1,15.24,15.24v19.06a15.25,15.25,0,0,1-15.24,15.24H875.33l10.25,10.25a15.26,15.26,0,0,1,0,21.55l-13.48,13.48a15.25,15.25,0,0,1-21.55,0l-10.25-10.25V1092A15.25,15.25,0,0,1,825.06,1107.21Zm-14.3-20h9.53v-33.87a10,10,0,0,1,17.07-7.07l23.95,23.95,6.74-6.74-23.95-23.95a10,10,0,0,1,7.07-17.07h33.87v-9.53H851.18a10,10,0,0,1-7.07-17.07l23.95-23.95-6.74-6.74-23.95,23.95A10,10,0,0,1,820.3,982V948.17h-9.53V982a10,10,0,0,1-17.07,7.07l-23.95-23.95L763,971.9,787,995.85a10,10,0,0,1-7.07,17.07H746v9.53h33.87a10,10,0,0,1,7.07,17.07L763,1063.48l6.74,6.74,23.95-23.95a10,10,0,0,1,17.07,7.07Zm79-74.28h0Z"/><g id="dark_cloud-2" data-name="dark cloud"><path class="cls-3" d="M549.17,578A108.92,108.92,0,0,0,407.82,422.3a108.92,108.92,0,0,0-194.17,1.58A108.91,108.91,0,0,0,69.35,578a108.91,108.91,0,0,0,49.54,205.89c.79,0,1.58,0,2.37,0a108.9,108.9,0,0,0,188,49.58,108.9,108.9,0,0,0,188-49.58c.79,0,1.57,0,2.37,0A108.91,108.91,0,0,0,549.17,578Z"/><path class="cls-4" d="M390.74,880.13a119,119,0,0,1-81.48-32.33,118.91,118.91,0,0,1-195.85-54A118.91,118.91,0,0,1,55.64,574.33a118.92,118.92,0,0,1,153.9-163.67A118.92,118.92,0,0,1,412,409.37a118.93,118.93,0,0,1,150.93,165,118.91,118.91,0,0,1-57.78,219.46,118.93,118.93,0,0,1-114.36,86.34Zm-81.48-56.67a10,10,0,0,1,7.48,3.36,98.9,98.9,0,0,0,170.74-45,10,10,0,0,1,10-7.93l2.15,0a98.91,98.91,0,0,0,45-187,10,10,0,0,1-3.85-14.31A98.92,98.92,0,0,0,412.39,431.19a10,10,0,0,1-13.44-4.28,98.92,98.92,0,0,0-176.34,1.44,10,10,0,0,1-13.79,4.28,98.91,98.91,0,0,0-131,140,10,10,0,0,1-3.85,14.31,98.91,98.91,0,0,0,45,187l2.15,0a10,10,0,0,1,10,7.93,98.9,98.9,0,0,0,170.74,45A10,10,0,0,1,309.26,823.47Z"/><path class="cls-5" d="M237.67,701.1a11,11,0,0,0-12.1,13.18,72.92,72.92,0,0,0,142.71,0,11,11,0,0,0-12.1-13.18c-17.43,2.3-46.82,5.91-59.25,5.91S255.1,703.4,237.67,701.1Z"/><circle class="cls-5" cx="416.07" cy="628.09" r="46.23"/><circle class="cls-5" cx="177.79" cy="628.09" r="46.23"/><circle class="cls-4" cx="482.55" cy="701" r="20.25"/><circle class="cls-4" cx="111.31" cy="701" r="20.25"/><ellipse class="cls-6" cx="296.93" cy="753.12" rx="18.59" ry="7.83"/><circle class="cls-7" cx="155.52" cy="616.84" r="7.84"/><circle class="cls-7" cx="391.18" cy="616.84" r="7.84"/></g></g></g></svg>