<svg xmlns="http://www.w3.org/2000/svg" viewBox="0 0 485.57 485.57"><defs><style>.cls-1{fill:#fcee21;}.cls-2{fill:#fbb03b;}</style></defs><title>SUNNY</title><g id="Layer_2" data-name="Layer 2"><g id="SUNNY"><circle class="cls-1" cx="242.78" cy="242.78" r="232.78"/><path class="cls-2" d="M242.78,485.57A242.78,242.78,0,0,1,71.11,71.11,242.78,242.78,0,0,1,414.46,414.46,241.19,241.19,0,0,1,242.78,485.57Zm0-465.57A222.78,222.78,0,0,0,85.25,400.32,222.78,222.78,0,0,0,400.32,85.25,221.32,221.32,0,0,0,242.78,20Z"/><path class="cls-2" d="M347.63,194.54c0,15.38-12.46,0-27.84,0s-27.84,15.38-27.84,0a27.84,27.84,0,1,1,55.68,0Z"/><path class="cls-2" d="M297.69,322.19a12.76,12.76,0,0,1,15.16,15.89,72.93,72.93,0,0,1-140.14,0,12.76,12.76,0,0,1,15.16-15.89c17.63,4.05,43.46,9.5,54.91,9.5S280.06,326.24,297.69,322.19Z"/><ellipse class="cls-1" cx="242.78" cy="377.84" rx="18.59" ry="7.83"/><path class="cls-2" d="M193.62,194.54c0,15.38-12.46,0-27.84,0s-27.84,15.38-27.84,0a27.84,27.84,0,1,1,55.68,0Z"/></g></g></svg>