<?xml version="1.0" encoding="utf-8"?>
<!-- Generator: Adobe Illustrator 21.0.0, SVG Export Plug-In . SVG Version: 6.00 Build 0)  -->
<svg version="1.1" id="Layer_1" xmlns="http://www.w3.org/2000/svg" xmlns:xlink="http://www.w3.org/1999/xlink" x="0px" y="0px"
	 viewBox="0 0 385.3 995.8" style="enable-background:new 0 0 385.3 995.8;" xml:space="preserve">
<style type="text/css">
	.st0{fill:#E5DFCF;}
	.st1{fill:#F9F4E4;}
	.st2{fill:#1A1A1A;}
	.st3{fill:#333333;}
	.st4{fill:#CCCCCC;}
	.st5{fill:none;stroke:#CCCCCC;stroke-width:2;stroke-miterlimit:10;}
	.st6{fill:#A8945D;}
	.st7{fill:#BCA866;}
	.st8{fill:#D5A940;}
	.st9{fill:#EACE76;}
	.st10{fill:#999999;}
	.st11{fill:#F9F4E4;stroke:#C1BCB2;stroke-width:2;stroke-miterlimit:10;}
	.st12{fill:#4D4D4D;}
	.st13{fill:#666666;}
	.st14{fill:#808080;}
	.st15{fill:#F7E6A4;}
	.st16{fill:#C9961A;}
	.st17{fill:#E0CDA6;}
	.st18{fill:#F2E3C2;}
	.st19{fill:none;stroke:#E6E6E6;stroke-width:0.5;stroke-linecap:round;stroke-miterlimit:10;}
</style>
<title>Asset 15</title>
<g id="Layer_2">
	<g id="_1967_Gibson_SG_Custom_white_rosewood_">
		<g id="Back">
			<path class="st0" d="M321.7,729.9c0-49.7,61.4-97.7-22.3-181.4c-1.8-1.8-8.8-3-9.9,2.4c-2.6,13-4.3,39.7-28.8,39.7
				c-30.1,0-37.8-33.3-37.8-33.3l-24.7,5.6v-16.7h-29.3c0,0-4.9,28.8-36.7,28.8c-26,0-30.6-26.6-33.4-40.1c-1.2-5.6-5.7-5.5-7.6-3.6
				C2.6,618.2,67.6,668.1,67.6,719.7C67.6,779.4,1,792.2,1,886.1c0,109.7,197.2,109.7,197.2,109.7s186.4,0.1,186.4-105.6
				C384.6,799.8,321.7,787.4,321.7,729.9z"/>
		</g>
		<g id="Front">
			<path class="st1" d="M318.1,728.6c0-49.3,60.9-97.1-22.2-180.2c-1.8-1.8-6-1.9-7.1,3.5c-2.6,12.9-7,38.4-31.3,38.4
				c-29.8,0-34.4-27.5-34.4-27.5h-27.5v-16.5h-29.1c0,0-4.8,28.6-36.4,28.6c-25.8,0-30.4-26.5-33.1-39.8c-1.2-5.6-5.6-5.4-7.5-3.6
				C1.6,617.6,66,667.2,66,718.5c0,59.3-66,72.1-66,165.3c0,109,195.6,109,195.6,109s184.9,0.1,184.9-104.9
				C380.6,798,318.1,785.8,318.1,728.6z"/>
		</g>
		<polygon id="Fretboard" class="st2" points="212.4,129.4 174.2,129.4 164.2,577.2 225.1,577.2 		"/>
		<polygon id="Fretboard-2" class="st3" points="210.4,129.4 174.2,129.4 161.2,577.2 223.4,577.2 		"/>
		<path class="st4" d="M175,544.1h37.8c0.6,0,1,0.4,1,1v4.2c0,0.6-0.4,1-1,1H175c-0.6,0-1-0.4-1-1v-4.2
			C174,544.6,174.5,544.1,175,544.1z"/>
		<path class="st4" d="M175,518.8h37.8c0.6,0,1,0.4,1,1v4.2c0,0.6-0.4,1-1,1H175c-0.6,0-1-0.4-1-1v-4.2
			C174,519.3,174.5,518.8,175,518.8z"/>
		<path class="st4" d="M175,491.1h37.8c0.6,0,1,0.4,1,1v4.2c0,0.6-0.4,1-1,1H175c-0.6,0-1-0.4-1-1v-4.2
			C174,491.6,174.5,491.1,175,491.1z"/>
		<path class="st4" d="M175,461.1h37.8c0.6,0,1,0.4,1,1v4.2c0,0.6-0.4,1-1,1H175c-0.6,0-1-0.4-1-1v-4.2
			C174,461.6,174.5,461.1,175,461.1z"/>
		<path class="st4" d="M174.3,407.2h36.1c0.6,0,1,0.4,1,1v9c0,0.6-0.4,1-1,1h-36.1c-0.6,0-1-0.4-1-1v-9
			C173.3,407.7,173.7,407.2,174.3,407.2z"/>
		<path class="st4" d="M177,346.5h30.6c0.6,0,1,0.4,1,1v10.8c0,0.6-0.4,1-1,1H177c-0.6,0-1-0.4-1-1v-10.8
			C176,347,176.5,346.5,177,346.5z"/>
		<path class="st4" d="M178.2,300h28.3c0.6,0,1,0.4,1,1v13.8c0,0.6-0.4,1-1,1h-28.3c-0.6,0-1-0.4-1-1V301
			C177.2,300.5,177.6,300,178.2,300z"/>
		<path class="st4" d="M180.2,250.5h24.2c0.6,0,1,0.4,1,1V267c0,0.6-0.4,1-1,1h-24.2c-0.6,0-1-0.4-1-1v-15.5
			C179.2,250.9,179.7,250.5,180.2,250.5z"/>
		<path class="st4" d="M182.2,195.1h20.3c0.6,0,1,0.4,1,1v19c0,0.6-0.4,1-1,1h-20.3c-0.6,0-1-0.4-1-1v-19
			C181.2,195.5,181.6,195.1,182.2,195.1z"/>
		<path class="st4" d="M183.2,134h18.3c0.6,0,1,0.4,1,1v20.7c0,0.6-0.4,1-1,1h-18.3c-0.6,0-1-0.4-1-1V135
			C182.2,134.4,182.6,134,183.2,134z"/>
		<line class="st5" x1="161.9" y1="553.4" x2="222.7" y2="553.4"/>
		<line class="st5" x1="162.3" y1="540.8" x2="222.3" y2="540.8"/>
		<line class="st5" x1="162.7" y1="528.3" x2="222" y2="528.3"/>
		<line class="st5" x1="163" y1="515.5" x2="221.6" y2="515.5"/>
		<line class="st5" x1="163.4" y1="501.4" x2="221.2" y2="501.4"/>
		<line class="st5" x1="163.9" y1="487.1" x2="220.9" y2="487.1"/>
		<line class="st5" x1="164.2" y1="472.2" x2="220.4" y2="472.2"/>
		<line class="st5" x1="164.7" y1="456.4" x2="219.9" y2="456.4"/>
		<line class="st5" x1="165.2" y1="439" x2="219.4" y2="439"/>
		<line class="st5" x1="165.7" y1="421.9" x2="218.9" y2="421.9"/>
		<line class="st5" x1="166.3" y1="403.6" x2="218.4" y2="403.6"/>
		<line class="st5" x1="166.8" y1="384.3" x2="217.8" y2="384.3"/>
		<line class="st5" x1="167.4" y1="363.4" x2="217.2" y2="363.4"/>
		<line class="st5" x1="168" y1="342.2" x2="216.6" y2="342.2"/>
		<line class="st5" x1="168.7" y1="319.6" x2="215.9" y2="319.6"/>
		<line class="st5" x1="169.4" y1="296.2" x2="215.3" y2="296.2"/>
		<line class="st5" x1="170.1" y1="272" x2="214.6" y2="272"/>
		<line class="st5" x1="170.8" y1="246.3" x2="213.8" y2="246.3"/>
		<line class="st5" x1="171.6" y1="219.6" x2="213.1" y2="219.6"/>
		<line class="st5" x1="172.4" y1="191.5" x2="212.2" y2="191.5"/>
		<line class="st5" x1="173.2" y1="162.2" x2="211.4" y2="162.2"/>
		<line class="st5" x1="161.3" y1="576.1" x2="223.4" y2="576.1"/>
		<line class="st5" x1="161.6" y1="564.8" x2="223" y2="564.8"/>
		<path class="st6" d="M162.5,17.1l-7.3-7.1c-0.6-0.6-1.4-0.8-2.1-0.6l-12.9,3c-1,0.2-1.8,1.2-1.8,2.2V23c0,1.1,0.7,2,1.8,2.2
			l12.9,3c0.8,0.2,1.6,0,2.1-0.6l7.3-7.2C163.4,19.6,163.4,18.1,162.5,17.1C162.5,17.2,162.5,17.2,162.5,17.1z"/>
		<path class="st6" d="M163.5,50l-7.3-7.2c-0.6-0.6-1.4-0.8-2.1-0.6l-12.9,3c-1,0.2-1.8,1.2-1.8,2.2v8.4c0,1.1,0.7,2,1.8,2.2l12.9,3
			c0.8,0.2,1.6,0,2.1-0.6l7.3-7.2C164.4,52.4,164.4,50.9,163.5,50C163.5,50,163.5,50,163.5,50z"/>
		<path class="st6" d="M162.5,78.9l-7.3-7.2c-0.6-0.6-1.4-0.8-2.1-0.6l-12.9,3c-1,0.2-1.8,1.2-1.8,2.2v8.4c0,1.1,0.7,2,1.8,2.3
			l12.9,3c0.8,0.2,1.6,0,2.1-0.6l7.3-7.2C163.4,81.3,163.4,79.9,162.5,78.9C162.5,78.9,162.5,78.9,162.5,78.9z"/>
		<path class="st6" d="M225.2,20.4l7.3,7.2c0.6,0.6,1.4,0.8,2.1,0.6l12.9-3c1-0.2,1.8-1.2,1.8-2.2v-8.4c0-1.1-0.7-2-1.8-2.2l-12.9-3
			c-0.8-0.2-1.6,0-2.1,0.6l-7.3,7.2C224.3,18,224.3,19.5,225.2,20.4C225.2,20.4,225.2,20.4,225.2,20.4z"/>
		<path class="st6" d="M223.3,53.3l7.3,7.2c0.6,0.6,1.4,0.8,2.1,0.6l12.9-3c1-0.2,1.8-1.2,1.8-2.2v-8.4c0-1.1-0.7-2-1.8-2.2l-12.9-3
			c-0.8-0.2-1.6,0-2.1,0.6l-7.3,7.2C222.4,50.9,222.4,52.3,223.3,53.3C223.3,53.3,223.3,53.3,223.3,53.3z"/>
		<path class="st6" d="M225.1,82.2l7.3,7.2c0.6,0.6,1.4,0.8,2.1,0.6l12.9-3c1-0.2,1.8-1.2,1.8-2.2v-8.4c0-1.1-0.7-2-1.8-2.2l-12.9-3
			c-0.8-0.2-1.6,0-2.1,0.6l-7.3,7.2C224.2,79.8,224.2,81.3,225.1,82.2C225.1,82.2,225.1,82.2,225.1,82.2z"/>
		<g id="Headstock">
			<path d="M194.2,3.2c-6.7-6.7-15.7-1.1-20.2,0.7c-4.1,1.6-13.4,0-13.4,0c-0.9,0-1.7,0.7-1.7,1.7c0,0.1,0,0.3,0,0.4
				c2,8,8.3,39.4,1.5,90c-1.2,9.2,15.6-6.2,15.6,33.5h36.4c0-39.8,16.9-24.1,15.6-33.5c-6.8-50.6-0.5-82,1.5-90
				c0.2-0.9-0.3-1.8-1.2-2c-0.1,0-0.3,0-0.4,0c0,0-9.4,1.6-13.4,0C209.9,2.1,200.9-3.5,194.2,3.2L194.2,3.2z"/>
		</g>
		<g id="Headstock-2">
			<path class="st2" d="M175.2,128.4c-0.2-26.5-8.2-28.4-13-29.6c-2.3-0.6-2.9-0.7-2.6-2.8c6.8-50.6,0.6-82-1.5-90.4
				c-0.1-0.2,0-0.4,0.1-0.6c0.1-0.1,0.3-0.2,0.5-0.2c2.7,0.4,5.5,0.7,8.2,0.7c1.9,0.1,3.8-0.2,5.7-0.8c0.6-0.2,1.3-0.6,2.1-0.9
				c2.8-1.3,6.4-2.9,10-2.9c2.6,0,5.2,1,7,2.9l0.7,0.7L193,4c1.8-1.9,4.4-3,7-3c3.6,0,7.1,1.6,10,2.9c0.8,0.4,1.5,0.7,2.1,0.9
				c1.8,0.6,3.7,0.9,5.7,0.8c2.8,0,5.5-0.3,8.2-0.7c0.2,0,0.3,0.1,0.5,0.2c0.1,0.2,0.2,0.4,0.1,0.6c-2.1,8.4-8.3,39.8-1.5,90.4
				c0.3,2.2-0.4,2.4-2.7,2.9c-4.8,1.1-12.8,3-13,29.5H175.2z"/>
			<path class="st7" d="M200,2c3.4,0,6.8,1.5,9.6,2.8c0.8,0.3,1.5,0.7,2.2,0.9c1.9,0.6,4,0.9,6,0.9c2.6,0,5.2-0.2,7.7-0.6
				c-2.2,9.2-8.1,40.5-1.4,90.2c0.2,1.3,0.2,1.3-1.9,1.8c-6.5,1.5-13.4,5.2-13.8,29.5h-32.2c-0.4-24.3-7.3-28-13.8-29.5
				c-0.6-0.1-1.3-0.3-1.9-0.6c-0.1-0.4-0.1-0.7,0-1.1c6.7-49.8,0.8-81-1.4-90.2c2.5,0.4,5.1,0.6,7.7,0.6c2,0.1,4.1-0.2,6-0.9
				c0.7-0.3,1.4-0.6,2.1-0.9c2.8-1.2,6.2-2.8,9.6-2.8c2.4,0,4.7,0.9,6.3,2.6l1.4,1.4l1.4-1.4C195.4,2.9,197.6,2,200,2 M200,0
				c-2.9,0-5.7,1.1-7.7,3.2l0,0c-2-2.1-4.8-3.2-7.7-3.2c-4.8,0-9.6,2.7-12.5,3.9c-1.7,0.5-3.5,0.8-5.3,0.7c-2.7,0-5.5-0.3-8.2-0.7
				c-0.9,0-1.7,0.7-1.7,1.6c0,0.1,0,0.3,0,0.4c2,8,8.3,39.4,1.5,90c-1.2,9.2,15.7-6.2,15.7,33.5h36.3c0-39.8,16.9-24.1,15.7-33.5
				c-6.8-50.6-0.5-82,1.5-90c0.2-0.9-0.3-1.8-1.2-2c-0.1,0-0.2,0-0.4,0c-2.7,0.4-5.4,0.7-8.2,0.7c-1.8,0.1-3.6-0.2-5.3-0.7
				C209.6,2.7,204.8,0,200,0z"/>
		</g>
		<circle class="st8" cx="172.2" cy="53.3" r="5.1"/>
		<path class="st9" d="M172.2,45.9L172.2,45.9c1.4,0,2.5,1.1,2.5,2.5v4.1c0,1.4-1.1,2.5-2.5,2.5l0,0c-1.4,0-2.5-1.1-2.5-2.5v-4.1
			C169.7,47,170.8,45.9,172.2,45.9z"/>
		<circle class="st8" cx="172.2" cy="50.4" r="0.8"/>
		<circle class="st8" cx="172.2" cy="20.6" r="5.1"/>
		<path class="st9" d="M172.2,13.2L172.2,13.2c1.4,0,2.5,1.1,2.5,2.5v4.1c0,1.4-1.1,2.5-2.5,2.5l0,0c-1.4,0-2.5-1.1-2.5-2.5v-4.1
			C169.7,14.4,170.8,13.2,172.2,13.2z"/>
		<circle class="st8" cx="172.2" cy="17.8" r="0.8"/>
		<circle class="st8" cx="172.2" cy="86.8" r="5.1"/>
		<path class="st9" d="M172.2,79.4L172.2,79.4c1.4,0,2.5,1.1,2.5,2.5V86c0,1.4-1.1,2.5-2.5,2.5l0,0c-1.4,0-2.5-1.1-2.5-2.5v-4.1
			C169.7,80.6,170.8,79.4,172.2,79.4z"/>
		<circle class="st8" cx="172.2" cy="84" r="0.8"/>
		<circle class="st8" cx="212.4" cy="20.6" r="5.1"/>
		<path class="st9" d="M212.4,13.2L212.4,13.2c1.4,0,2.5,1.1,2.5,2.5v4.1c0,1.4-1.1,2.5-2.5,2.5l0,0c-1.4,0-2.5-1.1-2.5-2.5v-4.1
			C209.9,14.4,211.1,13.2,212.4,13.2z"/>
		<circle class="st8" cx="212.4" cy="17.8" r="0.8"/>
		<circle class="st8" cx="212.4" cy="53.3" r="5.1"/>
		<path class="st9" d="M212.4,45.9L212.4,45.9c1.4,0,2.5,1.1,2.5,2.5v4.1c0,1.4-1.1,2.5-2.5,2.5l0,0c-1.4,0-2.5-1.1-2.5-2.5v-4.1
			C209.9,47,211.1,45.9,212.4,45.9z"/>
		<circle class="st8" cx="212.4" cy="50.4" r="0.8"/>
		<circle class="st8" cx="212.4" cy="86.8" r="5.1"/>
		<path class="st9" d="M212.4,79.4L212.4,79.4c1.4,0,2.5,1.1,2.5,2.5V86c0,1.4-1.1,2.5-2.5,2.5l0,0c-1.4,0-2.5-1.1-2.5-2.5v-4.1
			C209.9,80.6,211.1,79.4,212.4,79.4z"/>
		<circle class="st8" cx="212.4" cy="84" r="0.8"/>
		<polygon class="st4" points="210.5,131.4 174.2,131.4 174.2,129.4 210.5,129.4 		"/>
		<polygon class="st10" points="210.5,129.4 212.4,129.4 212.5,131.3 210.5,131.4 		"/>
		<path class="st11" d="M160.8,577.2h62.7c0.7,0,1.4,0.4,1.8,1c3.4,6.2,22.1,38.5,49.2,38.5c30.8,0,21.5-31.8,28.2-25.1
			c35.6,35.6-5.5,91.7-5.5,137.2c0,15.4,6.4,30.1,13.8,43.6c2.5,4.5,4.5,9.1,4.5,11.6c0,9.2-27.6,4.5-36.9,0
			c-15.8-7.6-35.4-13.3-68.8-13.3c-32,0-46.4,12.2-62.1,15.4c-8.8,1.8-38.1,3.5-35.4-4.9c5.8-17.9,12.3-73.2,12.3-99.5
			c0-53.1-32.7-72.8-13.9-72.8c40.9,0,47.2-23.3,48.1-29.9C159,577.9,159.8,577.2,160.8,577.2z"/>
		<ellipse class="st12" cx="129.6" cy="725.1" rx="2.3" ry="2.2"/>
		<circle class="st13" cx="129.5" cy="725.1" r="2.2"/>
		<path class="st14" d="M128.1,724.2l3,1.3c0.1,0,0.1,0.1,0.1,0.2l0,0c0,0.1-0.1,0.1-0.2,0.1l-3-1.3c-0.1,0-0.1-0.1-0.1-0.2l0,0
			C127.9,724.2,128,724.2,128.1,724.2z"/>
		<path class="st14" d="M128.7,726.6l1.3-3c0-0.1,0.1-0.1,0.2-0.1l0,0c0.1,0,0.1,0.1,0.1,0.2l-1.3,3c0,0.1-0.1,0.1-0.2,0.1l0,0
			C128.7,726.8,128.7,726.7,128.7,726.6z"/>
		<ellipse class="st12" cx="150.5" cy="719.6" rx="2.3" ry="2.2"/>
		<circle class="st13" cx="150.4" cy="719.6" r="2.2"/>
		<path class="st14" d="M148.7,719.4h3.3c0.1,0,0.1,0.1,0.1,0.2v0c0,0.1-0.1,0.2-0.1,0.2h-3.3c-0.1,0-0.1-0.1-0.1-0.2v0
			C148.6,719.4,148.6,719.4,148.7,719.4z"/>
		<path class="st14" d="M150.2,721.2v-3.3c0-0.1,0.1-0.1,0.2-0.1h0c0.1,0,0.2,0.1,0.2,0.1v3.3c0,0.1-0.1,0.1-0.2,0.1h0
			C150.3,721.4,150.2,721.3,150.2,721.2z"/>
		<ellipse class="st12" cx="129.9" cy="669.1" rx="2.3" ry="2.2"/>
		<circle class="st13" cx="129.8" cy="669.1" r="2.2"/>
		<path class="st14" d="M128.1,668.9h3.3c0.1,0,0.1,0.1,0.1,0.2v0c0,0.1-0.1,0.2-0.1,0.2h-3.3c-0.1,0-0.2-0.1-0.2-0.2v0
			C128,669,128,668.9,128.1,668.9z"/>
		<path class="st14" d="M129.6,670.8v-3.3c0-0.1,0.1-0.1,0.2-0.1h0c0.1,0,0.2,0.1,0.2,0.1v3.3c0,0.1-0.1,0.2-0.2,0.2h0
			C129.7,670.9,129.6,670.8,129.6,670.8z"/>
		<ellipse class="st12" cx="150.5" cy="669.6" rx="2.3" ry="2.2"/>
		<circle class="st13" cx="150.4" cy="669.6" r="2.2"/>
		<path class="st14" d="M149,668.6l2.9,1.6c0.1,0,0.1,0.1,0.1,0.2l0,0c0,0.1-0.1,0.1-0.2,0.1l-2.9-1.6c-0.1,0-0.1-0.1-0.1-0.2l0,0
			C148.8,668.6,148.9,668.6,149,668.6z"/>
		<path class="st14" d="M149.4,671l1.6-2.9c0-0.1,0.1-0.1,0.2-0.1l0,0c0.1,0,0.1,0.1,0.1,0.2l-1.6,2.9c0,0.1-0.1,0.1-0.2,0.1l0,0
			C149.4,671.2,149.4,671.1,149.4,671z"/>
		<ellipse class="st12" cx="114" cy="616.5" rx="2.3" ry="2.2"/>
		<circle class="st13" cx="113.9" cy="616.5" r="2.2"/>
		<path class="st14" d="M112.8,615.2l2.4,2.3c0.1,0.1,0.1,0.2,0,0.2l0,0c-0.1,0.1-0.2,0.1-0.2,0l-2.4-2.3c-0.1-0.1-0.1-0.2,0-0.2
			l0,0C112.7,615.1,112.7,615.1,112.8,615.2z"/>
		<path class="st14" d="M112.6,617.6l2.3-2.4c0.1-0.1,0.2-0.1,0.2,0l0,0c0.1,0.1,0.1,0.2,0,0.2l-2.3,2.4c-0.1,0.1-0.2,0.1-0.2,0l0,0
			C112.6,617.8,112.6,617.7,112.6,617.6z"/>
		<ellipse class="st12" cx="150.5" cy="619.6" rx="2.3" ry="2.2"/>
		<circle class="st13" cx="150.4" cy="619.6" r="2.2"/>
		<path class="st14" d="M148.9,620.2l2.9-1.6c0.1,0,0.2,0,0.2,0.1l0,0c0,0.1,0,0.2-0.1,0.2l-2.9,1.6c-0.1,0-0.2,0-0.2-0.1l0,0
			C148.8,620.3,148.8,620.2,148.9,620.2z"/>
		<path class="st14" d="M151,621.1l-1.6-2.9c0-0.1,0-0.2,0.1-0.2l0,0c0.1,0,0.2,0,0.2,0.1l1.6,2.9c0,0.1,0,0.2-0.1,0.2l0,0
			C151.1,621.2,151.1,621.2,151,621.1z"/>
		<ellipse class="st12" cx="163.6" cy="584.2" rx="2.3" ry="2.2"/>
		<circle class="st13" cx="163.5" cy="584.2" r="2.2"/>
		<path class="st14" d="M162.2,583.1l2.7,1.9c0.1,0,0.1,0.1,0,0.2l0,0c0,0.1-0.1,0.1-0.2,0l-2.7-1.9c-0.1,0-0.1-0.1,0-0.2l0,0
			C162.1,583.1,162.2,583.1,162.2,583.1z"/>
		<path class="st14" d="M162.4,585.5l1.9-2.7c0-0.1,0.1-0.1,0.2,0l0,0c0.1,0,0.1,0.1,0,0.2l-1.9,2.7c0,0.1-0.1,0.1-0.2,0l0,0
			C162.3,585.7,162.3,585.6,162.4,585.5z"/>
		<ellipse class="st12" cx="223.4" cy="584.5" rx="2.3" ry="2.2"/>
		<circle class="st13" cx="223.3" cy="584.5" r="2.2"/>
		<path class="st14" d="M221.6,584.8l3.1-1c0.1,0,0.2,0,0.2,0.1l0,0c0,0.1,0,0.2-0.1,0.2l-3.1,1c-0.1,0-0.2,0-0.2-0.1l0,0
			C221.5,584.9,221.5,584.9,221.6,584.8z"/>
		<path class="st14" d="M223.6,586.1l-1-3.1c0-0.1,0-0.2,0.1-0.2l0,0c0.1,0,0.2,0,0.2,0.1l1,3.1c0,0.1,0,0.2-0.1,0.2l0,0
			C223.7,586.2,223.7,586.2,223.6,586.1z"/>
		<ellipse class="st12" cx="236.1" cy="619.8" rx="2.3" ry="2.2"/>
		<circle class="st13" cx="236" cy="619.8" r="2.2"/>
		<path class="st14" d="M235.1,618.4l2.1,2.5c0.1,0.1,0,0.2,0,0.2l0,0c-0.1,0.1-0.2,0-0.2,0l-2.1-2.5c-0.1-0.1,0-0.2,0-0.2l0,0
			C234.9,618.4,235,618.4,235.1,618.4z"/>
		<path class="st14" d="M234.6,620.7l2.5-2.1c0.1-0.1,0.2,0,0.2,0l0,0c0.1,0.1,0,0.2,0,0.2l-2.5,2.1c-0.1,0.1-0.2,0-0.2,0l0,0
			C234.5,620.9,234.5,620.8,234.6,620.7z"/>
		<ellipse class="st12" cx="302.6" cy="606.5" rx="2.3" ry="2.2"/>
		<circle class="st13" cx="302.5" cy="606.5" r="2.2"/>
		<path class="st14" d="M301.1,605.6l2.9,1.5c0.1,0,0.1,0.1,0.1,0.2l0,0c0,0.1-0.1,0.1-0.2,0.1l-2.9-1.5c-0.1,0-0.1-0.1-0.1-0.2l0,0
			C301,605.5,301,605.5,301.1,605.6z"/>
		<path class="st14" d="M301.6,607.9l1.5-2.9c0-0.1,0.1-0.1,0.2-0.1l0,0c0.1,0,0.1,0.1,0.1,0.2l-1.5,2.9c0,0.1-0.1,0.1-0.2,0.1l0,0
			C301.6,608.1,301.6,608,301.6,607.9z"/>
		<ellipse class="st12" cx="307.1" cy="663.1" rx="2.3" ry="2.2"/>
		<circle class="st13" cx="307" cy="663.1" r="2.2"/>
		<path class="st14" d="M305.3,662.9h3.3c0.1,0,0.1,0.1,0.1,0.2v0c0,0.1-0.1,0.2-0.1,0.2h-3.3c-0.1,0-0.1-0.1-0.1-0.2v0
			C305.2,663,305.3,662.9,305.3,662.9z"/>
		<path class="st14" d="M306.8,664.8v-3.3c0-0.1,0.1-0.2,0.2-0.2h0c0.1,0,0.2,0.1,0.2,0.2v3.3c0,0.1-0.1,0.1-0.2,0.1h0
			C306.9,664.9,306.8,664.8,306.8,664.8z"/>
		<ellipse class="st12" cx="236.1" cy="669.6" rx="2.3" ry="2.2"/>
		<circle class="st13" cx="236" cy="669.6" r="2.2"/>
		<path class="st14" d="M234.3,669.4h3.3c0.1,0,0.1,0.1,0.1,0.2v0c0,0.1-0.1,0.2-0.1,0.2h-3.3c-0.1,0-0.1-0.1-0.1-0.2v0
			C234.2,669.5,234.2,669.4,234.3,669.4z"/>
		<path class="st14" d="M235.8,671.3V668c0-0.1,0.1-0.2,0.2-0.2h0c0.1,0,0.2,0.1,0.2,0.2v3.3c0,0.1-0.1,0.2-0.2,0.2h0
			C235.9,671.4,235.8,671.4,235.8,671.3z"/>
		<ellipse class="st12" cx="236.1" cy="719.7" rx="2.3" ry="2.2"/>
		<circle class="st13" cx="236" cy="719.7" r="2.2"/>
		<path class="st14" d="M234.4,719.2l3.2,0.6c0.1,0,0.1,0.1,0.1,0.2l0,0c0,0.1-0.1,0.1-0.2,0.1l-3.2-0.6c-0.1,0-0.1-0.1-0.1-0.2l0,0
			C234.3,719.2,234.3,719.2,234.4,719.2z"/>
		<path class="st14" d="M235.6,721.3l0.6-3.2c0-0.1,0.1-0.1,0.2-0.1l0,0c0.1,0,0.1,0.1,0.1,0.2l-0.6,3.2c0,0.1-0.1,0.1-0.2,0.1l0,0
			C235.6,721.4,235.5,721.3,235.6,721.3z"/>
		<ellipse class="st12" cx="290.4" cy="722" rx="2.3" ry="2.2"/>
		<circle class="st13" cx="290.3" cy="722" r="2.2"/>
		<path class="st14" d="M288.8,721.3l3.1,1.1c0.1,0,0.1,0.1,0.1,0.2l0,0c0,0.1-0.1,0.1-0.2,0.1l-3.1-1.1c-0.1,0-0.1-0.1-0.1-0.2l0,0
			C288.6,721.3,288.7,721.2,288.8,721.3z"/>
		<path class="st14" d="M289.6,723.4l1.1-3.1c0-0.1,0.1-0.1,0.2-0.1l0,0c0.1,0,0.1,0.1,0.1,0.2l-1.1,3.1c0,0.1-0.1,0.1-0.2,0.1l0,0
			C289.6,723.6,289.6,723.5,289.6,723.4z"/>
		<ellipse class="st12" cx="306.7" cy="781.7" rx="2.3" ry="2.2"/>
		<circle class="st13" cx="306.6" cy="781.7" r="2.2"/>
		<path class="st14" d="M304.9,781.5h3.3c0.1,0,0.1,0.1,0.1,0.2v0c0,0.1-0.1,0.2-0.1,0.2h-3.3c-0.1,0-0.1-0.1-0.1-0.2v0
			C304.8,781.5,304.9,781.5,304.9,781.5z"/>
		<path class="st14" d="M306.4,783.3V780c0-0.1,0.1-0.2,0.2-0.2h0c0.1,0,0.2,0.1,0.2,0.2v3.3c0,0.1-0.1,0.1-0.2,0.1h0
			C306.5,783.5,306.4,783.4,306.4,783.3z"/>
		<ellipse class="st12" cx="121.2" cy="778.8" rx="2.3" ry="2.2"/>
		<circle class="st13" cx="121.1" cy="778.8" r="2.2"/>
		<path class="st14" d="M119.5,778.6h3.3c0.1,0,0.2,0.1,0.2,0.2v0c0,0.1-0.1,0.2-0.2,0.2h-3.3c-0.1,0-0.2-0.1-0.2-0.2v0
			C119.3,778.6,119.4,778.6,119.5,778.6z"/>
		<path class="st14" d="M121,780.4v-3.3c0-0.1,0.1-0.2,0.2-0.2h0c0.1,0,0.2,0.1,0.2,0.2v3.3c0,0.1-0.1,0.2-0.2,0.2h0
			C121,780.6,121,780.5,121,780.4z"/>
		<g id="knob">
			
				<ellipse transform="matrix(0.1865 -0.9825 0.9825 0.1865 -580.9717 1043.7715)" class="st12" cx="339.8" cy="872.7" rx="17" ry="17"/>
			
				<ellipse transform="matrix(0.1865 -0.9825 0.9825 0.1865 -580.9717 1043.7715)" class="st3" cx="339.8" cy="872.7" rx="14.6" ry="14.6"/>
			
				<ellipse transform="matrix(0.1865 -0.9825 0.9825 0.1865 -580.9717 1043.7715)" class="st9" cx="339.8" cy="872.7" rx="7.7" ry="7.7"/>
			<path class="st8" d="M336.6,871.4l6.6,1.3c0.3,0.1,0.6,0.4,0.5,0.7l0,0c-0.1,0.3-0.4,0.6-0.7,0.5l-6.6-1.3
				c-0.3-0.1-0.6-0.4-0.5-0.7l0,0C335.9,871.6,336.2,871.4,336.6,871.4z"/>
			<path class="st8" d="M341,869.5l-1.3,6.6c-0.1,0.3-0.4,0.6-0.7,0.5l0,0c-0.3-0.1-0.6-0.4-0.5-0.7l1.3-6.6
				c0.1-0.3,0.4-0.6,0.7-0.5l0,0C340.9,868.8,341.1,869.1,341,869.5z"/>
		</g>
		<g id="knob-2">
			
				<ellipse transform="matrix(0.9111 -0.4122 0.4122 0.9111 -334.2234 199.6489)" class="st12" cx="295.8" cy="874.7" rx="17" ry="17"/>
			
				<ellipse transform="matrix(0.9111 -0.4122 0.4122 0.9111 -334.2234 199.6489)" class="st3" cx="295.8" cy="874.7" rx="14.6" ry="14.6"/>
			
				<ellipse transform="matrix(0.9111 -0.4122 0.4122 0.9111 -334.2234 199.6489)" class="st9" cx="295.8" cy="874.7" rx="7.7" ry="7.7"/>
			<path class="st8" d="M292.4,875.5l6.1-2.8c0.3-0.1,0.7,0,0.8,0.3l0,0c0.1,0.3,0,0.7-0.3,0.8l-6.1,2.8c-0.3,0.1-0.7,0-0.8-0.3l0,0
				C292,876,292.1,875.7,292.4,875.5z"/>
			<path class="st8" d="M294.9,871.3l2.8,6.1c0.1,0.3,0,0.7-0.3,0.8l0,0c-0.3,0.1-0.7,0-0.8-0.3l-2.8-6.1c-0.1-0.3,0-0.7,0.3-0.8
				l0,0C294.4,870.9,294.8,871,294.9,871.3z"/>
		</g>
		<g id="knob-3">
			
				<ellipse transform="matrix(0.2669 -0.9637 0.9637 0.2669 -654.0346 992.2396)" class="st12" cx="325.2" cy="926" rx="17" ry="17"/>
			
				<ellipse transform="matrix(0.2669 -0.9637 0.9637 0.2669 -654.0346 992.2396)" class="st3" cx="325.2" cy="926" rx="14.6" ry="14.6"/>
			
				<ellipse transform="matrix(0.2669 -0.9637 0.9637 0.2669 -654.0346 992.2396)" class="st9" cx="325.2" cy="926" rx="7.7" ry="7.7"/>
			<path class="st8" d="M322.1,924.6l6.5,1.8c0.3,0.1,0.5,0.4,0.4,0.8l0,0c-0.1,0.3-0.4,0.5-0.8,0.4l-6.5-1.8
				c-0.3-0.1-0.5-0.4-0.4-0.8l0,0C321.5,924.7,321.8,924.5,322.1,924.6z"/>
			<path class="st8" d="M326.7,923l-1.8,6.5c-0.1,0.3-0.4,0.5-0.8,0.4l0,0c-0.3-0.1-0.5-0.4-0.4-0.8l1.8-6.5
				c0.1-0.3,0.4-0.5,0.8-0.4l0,0C326.6,922.3,326.8,922.7,326.7,923z"/>
		</g>
		<g id="knob-4">
			<circle class="st12" cx="314.8" cy="811" r="17"/>
			<circle class="st3" cx="314.8" cy="811" r="14.6"/>
			<circle class="st9" cx="314.8" cy="811" r="7.7"/>
		</g>
		<g id="knob-5">
			
				<ellipse transform="matrix(0.8069 -0.5907 0.5907 0.8069 -490.9036 342.7798)" class="st12" cx="278.8" cy="922.1" rx="17" ry="17"/>
			
				<ellipse transform="matrix(0.8069 -0.5907 0.5907 0.8069 -490.9036 342.7798)" class="st3" cx="278.8" cy="922.1" rx="14.6" ry="14.6"/>
			
				<ellipse transform="matrix(0.9353 -0.354 0.354 0.9353 -308.3382 158.3755)" class="st9" cx="278.8" cy="922.1" rx="7.7" ry="7.7"/>
			<path class="st8" d="M275.4,922.7l6.3-2.4c0.3-0.1,0.7,0,0.8,0.4l0,0c0.1,0.3,0,0.7-0.4,0.8l-6.3,2.4c-0.3,0.1-0.7,0-0.8-0.4l0,0
				C274.9,923.2,275.1,922.8,275.4,922.7z"/>
			<path class="st8" d="M278.2,918.7l2.4,6.3c0.1,0.3,0,0.7-0.4,0.8l0,0c-0.3,0.1-0.7,0-0.8-0.4l-2.4-6.3c-0.1-0.3,0-0.7,0.4-0.8
				l0,0C277.7,918.2,278,918.4,278.2,918.7z"/>
		</g>
		<g id="switch">
			<path class="st12" d="M323.5,805.5l0.6,1.1c0.6,1,0.2,2.2-0.8,2.8l-7.3,4.2c-1,0.6-2.2,0.2-2.8-0.8l-0.6-1.1
				c-0.6-1-0.2-2.2,0.8-2.8l7.3-4.2C321.7,804.2,322.9,804.5,323.5,805.5z"/>
			<path class="st13" d="M320,806.9l0.4,0.7c0.6,1,0.2,2.2-0.8,2.8l-7,4.1c-1,0.6-2.2,0.2-2.8-0.8l-0.4-0.7c-0.6-1-0.2-2.2,0.8-2.8
				l7-4.1C318.2,805.6,319.4,805.9,320,806.9z"/>
		</g>
		<g id="plug">
			<circle class="st12" cx="268.5" cy="954.2" r="10.3"/>
			<circle class="st13" cx="268.5" cy="954.2" r="7.3"/>
			<circle class="st3" cx="268.5" cy="954.2" r="4.5"/>
		</g>
		<g id="Pickup_1">
			<path class="st8" d="M159.9,595.8h67c2.9,0,5.2,2.3,5.2,5.2v31.3c0,2.9-2.3,5.2-5.2,5.2h-67c-2.9,0-5.2-2.3-5.2-5.2v-31.3
				C154.7,598.2,157,595.8,159.9,595.8z"/>
			<path class="st9" d="M159.9,595.8h66c2.9,0,5.2,2.3,5.2,5.2v30.3c0,2.9-2.3,5.2-5.2,5.2h-66c-2.9,0-5.2-2.3-5.2-5.2v-30.3
				C154.7,598.2,157,595.8,159.9,595.8z"/>
			<circle class="st8" cx="165.8" cy="606.2" r="3.6"/>
			<circle class="st8" cx="176.8" cy="606.2" r="3.6"/>
			<circle class="st8" cx="187.9" cy="606.2" r="3.6"/>
			<circle class="st8" cx="198.9" cy="606.2" r="3.6"/>
			<circle class="st8" cx="209.9" cy="606.2" r="3.6"/>
			<circle class="st8" cx="220.9" cy="606.2" r="3.6"/>
			<circle class="st15" cx="165.4" cy="606.2" r="3.6"/>
			<circle class="st15" cx="176.4" cy="606.2" r="3.6"/>
			<circle class="st15" cx="187.5" cy="606.2" r="3.6"/>
			<circle class="st15" cx="198.5" cy="606.2" r="3.6"/>
			<circle class="st15" cx="209.5" cy="606.2" r="3.6"/>
			<circle class="st15" cx="220.6" cy="606.2" r="3.6"/>
			<path class="st8" d="M162.5,605.9h5.6c0.2,0,0.3,0.1,0.3,0.3v0c0,0.2-0.1,0.3-0.3,0.3h-5.6c-0.2,0-0.3-0.1-0.3-0.3v0
				C162.2,606,162.4,605.9,162.5,605.9z"/>
			<path class="st8" d="M173.6,605.9h5.6c0.2,0,0.3,0.1,0.3,0.3v0c0,0.2-0.1,0.3-0.3,0.3h-5.6c-0.2,0-0.3-0.1-0.3-0.3v0
				C173.3,606,173.4,605.9,173.6,605.9z"/>
			<path class="st8" d="M184.6,605.9h5.6c0.2,0,0.3,0.1,0.3,0.3v0c0,0.2-0.1,0.3-0.3,0.3h-5.6c-0.2,0-0.3-0.1-0.3-0.3v0
				C184.3,606,184.5,605.9,184.6,605.9z"/>
			<path class="st8" d="M195.7,605.9h5.6c0.2,0,0.3,0.1,0.3,0.3v0c0,0.2-0.1,0.3-0.3,0.3h-5.6c-0.2,0-0.3-0.1-0.3-0.3v0
				C195.4,606,195.5,605.9,195.7,605.9z"/>
			<path class="st8" d="M206.7,605.9h5.6c0.2,0,0.3,0.1,0.3,0.3v0c0,0.2-0.1,0.3-0.3,0.3h-5.6c-0.2,0-0.3-0.1-0.3-0.3v0
				C206.4,606,206.5,605.9,206.7,605.9z"/>
			<path class="st8" d="M217.7,605.9h5.6c0.2,0,0.3,0.1,0.3,0.3v0c0,0.2-0.1,0.3-0.3,0.3h-5.6c-0.2,0-0.3-0.1-0.3-0.3v0
				C217.4,606,217.6,605.9,217.7,605.9z"/>
		</g>
		<g id="Pickup_2">
			<path class="st8" d="M159.9,645.5h67c2.9,0,5.2,2.3,5.2,5.2V682c0,2.9-2.3,5.2-5.2,5.2h-67c-2.9,0-5.2-2.3-5.2-5.2v-31.3
				C154.7,647.8,157,645.5,159.9,645.5z"/>
			<path class="st9" d="M159.9,645.5h66c2.9,0,5.2,2.3,5.2,5.2V681c0,2.9-2.3,5.2-5.2,5.2h-66c-2.9,0-5.2-2.3-5.2-5.2v-30.3
				C154.7,647.8,157,645.5,159.9,645.5z"/>
			<circle class="st8" cx="165.8" cy="655.8" r="3.6"/>
			<circle class="st8" cx="176.8" cy="655.8" r="3.6"/>
			<circle class="st8" cx="187.9" cy="655.8" r="3.6"/>
			<circle class="st8" cx="198.9" cy="655.8" r="3.6"/>
			<circle class="st8" cx="209.9" cy="655.8" r="3.6"/>
			<circle class="st8" cx="220.9" cy="655.8" r="3.6"/>
			<circle class="st15" cx="165.4" cy="655.8" r="3.6"/>
			<circle class="st15" cx="176.4" cy="655.8" r="3.6"/>
			<circle class="st15" cx="187.5" cy="655.8" r="3.6"/>
			<circle class="st15" cx="198.5" cy="655.8" r="3.6"/>
			<circle class="st15" cx="209.5" cy="655.8" r="3.6"/>
			<circle class="st15" cx="220.6" cy="655.8" r="3.6"/>
			<path class="st8" d="M162.5,655.5h5.6c0.2,0,0.3,0.1,0.3,0.3v0c0,0.2-0.1,0.3-0.3,0.3h-5.6c-0.2,0-0.3-0.1-0.3-0.3v0
				C162.2,655.6,162.4,655.5,162.5,655.5z"/>
			<path class="st8" d="M173.6,655.5h5.6c0.2,0,0.3,0.1,0.3,0.3v0c0,0.2-0.1,0.3-0.3,0.3h-5.6c-0.2,0-0.3-0.1-0.3-0.3v0
				C173.3,655.6,173.4,655.5,173.6,655.5z"/>
			<path class="st8" d="M184.6,655.5h5.6c0.2,0,0.3,0.1,0.3,0.3v0c0,0.2-0.1,0.3-0.3,0.3h-5.6c-0.2,0-0.3-0.1-0.3-0.3v0
				C184.3,655.6,184.5,655.5,184.6,655.5z"/>
			<path class="st8" d="M195.7,655.5h5.6c0.2,0,0.3,0.1,0.3,0.3v0c0,0.2-0.1,0.3-0.3,0.3h-5.6c-0.2,0-0.3-0.1-0.3-0.3v0
				C195.4,655.6,195.5,655.5,195.7,655.5z"/>
			<path class="st8" d="M206.7,655.5h5.6c0.2,0,0.3,0.1,0.3,0.3v0c0,0.2-0.1,0.3-0.3,0.3h-5.6c-0.2,0-0.3-0.1-0.3-0.3v0
				C206.4,655.6,206.5,655.5,206.7,655.5z"/>
			<path class="st8" d="M217.7,655.5h5.6c0.2,0,0.3,0.1,0.3,0.3v0c0,0.2-0.1,0.3-0.3,0.3h-5.6c-0.2,0-0.3-0.1-0.3-0.3v0
				C217.4,655.6,217.6,655.5,217.7,655.5z"/>
		</g>
		<g id="Pickup_3">
			<path class="st8" d="M159.9,695h67c2.9,0,5.2,2.3,5.2,5.2v31.3c0,2.9-2.3,5.2-5.2,5.2h-67c-2.9,0-5.2-2.3-5.2-5.2v-31.3
				C154.7,697.4,157,695,159.9,695z"/>
			<path class="st9" d="M159.9,695h66c2.9,0,5.2,2.3,5.2,5.2v30.3c0,2.9-2.3,5.2-5.2,5.2h-66c-2.9,0-5.2-2.3-5.2-5.2v-30.3
				C154.7,697.4,157,695,159.9,695z"/>
			<circle class="st8" cx="165.8" cy="705.4" r="3.6"/>
			<circle class="st8" cx="176.8" cy="705.4" r="3.6"/>
			<circle class="st8" cx="187.9" cy="705.4" r="3.6"/>
			<circle class="st8" cx="198.9" cy="705.4" r="3.6"/>
			<circle class="st8" cx="209.9" cy="705.4" r="3.6"/>
			<circle class="st8" cx="220.9" cy="705.4" r="3.6"/>
			<circle class="st15" cx="165.4" cy="705.4" r="3.6"/>
			<circle class="st15" cx="176.4" cy="705.4" r="3.6"/>
			<circle class="st15" cx="187.5" cy="705.4" r="3.6"/>
			<circle class="st15" cx="198.5" cy="705.4" r="3.6"/>
			<circle class="st15" cx="209.5" cy="705.4" r="3.6"/>
			<circle class="st15" cx="220.6" cy="705.4" r="3.6"/>
			<path class="st8" d="M162.5,705.1h5.6c0.2,0,0.3,0.1,0.3,0.3v0c0,0.2-0.1,0.3-0.3,0.3h-5.6c-0.2,0-0.3-0.1-0.3-0.3v0
				C162.2,705.2,162.4,705.1,162.5,705.1z"/>
			<path class="st8" d="M173.6,705.1h5.6c0.2,0,0.3,0.1,0.3,0.3v0c0,0.2-0.1,0.3-0.3,0.3h-5.6c-0.2,0-0.3-0.1-0.3-0.3v0
				C173.3,705.2,173.4,705.1,173.6,705.1z"/>
			<path class="st8" d="M184.6,705.1h5.6c0.2,0,0.3,0.1,0.3,0.3v0c0,0.2-0.1,0.3-0.3,0.3h-5.6c-0.2,0-0.3-0.1-0.3-0.3v0
				C184.3,705.2,184.5,705.1,184.6,705.1z"/>
			<path class="st8" d="M195.7,705.1h5.6c0.2,0,0.3,0.1,0.3,0.3v0c0,0.2-0.1,0.3-0.3,0.3h-5.6c-0.2,0-0.3-0.1-0.3-0.3v0
				C195.4,705.2,195.5,705.1,195.7,705.1z"/>
			<path class="st8" d="M206.7,705.1h5.6c0.2,0,0.3,0.1,0.3,0.3v0c0,0.2-0.1,0.3-0.3,0.3h-5.6c-0.2,0-0.3-0.1-0.3-0.3v0
				C206.4,705.2,206.5,705.1,206.7,705.1z"/>
			<path class="st8" d="M217.7,705.1h5.6c0.2,0,0.3,0.1,0.3,0.3v0c0,0.2-0.1,0.3-0.3,0.3h-5.6c-0.2,0-0.3-0.1-0.3-0.3v0
				C217.4,705.2,217.6,705.1,217.7,705.1z"/>
		</g>
		<path class="st8" d="M234.8,847.2h-83l10.8,143.4l20.1,1.3c7.7,0.5,15.4,0.6,23.1,0.2l17.3-0.9l2-0.2L234.8,847.2z"/>
		<path class="st9" d="M234.8,847.2h-85l10.8,143.4l20.1,1.3c7.7,0.5,15.4,0.6,23.1,0.2l19.3-0.9L234.8,847.2z"/>
		<path class="st15" d="M160.6,990.7l3,3c0,0,19.2,1.7,28.6,2.1c10,0.4,32.7-1.4,32.7-1.4l-1.9-3.1c0,0-23.4,1.2-31.2,1.2
			S160.6,990.6,160.6,990.7"/>
		<polygon class="st9" points="225.1,991.1 226.9,994.2 225,994.4 223.1,991.3 		"/>
		<g id="Bridge">
			<polygon class="st8" points="234.8,847.2 149.8,847.7 149.3,804.2 235.8,804.2 			"/>
			<polygon class="st9" points="234.8,847.7 149.8,847.7 149.3,804.2 234.8,804.2 			"/>
		</g>
		<path class="st8" d="M234.8,847.7l-3.1-7c-2.9-6.4-3.4-13.6-1.5-20.4l1.6-5.9h-79.5l1.6,4.9c2.5,7.4,2,15.4-1.3,22.4l-2.8,5.9
			H234.8z"/>
		<path class="st15" d="M167.6,814.5c0,1.4-1.2,2.6-2.6,2.6c-1.4,0-2.6-1.2-2.6-2.6H167.6z"/>
		<path class="st15" d="M179.2,814.5c0,1.4-1.2,2.6-2.6,2.6c-1.4,0-2.6-1.2-2.6-2.6H179.2z"/>
		<path class="st15" d="M190.1,814.5c0,1.4-1.2,2.6-2.6,2.6c-1.4,0-2.6-1.2-2.6-2.6H190.1z"/>
		<path class="st15" d="M200.5,814.5c0,1.4-1.2,2.6-2.6,2.6c-1.4,0-2.6-1.2-2.6-2.6H200.5z"/>
		<path class="st15" d="M211.9,814.5c0,1.4-1.2,2.6-2.6,2.6c-1.4,0-2.6-1.2-2.6-2.6H211.9z"/>
		<path class="st15" d="M223.5,814.5c0,1.4-1.2,2.6-2.6,2.6c-1.4,0-2.6-1.2-2.6-2.6H223.5z"/>
		<g id="whammy_bar">
			<path class="st16" d="M152.3,785.2h79.5c1.7,0,3,1.3,3,3v24.2c0,1.7-1.3,3-3,3h-79.5c-1.7,0-3-1.3-3-3v-24.2
				C149.3,786.6,150.6,785.2,152.3,785.2z"/>
			<path class="st8" d="M152.3,784.2h79.5c1.7,0,3,1.3,3,3v24.2c0,1.7-1.3,3-3,3h-79.5c-1.7,0-3-1.3-3-3v-24.2
				C149.3,785.6,150.6,784.2,152.3,784.2z"/>
			<path class="st9" d="M152.3,784.2h78.3c1.7,0,3,1.3,3,3v20c0,1.7-1.3,3-3,3h-78.3c-1.7,0-3-1.3-3-3v-20
				C149.3,785.6,150.6,784.2,152.3,784.2z"/>
			<path class="st8" d="M152.8,784.4h111c1.7,0,3,1.3,3,3v16c0,1.7-1.3,3-3,3h-111c-1.7,0-3-1.3-3-3v-16
				C149.8,785.8,151.1,784.4,152.8,784.4z"/>
			<path class="st9" d="M153.3,784.4h109.3c1.7,0,3,1.3,3,3v15.2c0,1.7-1.3,3-3,3H153.3c-1.7,0-3-1.3-3-3v-15.2
				C150.3,785.8,151.6,784.4,153.3,784.4z"/>
			<path class="st8" d="M258.1,794.4l23-23l40.3-49.6l5.9,4.1l-34.4,42.8c-3.7,4.6-7.8,9-12.1,13.2l-17.1,16.5
				c-0.1,0.1-0.2,0.1-0.3,0l-5.3-3.7C258,794.6,258,794.5,258.1,794.4z"/>
			<path class="st9" d="M258.7,793l17.8-17.7c3.5-3.5,6.8-7.2,9.9-11l35.6-43.8l5.9,4.1l-34.4,42.8c-3.7,4.6-7.8,9-12.1,13.2
				L264.2,797c-0.1,0.1-0.2,0.1-0.3,0l-5.3-3.7C258.6,793.2,258.6,793.1,258.7,793z"/>
			<path class="st17" d="M325.3,724.9l-3.8-2.9c-2.2-1.7-2.4-5.2-0.3-7.9l52.8-68.7c1.8-2.4,5.2-2.8,7.5-1.1l1.2,0.9
				c2.4,1.8,2.8,5.2,1.1,7.5l-50.9,70.1C330.9,725.7,327.5,726.5,325.3,724.9z"/>
			<path class="st18" d="M325.7,724.1l-3.8-2.9c-2.2-1.7-2.4-5.2-0.3-7.9l52.8-68.7c1.8-2.4,5.2-2.8,7.5-1.1l1.2,0.9
				c2.4,1.8,2.8,5.2,1.1,7.5l-50.9,70.1C331.4,724.9,328,725.8,325.7,724.1z"/>
			<ellipse class="st8" cx="257.7" cy="796.4" rx="6.3" ry="5.8"/>
			<circle class="st15" cx="257.2" cy="796.4" r="5.8"/>
			<ellipse class="st8" cx="257.4" cy="796.4" rx="3.6" ry="3.5"/>
			<circle class="st9" cx="257.2" cy="796.4" r="3.5"/>
			<path class="st8" d="M254.6,795.4l5.4,1.5c0.1,0,0.2,0.2,0.2,0.3l0,0c0,0.1-0.2,0.2-0.3,0.2l-5.4-1.5c-0.1,0-0.2-0.2-0.2-0.3l0,0
				C254.3,795.4,254.5,795.3,254.6,795.4z"/>
			<path class="st8" d="M258.2,793.7l-1.5,5.4c0,0.1-0.2,0.2-0.3,0.2l0,0c-0.1,0-0.2-0.2-0.2-0.3l1.5-5.4c0-0.1,0.2-0.2,0.3-0.2l0,0
				C258.2,793.5,258.2,793.6,258.2,793.7z"/>
		</g>
		<circle class="st16" cx="165" cy="812.7" r="0.6"/>
		<circle class="st16" cx="176.6" cy="812.7" r="0.6"/>
		<circle class="st16" cx="187.6" cy="812.7" r="0.6"/>
		<circle class="st16" cx="197.9" cy="812.7" r="0.6"/>
		<circle class="st16" cx="209.3" cy="812.7" r="0.6"/>
		<circle class="st16" cx="220.9" cy="812.7" r="0.6"/>
		<polyline class="st19" points="165,812.7 177,129.4 172.2,84 		"/>
		<polyline class="st19" points="176.6,812.7 183.7,129.4 172.2,50.4 		"/>
		<polyline class="st19" points="187.6,812.7 190,129.4 172.2,17.8 		"/>
		<polyline class="st19" points="197.9,812.7 196.7,129.4 212.4,17.8 		"/>
		<polyline class="st19" points="209.3,812.7 202.4,129.4 212.4,50.4 		"/>
		<polyline class="st19" points="220.9,812.7 208.1,129.4 212.4,84 		"/>
		<circle class="st15" cx="154.1" cy="757.8" r="8.4"/>
		<circle class="st8" cx="154.1" cy="757.7" r="6.5"/>
		<circle class="st15" cx="231.8" cy="757.8" r="8.4"/>
		<circle class="st8" cx="231.8" cy="757.7" r="6.5"/>
		<path class="st9" d="M154,752.2h77.9c2.4,0,4.3,1.9,4.3,4.3v2.2c0,2.4-1.9,4.3-4.3,4.3H154c-2.4,0-4.3-1.9-4.3-4.3v-2.2
			C149.6,754.2,151.6,752.2,154,752.2z"/>
		<rect x="162.2" y="752.2" class="st8" width="60.9" height="10.9"/>
		<path class="st15" d="M165.6,751.9h0.9c0.9,0,1.6,0.7,1.6,1.6v8.4c0,0.9-0.7,1.6-1.6,1.6h-0.9c-0.9,0-1.6-0.7-1.6-1.6v-8.4
			C164,752.6,164.7,751.9,165.6,751.9z"/>
		<path class="st15" d="M176.4,751.9h0.9c0.9,0,1.6,0.7,1.6,1.6v8.4c0,0.9-0.7,1.6-1.6,1.6h-0.9c-0.9,0-1.6-0.7-1.6-1.6v-8.4
			C174.8,752.6,175.6,751.9,176.4,751.9z"/>
		<path class="st15" d="M186.9,752h0.9c0.9,0,1.6,0.7,1.6,1.6v8.4c0,0.9-0.7,1.6-1.6,1.6h-0.9c-0.9,0-1.6-0.7-1.6-1.6v-8.4
			C185.3,752.7,186,752,186.9,752z"/>
		<path class="st15" d="M197.5,751.8h0.9c0.9,0,1.6,0.7,1.6,1.6v8.4c0,0.9-0.7,1.6-1.6,1.6h-0.9c-0.9,0-1.6-0.7-1.6-1.6v-8.4
			C195.9,752.6,196.6,751.8,197.5,751.8z"/>
		<path class="st15" d="M208.4,751.9h0.9c0.9,0,1.6,0.7,1.6,1.6v8.4c0,0.9-0.7,1.6-1.6,1.6h-0.9c-0.9,0-1.6-0.7-1.6-1.6v-8.4
			C206.8,752.6,207.5,751.9,208.4,751.9z"/>
		<path class="st15" d="M219.5,751.9h0.9c0.9,0,1.6,0.7,1.6,1.6v8.4c0,0.9-0.7,1.6-1.6,1.6h-0.9c-0.9,0-1.6-0.7-1.6-1.6v-8.4
			C217.9,752.6,218.6,751.9,219.5,751.9z"/>
		<rect x="160.9" y="756.2" class="st9" width="63.7" height="2.8"/>
		<rect x="169.8" y="752.2" class="st9" width="4.1" height="10.9"/>
		<rect x="180" y="752.2" class="st9" width="4" height="10.9"/>
		<rect x="190.4" y="752.2" class="st9" width="4.1" height="10.9"/>
		<rect x="201.3" y="752.2" class="st9" width="4.1" height="10.9"/>
		<rect x="212.3" y="752.2" class="st9" width="4.1" height="10.9"/>
		
			<ellipse transform="matrix(5.651850e-02 -0.9984 0.9984 5.651850e-02 -538.3428 945.6652)" class="st15" cx="231.2" cy="757.7" rx="3.5" ry="3.5"/>
		
			<ellipse transform="matrix(5.651850e-02 -0.9984 0.9984 5.651850e-02 -538.3428 945.6652)" class="st8" cx="231.2" cy="757.7" rx="2.9" ry="2.9"/>
		
			<ellipse transform="matrix(5.651850e-02 -0.9984 0.9984 5.651850e-02 -610.3152 869.6489)" class="st15" cx="155" cy="757.7" rx="3.5" ry="3.5"/>
		
			<ellipse transform="matrix(5.651850e-02 -0.9984 0.9984 5.651850e-02 -610.3152 869.6489)" class="st8" cx="155" cy="757.7" rx="2.9" ry="2.9"/>
	</g>
</g>
</svg>
