<?xml version="1.0" encoding="utf-8"?>
<!-- Generator: Adobe Illustrator 21.0.0, SVG Export Plug-In . SVG Version: 6.00 Build 0)  -->
<svg version="1.1" id="Layer_1" xmlns="http://www.w3.org/2000/svg" xmlns:xlink="http://www.w3.org/1999/xlink" x="0px" y="0px"
	 viewBox="0 0 327.3 999" style="enable-background:new 0 0 327.3 999;" xml:space="preserve">
<style type="text/css">
	.st0{fill:#1A1A1A;}
	.st1{fill:#B3B3B3;}
	.st2{fill:#0A0404;}
	.st3{fill:#CCCCCC;}
	.st4{fill:#E6E6E6;}
	.st5{fill:none;}
	.st6{fill:#B3B3B3;stroke:#CCCCCC;stroke-miterlimit:10;}
	.st7{fill:#FFFFFF;}
	.st8{fill:#F7F7F7;}
	.st9{fill:#F4EFDC;}
	.st10{fill:#FBFAF3;}
	.st11{fill:#AF8251;}
	.st12{fill:#E3B25D;}
	.st13{fill:#999999;stroke:#E6E6E6;stroke-width:0.5;stroke-miterlimit:10;}
	.st14{fill:url(#SVGID_1_);}
	.st15{fill:#624738;}
	.st16{fill:none;stroke:#CCCCCC;stroke-miterlimit:10;}
	.st17{fill:#F9F6E8;}
	.st18{fill:none;stroke:#E6E6E6;stroke-width:0.5;stroke-linecap:round;stroke-miterlimit:10;}
</style>
<title>1968FenderStratBlack</title>
<g id="Layer_2">
	<g id="_1968_Fender_Stratocaster_black_maple_">
		<path class="st0" d="M51,726.5c-0.2-6.8-1-13.5-2.5-20.1c-3.8-16.7-9.6-40.5-15.8-58.6c-10.6-30.9-10-52.5-10-52.5
			c0-41.6,15.9-55.4,25.6-60c7.3-3.4,16-0.3,19.4,7c0.4,0.9,0.7,1.7,1,2.7c0.8,3.2,0.5,7.1,0.4,12.3c0,0-0.5,23,12.6,38.4
			c12.9,15.1,44,27.9,55.1,0.1c0.4-0.9,1.3-1.5,2.2-1.5l34.7-0.2c0.8,0,12.1,0.7,12.1,1.5l-0.6,41.9c0,0.7,8.5,9.1,9,9.6
			c4.7,3.8,27.5,20.5,51.3,0.8c0,0,15.3-12.4,16.1-35.7c0.4-12.9,7.5-16.2,13.8-16.5c6.1-0.2,12,2.1,16.2,6.5c5,5,9.9,14.2,11,28
			c0,0,1.5,26-11,59.2l-5.7,18c-5,15.5-5.8,32.1-2.3,48c0.4,1.7,0.8,3.2,1.2,4.5c3.6,11.3,8.2,22.4,13.7,33
			c20.4,39.7,28.9,74.2,28.7,101.2s-1.1,98.3-162.1,98.3S4.2,920.9,4,893.8s8.3-61.5,28.7-101.2c5.5-10.6,10.1-21.6,13.7-32.9
			C49.8,749,51.3,737.7,51,726.5z"/>
		<path class="st1" d="M165,991.2c0.5,1,1.3,1.8,2.2,2.4c0.7,0.4,1.1,1.2,1.1,2c-0.1,1.5-1.3,3.5-7.6,3.5s-7.5-2-7.5-3.5
			c0-0.8,0.4-1.5,1.1-2c0.9-0.6,1.7-1.4,2.2-2.4c0.2-0.4,0.6-0.7,1-0.8l0.8-0.2c1.6-0.3,3.2-0.3,4.8,0l0.8,0.2
			C164.4,990.5,164.8,990.8,165,991.2z"/>
		<path class="st1" d="M50.9,531.2c0.1-1.3-0.4-2.6-1.3-3.6c-0.5-0.6-0.7-1.4-0.4-2.2c0.5-1.4,2.3-2.9,8.2-0.9s6.5,4.3,6,5.7
			c-0.2,0.8-0.9,1.3-1.6,1.5c-1.3,0.2-2.5,1-3.2,2.1"/>
		<path class="st2" d="M47,723.5c-0.2-6.8-1-13.5-2.5-20.1c-3.8-16.7-9.6-40.5-15.8-58.6c-10.6-30.9-10-52.5-10-52.5
			c0-41.6,15.9-55.4,25.6-60c7.3-3.4,16-0.3,19.4,7c0.4,0.9,0.7,1.7,1,2.7c0.8,3.2,0.5,7.1,0.4,12.3c0,0-0.5,23,12.6,38.4
			c12.9,15.1,44,27.9,55.1,0.1c0.4-0.9,1.3-1.5,2.2-1.5l51.8-0.2c0.8,0,1.5,0.7,1.5,1.5l0.7,49.6c0,0.7,0.8,1.4,1.3,1.8
			c4.7,3.8,27.5,20.5,51.3,0.8c0,0,15.3-12.4,16.1-35.7c0.4-12.9,7.5-16.2,13.8-16.5c6.1-0.2,12,2.1,16.2,6.5c5,5,9.9,14.2,11,28
			c0,0,1.5,26-11,59.2l-5.7,18c-5,15.5-5.8,32.1-2.3,48c0.4,1.7,0.8,3.2,1.2,4.5c3.6,11.3,8.2,22.4,13.7,33
			c20.4,39.7,28.9,74.2,28.7,101.2s-1.1,98.3-162.1,98.3S0.2,917.9,0,890.8s8.3-61.5,28.7-101.2c5.5-10.6,10.1-21.6,13.7-32.9
			C45.8,746,47.3,734.7,47,723.5z"/>
		<path class="st3" d="M206.4,851.5h-6.1c-0.9,0-1.7-0.7-1.7-1.6c0,0,0,0,0,0v-9.6c0-2.2-1.9-2.6-4.2-2.6l-66.5-2.3
			c-2.3-0.1-4.1,1.7-4.2,4v33.4c0.1,2.3,1.9,4.1,4.2,4h66.5c1,0,2-0.3,2.8-1c1-0.9,2.4-1.4,3.7-1.5h5.4c3,0.1,5.5-2.3,5.6-5.3v-12
			C212,853.9,209.5,851.4,206.4,851.5C206.5,851.5,206.5,851.5,206.4,851.5z"/>
		<path class="st4" d="M205.2,851.5h-6.1c-0.9,0-1.7-0.7-1.7-1.6c0,0,0,0,0,0v-10.6c-0.1-2.3-1.9-4.1-4.2-4h-66.5
			c-2.3-0.1-4.1,1.7-4.2,4v33.4c0.1,2.3,1.9,4.1,4.2,4h66.5c1,0,2-0.3,2.8-1c1-0.9,2.4-1.4,3.7-1.5h5.4c3,0.1,5.5-2.3,5.6-5.3v-12
			C210.8,853.9,208.3,851.4,205.2,851.5C205.3,851.5,205.3,851.5,205.2,851.5z"/>
		
			<ellipse transform="matrix(0.3075 -0.9515 0.9515 0.3075 -708.4133 707.0879)" class="st3" cx="131.6" cy="840.3" rx="2.6" ry="2.6"/>
		<path class="st1" d="M132.2,838.5L132.2,838.5c0.1,0,0.2,0.2,0.1,0.3l-1,3.1c0,0.1-0.2,0.2-0.3,0.1l0,0c-0.1,0-0.2-0.2-0.1-0.3
			l1-3.1C131.9,838.5,132.1,838.5,132.2,838.5z"/>
		<path class="st1" d="M133.3,840.8L133.3,840.8c0,0.1-0.2,0.2-0.3,0.1l-3.1-1c-0.1,0-0.2-0.2-0.1-0.3l0,0c0-0.1,0.2-0.2,0.3-0.1
			l3.1,1C133.3,840.6,133.4,840.7,133.3,840.8z"/>
		
			<ellipse transform="matrix(0.1676 -0.9859 0.9859 0.1676 -709.3333 840.5041)" class="st3" cx="143.1" cy="840.3" rx="2.5" ry="2.5"/>
		<path class="st1" d="M142.2,841.5l1.4-2.7c0.1-0.1,0.2-0.1,0.3-0.1h0c0.1,0.1,0.1,0.2,0.1,0.3l-1.4,2.7c-0.1,0.1-0.2,0.1-0.3,0.1
			h0C142.2,841.8,142.1,841.6,142.2,841.5z"/>
		<path class="st1" d="M141.5,839.5L141.5,839.5c0.1-0.1,0.2-0.1,0.3-0.1l2.7,1.4c0.1,0.1,0.1,0.2,0.1,0.3l0,0
			c-0.1,0.1-0.2,0.1-0.3,0.1l-2.7-1.4C141.5,839.7,141.5,839.6,141.5,839.5z"/>
		
			<ellipse transform="matrix(1.361313e-02 -0.9999 0.9999 1.361313e-02 -687.7529 983.4056)" class="st3" cx="154.6" cy="840.3" rx="2.4" ry="2.4"/>
		<path class="st1" d="M153.5,841.3l1.8-2.4c0.1-0.1,0.2-0.1,0.3,0l0,0c0.1,0.1,0.1,0.2,0,0.3l-1.8,2.4c-0.1,0.1-0.2,0.1-0.3,0l0,0
			C153.5,841.5,153.5,841.4,153.5,841.3z"/>
		<path class="st1" d="M153.2,839.2L153.2,839.2c0.1-0.1,0.2-0.1,0.3-0.1l2.4,1.8c0.1,0.1,0.1,0.2,0,0.3l0,0c-0.1,0.1-0.2,0.1-0.3,0
			l-2.4-1.8C153.2,839.4,153.2,839.3,153.2,839.2z"/>
		
			<ellipse transform="matrix(0.9895 -0.1445 0.1445 0.9895 -119.7006 32.8123)" class="st3" cx="166" cy="840.3" rx="2.4" ry="2.4"/>
		<path class="st1" d="M164.8,841.1l2.1-2.1c0.1-0.1,0.2-0.1,0.3,0l0,0c0.1,0.1,0.1,0.2,0,0.3l-2.1,2.1c-0.1,0.1-0.2,0.1-0.3,0l0,0
			C164.7,841.3,164.8,841.2,164.8,841.1z"/>
		<path class="st1" d="M164.9,839L164.9,839c0.1-0.1,0.2-0.1,0.3,0l2.1,2.1c0.1,0.1,0.1,0.2,0,0.3l0,0c-0.1,0.1-0.2,0.1-0.3,0
			l-2.1-2.1C164.8,839.2,164.8,839.1,164.9,839z"/>
		
			<ellipse transform="matrix(0.9545 -0.2983 0.2983 0.9545 -242.5256 91.2117)" class="st3" cx="177.6" cy="840.2" rx="2.5" ry="2.5"/>
		<path class="st1" d="M176.2,840.9l2.5-1.7c0.1-0.1,0.2,0,0.3,0.1l0,0c0.1,0.1,0,0.2-0.1,0.3l-2.5,1.7c-0.1,0.1-0.2,0-0.3-0.1l0,0
			C176.1,841.1,176.1,840.9,176.2,840.9z"/>
		<path class="st1" d="M176.6,838.8L176.6,838.8c0.1-0.1,0.2,0,0.3,0.1l1.7,2.5c0.1,0.1,0,0.2-0.1,0.3h0c-0.1,0.1-0.2,0-0.3-0.1
			l-1.7-2.5C176.5,839,176.5,838.8,176.6,838.8z"/>
		<ellipse transform="matrix(0.903 -0.4297 0.4297 0.903 -342.7152 162.7708)" class="st3" cx="189" cy="840.2" rx="2.6" ry="2.6"/>
		<path class="st1" d="M190.7,839.5L190.7,839.5c0.1,0.1,0,0.2-0.1,0.3l-2.9,1.4c-0.1,0.1-0.2,0-0.3-0.1l0,0c-0.1-0.1,0-0.2,0.1-0.3
			l2.9-1.4C190.5,839.3,190.6,839.4,190.7,839.5z"/>
		<path class="st1" d="M189.7,841.9L189.7,841.9c-0.1,0.1-0.2,0-0.3-0.1l-1.4-2.9c-0.1-0.1,0-0.2,0.1-0.3l0,0c0.1-0.1,0.2,0,0.3,0.1
			l1.4,2.9C189.9,841.8,189.9,841.9,189.7,841.9z"/>
		<path class="st3" d="M122.6,872.7c1.5,2.3,5.4,2.3,5.4,2.3v1.7C128,876.7,122.6,877.4,122.6,872.7"/>
		<path class="st3" d="M127.5,875h65.6c0.1,0,0.2,0.1,0.2,0.2v1.3c0,0.1-0.1,0.2-0.2,0.2h-65.6c-0.1,0-0.2-0.1-0.2-0.2v-1.3
			C127.3,875.1,127.4,875,127.5,875z"/>
		<path class="st3" d="M193.1,876.7c1.1,0,2.2-0.4,3-1.1c1-0.9,2.4-1.4,3.7-1.5c0,0-2.1-1.5-4.1-0.4c-0.8,0.6-1.7,0.9-2.6,1.1"/>
		<path class="st1" d="M134.1,876.8c0,0.7-1.1,1.2-2.6,1.2s-2.6-0.5-2.6-1.2H134.1z"/>
		<path class="st1" d="M145.6,876.8c0,0.7-1.1,1.2-2.6,1.2s-2.6-0.5-2.6-1.2H145.6z"/>
		<path class="st1" d="M157.1,876.8c0,0.7-1.1,1.2-2.6,1.2s-2.6-0.5-2.6-1.2H157.1z"/>
		<path class="st1" d="M168.6,876.8c0,0.7-1.1,1.2-2.6,1.2s-2.6-0.5-2.6-1.2H168.6z"/>
		<path class="st1" d="M180.1,876.8c0,0.7-1.1,1.2-2.6,1.2s-2.6-0.5-2.6-1.2H180.1z"/>
		<path class="st1" d="M191.6,876.8c0,0.7-1.1,1.2-2.6,1.2s-2.6-0.5-2.6-1.2H191.6z"/>
		<path class="st3" d="M126.5,846.8h8.7c0.6,0,1.1,0.5,1.1,1V868c0,0.6-0.5,1-1.1,1h-8.7c-0.6,0-1.1-0.5-1.1-1v-20.2
			C125.4,847.2,125.9,846.8,126.5,846.8z"/>
		<rect x="125.4" y="864.6" class="st5" width="10.8" height="0.5"/>
		<path class="st3" d="M125.4,865.1h10.8l0,0v3.4c0,0.3-0.2,0.5-0.5,0.5h-9.8c-0.3,0-0.5-0.2-0.5-0.5
			C125.4,868.5,125.4,865.1,125.4,865.1z"/>
		<rect x="125.4" y="850.3" class="st3" width="10.8" height="2.8"/>
		<path class="st6" d="M130.1,856.8h1.5c0.5,0,0.9,0.4,0.9,0.9v4c0,0.5-0.4,0.9-0.9,0.9h-1.5c-0.5,0-0.9-0.4-0.9-0.9v-4
			C129.2,857.2,129.6,856.8,130.1,856.8z"/>
		<path class="st3" d="M126.4,846.8h8.8c0.6,0,1,0.4,1,1v2.6l0,0h-10.8l0,0v-2.6C125.4,847.2,125.9,846.8,126.4,846.8
			C126.4,846.7,126.4,846.7,126.4,846.8z"/>
		<circle class="st5" cx="127.5" cy="851.7" r="1.3"/>
		<circle class="st1" cx="127.5" cy="851.7" r="0.9"/>
		<circle class="st3" cx="134.1" cy="851.7" r="1.3"/>
		<circle class="st1" cx="134.1" cy="851.7" r="0.9"/>
		<rect x="125.4" y="853.1" class="st5" width="10.8" height="0.5"/>
		<rect x="125.4" y="849.8" class="st5" width="10.8" height="0.5"/>
		<path class="st3" d="M138.3,846.8h8.7c0.6,0,1.1,0.5,1.1,1V868c0,0.6-0.5,1-1.1,1h-8.7c-0.6,0-1.1-0.5-1.1-1v-20.2
			C137.2,847.2,137.7,846.8,138.3,846.8z"/>
		<rect x="137.2" y="864.6" class="st5" width="10.8" height="0.5"/>
		<path class="st3" d="M137.2,865.1H148l0,0v3.4c0,0.3-0.2,0.5-0.5,0.5h-9.8c-0.3,0-0.5-0.2-0.5-0.5L137.2,865.1L137.2,865.1z"/>
		<rect x="137.2" y="850.3" class="st3" width="10.8" height="2.8"/>
		<path class="st6" d="M141.9,856.8h1.5c0.5,0,0.9,0.4,0.9,0.9v4c0,0.5-0.4,0.9-0.9,0.9h-1.5c-0.5,0-0.9-0.4-0.9-0.9v-4
			C141,857.2,141.4,856.8,141.9,856.8z"/>
		<path class="st3" d="M138.2,846.8h8.8c0.6,0,1,0.4,1,1v2.6l0,0h-10.8l0,0v-2.6C137.2,847.2,137.6,846.7,138.2,846.8
			C138.2,846.7,138.2,846.7,138.2,846.8z"/>
		<circle class="st3" cx="139.3" cy="851.7" r="1.3"/>
		<circle class="st1" cx="139.3" cy="851.7" r="0.9"/>
		<circle class="st3" cx="145.9" cy="851.7" r="1.3"/>
		<circle class="st1" cx="145.9" cy="851.7" r="0.9"/>
		<rect x="137.2" y="853.1" class="st5" width="10.8" height="0.5"/>
		<rect x="137.2" y="849.8" class="st5" width="10.8" height="0.5"/>
		<path class="st3" d="M150.1,846.7h8.7c0.6,0,1.1,0.5,1.1,1v20.2c0,0.6-0.5,1-1.1,1h-8.7c-0.6,0-1.1-0.5-1.1-1v-20.2
			C149.1,847.2,149.6,846.7,150.1,846.7z"/>
		<rect x="149.1" y="864.6" class="st5" width="10.8" height="0.5"/>
		<path class="st3" d="M149.1,865.1h10.8l0,0v3.4c0,0.3-0.2,0.5-0.5,0.5h-9.8c-0.3,0-0.5-0.2-0.5-0.5V865.1L149.1,865.1z"/>
		<rect x="149.1" y="850.3" class="st3" width="10.8" height="2.8"/>
		<path class="st6" d="M153.7,856.8h1.5c0.5,0,0.9,0.4,0.9,0.9v4c0,0.5-0.4,0.9-0.9,0.9h-1.5c-0.5,0-0.9-0.4-0.9-0.9v-4
			C152.8,857.2,153.2,856.8,153.7,856.8z"/>
		<path class="st3" d="M150.1,846.7h8.8c0.6,0,1,0.4,1,1v2.6l0,0h-10.8l0,0v-2.6C149.1,847.2,149.5,846.7,150.1,846.7
			C150.1,846.7,150.1,846.7,150.1,846.7z"/>
		<circle class="st3" cx="151.2" cy="851.7" r="1.3"/>
		<circle class="st1" cx="151.2" cy="851.7" r="0.9"/>
		<circle class="st3" cx="157.7" cy="851.7" r="1.3"/>
		<circle class="st1" cx="157.7" cy="851.7" r="0.9"/>
		<rect x="149.1" y="853.1" class="st5" width="10.8" height="0.5"/>
		<rect x="149.1" y="849.8" class="st5" width="10.8" height="0.5"/>
		<path class="st3" d="M161.9,846.7h8.7c0.6,0,1.1,0.5,1.1,1v20.2c0,0.6-0.5,1-1.1,1h-8.7c-0.6,0-1.1-0.5-1.1-1v-20.2
			C160.8,847.2,161.3,846.7,161.9,846.7z"/>
		<rect x="160.8" y="864.6" class="st5" width="10.8" height="0.5"/>
		<path class="st3" d="M160.8,865.1h10.8l0,0v3.4c0,0.3-0.2,0.5-0.5,0.5h-9.8c-0.3,0-0.5-0.2-0.5-0.5V865.1L160.8,865.1z"/>
		<rect x="160.8" y="850.3" class="st3" width="10.8" height="2.8"/>
		<path class="st6" d="M165.4,856.8h1.5c0.5,0,0.9,0.4,0.9,0.9v4c0,0.5-0.4,0.9-0.9,0.9h-1.5c-0.5,0-0.9-0.4-0.9-0.9v-4
			C164.5,857.2,164.9,856.8,165.4,856.8z"/>
		<path class="st3" d="M161.8,846.7h8.8c0.6,0,1,0.4,1,1v2.6l0,0h-10.8l0,0v-2.6C160.8,847.2,161.2,846.7,161.8,846.7z"/>
		<circle class="st3" cx="162.9" cy="851.7" r="1.3"/>
		<circle class="st1" cx="162.9" cy="851.7" r="0.9"/>
		<circle class="st3" cx="169.4" cy="851.7" r="1.3"/>
		<circle class="st1" cx="169.4" cy="851.7" r="0.9"/>
		<rect x="160.8" y="853.1" class="st5" width="10.8" height="0.5"/>
		<rect x="160.8" y="849.8" class="st5" width="10.8" height="0.5"/>
		<path class="st3" d="M173.7,846.6h8.7c0.6,0,1.1,0.5,1.1,1v20.2c0,0.6-0.5,1-1.1,1h-8.7c-0.6,0-1.1-0.5-1.1-1v-20.2
			C172.7,847,173.1,846.6,173.7,846.6z"/>
		<rect x="172.7" y="864.4" class="st5" width="10.8" height="0.5"/>
		<path class="st3" d="M172.7,864.9h10.8l0,0v3.4c0,0.3-0.2,0.5-0.5,0.5h-9.8c-0.3,0-0.5-0.2-0.5-0.5V864.9L172.7,864.9z"/>
		<rect x="172.7" y="850.2" class="st3" width="10.8" height="2.8"/>
		<path class="st6" d="M177.3,856.6h1.5c0.5,0,0.9,0.4,0.9,0.9v4c0,0.5-0.4,0.9-0.9,0.9h-1.5c-0.5,0-0.9-0.4-0.9-0.9v-4
			C176.4,857,176.8,856.6,177.3,856.6z"/>
		<path class="st3" d="M173.7,846.6h8.8c0.6,0,1,0.4,1,1v2.6l0,0h-10.8l0,0v-2.6C172.6,847,173.1,846.6,173.7,846.6
			C173.7,846.6,173.7,846.6,173.7,846.6z"/>
		<circle class="st3" cx="174.8" cy="851.5" r="1.3"/>
		<circle class="st1" cx="174.8" cy="851.5" r="0.9"/>
		<circle class="st3" cx="181.3" cy="851.5" r="1.3"/>
		<circle class="st1" cx="181.3" cy="851.5" r="0.9"/>
		<rect x="172.7" y="852.9" class="st5" width="10.8" height="0.5"/>
		<rect x="172.7" y="849.6" class="st5" width="10.8" height="0.5"/>
		<path class="st3" d="M185.4,846.6h8.7c0.6,0,1.1,0.5,1.1,1v20.2c0,0.6-0.5,1-1.1,1h-8.7c-0.6,0-1.1-0.5-1.1-1v-20.2
			C184.4,847,184.8,846.6,185.4,846.6z"/>
		<rect x="184.4" y="864.4" class="st5" width="10.8" height="0.5"/>
		<path class="st3" d="M184.4,864.9h10.8l0,0v3.4c0,0.3-0.2,0.5-0.5,0.5h-9.8c-0.3,0-0.5-0.2-0.5-0.5V864.9L184.4,864.9z"/>
		<rect x="184.4" y="850.2" class="st3" width="10.8" height="2.8"/>
		<path class="st6" d="M189,856.6h1.5c0.5,0,0.9,0.4,0.9,0.9v4c0,0.5-0.4,0.9-0.9,0.9H189c-0.5,0-0.9-0.4-0.9-0.9v-4
			C188.1,857,188.5,856.6,189,856.6z"/>
		<path class="st3" d="M185.4,846.6h8.8c0.6,0,1,0.4,1,1v2.6l0,0h-10.8l0,0v-2.6C184.4,847,184.8,846.6,185.4,846.6
			C185.4,846.6,185.4,846.6,185.4,846.6z"/>
		<circle class="st3" cx="186.5" cy="851.5" r="1.3"/>
		<circle class="st1" cx="186.5" cy="851.5" r="0.9"/>
		<circle class="st3" cx="193" cy="851.5" r="1.3"/>
		<circle class="st1" cx="193" cy="851.5" r="0.9"/>
		<rect x="184.4" y="852.9" class="st5" width="10.8" height="0.5"/>
		<rect x="184.4" y="849.6" class="st5" width="10.8" height="0.5"/>
		<path class="st7" d="M297.7,892.2c-4.1,0-9.1-2-15.1-6c-4.2-2.8-9.2-7-14-11.1c-2.5-2.1-5.1-4.3-7.4-6.2
			c-5.7-4.6-11.9-8.4-18.4-11.5c-8.5-3.9-17.5-6.2-26.8-6.9l-16.2-1.3c-0.7-0.1-1.2-0.6-1.2-1.3v-5.6c0-3.6-2.9-6.6-6.6-6.6
			l-63.2,0.2c-3.9,0-7,3.1-7,7v7.9c0,0.5-0.4,0.9-0.9,1c-0.8,0.1-1.6,0.1-2.3,0.1c-6.5,0.1-12.8-1.8-18.1-5.5
			c-7.8-5.7-12.3-15.4-13.3-28.9c-1.1-15.3,0.6-30.6,5.2-45.2c0.7-2,18.1-49.3,19.8-55c3.4-11.7,3-26.7,2-37.3
			c-0.7-6.9-1.7-13.7-3.1-20.4l-3.3-15.5c-0.7-3-0.1-6.2,1.5-8.8c1.6-2.4,3.6-3.6,6-3.6c0.9,0,1.8,0.2,2.7,0.5l14.2,5.8v25.3
			c0,2.1,1.7,3.8,3.8,3.9c1.5,0.3,19.5,3.3,25.8,3.3s24.2-3.2,24.9-3.4c2-0.1,3.7-1.8,3.7-3.9v-1.3c0-0.1,0.1-0.1,0.1-0.1
			c10.6,5.7,20.9,8.6,30.9,8.6c25.6,0,42.5-18.8,48-37.4c2.3-7.6,3.9-15.4,4.8-23.2c0-0.7,0.4-1.3,0.9-1.7c0.1,0,0.1-0.1,0.2-0.1
			c0.4-0.1,0.8-0.2,1.2-0.2c0.6,0,1.2,0.1,1.7,0.4c11.8,4.9,9,35.7,7.3,48.7c-0.7,5.3-1.9,10.4-3.7,15.5c-1.7,4.8-4,10.6-6.9,18
			c-2.5,6.2-5.2,13.3-8.4,21.6c-6.5,17.3-1.9,40.3,1.4,52.5c1.5,5.5,3.5,10.9,5.8,16.1l19.1,42.2c7.6,15.4,12.9,31.9,15.9,48.8
			c0.7,3.8,0.5,7.7-0.6,11.4C306.2,889.1,302.7,892.2,297.7,892.2z"/>
		<path class="st8" d="M276.4,608.6c0.5,0,0.9,0.1,1.3,0.3c7.7,3.2,10.2,21,6.7,47.7c-0.7,5.2-1.9,10.3-3.6,15.2
			c-1.7,4.8-4,10.6-6.9,18c-2.5,6.2-5.2,13.3-8.4,21.6c-6.6,17.6-2,40.8,1.4,53.1c1.5,5.6,3.5,11,5.9,16.2l19.1,42.2l0,0l0,0
			c7.5,15.4,12.8,31.7,15.8,48.5c0.7,3.6,0.5,7.4-0.5,10.9c-1.7,5.8-4.9,8.8-9.5,8.8c-3.9,0-8.8-2-14.5-5.9c-4.1-2.8-9.1-7-13.9-11
			c-2.5-2.1-5.1-4.3-7.5-6.2c-5.7-4.6-12-8.5-18.6-11.7c-8.6-3.9-17.8-6.3-27.1-7l-16.2-1.3c-0.2,0-0.3-0.1-0.3-0.3v-5.6
			c0-4.2-3.4-7.6-7.6-7.6c0,0,0,0,0,0l-63.2,0.2c-4.4,0-8,3.6-8,8v7.9c-0.7,0-1.5,0.1-2.2,0.1c-6.2,0.1-12.4-1.8-17.5-5.4
			c-7.5-5.5-11.9-15-12.9-28.2c-1.1-15.1,0.6-30.3,5.1-44.8c0.7-2,18.1-49.4,19.8-55c2.8-9.5,3.5-22.2,2-37.7
			c-0.6-6.8-1.6-13.6-3-20.4l-3.3-15.5c-0.6-2.7-0.1-5.6,1.4-8c1.4-2.1,3.1-3.2,5.1-3.2c0.8,0,1.6,0.1,2.3,0.4l13.6,5.5v24.6
			c0,2.6,2.1,4.8,4.7,4.9c1.9,0.3,19.6,3.3,25.9,3.3s23.8-3.2,25.1-3.4c2.5-0.2,4.4-2.2,4.6-4.7c10.2,5.3,20.3,8,30,8
			c11.5,0.1,22.6-3.9,31.5-11.3c8.3-7,14.4-16.4,17.5-26.8c2.4-7.6,4-15.5,4.8-23.5c0-0.4,0.2-0.8,0.5-1.1
			C275.9,608.7,276.1,608.7,276.4,608.6 M276.4,606.7c-0.5,0-1,0.1-1.5,0.3c-0.2,0.1-0.3,0.2-0.5,0.3c-0.8,0.6-1.2,1.5-1.3,2.5
			c-0.8,7.8-2.4,15.5-4.8,23.1c-5.9,20-23.4,36.7-47.1,36.7c-9.3,0-19.5-2.5-30.4-8.4c-0.2-0.1-0.4-0.1-0.5-0.1
			c-0.6,0-1.1,0.5-1.1,1.1c0,0,0,0,0,0v1.3c-0.1,1.6-1.3,2.8-2.9,2.9c0,0-18.6,3.3-24.8,3.3c-6.4,0-25.7-3.3-25.7-3.3
			c-1.6,0-2.9-1.3-2.9-2.9l0,0v-25.5c0-0.3-0.2-0.6-0.5-0.7l-14.4-5.9c-1-0.3-2-0.5-3-0.5c-2.8,0.1-5.4,1.6-6.8,4.1
			c-1.8,2.8-2.4,6.3-1.7,9.6l3.3,15.5c0,0,7.7,34.9,1.1,57.1c-1.7,5.7-19.8,54.9-19.8,54.9c-4.6,14.7-6.4,30.2-5.2,45.7
			c2.5,31.8,23.3,35.4,32.4,35.4c0.9,0,1.8,0,2.4-0.1c1-0.1,1.8-0.9,1.8-2v-7.9c0-3.3,2.7-6,6-6l63.2-0.2l0,0c3.1,0,5.6,2.5,5.6,5.6
			l0,0v5.6c0,1.2,0.9,2.2,2.1,2.3l16.2,1.3c9.2,0.7,18.1,3,26.5,6.8c6.5,3.1,12.6,6.9,18.2,11.4c6.9,5.5,15.1,13,21.5,17.3
			c6.7,4.5,11.8,6.2,15.6,6.2c6.9,0,10-5.3,11.4-10.2c1.1-3.8,1.3-7.9,0.6-11.8c-3-17-8.3-33.6-15.9-49.1L274.6,780
			c-2.3-5.2-4.3-10.5-5.8-16c-3.5-12.9-7.8-35.1-1.4-51.9c6.9-18.1,12.1-30.7,15.3-39.6c1.8-5.1,3-10.3,3.8-15.7
			c1.8-13.7,4.5-44.7-7.9-49.8C277.9,606.8,277.2,606.6,276.4,606.7L276.4,606.7z"/>
		<g id="jack_plug">
			<path class="st3" d="M290.5,932.8c5.4-7.4-5.8-23-23.4-36.9c-30-23.7-37.4-17.5-42.8-10.2c-4.9,6.9-8.7,16.7,23.6,37.2
				C266.9,934.9,285.3,940.3,290.5,932.8"/>
			<path class="st4" d="M289.5,932.8c5.4-7.4-5.8-23-23.4-36.9c-30-23.7-37.4-17.5-42.8-10.2c-4.9,6.9-8.7,16.7,23.6,37.2
				C265.9,934.9,284.3,940.3,289.5,932.8"/>
			<path class="st3" d="M243.7,901.5c3.2-4.9,6.5-10,20.6-0.8c1.2,0.8,21.3,13.9,14.8,23.9s-26.6-3.2-27.8-3.9
				C237.2,911.5,240.5,906.4,243.7,901.5z"/>
		</g>
		<circle class="st9" cx="289.8" cy="869" r="12"/>
		<circle class="st9" cx="255.5" cy="839.3" r="12"/>
		<circle class="st9" cx="216.7" cy="819" r="12"/>
		<path class="st10" d="M134.6,699.7c-4.7,0-8.5-3.8-8.5-8.5c0-4.7,3.8-8.5,8.5-8.5h52.3c4.7,0,8.5,3.8,8.5,8.5
			c0,4.7-3.8,8.5-8.5,8.5H134.6z"/>
		<path class="st9" d="M186.9,683.3c4.4,0.4,7.6,4.3,7.2,8.7c-0.4,3.8-3.4,6.9-7.2,7.2h-52.3c-4.4-0.4-7.6-4.3-7.2-8.7
			c0.4-3.8,3.4-6.9,7.2-7.2H186.9 M186.9,682.3h-52.3c-5,0-9,4-9,9l0,0c0,5,4,9,9,9h52.3c5,0,9-4,9-9l0,0
			C195.9,686.3,191.8,682.3,186.9,682.3z"/>
		<path class="st10" d="M134.6,760.7c-4.7,0-8.5-3.8-8.5-8.5c0-4.7,3.8-8.5,8.5-8.5h52.3c4.7,0,8.5,3.8,8.5,8.5
			c0,4.7-3.8,8.5-8.5,8.5H134.6z"/>
		<path class="st9" d="M186.9,744.3c4.4,0.4,7.6,4.3,7.2,8.7c-0.4,3.8-3.4,6.9-7.2,7.2h-52.3c-4.4-0.4-7.6-4.3-7.2-8.7
			c0.4-3.8,3.4-6.9,7.2-7.2H186.9 M186.9,743.3h-52.3c-5,0-9,4-9,9l0,0c0,5,4,9,9,9h52.3c5,0,9-4,9-9l0,0
			C195.9,747.3,191.8,743.3,186.9,743.3z"/>
		<path class="st10" d="M187.4,822.7c-0.5,0-0.9,0-1.4-0.1l-51.6-8.4c-4.6-0.8-7.7-5.1-7-9.7c0.8-4.6,5.1-7.7,9.7-7l0,0l51.6,8.4
			c4.6,0.8,7.7,5.1,7,9.7C195.1,819.7,191.6,822.7,187.4,822.7z"/>
		<path class="st9" d="M135.9,797.9L135.9,797.9c0.4,0,0.9,0,1.3,0.1l51.6,8.4c4.3,1.1,6.8,5.5,5.7,9.8c-1,3.7-4.4,6.2-8.3,5.9
			l-51.6-8.4c-4.3-0.7-7.3-4.8-6.6-9.1C128.6,800.7,132,797.9,135.9,797.9 M135.9,796.9c-5,0.2-8.8,4.4-8.6,9.4
			c0.2,4.1,3.1,7.6,7.2,8.5l51.6,8.4c5,0.3,9.3-3.4,9.6-8.4c0.3-4.3-2.5-8.2-6.7-9.3l-51.6-8.4C136.8,796.9,136.3,796.9,135.9,796.9
			L135.9,796.9z"/>
		<path class="st1" d="M248.8,784.2l0.8-0.8c0.5-0.4,1.2-0.4,1.7,0.1l17,18.5c0.4,0.5,0.4,1.2-0.1,1.7l-0.8,0.8
			c-0.5,0.4-1.2,0.4-1.7-0.1l-17-18.5C248.3,785.4,248.4,784.6,248.8,784.2z"/>
		<circle class="st9" cx="260" cy="795.5" r="3.7"/>
		<path class="st9" d="M260,792.3c1.7,0,3.1,1.4,3.1,3.2c0,1.7-1.4,3.1-3.1,3.1c-1.7,0-3.1-1.4-3.1-3.1S258.3,792.3,260,792.3
			C260,792.3,260,792.3,260,792.3 M260,791.3c-2.3,0-4.2,1.9-4.2,4.2c0,2.3,1.9,4.1,4.2,4.1c2.3,0,4.1-1.9,4.1-4.1
			S262.3,791.3,260,791.3C260,791.3,260,791.3,260,791.3z"/>
		<circle class="st3" cx="134.5" cy="691.3" r="2.3"/>
		
			<ellipse transform="matrix(8.559088e-02 -0.9963 0.9963 8.559088e-02 -556.1187 776.6967)" class="st3" cx="145.1" cy="691.3" rx="2.3" ry="2.3"/>
		
			<ellipse transform="matrix(0.1724 -0.985 0.985 0.1724 -552.1084 725.4755)" class="st3" cx="155.7" cy="691.3" rx="2.3" ry="2.3"/>
		
			<ellipse transform="matrix(0.2587 -0.966 0.966 0.2587 -544.5038 673.171)" class="st3" cx="166.3" cy="691.3" rx="2.3" ry="2.3"/>
		
			<ellipse transform="matrix(0.3422 -0.9396 0.9396 0.3422 -533.2079 621.0248)" class="st3" cx="176.9" cy="691.3" rx="2.3" ry="2.3"/>
		
			<ellipse transform="matrix(0.4212 -0.907 0.907 0.4212 -518.3799 570.2101)" class="st3" cx="187.6" cy="691.2" rx="2.3" ry="2.3"/>
		<circle class="st3" cx="134.6" cy="752.4" r="2.3"/>
		
			<ellipse transform="matrix(8.559088e-02 -0.9963 0.9963 8.559088e-02 -616.8949 832.8062)" class="st3" cx="145.3" cy="752.5" rx="2.3" ry="2.3"/>
		
			<ellipse transform="matrix(0.1724 -0.985 0.985 0.1724 -612.2083 776.2586)" class="st3" cx="155.9" cy="752.5" rx="2.3" ry="2.3"/>
		
			<ellipse transform="matrix(0.2587 -0.966 0.966 0.2587 -603.4593 718.6823)" class="st3" cx="166.5" cy="752.5" rx="2.3" ry="2.3"/>
		
			<ellipse transform="matrix(0.3422 -0.9396 0.9396 0.3422 -590.5649 661.4117)" class="st3" cx="177.1" cy="752.5" rx="2.3" ry="2.3"/>
		
			<ellipse transform="matrix(0.4212 -0.907 0.907 0.4212 -573.7504 605.7783)" class="st3" cx="187.7" cy="752.4" rx="2.3" ry="2.3"/>
		
			<ellipse transform="matrix(0.1716 -0.9852 0.9852 0.1716 -681.4338 800.0931)" class="st3" cx="135" cy="805.2" rx="2.3" ry="2.3"/>
		
			<ellipse transform="matrix(0.2551 -0.9669 0.9669 0.2551 -671.8918 741.7985)" class="st3" cx="145.5" cy="807" rx="2.3" ry="2.3"/>
		
			<ellipse transform="matrix(0.3387 -0.9409 0.9409 0.3387 -657.8505 681.5759)" class="st3" cx="156" cy="808.8" rx="2.3" ry="2.3"/>
		
			<ellipse transform="matrix(0.4204 -0.9073 0.9073 0.4204 -639.053 620.8525)" class="st3" cx="166.4" cy="810.6" rx="2.3" ry="2.3"/>
		
			<ellipse transform="matrix(0.4982 -0.8671 0.8671 0.4982 -615.6818 561.078)" class="st3" cx="176.9" cy="812.4" rx="2.3" ry="2.3"/>
		
			<ellipse transform="matrix(0.5706 -0.8212 0.8212 0.5706 -588.3133 503.5476)" class="st3" cx="187.3" cy="814.3" rx="2.3" ry="2.3"/>
		
			<ellipse transform="matrix(0.8823 -0.4707 0.4707 0.8823 -287.4507 129.6496)" class="st3" cx="115.5" cy="639.6" rx="2.6" ry="2.6"/>
		<path class="st1" d="M114.6,638L114.6,638c0.1-0.1,0.2,0,0.3,0.1l1.5,2.8c0.1,0.1,0,0.2-0.1,0.3l0,0c-0.1,0.1-0.2,0-0.3-0.1
			l-1.5-2.8C114.5,638.1,114.5,638,114.6,638z"/>
		<path class="st1" d="M117,638.7L117,638.7c0.1,0.1,0,0.2-0.1,0.3l-2.8,1.5c-0.1,0.1-0.2,0-0.3-0.1l0,0c-0.1-0.1,0-0.2,0.1-0.3
			l2.8-1.5C116.8,638.5,117,638.6,117,638.7z"/>
		
			<ellipse transform="matrix(0.2473 -0.9689 0.9689 0.2473 -501.7942 695.7322)" class="st3" cx="196.9" cy="670.9" rx="2.6" ry="2.6"/>
		<path class="st1" d="M197.4,669.1L197.4,669.1c0.1,0,0.2,0.1,0.2,0.3l-0.8,3.1c0,0.1-0.1,0.2-0.3,0.2l0,0c-0.1,0-0.2-0.1-0.2-0.3
			l0.8-3.1C197.2,669.2,197.3,669.1,197.4,669.1z"/>
		<path class="st1" d="M198.7,671.4L198.7,671.4c0,0.1-0.1,0.2-0.3,0.2l-3.1-0.8c-0.1,0-0.2-0.1-0.2-0.3l0,0c0-0.1,0.1-0.2,0.3-0.2
			l3.1,0.8C198.7,671.1,198.7,671.3,198.7,671.4z"/>
		
			<ellipse transform="matrix(0.3206 -0.9472 0.9472 0.3206 -460.1342 721.2264)" class="st3" cx="272.7" cy="681.4" rx="2.6" ry="2.6"/>
		<path class="st1" d="M273.2,679.6L273.2,679.6c0.1,0,0.2,0.2,0.1,0.3l-1,3.1c0,0.1-0.2,0.2-0.3,0.1l0,0c-0.1,0-0.2-0.2-0.1-0.3
			l1-3.1C273,679.6,273.1,679.6,273.2,679.6z"/>
		<path class="st1" d="M274.4,681.9L274.4,681.9c0,0.1-0.2,0.2-0.3,0.1l-3.1-1c-0.1,0-0.2-0.2-0.1-0.3l0,0c0-0.1,0.2-0.2,0.3-0.1
			l3.1,1C274.4,681.6,274.5,681.7,274.4,681.9z"/>
		
			<ellipse transform="matrix(0.8795 -0.4759 0.4759 0.8795 -262.006 207.7439)" class="st3" cx="279.2" cy="621.2" rx="2.6" ry="2.6"/>
		<path class="st1" d="M278.3,619.6L278.3,619.6c0.1-0.1,0.2,0,0.3,0.1l1.5,2.8c0.1,0.1,0,0.2-0.1,0.3l0,0c-0.1,0.1-0.2,0-0.3-0.1
			l-1.5-2.8C278.2,619.8,278.2,619.6,278.3,619.6z"/>
		<path class="st1" d="M280.8,620.3L280.8,620.3c0.1,0.1,0,0.2-0.1,0.3l-2.8,1.5c-0.1,0.1-0.2,0-0.3-0.1l0,0c-0.1-0.1,0-0.2,0.1-0.3
			l2.8-1.5C280.6,620.2,280.8,620.2,280.8,620.3z"/>
		
			<ellipse transform="matrix(0.7697 -0.6384 0.6384 0.7697 -434.2833 348.2119)" class="st3" cx="265.5" cy="776.1" rx="2.6" ry="2.6"/>
		<path class="st1" d="M264.3,774.7L264.3,774.7c0.1-0.1,0.2-0.1,0.3,0l2.1,2.5c0.1,0.1,0.1,0.2,0,0.3l0,0c-0.1,0.1-0.2,0.1-0.3,0
			l-2.1-2.5C264.2,774.9,264.3,774.7,264.3,774.7z"/>
		<path class="st1" d="M266.9,774.9L266.9,774.9c0.1,0.1,0.1,0.2,0,0.3l-2.5,2.1c-0.1,0.1-0.2,0.1-0.3,0l0,0c-0.1-0.1-0.1-0.2,0-0.3
			l2.5-2.1C266.7,774.8,266.8,774.8,266.9,774.9z"/>
		
			<ellipse transform="matrix(0.9554 -0.2954 0.2954 0.9554 -231.146 121.9626)" class="st3" cx="288.1" cy="826.1" rx="2.6" ry="2.6"/>
		<path class="st1" d="M287.6,824.3L287.6,824.3c0.1,0,0.2,0,0.3,0.1l1,3.1c0,0.1,0,0.2-0.1,0.3l0,0c-0.1,0-0.2,0-0.3-0.1l-1-3.1
			C287.4,824.5,287.5,824.4,287.6,824.3z"/>
		<path class="st1" d="M289.9,825.5L289.9,825.5c0,0.1,0,0.2-0.1,0.3l-3.1,1c-0.1,0-0.2,0-0.3-0.1l0,0c0-0.1,0-0.2,0.1-0.3l3.1-1
			C289.7,825.3,289.8,825.3,289.9,825.5z"/>
		
			<ellipse transform="matrix(0.4319 -0.9019 0.9019 0.4319 -626.0909 771.0911)" class="st3" cx="299.1" cy="882.6" rx="2.6" ry="2.6"/>
		<path class="st1" d="M299.8,880.9L299.8,880.9c0.1,0.1,0.2,0.2,0.1,0.3l-1.4,2.9c-0.1,0.1-0.2,0.2-0.3,0.1l0,0
			c-0.1-0.1-0.2-0.2-0.1-0.3l1.4-2.9C299.6,880.9,299.7,880.8,299.8,880.9z"/>
		<path class="st1" d="M300.7,883.3L300.7,883.3c-0.1,0.1-0.2,0.2-0.3,0.1l-2.9-1.4c-0.1-0.1-0.2-0.2-0.1-0.3l0,0
			c0.1-0.1,0.2-0.2,0.3-0.1l2.9,1.4C300.7,883,300.8,883.2,300.7,883.3z"/>
		<ellipse transform="matrix(0.941 -0.3384 0.3384 0.941 -273.8412 119.4186)" class="st3" cx="205.6" cy="845" rx="2.6" ry="2.6"/>
		<path class="st1" d="M204.9,843.3L204.9,843.3c0.1,0,0.2,0,0.3,0.1l1.1,3c0,0.1,0,0.2-0.1,0.3l0,0c-0.1,0-0.2,0-0.3-0.1l-1.1-3
			C204.8,843.5,204.8,843.4,204.9,843.3z"/>
		<path class="st1" d="M207.3,844.4L207.3,844.4c0,0.1,0,0.2-0.1,0.3l-3,1.1c-0.1,0-0.2,0-0.3-0.1l0,0c0-0.1,0-0.2,0.1-0.3l3-1.1
			C207.1,844.2,207.2,844.3,207.3,844.4z"/>
		
			<ellipse transform="matrix(0.3075 -0.9515 0.9515 0.3075 -726.609 691.2173)" class="st3" cx="111.6" cy="844.8" rx="2.6" ry="2.6"/>
		<path class="st1" d="M112.2,843.1L112.2,843.1c0.1,0,0.2,0.2,0.1,0.3l-1,3.1c0,0.1-0.2,0.2-0.3,0.1l0,0c-0.1,0-0.2-0.2-0.1-0.3
			l1-3.1C111.9,843.1,112,843,112.2,843.1z"/>
		<path class="st1" d="M113.3,845.4L113.3,845.4c0,0.1-0.2,0.2-0.3,0.1l-3.1-1c-0.1,0-0.2-0.2-0.1-0.3l0,0c0-0.1,0.2-0.2,0.3-0.1
			l3.1,1C113.3,845.2,113.4,845.3,113.3,845.4z"/>
		
			<ellipse transform="matrix(0.8548 -0.5189 0.5189 0.8548 -397.6019 164.088)" class="st3" cx="94.5" cy="792.6" rx="2.6" ry="2.6"/>
		<path class="st1" d="M93.5,791.1L93.5,791.1c0.1-0.1,0.2,0,0.3,0.1l1.7,2.8c0.1,0.1,0,0.2-0.1,0.3l0,0c-0.1,0.1-0.2,0-0.3-0.1
			l-1.7-2.8C93.4,791.3,93.4,791.1,93.5,791.1z"/>
		<path class="st1" d="M96,791.7L96,791.7c0.1,0.1,0,0.2-0.1,0.3l-2.8,1.7c-0.1,0.1-0.2,0-0.3-0.1l0,0c-0.1-0.1,0-0.2,0.1-0.3
			l2.8-1.7C95.8,791.6,95.9,791.6,96,791.7z"/>
		
			<ellipse transform="matrix(0.7263 -0.6873 0.6873 0.7263 -479.1815 279.5763)" class="st3" cx="111.5" cy="741.5" rx="2.6" ry="2.6"/>
		<path class="st1" d="M110.2,740.2L110.2,740.2c0.1-0.1,0.2-0.1,0.3,0l2.2,2.3c0.1,0.1,0.1,0.2,0,0.3l0,0c-0.1,0.1-0.2,0.1-0.3,0
			l-2.2-2.3C110.2,740.4,110.2,740.3,110.2,740.2z"/>
		<path class="st1" d="M112.8,740.4L112.8,740.4c0.1,0.1,0.1,0.2,0,0.3l-2.3,2.2c-0.1,0.1-0.2,0.1-0.3,0l0,0c-0.1-0.1-0.1-0.2,0-0.3
			l2.3-2.2C112.6,740.3,112.8,740.3,112.8,740.4z"/>
		
			<ellipse transform="matrix(0.7851 -0.6194 0.6194 0.7851 -422.8916 285.9209)" class="st3" cx="200.6" cy="752.4" rx="3.3" ry="3.3"/>
		<path class="st1" d="M202.4,751L202.4,751c0.1,0.2,0.1,0.3,0,0.4l-3.3,2.6c-0.1,0.1-0.2,0.1-0.3,0l-0.1-0.1
			c-0.1-0.1-0.1-0.2,0-0.3l3.3-2.6C202.2,750.9,202.3,750.9,202.4,751z"/>
		<path class="st1" d="M202,754.3L202,754.3c-0.2,0.1-0.3,0.1-0.4,0L199,751c-0.1-0.1-0.1-0.2,0-0.3l0.1-0.1c0.1-0.1,0.2-0.1,0.3,0
			l2.6,3.3C202.1,754.1,202.1,754.2,202,754.3z"/>
		
			<ellipse transform="matrix(0.4871 -0.8733 0.8733 0.4871 -594.5729 491.9904)" class="st3" cx="121.6" cy="752.2" rx="3.3" ry="3.3"/>
		<path class="st1" d="M123.6,753.3L123.6,753.3c-0.1,0.2-0.2,0.2-0.4,0.2l-3.6-2c-0.1-0.1-0.1-0.2-0.1-0.3l0.1-0.1
			c0.1-0.1,0.2-0.1,0.3-0.1l3.6,2C123.6,753.1,123.7,753.2,123.6,753.3z"/>
		<path class="st1" d="M120.5,754.3L120.5,754.3c-0.2-0.1-0.2-0.2-0.2-0.4l2-3.6c0.1-0.1,0.2-0.1,0.3-0.1l0.1,0.1
			c0.1,0.1,0.1,0.2,0.1,0.3l-2,3.6C120.7,754.3,120.6,754.3,120.5,754.3z"/>
		
			<ellipse transform="matrix(0.9021 -0.4315 0.4315 0.9021 -278.6476 154.1288)" class="st3" cx="200.4" cy="691.3" rx="3.3" ry="3.3"/>
		<path class="st1" d="M202.5,690.2L202.5,690.2c0.1,0.2,0.1,0.3-0.1,0.4l-3.8,1.8c-0.1,0.1-0.2,0-0.3-0.1l0-0.1
			c-0.1-0.1,0-0.2,0.1-0.3l3.8-1.8C202.3,690.1,202.4,690.1,202.5,690.2z"/>
		<path class="st1" d="M201.5,693.3L201.5,693.3c-0.2,0.1-0.3,0.1-0.4-0.1l-1.8-3.8c-0.1-0.1,0-0.2,0.1-0.3l0.1,0
			c0.1-0.1,0.2,0,0.3,0.1l1.8,3.8C201.7,693.1,201.6,693.3,201.5,693.3z"/>
		<ellipse transform="matrix(0.67 -0.7423 0.7423 0.67 -473.0639 318.3369)" class="st3" cx="121.6" cy="691.3" rx="3.3" ry="3.3"/>
		<path class="st1" d="M123.1,689.5L123.1,689.5c0.2,0.2,0.2,0.3,0.1,0.4l-2.8,3.1c-0.1,0.1-0.2,0.1-0.3,0l-0.1-0.1
			c-0.1-0.1-0.1-0.2,0-0.3l2.8-3.1C122.8,689.4,123,689.4,123.1,689.5z"/>
		<path class="st1" d="M123.3,692.8L123.3,692.8c-0.2,0.2-0.3,0.2-0.4,0.1l-3.1-2.8c-0.1-0.1-0.1-0.2,0-0.3l0.1-0.1
			c0.1-0.1,0.2-0.1,0.3,0l3.1,2.8C123.4,692.5,123.4,692.7,123.3,692.8z"/>
		
			<ellipse transform="matrix(0.5737 -0.8191 0.8191 0.5737 -604.9604 441.4126)" class="st3" cx="121.6" cy="801.9" rx="3.3" ry="3.3"/>
		<path class="st1" d="M122.9,800L122.9,800c0.2,0.1,0.2,0.3,0.1,0.4l-2.4,3.4c-0.1,0.1-0.2,0.1-0.3,0.1l-0.1-0.1
			c-0.1-0.1-0.1-0.2-0.1-0.3l2.4-3.4C122.6,800,122.8,799.9,122.9,800z"/>
		<path class="st1" d="M123.5,803.2L123.5,803.2c-0.1,0.2-0.3,0.2-0.4,0.1l-3.4-2.4c-0.1-0.1-0.1-0.2-0.1-0.3l0.1-0.1
			c0.1-0.1,0.2-0.1,0.3-0.1l3.4,2.4C123.5,803,123.5,803.1,123.5,803.2z"/>
		
			<ellipse transform="matrix(1.535825e-02 -0.9999 0.9999 1.535825e-02 -618.1821 1003.7534)" class="st3" cx="200.6" cy="815.8" rx="3.3" ry="3.3"/>
		<path class="st1" d="M200.5,813.4l0.1,0c0.1,0,0.2,0.1,0.2,0.2l-0.1,4.2c0,0.1-0.1,0.2-0.2,0.2l-0.1,0c-0.1,0-0.2-0.1-0.2-0.2
			l0.1-4.2C200.3,813.5,200.4,813.4,200.5,813.4z"/>
		<path class="st1" d="M202.8,815.7l0,0.1c0,0.1-0.1,0.2-0.2,0.2l-4.2-0.1c-0.1,0-0.2-0.1-0.2-0.2l0-0.1c0-0.1,0.1-0.2,0.2-0.2
			l4.2,0.1C202.8,815.5,202.8,815.6,202.8,815.7z"/>
		
			<ellipse transform="matrix(0.995 -9.984075e-02 9.984075e-02 0.995 -79.4165 31.2508)" class="st3" cx="272.5" cy="809.1" rx="3.3" ry="3.3"/>
		<path class="st1" d="M272.2,806.8l0.1,0c0.1,0,0.2,0.1,0.2,0.2l0.4,4.1c0,0.1-0.1,0.2-0.2,0.2l-0.1,0c-0.1,0-0.2-0.1-0.2-0.2
			L272,807C272,806.9,272.1,806.8,272.2,806.8z"/>
		<path class="st1" d="M274.8,808.8l0,0.1c0,0.1-0.1,0.2-0.2,0.2l-4.1,0.4c-0.1,0-0.2-0.1-0.2-0.2l0-0.1c0-0.1,0.1-0.2,0.2-0.2
			l4.1-0.4C274.7,808.6,274.8,808.7,274.8,808.8z"/>
		<ellipse transform="matrix(0.3919 -0.92 0.92 0.3919 -567.7178 698.4857)" class="st3" cx="244.5" cy="778.7" rx="3.3" ry="3.3"/>
		<path class="st1" d="M245.4,776.5l0.1,0c0.1,0,0.2,0.2,0.1,0.3l-1.6,3.8c0,0.1-0.2,0.2-0.3,0.1l-0.1,0c-0.1,0-0.2-0.2-0.1-0.3
			l1.6-3.8C245.1,776.5,245.2,776.5,245.4,776.5z"/>
		<path class="st1" d="M246.6,779.6l0,0.1c0,0.1-0.2,0.2-0.3,0.1l-3.8-1.6c-0.1,0-0.2-0.2-0.1-0.3l0-0.1c0-0.1,0.2-0.2,0.3-0.1
			l3.8,1.6C246.6,779.3,246.7,779.4,246.6,779.6z"/>
		
			<ellipse transform="matrix(0.8447 -0.5352 0.5352 0.8447 -439.8186 259.633)" class="st3" cx="227.5" cy="887.7" rx="2.6" ry="2.6"/>
		<path class="st1" d="M229,886.8L229,886.8c0.1,0.1,0,0.2-0.1,0.3l-2.7,1.7c-0.1,0.1-0.2,0-0.3-0.1l0,0c-0.1-0.1,0-0.2,0.1-0.3
			l2.7-1.7C228.8,886.7,229,886.7,229,886.8z"/>
		<path class="st1" d="M228.5,889.3L228.5,889.3c-0.1,0.1-0.2,0-0.3-0.1l-1.7-2.7c-0.1-0.1,0-0.2,0.1-0.3l0,0c0.1-0.1,0.2,0,0.3,0.1
			l1.7,2.7C228.6,889.1,228.6,889.2,228.5,889.3z"/>
		
			<ellipse transform="matrix(0.1338 -0.991 0.991 0.1338 -673.5892 1088.402)" class="st3" cx="285.8" cy="929.5" rx="2.6" ry="2.6"/>
		<path class="st1" d="M284,929.3L284,929.3c0-0.1,0.1-0.2,0.2-0.2l3.2,0.4c0.1,0,0.2,0.1,0.2,0.2l0,0c0,0.1-0.1,0.2-0.2,0.2
			l-3.2-0.4C284.1,929.5,284,929.4,284,929.3z"/>
		<path class="st1" d="M286,927.7L286,927.7c0.1,0,0.2,0.1,0.2,0.2l-0.4,3.2c0,0.1-0.1,0.2-0.2,0.2l0,0c-0.1,0-0.2-0.1-0.2-0.2
			l0.4-3.2C285.8,927.8,285.9,927.7,286,927.7z"/>
		<g id="neck">
			<path class="st1" d="M161.5,21.7l2.8,1.2c0.9,0.4,1.3,1.4,0.9,2.3v0c-0.4,0.9-1.4,1.3-2.3,0.9l-2.8-1.2c-0.9-0.4-1.3-1.4-0.9-2.3
				v0C159.6,21.7,160.6,21.3,161.5,21.7z"/>
			<path class="st1" d="M154.6,46.2l2.8,1.2c0.9,0.4,1.3,1.4,0.9,2.3l0,0c-0.4,0.9-1.4,1.3-2.3,0.9l-2.8-1.2
				c-0.9-0.4-1.3-1.4-0.9-2.3l0,0C152.7,46.2,153.8,45.8,154.6,46.2z"/>
			<path class="st1" d="M147.2,70.7l2.8,1.2c0.9,0.4,1.3,1.4,0.9,2.3l0,0c-0.4,0.9-1.4,1.3-2.3,0.9l-2.8-1.2
				c-0.9-0.4-1.3-1.4-0.9-2.3l0,0C145.3,70.7,146.3,70.3,147.2,70.7z"/>
			<path class="st1" d="M140.4,93.3l2.8,1.2c0.9,0.4,1.3,1.4,0.9,2.3l0,0c-0.4,0.9-1.4,1.3-2.3,0.9l-2.8-1.2
				c-0.9-0.4-1.3-1.4-0.9-2.3l0,0C138.5,93.3,139.5,92.9,140.4,93.3z"/>
			<path class="st1" d="M130.5,118.2L130.5,118.2c0.4-0.9,1.4-1.3,2.3-0.9l2.8,1.2c0.9,0.4,1.3,1.4,0.9,2.3l0,0
				c-0.4,0.9-1.4,1.3-2.3,0.9l-2.8-1.2C130.5,120.1,130.1,119,130.5,118.2z"/>
			<path class="st1" d="M125.4,141.3l2.8,1.2c0.9,0.4,1.3,1.4,0.9,2.3l0,0c-0.4,0.9-1.4,1.3-2.3,0.9l-2.8-1.2
				c-0.9-0.4-1.3-1.4-0.9-2.3l0,0C123.5,141.3,124.5,140.9,125.4,141.3z"/>
			
				<ellipse transform="matrix(0.3995 -0.9167 0.9167 0.3995 -56.3447 193.6647)" class="st1" cx="119.7" cy="139.8" rx="8.2" ry="6.3"/>
			
				<ellipse transform="matrix(0.3995 -0.9167 0.9167 0.3995 -30.3809 185.3257)" class="st1" cx="126.3" cy="115.9" rx="8.2" ry="6.3"/>
			
				<ellipse transform="matrix(0.3995 -0.9167 0.9167 0.3995 -3.8475 177.9062)" class="st1" cx="133.9" cy="91.9" rx="8.2" ry="6.3"/>
			
				<ellipse transform="matrix(0.3995 -0.9167 0.9167 0.3995 21.0336 170.2875)" class="st1" cx="140.5" cy="69.1" rx="8.2" ry="6.3"/>
			
				<ellipse transform="matrix(0.3995 -0.9167 0.9167 0.3995 47.8209 162.7327)" class="st1" cx="148.1" cy="44.9" rx="8.2" ry="6.3"/>
			
				<ellipse transform="matrix(0.3987 -0.9171 0.9171 0.3987 74.6718 154.1343)" class="st1" cx="154.9" cy="20.1" rx="8.2" ry="6.3"/>
			<path class="st11" d="M137.9,182.4c0,0-0.4-8-10.3-14.3c-0.6-0.4-3.8-0.9-3.9-1.7c-0.7-7,3.9-11.4,6.9-22
				c5.6-19.9,28-94.2,34.5-117.2c17.6-62,82.6,3,41.1,22.9l-0.4,0.2c-5.2,2.3-8.7,7.1-9.4,12.7c-0.4,4.1,0.4,9.4,2.1,16.5
				c5.7,23.8,8.3,43.5,10,52.1c0.6,3.3,0.9,6.6,0.8,10c0,0.4,0,0.7-0.1,0.9c-0.1,1.3-0.9,2.4-2.1,3c-5.2,2.6-22.9,12.1-24.8,36.8
				L137.9,182.4z"/>
			<path class="st12" d="M137.9,182.4c-4.1-5.3-9.2-9.7-14.9-13.3c-0.6-0.4-1-1.1-0.9-1.9c0.3-3.1,2.5-13.2,5.5-23.9
				c5.6-19.9,28-94.2,34.5-117.2c17.6-62,82.6,3,41.1,22.9l-0.4,0.2c-5.2,2.3-8.7,7.1-9.4,12.7c-0.4,4.1,0.4,9.4,2.1,16.5
				c5.7,23.8,8.3,43.5,10,52.1c0.6,3.3,0.9,6.6,0.8,10c0,0.4,0,0.7-0.1,0.9c-0.1,1.3-0.9,2.4-2.1,3c-5.2,2.6-20.9,13.1-22.8,37.8
				L137.9,182.4z"/>
			<circle class="st1" cx="153" cy="100.7" r="5.6"/>
			<circle class="st1" cx="153" cy="100.7" r="4"/>
			<circle class="st13" cx="153" cy="100.7" r="2.8"/>
			<circle class="st1" cx="139" cy="149.2" r="5.6"/>
			<circle class="st1" cx="139" cy="149.2" r="4"/>
			<circle class="st13" cx="139" cy="149.2" r="2.8"/>
			<circle class="st1" cx="145.8" cy="124.4" r="5.6"/>
			<circle class="st1" cx="145.8" cy="124.4" r="4"/>
			<circle class="st13" cx="145.8" cy="124.4" r="2.8"/>
			<circle class="st1" cx="161" cy="78" r="5.6"/>
			<circle class="st1" cx="161" cy="78" r="4"/>
			<circle class="st13" cx="161" cy="78" r="2.8"/>
			<circle class="st1" cx="168.2" cy="54" r="5.6"/>
			<circle class="st1" cx="168.2" cy="54" r="4"/>
			<circle class="st13" cx="168.2" cy="54" r="2.8"/>
			<circle class="st1" cx="174.7" cy="29.3" r="5.6"/>
			<circle class="st1" cx="174.7" cy="29.3" r="4"/>
			<circle class="st13" cx="174.7" cy="29.3" r="2.8"/>
		</g>
		<g id="fretboard">
			
				<linearGradient id="SVGID_1_" gradientUnits="userSpaceOnUse" x1="129.9119" y1="573.7538" x2="186.4824" y2="574.7442" gradientTransform="matrix(1 0 0 -1 0 1000)">
				<stop  offset="0.95" style="stop-color:#624738"/>
				<stop  offset="0.97" style="stop-color:#644939"/>
				<stop  offset="0.97" style="stop-color:#6C4F3D"/>
				<stop  offset="0.98" style="stop-color:#795B44"/>
				<stop  offset="0.99" style="stop-color:#8C6A4E"/>
				<stop  offset="0.99" style="stop-color:#A47F5B"/>
				<stop  offset="1" style="stop-color:#C1986A"/>
				<stop  offset="1" style="stop-color:#C69C6D"/>
			</linearGradient>
			<path class="st14" d="M190.3,660v3.2c0,1.6-2,2.6-4.8,3.1c0,0-16.6,3.2-22.8,3.2c-6.4,0-25.7-3.3-25.7-3.3
				c-1.6,0-2.9-1.3-2.9-2.9l0,0v-26l4.8-454.8h43.4L190.3,660z"/>
			<path class="st15" d="M189.3,660v3.2c0,1.6-1.2,2.6-2.9,2.9c0,0-18.6,3.3-24.8,3.3c-6.4,0-25.7-3.3-25.7-3.3
				c-1.6,0-2.9-1.3-2.9-2.9l0,0v-26l4.8-454.8h43.4L189.3,660z"/>
			<line class="st16" x1="133.1" y1="656.4" x2="189.2" y2="656.4"/>
			<line class="st16" x1="133.1" y1="645" x2="189.1" y2="645"/>
			<line class="st16" x1="133.1" y1="632.7" x2="188.8" y2="632.7"/>
			<line class="st16" x1="133.2" y1="619.8" x2="188.6" y2="619.8"/>
			<line class="st16" x1="133.4" y1="605.8" x2="188.4" y2="605.8"/>
			<line class="st16" x1="133.6" y1="591.1" x2="188.1" y2="591.1"/>
			<line class="st16" x1="133.7" y1="575.6" x2="187.9" y2="575.6"/>
			<line class="st16" x1="133.9" y1="559.2" x2="187.6" y2="559.2"/>
			<line class="st16" x1="134.1" y1="542.2" x2="187.3" y2="542.2"/>
			<line class="st16" x1="134.3" y1="523.4" x2="187" y2="523.4"/>
			<line class="st16" x1="134.5" y1="503.8" x2="186.7" y2="503.8"/>
			<line class="st16" x1="134.7" y1="482.9" x2="186.3" y2="482.9"/>
			<line class="st16" x1="134.9" y1="461.1" x2="185.9" y2="461.1"/>
			<line class="st16" x1="135.2" y1="437.6" x2="185.6" y2="437.6"/>
			<line class="st16" x1="135.4" y1="413.5" x2="185.1" y2="413.5"/>
			<line class="st16" x1="135.7" y1="387.1" x2="184.7" y2="387.1"/>
			<line class="st16" x1="136" y1="359.1" x2="184.2" y2="359.1"/>
			<line class="st16" x1="136.3" y1="329.4" x2="183.7" y2="329.4"/>
			<line class="st16" x1="136.6" y1="298.1" x2="183.2" y2="298.1"/>
			<line class="st16" x1="137" y1="264.5" x2="182.6" y2="264.5"/>
			<line class="st16" x1="137.4" y1="229.3" x2="182" y2="229.3"/>
			<path class="st3" d="M138,188.6h43.2c0.1,0,0.2,0.1,0.2,0.2l0.1,3.3c0,0.1-0.1,0.2-0.2,0.2H138c-0.1,0-0.2-0.1-0.2-0.2v-3.3
				C137.8,188.7,137.9,188.6,138,188.6z"/>
			<circle class="st3" cx="161.2" cy="651.2" r="3.2"/>
			<circle class="st3" cx="161.2" cy="626.5" r="3.2"/>
			<circle class="st3" cx="161.2" cy="599.2" r="3.2"/>
			<circle class="st3" cx="161.1" cy="568.1" r="3.2"/>
			<circle class="st3" cx="171.9" cy="514.2" r="3.2"/>
			<circle class="st3" cx="149.6" cy="514.2" r="3.2"/>
			<circle class="st3" cx="161.1" cy="450.2" r="3.2"/>
			<circle class="st3" cx="161.1" cy="400.6" r="3.2"/>
			<circle class="st3" cx="161.1" cy="344.9" r="3.2"/>
			<circle class="st3" cx="161.1" cy="282" r="3.2"/>
		</g>
		<circle class="st17" cx="216.7" cy="819" r="6.8"/>
		<circle class="st17" cx="255.5" cy="839.3" r="6.8"/>
		<polygon class="st1" points="253,904.4 250.3,907.4 246.8,908.2 244.3,906.2 244.4,902.3 247.4,899 251.3,898.4 253.6,900.7 		"/>
		<circle class="st17" cx="290" cy="869" r="6.8"/>
		
			<ellipse transform="matrix(0.6738 -0.7389 0.7389 0.6738 -586.6892 479.9818)" class="st4" cx="250.3" cy="904.5" rx="4.8" ry="2.5"/>
		
			<ellipse transform="matrix(0.6493 -0.7605 0.7605 0.6493 -600.2521 508.4227)" class="st1" cx="251.2" cy="905.1" rx="3.4" ry="0.9"/>
		<g id="wang">
			<polygon class="st1" points="202,873.8 206.8,863 201.7,860.8 197.2,871 			"/>
			<circle class="st1" cx="204.2" cy="861.9" r="2.8"/>
			<circle class="st1" cx="199.6" cy="872.4" r="2.8"/>
			<path class="st3" d="M288.6,824.9c2.9-1.8,7.3-7,10.7-12.8c4.9-8.4,6.8-16.4,4.3-17.9s-8.5,4.2-13.4,12.6
				c-3.8,6.5-5.8,12.7-5.4,15.9l-6.3,9.7c-1.2,1.9-2.9,3.4-4.9,4.5l-72.9,38.6c-0.8,0.4-1.1,1.5-0.7,2.3l0.4,0.7
				c0.4,0.8,1.5,1.1,2.3,0.7l75.6-39.6c0.7-0.3,1.3-0.8,1.8-1.5c0,0,0.1-0.1,0.1-0.1L288.6,824.9z"/>
			<path class="st9" d="M288.1,824.4c-1.2-0.1-2.2-0.8-2.8-1.8c-0.4-3.2,1.7-9.4,5.3-15.5c4.8-8.2,9.8-12.6,12.1-12.6
				c0.2,0,0.5,0,0.7,0.2c2,1.1,0.6,8.5-4.5,17.2c-3.3,5.6-7.5,10.8-10.4,12.6L288.1,824.4L288.1,824.4z"/>
			<path class="st9" d="M302.6,794.9c0.1,0,0.3,0,0.4,0.1c1.3,0.8,0.8,7.1-4.7,16.5c-3.1,5.4-7.4,10.5-10.1,12.3h-0.1
				c-1-0.1-1.8-0.7-2.3-1.5c-0.2-2.6,1.2-8.2,5.2-15.1C295.5,799.6,300.5,794.9,302.6,794.9 M302.7,793.9c-2.9,0-8.1,5.3-12.5,12.8
				c-3.8,6.5-5.8,12.7-5.4,15.9c0.6,1.2,1.9,2.1,3.3,2.2c0.2,0,0.3,0,0.5,0c2.9-1.8,7.3-7,10.7-12.8c4.9-8.4,6.8-16.4,4.3-17.9
				C303.3,794,303,793.9,302.7,793.9L302.7,793.9z"/>
			<path class="st3" d="M202.4,879.2c-1.2,0.5-8,2.9-6.3-4c0.2-1.1,0.8-2.2,1.6-3.1c0.7-0.7,1.7-1.3,2.8-0.7c2.1,1.3,0.2,4,0.2,4
				l1.8,3.5C202.6,879,202.6,879.1,202.4,879.2C202.5,879.2,202.5,879.2,202.4,879.2z"/>
		</g>
		<line class="st18" x1="130.8" y1="860.7" x2="141.9" y2="149.2"/>
		<line class="st18" x1="154.5" y1="860.7" x2="155.8" y2="100.7"/>
		<line class="st18" x1="142.6" y1="860.7" x2="148.6" y2="124.4"/>
		<line class="st18" x1="166.2" y1="860.7" x2="163.8" y2="78"/>
		<line class="st18" x1="178.1" y1="860.5" x2="171" y2="54"/>
		<line class="st18" x1="189.8" y1="860.7" x2="177.5" y2="29.3"/>
	</g>
</g>
</svg>
