<?xml version="1.0" encoding="utf-8"?>
<!-- Generator: Adobe Illustrator 21.0.0, SVG Export Plug-In . SVG Version: 6.00 Build 0)  -->
<svg version="1.1" id="Layer_1" xmlns="http://www.w3.org/2000/svg" xmlns:xlink="http://www.w3.org/1999/xlink" x="0px" y="0px"
	 viewBox="0 0 379.1 991.9" style="enable-background:new 0 0 379.1 991.9;" xml:space="preserve">
<style type="text/css">
	.st0{fill:#1A1A1A;}
	.st1{fill:#B3B3B3;}
	.st2{fill:#CCC597;}
	.st3{fill:#CCCCCC;}
	.st4{fill:#E6E6E6;}
	.st5{fill:#F6F6E9;}
	.st6{fill:#421C0F;}
	.st7{fill:#BCB48B;}
	.st8{fill:#A09877;}
	.st9{fill:#333333;}
	.st10{fill:#4D4D4D;}
	.st11{fill:#E2E2D5;}
	.st12{fill:#EACE76;}
	.st13{fill:#D5A940;}
	.st14{fill:#C9961A;}
	.st15{fill:#F7E6A4;}
</style>
<title>1970GibsonFlyingVLH</title>
<g id="Layer_2">
	<g id="_1970_Gibson_Flying_V_849467">
		<g id="body">
			<path id="body-2" class="st0" d="M145.2,556.9L8.6,958.5c-3.2,9.4,1.8,19.5,11.2,22.7c1.9,0.6,3.8,1,5.8,1l0,0
				c5.6,0,10.9-2.5,14.5-6.7l120-141.2c7.5-8.9,18.5-14.1,30.1-14.3l0,0c12.3-0.3,24,5.1,31.9,14.5l125.3,148.9
				c2.8,3.3,6.9,5.2,11.2,5.2l0,0c11.3,0,20.4-9.1,20.4-20.4c0-2.2-0.4-4.5-1.1-6.6L239.3,556.5c-0.4-1.2-1.2-2.2-2.2-2.9
				c-5.2-3.8-22.1-16.6-22.1-26.3c0-11.7-46.9-11.7-46.9,0c0,14-14.8,23.3-20.2,26.3C146.7,554.3,145.7,555.5,145.2,556.9z"/>
			<path class="st1" d="M362.5,985.2c0,1.1-0.3,2.2-0.8,3.1c-0.4,0.7-0.4,1.5,0,2.2c0.8,1.3,2.8,2.5,8.3-0.5s5.6-5.3,5-6.6
				c-0.4-0.7-1.1-1.2-1.9-1.2c-1.1,0-2.2-0.4-3.1-1c-0.4-0.3-0.8-0.3-1.3-0.2l-0.8,0.2c-1.5,0.5-3,1.3-4.2,2.3L363,984
				C362.6,984.3,362.4,984.8,362.5,985.2z"/>
			<path id="body-3" d="M233.9,554.9l136.6,401.6c3.2,9.4-1.8,19.5-11.2,22.7c-1.9,0.6-3.8,1-5.8,1l0,0c-5.6,0-10.9-2.4-14.5-6.7
				L219,832.2c-7.5-8.9-18.5-14.1-30.1-14.3l0,0c-12.3-0.2-24,5.1-31.9,14.5L31.6,981.2c-2.8,3.3-6.9,5.2-11.2,5.2l0,0
				C9.1,986.4,0,977.3,0,966c0-2.2,0.4-4.5,1.1-6.6l138.7-404.9c0.4-1.2,1.2-2.2,2.2-2.9c5.2-3.8,22.1-16.6,22.1-26.3
				c0-11.7,46.9-11.7,46.9,0c0,14,14.8,23.3,20.2,26.3C232.4,552.3,233.4,553.5,233.9,554.9z"/>
			<path class="st0" d="M215.1,526.8l-0.9-20.6c-0.3-6.3-1.7-12.6-4.2-18.4l-2.4-5.8l-33.2-1.3l-10.2,45.9l50.3,0.7
				C214.8,527.3,215.1,527,215.1,526.8C215.1,526.8,215.1,526.8,215.1,526.8z"/>
		</g>
		<g id="neck">
			<path class="st2" d="M129.4,115.7l1.9,4.9c0.5,1.2,1.7,2,3,1.9l5.3-0.3c1.3-0.1,2.4-1,2.7-2.2l1.4-5.1c0.3-1.3-0.2-2.6-1.3-3.3
				l-4.4-2.9c-1.1-0.7-2.5-0.6-3.5,0.2l-4.1,3.3C129.3,113.1,129,114.5,129.4,115.7z"/>
			<path class="st2" d="M145.7,113L145.7,113c0.8,0.2,1.3,1.1,1.1,1.9l-1.8,6.7c-0.2,0.8-1.1,1.3-1.9,1.1l0,0
				c-0.8-0.2-1.3-1.1-1.1-1.9l1.8-6.7C144,113.3,144.8,112.8,145.7,113z"/>
			<path class="st2" d="M148.1,114.7L148.1,114.7c0.8,0.2,1.3,1.1,1.1,1.9l-1.3,4.7c-0.2,0.8-1.1,1.3-1.9,1.1l0,0
				c-0.8-0.2-1.3-1.1-1.1-1.9l1.3-4.7C146.4,115,147.3,114.5,148.1,114.7z"/>
			<polygon class="st3" points="148.9,117.9 150.9,118.6 150.4,120.4 148.3,120.4 			"/>
			<path class="st2" d="M138.4,85.8l1.9,4.9c0.5,1.2,1.7,2,3,1.9l5.3-0.3c1.3-0.1,2.4-1,2.7-2.2l1.4-5.1c0.3-1.3-0.2-2.6-1.4-3.3
				l-4.4-2.9c-1.1-0.7-2.5-0.6-3.5,0.2l-4,3.4C138.3,83.2,137.9,84.6,138.4,85.8z"/>
			<path class="st2" d="M154.5,83.7L154.5,83.7c0.8,0.2,1.3,1.1,1.1,1.9l-1.8,6.7c-0.2,0.8-1.1,1.3-1.9,1.1l0,0
				c-0.8-0.2-1.3-1.1-1.1-1.9l1.8-6.7C152.8,83.9,153.7,83.4,154.5,83.7z"/>
			<path class="st2" d="M156.8,84.5L156.8,84.5c0.8,0.2,1.3,1.1,1.1,1.9l-1.3,4.7c-0.2,0.8-1.1,1.3-1.9,1.1l0,0
				c-0.8-0.2-1.3-1.1-1.1-1.9l1.3-4.7C155.1,84.8,155.9,84.3,156.8,84.5z"/>
			<polygon class="st3" points="157.6,87.7 159.5,88.4 159,90.2 156.9,90.2 			"/>
			<path class="st2" d="M146.3,57.5l1.9,4.9c0.5,1.2,1.7,2,3,1.9l5.3-0.3c1.3-0.1,2.4-1,2.7-2.2l1.4-5.1c0.3-1.3-0.2-2.6-1.3-3.3
				l-4.4-2.9c-1.1-0.7-2.5-0.6-3.5,0.2l-4.1,3.3C146.2,54.9,145.8,56.3,146.3,57.5z"/>
			<path class="st2" d="M162.5,54.8L162.5,54.8c0.8,0.2,1.3,1.1,1.1,1.9l-1.8,6.7c-0.2,0.8-1.1,1.3-1.9,1.1l0,0
				c-0.8-0.2-1.3-1.1-1.1-1.9l1.8-6.7C160.8,55.1,161.7,54.6,162.5,54.8z"/>
			<path class="st2" d="M165,56.5L165,56.5c0.8,0.2,1.3,1.1,1.1,1.9l-1.3,4.7c-0.2,0.8-1.1,1.3-1.9,1.1l0,0
				c-0.8-0.2-1.3-1.1-1.1-1.9l1.3-4.7C163.3,56.8,164.2,56.3,165,56.5z"/>
			<polygon class="st3" points="165.8,59.6 167.7,60.3 167.2,62.2 165.1,62.2 			"/>
			<path class="st2" d="M240.5,53.8l-4.1-3.3c-1-0.8-2.4-0.9-3.5-0.2l-4.4,2.9c-1.1,0.7-1.6,2-1.2,3.3l1.4,5.1
				c0.3,1.3,1.5,2.1,2.8,2.2l5.3,0.2c1.3,0.1,2.5-0.7,2.9-1.9l1.9-5C241.9,56,241.5,54.6,240.5,53.8z"/>
			<path class="st2" d="M228,64.4L228,64.4c-0.8,0.2-1.7-0.3-1.9-1.1l-1.9-6.6c-0.2-0.8,0.2-1.7,1.1-1.9l0,0
				c0.8-0.2,1.7,0.3,1.9,1.1l1.9,6.6C229.3,63.3,228.8,64.2,228,64.4z"/>
			<path class="st2" d="M224.8,64.1L224.8,64.1c-0.8,0.2-1.7-0.3-1.9-1.1l-1.3-4.7c-0.2-0.8,0.3-1.7,1.1-1.9l0,0
				c0.8-0.2,1.7,0.3,1.9,1.1l1.3,4.7C226.2,63,225.7,63.9,224.8,64.1z"/>
			<polygon class="st3" points="222.6,61.8 220.6,62.2 220.1,60.3 221.9,59.3 			"/>
			<path class="st2" d="M245.8,82.7l-4.1-3.3c-1-0.8-2.4-0.9-3.5-0.2l-4.4,2.9c-1.1,0.7-1.6,2-1.2,3.3l1.4,5.1
				c0.3,1.3,1.5,2.1,2.8,2.2l5.3,0.2c1.3,0.1,2.5-0.7,2.9-1.9l1.9-5C247.1,84.9,246.8,83.5,245.8,82.7z"/>
			<path class="st2" d="M233.1,93.2L233.1,93.2c-0.8,0.2-1.7-0.3-1.9-1.1l-1.8-6.7c-0.2-0.8,0.3-1.7,1.1-1.9l0,0
				c0.8-0.2,1.7,0.3,1.9,1.1l1.8,6.7C234.4,92.1,233.9,93,233.1,93.2z"/>
			<path class="st2" d="M230.1,93L230.1,93c-0.8,0.2-1.7-0.3-1.9-1.1l-1.3-4.7c-0.2-0.8,0.3-1.7,1.1-1.9l0,0
				c0.8-0.2,1.7,0.3,1.9,1.1l1.3,4.7C231.4,91.9,230.9,92.8,230.1,93z"/>
			<polygon class="st3" points="227.8,90.7 225.8,91 225.3,89.2 227.1,88.2 			"/>
			<path class="st2" d="M250.7,111.3l-4.1-3.3c-1-0.8-2.4-0.9-3.5-0.2l-4.4,2.9c-1.1,0.7-1.6,2-1.2,3.3l1.4,5.1
				c0.3,1.3,1.5,2.1,2.8,2.2l5.3,0.2c1.3,0.1,2.5-0.7,2.9-1.9l1.9-5C252.1,113.5,251.7,112.1,250.7,111.3z"/>
			<path class="st2" d="M238.1,121.8L238.1,121.8c-0.8,0.2-1.7-0.3-1.9-1.1l-1.8-6.7c-0.2-0.8,0.3-1.7,1.1-1.9l0,0
				c0.8-0.2,1.7,0.3,1.9,1.1l1.8,6.7C239.4,120.7,238.9,121.6,238.1,121.8z"/>
			<path class="st2" d="M235.1,121.6L235.1,121.6c-0.8,0.2-1.7-0.3-1.9-1.1l-1.3-4.7c-0.2-0.8,0.3-1.7,1.1-1.9l0,0
				c0.8-0.2,1.7,0.3,1.9,1.1l1.3,4.7C236.4,120.5,235.9,121.4,235.1,121.6z"/>
			<polygon class="st3" points="232.8,119.3 230.8,119.6 230.3,117.8 232.1,116.8 			"/>
			<path d="M170.8,166.4c0-22.6-12.8-29.8-18.4-31.8c-1.5-0.5-2.3-2.1-1.9-3.6l32.7-120c1.7-6.5,7.6-11,14.3-11l0,0
				c7.2,0,13.4,5.2,14.6,12.3L232.9,131c0.3,1.5-0.6,2.9-2,3.4c-6.7,2.2-24.7,10.1-24.7,32.1C206.2,175.2,170.8,175.2,170.8,166.4z"
				/>
			<path class="st0" d="M167.8,166.4c0-22.6-12.8-29.8-18.4-31.8c-1.5-0.5-2.3-2.1-1.9-3.6l32.7-120c1.7-6.5,7.6-11,14.3-11l0,0
				c7.2,0,13.4,5.2,14.6,12.3L229.9,131c0.3,1.5-0.6,2.9-2,3.4c-6.7,2.2-24.7,10.1-24.7,32.1C203.2,175.2,167.8,175.2,167.8,166.4z"
				/>
			<path class="st4" d="M170.8,163.9c0-10.9-4-16.4-5.9-18.4c-0.6-0.7-0.9-1.6-0.8-2.5c1.4-15.4,23.2-54.7,23.2-54.7
				c1.1-2.5,5.1-2.4,5.9,0.2c0,0,16.8,35.6,17.7,54.3c0,1.1-0.4,2.1-1.2,2.8c-2.7,2.3-8.7,8.5-8.7,18.2
				C200.8,170.6,170.8,170.6,170.8,163.9z"/>
			<path class="st5" d="M169.8,163c0-10.8-4-16.2-5.9-18.2c-0.6-0.6-1-1.5-0.9-2.4c1.4-15.2,23.2-54.1,23.2-54.1
				c1.1-2.5,5.1-2.4,5.9,0.2c0,0,16.8,35.2,17.7,53.7c0,1.1-0.4,2.1-1.2,2.7c-5,4.6-7.9,11.2-7.7,18
				C200.8,169.7,169.8,169.7,169.8,163z"/>
			<polygon class="st4" points="167.8,166.4 167.7,163.1 203.3,163.1 203.2,166.4 			"/>
			<path class="st6" d="M199.5,157.8l-1,1c-0.3,0.3-0.8,0.3-1.1,0l-1-1c-0.3-0.3-0.3-0.8,0-1.1l1-1c0.3-0.3,0.8-0.3,1.1,0l1,1
				C199.8,157,199.8,157.5,199.5,157.8z"/>
			<path class="st6" d="M175.9,157.8l-1,1c-0.3,0.3-0.8,0.3-1.1,0l-1-1c-0.3-0.3-0.3-0.8,0-1.1l1-1c0.3-0.3,0.8-0.3,1.1,0l1,1
				C176.2,157,176.2,157.5,175.9,157.8z"/>
			<path class="st6" d="M190.7,90.1l-1,1c-0.3,0.3-0.8,0.3-1.1,0l-1-1c-0.3-0.3-0.3-0.8,0-1.1l1-1c0.3-0.3,0.8-0.3,1.1,0l1,1
				C191,89.3,191,89.8,190.7,90.1z"/>
			<circle class="st2" cx="166.9" cy="89.1" r="5.1"/>
			<circle class="st7" cx="166.9" cy="89.1" r="3.8"/>
			<circle class="st8" cx="166.9" cy="89.1" r="2.3"/>
			<circle class="st9" cx="166.9" cy="89.1" r="0.9"/>
			<circle class="st2" cx="207.4" cy="59.8" r="5.1"/>
			<circle class="st7" cx="207.4" cy="59.8" r="3.8"/>
			<circle class="st8" cx="207.4" cy="59.8" r="2.3"/>
			<circle class="st9" cx="207.4" cy="59.8" r="0.9"/>
			<circle class="st2" cx="212.4" cy="89.1" r="5.1"/>
			<circle class="st7" cx="212.4" cy="89.1" r="3.8"/>
			<circle class="st8" cx="212.4" cy="89.1" r="2.3"/>
			<circle class="st9" cx="212.4" cy="89.1" r="0.9"/>
			<circle class="st2" cx="217.5" cy="118.8" r="5.1"/>
			<circle class="st7" cx="217.5" cy="118.8" r="3.8"/>
			<circle class="st8" cx="217.5" cy="118.8" r="2.3"/>
			<circle class="st9" cx="217.5" cy="118.8" r="0.9"/>
			<circle class="st2" cx="159" cy="118.8" r="5.1"/>
			<circle class="st7" cx="159" cy="118.8" r="3.8"/>
			<circle class="st8" cx="159" cy="118.8" r="2.3"/>
			<circle class="st9" cx="159" cy="118.8" r="0.9"/>
			<circle class="st2" cx="174.4" cy="59.8" r="5.1"/>
			<circle class="st7" cx="174.4" cy="59.8" r="3.8"/>
			<circle class="st8" cx="174.4" cy="59.8" r="2.3"/>
			<circle class="st9" cx="174.4" cy="59.8" r="0.9"/>
		</g>
		<g id="Fretboard">
			<polygon class="st9" points="164.4,575.5 174.2,166.4 206.2,166.4 214,575.5 			"/>
			<polygon class="st10" points="213,575.5 203.2,166.4 167.8,166.4 163.4,575.5 			"/>
			<rect x="163.6" y="556" class="st3" width="48.9" height="1"/>
			<rect x="163.7" y="546.3" class="st3" width="48.6" height="1"/>
			<rect x="163.8" y="535.5" class="st3" width="48.2" height="1"/>
			<rect x="163.9" y="524.6" class="st3" width="47.8" height="1"/>
			<rect x="164.1" y="512.9" class="st3" width="47.4" height="1"/>
			<rect x="164.2" y="500.2" class="st3" width="47" height="1"/>
			<rect x="164.4" y="487" class="st3" width="46.5" height="1"/>
			<rect x="164.5" y="473.2" class="st3" width="46.1" height="1"/>
			<rect x="164.7" y="458.1" class="st3" width="45.5" height="1"/>
			<rect x="164.8" y="442.7" class="st3" width="45" height="1"/>
			<rect x="165" y="426.4" class="st3" width="44.4" height="1"/>
			<rect x="165.2" y="408.8" class="st3" width="43.8" height="1"/>
			<rect x="165.4" y="390" class="st3" width="43.2" height="1"/>
			<rect x="165.6" y="370.4" class="st3" width="42.5" height="1"/>
			<rect x="165.8" y="349.6" class="st3" width="41.8" height="1"/>
			<rect x="166.1" y="327.5" class="st3" width="41" height="1"/>
			<rect x="166.3" y="304.8" class="st3" width="40.2" height="1"/>
			<rect x="166.6" y="280.1" class="st3" width="39.3" height="1"/>
			<rect x="166.9" y="253.8" class="st3" width="38.4" height="1"/>
			<rect x="167.2" y="226.1" class="st3" width="37.5" height="1"/>
			<rect x="167.5" y="196.8" class="st3" width="36.4" height="1"/>
			<rect x="163.5" y="565.6" class="st3" width="49.3" height="1"/>
			<polygon class="st4" points="181.7,549.1 172.2,554.8 191.2,554.8 			"/>
			<polygon class="st4" points="194.2,554.3 203.7,548.6 184.7,548.6 			"/>
			<polygon class="st4" points="182.8,527.8 173.2,533.4 192.3,533.4 			"/>
			<polygon class="st4" points="195.3,532.9 204.8,527.3 185.8,527.3 			"/>
			<polygon class="st4" points="181.9,504.5 172.4,510.1 191.4,510.1 			"/>
			<polygon class="st4" points="194.5,509.6 204,504 185,504 			"/>
			<polygon class="st4" points="181.9,478.1 172.4,483.8 191.4,483.8 			"/>
			<polygon class="st4" points="194.5,483.2 204,477.6 185,477.6 			"/>
			<polygon class="st4" points="181.9,433.2 172.4,438.8 191.4,438.8 			"/>
			<polygon class="st4" points="194.5,438.3 204,432.6 185,432.6 			"/>
			<polygon class="st4" points="181.4,378.6 171.9,384.3 190.9,384.3 			"/>
			<polygon class="st4" points="193.9,383.8 203.5,378.1 184.4,378.1 			"/>
			<polygon class="st4" points="181.4,337.1 171.9,342.8 190.9,342.8 			"/>
			<polygon class="st4" points="193.9,342.3 203.5,336.6 184.4,336.6 			"/>
			<polygon class="st4" points="180.5,290.7 171,296.3 190,296.3 			"/>
			<polygon class="st4" points="193.1,295.8 202.6,290.1 183.5,290.1 			"/>
			<polygon class="st4" points="180.5,238.3 171,243.9 190,243.9 			"/>
			<polygon class="st4" points="193.1,243.4 202.6,237.8 183.5,237.8 			"/>
		</g>
		<g id="Plate">
			<path id="plate-2" class="st5" d="M148.6,575.5h78.6c4.2,0,7.8,2.9,8.8,7l48.2,210.5c0.2,1.1-0.4,2.1-1.5,2.4
				c-0.7,0.1-1.3,0-1.8-0.5l-55.2-53.6c-1.1-1.1-2.6-1.7-4.2-1.7L159,740c-1.7,0-3,1.3-3,3v77.8c0,3.1-1.6,6-4.2,7.6L40.6,898.2
				c-0.9,0.6-2.2,0.4-2.8-0.6c-0.3-0.5-0.4-1.2-0.2-1.8L140,581.7C141.2,578,144.7,575.5,148.6,575.5z"/>
			<path class="st11" d="M39.5,899.5c-1.7,0-3-1.3-3-3c0-0.3,0.1-0.6,0.2-0.9l102.5-314.1c1.3-4.1,5.2-6.9,9.5-6.9h78.6
				c4.7,0,8.7,3.2,9.8,7.8l48.2,210.6c0.4,1.6-0.7,3.2-2.3,3.6c-1,0.2-2-0.1-2.7-0.8L225,742c-0.9-0.9-2.2-1.4-3.5-1.4l0,0L159,741
				c-1.1,0-2,0.9-2,2v77.8c0,3.4-1.8,6.7-4.7,8.5L41.1,899C40.6,899.3,40.1,899.5,39.5,899.5z M148.6,576.5c-3.5,0-6.5,2.2-7.6,5.5
				L38.5,896.2c-0.2,0.5,0.2,1.1,0.7,1.2c0.3,0.1,0.5,0,0.8-0.1l111.2-69.7c2.3-1.5,3.8-4,3.8-6.8V743c0-2.2,1.8-4,4-4l62.5-0.4l0,0
				c1.8,0,3.6,0.7,4.9,2l55.2,53.6c0.4,0.4,1,0.4,1.4,0c0.2-0.2,0.3-0.6,0.3-0.9L235,582.7c-0.8-3.6-4.1-6.2-7.8-6.2L148.6,576.5z"
				/>
			<path class="st6" d="M278.6,784.7l1,1c0.3,0.3,0.3,0.8,0,1.1l-1,1c-0.3,0.3-0.8,0.3-1.1,0l-1-1c-0.3-0.3-0.3-0.8,0-1.1l1-1
				C277.8,784.4,278.3,784.4,278.6,784.7z"/>
			<path class="st6" d="M263,717.2l1,1c0.3,0.3,0.3,0.8,0,1.1l-1,1c-0.3,0.3-0.8,0.3-1.1,0l-1-1c-0.3-0.3-0.3-0.8,0-1.1l1-1
				C262.2,716.9,262.7,716.9,263,717.2z"/>
			<path class="st6" d="M247.7,649.7l1,1c0.3,0.3,0.3,0.8,0,1.1l-1,1c-0.3,0.3-0.8,0.3-1.1,0l-1-1c-0.3-0.3-0.3-0.8,0-1.1l1-1
				C246.9,649.4,247.4,649.4,247.7,649.7z"/>
			<path class="st6" d="M230.3,578.9l1,1c0.3,0.3,0.3,0.8,0,1.1l-1,1c-0.3,0.3-0.8,0.3-1.1,0l-1-1c-0.3-0.3-0.3-0.8,0-1.1l1-1
				C229.5,578.6,230,578.6,230.3,578.9z"/>
			<path class="st6" d="M146.8,579.5l1,1c0.3,0.3,0.3,0.8,0,1.1l-1,1c-0.3,0.3-0.8,0.3-1.1,0l-1-1c-0.3-0.3-0.3-0.8,0-1.1l1-1
				C146,579.2,146.4,579.2,146.8,579.5z"/>
			<path class="st6" d="M119.6,658.6l1,1c0.3,0.3,0.3,0.8,0,1.1l-1,1c-0.3,0.3-0.8,0.3-1.1,0l-1-1c-0.3-0.3-0.3-0.8,0-1.1l1-1
				C118.8,658.3,119.3,658.3,119.6,658.6z"/>
			<path class="st6" d="M94.2,735.2l1,1c0.3,0.3,0.3,0.8,0,1.1l-1,1c-0.3,0.3-0.8,0.3-1.1,0l-1-1c-0.3-0.3-0.3-0.8,0-1.1l1-1
				C93.4,734.9,93.9,734.9,94.2,735.2z"/>
			<path class="st6" d="M68.9,812.2l1,1c0.3,0.3,0.3,0.8,0,1.1l-1,1c-0.3,0.3-0.8,0.3-1.1,0l-1-1c-0.3-0.3-0.3-0.8,0-1.1l1-1
				C68.1,811.9,68.6,811.9,68.9,812.2z"/>
			<path class="st6" d="M43.4,889.4l1,1c0.3,0.3,0.3,0.8,0,1.1l-1,1c-0.3,0.3-0.8,0.3-1.1,0l-1-1c-0.3-0.3-0.3-0.8,0-1.1l1-1
				C42.6,889,43.1,889,43.4,889.4z"/>
			<path class="st6" d="M97.5,855.3l1,1c0.3,0.3,0.3,0.8,0,1.1l-1,1c-0.3,0.3-0.8,0.3-1.1,0l-1-1c-0.3-0.3-0.3-0.8,0-1.1l1-1
				C96.7,855,97.2,855,97.5,855.3z"/>
			<path class="st6" d="M151.3,821.8l1,1c0.3,0.3,0.3,0.8,0,1.1l-1,1c-0.3,0.3-0.8,0.3-1.1,0l-1-1c-0.3-0.3-0.3-0.8,0-1.1l1-1
				C150.5,821.4,151,821.4,151.3,821.8z"/>
			<path class="st6" d="M153.8,737.9l1,1c0.3,0.3,0.3,0.8,0,1.1l-1,1c-0.3,0.3-0.8,0.3-1.1,0l-1-1c-0.3-0.3-0.3-0.8,0-1.1l1-1
				C153,737.6,153.5,737.6,153.8,737.9z"/>
			<path class="st6" d="M223,733.7l1,1c0.3,0.3,0.3,0.8,0,1.1l-1,1c-0.3,0.3-0.8,0.3-1.1,0l-1-1c-0.3-0.3-0.3-0.8,0-1.1l1-1
				C222.2,733.4,222.7,733.4,223,733.7z"/>
			
				<ellipse transform="matrix(0.427 -0.9042 0.9042 0.427 -415.1635 547.186)" class="st3" cx="224.2" cy="601.2" rx="2.1" ry="2.1"/>
			<ellipse transform="matrix(0.427 -0.9042 0.9042 0.427 -415.1892 546.897)" class="st4" cx="224" cy="601.1" rx="2.1" ry="2.1"/>
			<path class="st1" d="M223.3,601.9l0.9-1.9c0.1-0.1,0.2-0.2,0.3-0.1l0,0c0.1,0.1,0.2,0.2,0.1,0.3l-0.9,1.9
				c-0.1,0.1-0.2,0.2-0.3,0.1l0,0C223.3,602.2,223.3,602,223.3,601.9z"/>
			<path class="st1" d="M222.8,600.5L222.8,600.5c0.1-0.1,0.2-0.2,0.3-0.1l1.9,0.9c0.1,0.1,0.2,0.2,0.1,0.3l0,0
				c-0.1,0.1-0.2,0.2-0.3,0.1l-1.9-0.9C222.8,600.8,222.8,600.7,222.8,600.5z"/>
			<circle class="st3" cx="154" cy="601.1" r="2.1"/>
			<circle class="st4" cx="153.7" cy="601.1" r="2.1"/>
			<path class="st1" d="M153.7,599.9L153.7,599.9c0.1,0,0.2,0.1,0.2,0.2v2.1c0,0.1-0.1,0.2-0.2,0.2h0c-0.1,0-0.2-0.1-0.2-0.2v-2.1
				C153.5,600,153.6,599.9,153.7,599.9z"/>
			<path class="st1" d="M152.7,600.9h2.1c0.1,0,0.2,0.1,0.2,0.2v0c0,0.1-0.1,0.2-0.2,0.2h-2.1c-0.1,0-0.2-0.1-0.2-0.2v0
				C152.5,601,152.6,600.9,152.7,600.9z"/>
			
				<ellipse transform="matrix(0.8754 -0.4834 0.4834 0.8754 -303.6488 193.8392)" class="st3" cx="224.2" cy="685.9" rx="2.1" ry="2.1"/>
			
				<ellipse transform="matrix(0.8754 -0.4834 0.4834 0.8754 -303.7424 193.7358)" class="st4" cx="223.9" cy="686" rx="2.1" ry="2.1"/>
			<path class="st1" d="M223.3,684.9L223.3,684.9c0.1-0.1,0.3,0,0.3,0.1l1,1.8c0.1,0.1,0,0.3-0.1,0.3l0,0c-0.1,0.1-0.3,0-0.3-0.1
				l-1-1.8C223.2,685.1,223.2,685,223.3,684.9z"/>
			<path class="st1" d="M222.9,686.3l1.8-1c0.1-0.1,0.3,0,0.3,0.1l0,0c0.1,0.1,0,0.3-0.1,0.3l-1.8,1c-0.1,0.1-0.3,0-0.3-0.1l0,0
				C222.8,686.5,222.8,686.4,222.9,686.3z"/>
			
				<ellipse transform="matrix(0.3044 -0.9526 0.9526 0.3044 -545.9913 624.4437)" class="st3" cx="154.5" cy="686" rx="2.1" ry="2.1"/>
			
				<ellipse transform="matrix(0.3044 -0.9526 0.9526 0.3044 -546.0934 624.1306)" class="st4" cx="154.3" cy="686" rx="2.1" ry="2.1"/>
			<path class="st1" d="M153.7,686.9l0.6-2c0-0.1,0.2-0.2,0.3-0.1l0,0c0.1,0,0.2,0.2,0.1,0.3l-0.6,2c0,0.1-0.2,0.2-0.3,0.1l0,0
				C153.8,687.1,153.7,687,153.7,686.9z"/>
			<path class="st1" d="M153.1,685.6L153.1,685.6c0-0.1,0.2-0.2,0.3-0.2l2,0.6c0.1,0,0.2,0.2,0.1,0.3l0,0c0,0.1-0.2,0.2-0.3,0.1
				l-2-0.6C153.1,685.8,153,685.7,153.1,685.6z"/>
		</g>
		<circle class="st0" cx="107.2" cy="761.4" r="13.2"/>
		<circle class="st9" cx="107.2" cy="761.4" r="7.5"/>
		<circle class="st12" cx="107.2" cy="761.4" r="5.3"/>
		<circle class="st0" cx="94" cy="800.5" r="13.2"/>
		<circle class="st9" cx="94" cy="800.5" r="7.5"/>
		<circle class="st12" cx="94" cy="800.5" r="5.3"/>
		<circle class="st0" cx="131.9" cy="791.9" r="13.2"/>
		<circle class="st9" cx="131.9" cy="791.9" r="7.5"/>
		<circle class="st12" cx="131.9" cy="791.9" r="5.3"/>
		<circle class="st12" cx="81.8" cy="837.9" r="7.2"/>
		<path class="st13" d="M84.1,833.1l2.4,2.4c0.5,0.5,0.7,1.2,0.5,1.9l-0.9,3.3c-0.2,0.7-0.7,1.2-1.4,1.4l-3.3,0.9
			c-0.7,0.2-1.4,0-1.9-0.5l-2.4-2.4c-0.5-0.5-0.7-1.2-0.5-1.9l0.9-3.3c0.2-0.7,0.7-1.2,1.4-1.4l3.3-0.9
			C82.9,832.4,83.6,832.6,84.1,833.1z"/>
		<circle class="st14" cx="81.8" cy="837.9" r="3.8"/>
		<circle class="st12" cx="119.4" cy="825.9" r="7.2"/>
		<path class="st13" d="M121.7,821.2l2.4,2.4c0.5,0.5,0.7,1.2,0.5,1.9l-0.9,3.3c-0.2,0.7-0.7,1.2-1.4,1.4l-3.3,0.9
			c-0.7,0.2-1.4,0-1.9-0.5l-2.4-2.4c-0.5-0.5-0.7-1.2-0.5-1.9l0.9-3.3c0.2-0.7,0.7-1.2,1.4-1.4l3.3-0.9
			C120.5,820.5,121.2,820.7,121.7,821.2z"/>
		<circle class="st14" cx="119.4" cy="825.9" r="3.8"/>
		<path class="st0" d="M110.6,824l0.1-0.4c0.3-1.1,1.4-1.7,2.5-1.4l6.1,1.6c1.1,0.3,1.7,1.4,1.4,2.5l-0.1,0.4
			c-0.3,1.1-1.4,1.7-2.5,1.4l-6.1-1.6C110.9,826.3,110.3,825.1,110.6,824z"/>
		<path class="st9" d="M110.8,824.1L110.8,824.1c0.3-1.1,1.4-1.7,2.5-1.4l5.8,1.6c1.1,0.3,1.7,1.4,1.4,2.5l0,0
			c-0.3,1.1-1.4,1.7-2.5,1.4l-5.8-1.6C111.2,826.3,110.5,825.2,110.8,824.1z"/>
		<g id="Pickup2">
			<path class="st13" d="M159.6,667.7h56.3c1.1,0,2,0.9,2,2v31.4c0,1.1-0.9,2-2,2h-56.3c-1.1,0-2-0.9-2-2v-31.4
				C157.6,668.6,158.4,667.7,159.6,667.7z"/>
			<path class="st12" d="M159.6,667.7h55.2c1.1,0,2,0.9,2,2v30.4c0,1.1-0.9,2-2,2h-55.2c-1.1,0-2-0.9-2-2v-30.4
				C157.6,668.6,158.4,667.7,159.6,667.7z"/>
			<ellipse class="st13" cx="165.1" cy="694" rx="3.1" ry="2.9"/>
			<circle class="st15" cx="164.9" cy="694" r="2.9"/>
			<path class="st13" d="M167.6,693.7h-5.5c-0.1,0-0.1,0.1-0.1,0.1l0,0v0.3c0,0.1,0.1,0.1,0.1,0.1h0h5.5c0.1,0,0.3-0.1,0.3-0.3l0,0
				l0,0C167.9,693.9,167.8,693.7,167.6,693.7C167.6,693.7,167.6,693.7,167.6,693.7z"/>
			
				<ellipse transform="matrix(0.974 -0.2267 0.2267 0.974 -152.7603 57.5096)" class="st13" cx="174.1" cy="694" rx="3.1" ry="2.9"/>
			
				<ellipse transform="matrix(0.974 -0.2267 0.2267 0.974 -152.7731 57.4728)" class="st15" cx="173.9" cy="694" rx="2.9" ry="2.9"/>
			<path class="st13" d="M176.5,693.1l-5.3,1.2c-0.1,0-0.1,0.1-0.1,0.2l0.1,0.3c0,0.1,0.1,0.1,0.2,0.1l5.3-1.2
				c0.1,0,0.2-0.2,0.2-0.3c0,0,0,0,0,0l0,0C176.8,693.2,176.7,693.1,176.5,693.1C176.5,693.1,176.5,693.1,176.5,693.1z"/>
			
				<ellipse transform="matrix(5.338165e-02 -0.9986 0.9986 5.338165e-02 -519.9265 839.4709)" class="st13" cx="182.8" cy="694" rx="2.9" ry="3.1"/>
			
				<ellipse transform="matrix(5.338165e-02 -0.9986 0.9986 5.338165e-02 -520.0668 839.3024)" class="st15" cx="182.7" cy="694" rx="2.9" ry="2.9"/>
			<path class="st13" d="M185.4,693.8l-5.5-0.3c-0.1,0-0.1,0.1-0.1,0.1c0,0,0,0,0,0v0.3c0,0.1,0.1,0.1,0.1,0.1c0,0,0,0,0,0l5.5,0.3
				c0.1,0,0.3-0.1,0.3-0.2c0,0,0,0,0,0l0,0C185.7,694,185.6,693.9,185.4,693.8C185.4,693.8,185.4,693.8,185.4,693.8z"/>
			
				<ellipse transform="matrix(0.2748 -0.9615 0.9615 0.2748 -528.5888 687.2603)" class="st13" cx="191.3" cy="694" rx="2.9" ry="3.1"/>
			
				<ellipse transform="matrix(0.2748 -0.9615 0.9615 0.2748 -528.654 687.0795)" class="st15" cx="191.2" cy="694" rx="2.9" ry="2.9"/>
			<path class="st13" d="M193.9,694.4l-5.3-1.5c-0.1,0-0.2,0-0.2,0.1l-0.1,0.3c0,0.1,0,0.2,0.1,0.2l5.3,1.5c0.1,0,0.3,0,0.3-0.2
				c0,0,0,0,0,0l0,0C194.1,694.7,194,694.5,193.9,694.4C193.9,694.4,193.9,694.4,193.9,694.4z"/>
			<ellipse class="st13" cx="200" cy="694" rx="3.1" ry="2.9"/>
			<circle class="st15" cx="199.9" cy="694" r="2.9"/>
			<path class="st13" d="M202.6,693.7h-5.5c-0.1,0-0.1,0.1-0.1,0.1l0,0v0.3c0,0.1,0.1,0.1,0.1,0.1h0h5.5c0.1,0,0.3-0.1,0.3-0.3l0,0
				l0,0C202.9,693.9,202.8,693.7,202.6,693.7C202.6,693.7,202.6,693.7,202.6,693.7z"/>
			
				<ellipse transform="matrix(0.9832 -0.1824 0.1824 0.9832 -123.1013 49.6722)" class="st13" cx="208.5" cy="694" rx="3.1" ry="2.9"/>
			
				<ellipse transform="matrix(0.9832 -0.1824 0.1824 0.9832 -123.1098 49.6414)" class="st15" cx="208.3" cy="694.1" rx="2.9" ry="2.9"/>
			<path class="st13" d="M210.9,693.3l-5.4,1c-0.1,0-0.1,0.1-0.1,0.2l0.1,0.3c0,0.1,0.1,0.1,0.2,0.1l5.4-1c0.1,0,0.2-0.2,0.2-0.3
				c0,0,0,0,0,0l0,0C211.3,693.4,211.1,693.3,210.9,693.3C211,693.3,211,693.3,210.9,693.3z"/>
		</g>
		<path class="st13" d="M224.2,805.1h-61.5c-1.7,0-3-1.3-3-3v-35.7c0-1.7,1.3-3,3-3h61.5c1.7,0,3,1.3,3,3v35.7
			C227.2,803.8,225.8,805.1,224.2,805.1z"/>
		<path class="st12" d="M223.1,803.4h-60.4c-1.7,0-3-1.3-3-3v-35c0-1.7,1.3-3,3-3h60.4c1.7,0,3,1.3,3,3v35
			C226.1,802.1,224.7,803.4,223.1,803.4z"/>
		<rect x="159.7" y="779.4" class="st12" width="66.4" height="7.9"/>
		<polygon class="st13" points="159.7,787.3 226.1,787.3 224.1,793.8 161.6,793.8 		"/>
		<path class="st12" d="M223.1,804.1h-60.4c-1.7,0-3-1.3-3-3v-4.4c0-1.7,1.3-3,3-3h60.4c1.7,0,3,1.3,3,3v4.4
			C226.1,802.8,224.7,804.1,223.1,804.1z"/>
		<polygon class="st13" points="226.1,782.6 159.7,782.6 161.6,776.2 224.1,776.2 		"/>
		<path class="st13" d="M168.1,774.1h2.2c0.3,0,0.6-0.3,0.6-0.6c0-0.1,0-0.2-0.1-0.3l0,0c-0.3-0.6-0.3-1.3,0-1.9l0,0
			c0.2-0.3,0-0.7-0.3-0.8c-0.1,0-0.2-0.1-0.3-0.1h-2.2c-0.3,0-0.6,0.3-0.6,0.6c0,0.1,0,0.2,0.1,0.3l0,0c0.3,0.6,0.3,1.3,0,1.9l0,0
			c-0.2,0.3,0,0.7,0.3,0.8C167.9,774.1,168,774.1,168.1,774.1z"/>
		<path class="st13" d="M178.1,774.1h2.2c0.3,0,0.6-0.3,0.6-0.6c0-0.1,0-0.2-0.1-0.3l0,0c-0.3-0.6-0.3-1.3,0-1.9l0,0
			c0.2-0.3,0-0.7-0.3-0.8c-0.1,0-0.2-0.1-0.3-0.1h-2.2c-0.3,0-0.6,0.3-0.6,0.6c0,0.1,0,0.2,0.1,0.3l0,0c0.3,0.6,0.3,1.3,0,1.9l0,0
			c-0.2,0.3,0,0.7,0.3,0.8C177.9,774.1,178,774.1,178.1,774.1z"/>
		<path class="st13" d="M187,774.1h2.2c0.3,0,0.6-0.3,0.6-0.6c0-0.1,0-0.2-0.1-0.3l0,0c-0.3-0.6-0.3-1.3,0-1.9l0,0
			c0.2-0.3,0-0.7-0.3-0.8c-0.1,0-0.2-0.1-0.3-0.1H187c-0.3,0-0.6,0.3-0.6,0.6c0,0.1,0,0.2,0.1,0.3l0,0c0.3,0.6,0.3,1.3,0,1.9l0,0
			c-0.2,0.3,0,0.7,0.3,0.8C186.8,774.1,186.9,774.1,187,774.1z"/>
		<path class="st13" d="M195.2,774.1h2.2c0.3,0,0.6-0.3,0.6-0.6c0-0.1,0-0.2-0.1-0.3l0,0c-0.3-0.6-0.3-1.3,0-1.9l0,0
			c0.2-0.3,0-0.7-0.3-0.8c-0.1,0-0.2-0.1-0.3-0.1h-2.2c-0.3,0-0.6,0.3-0.6,0.6c0,0.1,0,0.2,0.1,0.3l0,0c0.3,0.6,0.3,1.3,0,1.9l0,0
			c-0.2,0.3,0,0.7,0.3,0.8C195,774.1,195.1,774.1,195.2,774.1z"/>
		<path class="st13" d="M204.1,774.1h2.2c0.3,0,0.6-0.3,0.6-0.6c0-0.1,0-0.2-0.1-0.3l0,0c-0.3-0.6-0.3-1.3,0-1.9l0,0
			c0.2-0.3,0-0.7-0.3-0.8c-0.1,0-0.2-0.1-0.3-0.1h-2.2c-0.3,0-0.6,0.3-0.6,0.6c0,0.1,0,0.2,0.1,0.3l0,0c0.3,0.6,0.3,1.3,0,1.9l0,0
			c-0.2,0.3,0,0.7,0.3,0.8C203.9,774.1,204,774.1,204.1,774.1z"/>
		<path class="st13" d="M213.3,774.1h2.2c0.3,0,0.6-0.3,0.6-0.6c0-0.1,0-0.2-0.1-0.3l0,0c-0.3-0.6-0.3-1.3,0-1.9l0,0
			c0.2-0.3,0-0.7-0.3-0.8c-0.1,0-0.2-0.1-0.3-0.1h-2.2c-0.3,0-0.6,0.3-0.6,0.6c0,0.1,0,0.2,0.1,0.3l0,0c0.3,0.6,0.3,1.3,0,1.9l0,0
			c-0.2,0.3,0,0.7,0.3,0.8C213.1,774.1,213.2,774.1,213.3,774.1z"/>
		<ellipse class="st13" cx="165.4" cy="798.6" rx="3.8" ry="3.7"/>
		<circle class="st15" cx="165.2" cy="798.6" r="3.7"/>
		<ellipse class="st13" cx="193.7" cy="798.6" rx="3.8" ry="3.7"/>
		<circle class="st15" cx="193.5" cy="798.6" r="3.7"/>
		<ellipse class="st13" cx="220.7" cy="798.6" rx="3.8" ry="3.7"/>
		<circle class="st15" cx="220.5" cy="798.6" r="3.7"/>
		<path class="st13" d="M164.4,799.8l1-2.5c0.1-0.2,0.2-0.2,0.4-0.2l0,0c0.2,0.1,0.2,0.2,0.2,0.4l-1,2.5c-0.1,0.2-0.2,0.2-0.4,0.2
			l0,0C164.4,800.1,164.4,799.9,164.4,799.8z"/>
		<path class="st13" d="M163.7,798.1L163.7,798.1c0.1-0.2,0.2-0.2,0.4-0.2l2.5,1c0.2,0.1,0.2,0.2,0.2,0.4l0,0
			c-0.1,0.2-0.2,0.2-0.4,0.2l-2.5-1C163.7,798.4,163.6,798.2,163.7,798.1z"/>
		<path class="st13" d="M192.5,797.5L192.5,797.5c0.1-0.1,0.3-0.1,0.4,0l1.9,1.9c0.1,0.1,0.1,0.3,0,0.4l0,0c-0.1,0.1-0.3,0.1-0.4,0
			l-1.9-1.9C192.4,797.8,192.4,797.6,192.5,797.5z"/>
		<path class="st13" d="M192.5,799.4l1.9-1.9c0.1-0.1,0.3-0.1,0.4,0l0,0c0.1,0.1,0.1,0.3,0,0.4l-1.9,1.9c-0.1,0.1-0.3,0.1-0.4,0l0,0
			C192.4,799.7,192.4,799.5,192.5,799.4z"/>
		<path class="st13" d="M220.2,797.1L220.2,797.1c0.2-0.1,0.3,0,0.4,0.2l0.8,2.5c0,0.2,0,0.3-0.2,0.4l0,0c-0.2,0-0.3,0-0.4-0.2
			l-0.8-2.5C219.9,797.3,220,797.2,220.2,797.1z"/>
		<path class="st13" d="M219.3,798.8l2.5-0.8c0.2,0,0.3,0,0.4,0.2l0,0c0,0.2,0,0.3-0.2,0.4l-2.5,0.8c-0.2,0-0.3,0-0.4-0.2l0,0
			C219.1,799,219.1,798.8,219.3,798.8z"/>
		<g id="whammy_bar">
			<path class="st13" d="M224.2,768.3h-61.7c-1.7,0-3-1.3-3-3V747c0-1.7,1.3-3,3-3h61.7c1.7,0,3,1.3,3,3v18.3
				C227.2,767,225.8,768.3,224.2,768.3z"/>
			<path class="st12" d="M223.1,767.7h-60.4c-1.7,0-3-1.3-3-3V747c0-1.7,1.3-3,3-3h60.4c1.7,0,3,1.3,3,3v17.6
				C226.1,766.3,224.7,767.7,223.1,767.7z"/>
			<path class="st13" d="M221.9,764.8h-87.1c-1.7,0-3-1.3-3-3v-13.5c0-1.7,1.3-3,3-3h87.1c1.7,0,3,1.3,3,3v13.5
				C224.9,763.5,223.6,764.8,221.9,764.8z"/>
			<path class="st12" d="M221.6,764.1h-85.7c-1.7,0-3-1.3-3-3v-12.3c0-1.7,1.3-3,3-3h85.7c1.7,0,3,1.3,3,3v12.3
				C224.6,762.7,223.2,764.1,221.6,764.1z"/>
			<path class="st13" d="M139.4,752.5L122,739.4l-31.2-29.3l-3.8,3.4l26.7,25.3c2.9,2.7,6,5.3,9.2,7.6l12.9,9.3c0.1,0,0.1,0,0.2,0
				l3.4-3.1C139.5,752.7,139.5,752.6,139.4,752.5C139.4,752.5,139.4,752.5,139.4,752.5z"/>
			<path class="st15" d="M138.9,751.6l-13.5-10.1c-2.6-2-5.2-4.1-7.6-6.4l-27.6-25.9l-3.8,3.4l26.7,25.3c2.9,2.7,6,5.3,9.2,7.6
				l12.9,9.3c0.1,0,0.1,0,0.2,0l3.4-3.1c0.1,0,0.1-0.1,0.1-0.2C139,751.6,139,751.6,138.9,751.6z"/>
			<path class="st0" d="M88.9,714.2l2.3-2.5c1.3-1.5,1-4-0.8-5.6l-45.8-41.5c-1.6-1.4-4-1.3-5.4,0.2l-0.8,0.8
				c-1.4,1.6-1.3,4,0.2,5.4l44.7,42.8C85,715.5,87.5,715.7,88.9,714.2z"/>
			<path class="st9" d="M88.4,713.7l2.3-2.5c1.3-1.5,1-4-0.8-5.6l-45.8-41.5c-1.6-1.4-4-1.3-5.4,0.2l-0.8,0.8
				c-1.4,1.6-1.3,4,0.2,5.4l44.7,42.8C84.5,715,87.1,715.2,88.4,713.7z"/>
			<ellipse class="st13" cx="140.8" cy="755.5" rx="6.3" ry="5.8"/>
			<circle class="st15" cx="141.3" cy="755.5" r="5.8"/>
			<ellipse class="st13" cx="141.1" cy="755.5" rx="3.6" ry="3.5"/>
			<circle class="st12" cx="141.3" cy="755.5" r="3.5"/>
		</g>
		<g id="Pickup2-2">
			<path class="st13" d="M160.1,583.1h56.3c1.1,0,2,0.9,2,2v31.4c0,1.1-0.9,2-2,2h-56.3c-1.1,0-2-0.9-2-2v-31.4
				C158.1,584,159,583.1,160.1,583.1z"/>
			<path class="st12" d="M160.1,583.1h55.2c1.1,0,2,0.9,2,2v30.4c0,1.1-0.9,2-2,2h-55.2c-1.1,0-2-0.9-2-2v-30.4
				C158.1,584,159,583.1,160.1,583.1z"/>
			
				<ellipse transform="matrix(0.9997 -2.530457e-02 2.530457e-02 0.9997 -14.9237 4.3811)" class="st13" cx="165.6" cy="591.9" rx="3.1" ry="2.9"/>
			
				<ellipse transform="matrix(0.9997 -2.530457e-02 2.530457e-02 0.9997 -14.9239 4.3765)" class="st15" cx="165.5" cy="591.9" rx="2.9" ry="2.9"/>
			<path class="st13" d="M168.2,591.5l-5.5,0.1c-0.1,0-0.1,0.1-0.1,0.1l0,0v0.3c0,0.1,0.1,0.1,0.1,0.1h0l5.5-0.1
				c0.1,0,0.3-0.1,0.3-0.3c0,0,0,0,0,0l0,0C168.5,591.7,168.3,591.5,168.2,591.5C168.2,591.5,168.2,591.5,168.2,591.5z"/>
			<ellipse class="st13" cx="174.7" cy="591.8" rx="3.1" ry="2.9"/>
			<ellipse class="st15" cx="174.5" cy="591.8" rx="2.9" ry="2.9"/>
			<path class="st13" d="M177.2,591.5h-5.5c-0.1,0-0.1,0.1-0.1,0.1l0,0v0.3c0,0.1,0.1,0.1,0.1,0.1h0h5.5c0.1,0,0.3-0.1,0.3-0.3l0,0
				l0,0C177.5,591.7,177.4,591.6,177.2,591.5C177.2,591.5,177.2,591.5,177.2,591.5z"/>
			
				<ellipse transform="matrix(3.996804e-02 -0.9992 0.9992 3.996804e-02 -415.3683 751.385)" class="st13" cx="183.3" cy="591.9" rx="2.9" ry="3.1"/>
			
				<ellipse transform="matrix(3.803900e-02 -0.9993 0.9993 3.803900e-02 -415.1761 752.4509)" class="st15" cx="183.2" cy="591.9" rx="2.9" ry="2.9"/>
			<path class="st13" d="M186,591.7l-5.5-0.2c-0.1,0-0.1,0.1-0.1,0.1v0.3c0,0.1,0.1,0.1,0.1,0.1l5.5,0.2c0.1,0,0.3-0.1,0.3-0.3
				c0,0,0,0,0,0l0,0C186.3,591.8,186.2,591.7,186,591.7C186,591.7,186,591.7,186,591.7z"/>
			
				<ellipse transform="matrix(0.9872 -0.1595 0.1595 0.9872 -91.9766 38.204)" class="st13" cx="191.9" cy="591.9" rx="3.1" ry="2.9"/>
			
				<ellipse transform="matrix(0.9865 -0.1635 0.1635 0.9865 -94.1948 39.3079)" class="st15" cx="191.7" cy="591.9" rx="2.9" ry="2.9"/>
			<path class="st13" d="M194.4,591.2L189,592c-0.1,0-0.1,0.1-0.1,0.2v0.3c0,0.1,0.1,0.1,0.2,0.1l5.4-0.9c0.1,0,0.2-0.2,0.2-0.3l0,0
				C194.6,591.3,194.5,591.2,194.4,591.2z"/>
			<ellipse class="st13" cx="200.6" cy="591.9" rx="3.1" ry="2.9"/>
			<circle class="st15" cx="200.4" cy="591.9" r="2.9"/>
			<path class="st13" d="M203.2,591.6h-5.5c-0.1,0-0.1,0.1-0.1,0.1l0,0v0.3c0,0.1,0.1,0.1,0.1,0.1h0h5.5c0.1,0,0.3-0.1,0.3-0.3l0,0
				l0,0C203.5,591.7,203.4,591.6,203.2,591.6C203.2,591.6,203.2,591.6,203.2,591.6z"/>
			
				<ellipse transform="matrix(7.637094e-02 -0.9971 0.9971 7.637094e-02 -397.115 755.2141)" class="st13" cx="209.1" cy="592" rx="2.9" ry="3.1"/>
			
				<ellipse transform="matrix(7.637094e-02 -0.9971 0.9971 7.637094e-02 -397.2543 755.0412)" class="st15" cx="208.9" cy="591.9" rx="2.9" ry="2.9"/>
			<path class="st13" d="M211.6,591.8l-5.4-0.4c-0.1,0-0.1,0.1-0.1,0.1c0,0,0,0,0,0v0.3c0,0.1,0.1,0.1,0.1,0.1c0,0,0,0,0,0l5.4,0.4
				c0.1,0,0.3-0.1,0.3-0.2c0,0,0,0,0,0l0,0C211.9,592,211.9,591.8,211.6,591.8C211.7,591.8,211.7,591.8,211.6,591.8z"/>
		</g>
		<g id="Strings">
			<path class="st3" d="M214.5,772.5c-0.1,0-0.2-0.1-0.2-0.2l-14.5-607.5c0-5.2,16.8-44.4,17.5-46.1c0.1-0.1,0.2-0.2,0.3-0.1
				s0.2,0.2,0.1,0.3l0,0c-0.2,0.4-17.4,40.7-17.4,45.8l14.4,607.5C214.7,772.4,214.6,772.5,214.5,772.5
				C214.5,772.5,214.5,772.5,214.5,772.5L214.5,772.5z"/>
			<path class="st3" d="M205.2,772.5c-0.1,0-0.2-0.1-0.2-0.2l-10.5-607.5c0-4.3,17-72.8,17.7-75.7c0-0.1,0.1-0.2,0.3-0.2
				c0.1,0,0.2,0.1,0.2,0.3c0,0,0,0,0,0.1c-0.2,0.7-17.7,71.3-17.7,75.5l10.5,607.5C205.5,772.4,205.4,772.5,205.2,772.5L205.2,772.5
				z"/>
			<path class="st3" d="M196.3,772.5c-0.1,0-0.2-0.1-0.2-0.2l-8.2-607.5c0-2.8,18.4-100.8,19.2-105c0-0.1,0.2-0.2,0.3-0.2
				c0.1,0,0.2,0.2,0.2,0.3c-0.2,1-19.2,102.2-19.2,104.9l8.2,607.5C196.6,772.3,196.5,772.5,196.3,772.5L196.3,772.5z"/>
			<path class="st3" d="M188.1,772.5c-0.1,0-0.2-0.1-0.2-0.2L181,164.7c0-4.6-6.8-103.9-6.9-104.9c0-0.1,0.1-0.2,0.2-0.2
				s0.2,0.1,0.2,0.2c0.1,1,6.9,100.4,6.9,104.9l6.9,607.5C188.4,772.4,188.2,772.5,188.1,772.5L188.1,772.5z"/>
			<path class="st3" d="M179.2,772.5c-0.1,0-0.2-0.1-0.2-0.2l-3.7-607.5c0-2.8-8.5-74.8-8.6-75.6c0-0.1,0.1-0.3,0.2-0.3
				s0.3,0.1,0.3,0.2c0.4,3,8.6,72.8,8.6,75.6l3.7,607.5C179.4,772.4,179.3,772.5,179.2,772.5L179.2,772.5z"/>
			<path class="st3" d="M169.2,772.5c-0.1,0-0.2-0.1-0.2-0.2c0-4.6-0.2-459.8,0.5-607.5c0-3.9-10.5-45.5-10.6-45.9
				c-0.1-0.1,0-0.3,0.1-0.3c0.1-0.1,0.3,0,0.3,0.1c0,0,0,0,0,0.1c0.4,1.7,10.7,42.1,10.6,46c-0.6,147.7-0.5,602.9-0.5,607.5
				C169.4,772.4,169.3,772.5,169.2,772.5C169.2,772.5,169.2,772.5,169.2,772.5z"/>
		</g>
		<g id="Bridge">
			<circle class="st15" cx="221.9" cy="725.9" r="7.1"/>
			<circle class="st13" cx="221.9" cy="725.8" r="5.5"/>
			<circle class="st15" cx="157.1" cy="722.1" r="7.1"/>
			<circle class="st13" cx="157.1" cy="722.1" r="5.5"/>
			<path class="st12" d="M221.9,730.5l-64.6-3.7c-2.4-0.1-4.2-2.2-4.1-4.6l0-0.6c0.1-2.4,2.2-4.2,4.6-4.1l64.6,3.7
				c2.4,0.1,4.2,2.2,4.1,4.6l0,0.6C226.3,728.8,224.3,730.6,221.9,730.5z"/>
			
				<rect x="185.4" y="698.2" transform="matrix(5.704136e-02 -0.9984 0.9984 5.704136e-02 -543.6281 872.4645)" class="st13" width="9.3" height="51.7"/>
			<path class="st15" d="M212.4,730.2l-0.3,0c-0.9-0.1-1.6-0.8-1.5-1.7l0.4-6.6c0.1-0.9,0.8-1.6,1.7-1.5l0.3,0
				c0.9,0.1,1.6,0.8,1.5,1.7l-0.4,6.6C214.1,729.6,213.3,730.3,212.4,730.2z"/>
			<path class="st15" d="M203.7,729.4l-0.3,0c-0.9-0.1-1.6-0.8-1.5-1.7l0.4-6.6c0.1-0.9,0.8-1.6,1.7-1.5l0.3,0
				c0.9,0.1,1.6,0.8,1.5,1.7l-0.4,6.6C205.3,728.8,204.6,729.5,203.7,729.4z"/>
			<path class="st15" d="M195.1,729.1l-0.3,0c-0.9-0.1-1.6-0.8-1.5-1.7l0.4-6.6c0.1-0.9,0.8-1.6,1.7-1.5l0.3,0
				c0.9,0.1,1.6,0.8,1.5,1.7l-0.4,6.6C196.7,728.5,196,729.2,195.1,729.1z"/>
			<path class="st15" d="M186.4,728.6l-0.3,0c-0.9-0.1-1.6-0.8-1.5-1.7l0.4-6.6c0.1-0.9,0.8-1.6,1.7-1.5l0.3,0
				c0.9,0.1,1.6,0.8,1.5,1.7l-0.4,6.6C188.1,728,187.3,728.7,186.4,728.6z"/>
			<path class="st15" d="M178.2,728.2l-0.3,0c-0.9-0.1-1.6-0.8-1.5-1.7l0.4-6.6c0.1-0.9,0.8-1.6,1.7-1.5l0.3,0
				c0.9,0.1,1.6,0.8,1.5,1.7l-0.4,6.6C179.8,727.6,179,728.2,178.2,728.2z"/>
			<path class="st15" d="M167.8,727.6l-0.3,0c-0.9-0.1-1.6-0.8-1.5-1.7l0.4-6.6c0.1-0.9,0.8-1.6,1.7-1.5l0.3,0
				c0.9,0.1,1.6,0.8,1.5,1.7l-0.4,6.6C169.5,727,168.7,727.7,167.8,727.6z"/>
			
				<rect x="188.8" y="697" transform="matrix(5.704136e-02 -0.9984 0.9984 5.704136e-02 -543.6359 872.3624)" class="st12" width="2.4" height="54"/>
			
				<rect x="203.1" y="723.3" transform="matrix(5.704136e-02 -0.9984 0.9984 5.704136e-02 -527.9571 891.0632)" class="st12" width="9.3" height="3.5"/>
			
				<rect x="194.5" y="722.8" transform="matrix(5.704136e-02 -0.9984 0.9984 5.704136e-02 -535.6141 881.9611)" class="st12" width="9.3" height="3.4"/>
			
				<rect x="185.6" y="722.3" transform="matrix(5.704136e-02 -0.9984 0.9984 5.704136e-02 -543.4362 872.6638)" class="st12" width="9.3" height="3.5"/>
			
				<rect x="177.4" y="721.7" transform="matrix(5.704136e-02 -0.9984 0.9984 5.704136e-02 -550.7169 864.0314)" class="st12" width="9.3" height="3.7"/>
			
				<rect x="167.1" y="721.2" transform="matrix(5.704136e-02 -0.9984 0.9984 5.704136e-02 -559.8575 853.1694)" class="st12" width="9.3" height="3.5"/>
			<circle class="st15" cx="157.4" cy="722.2" r="2.9"/>
			<circle class="st13" cx="157.4" cy="722.2" r="2.4"/>
			<circle class="st15" cx="221.9" cy="725.9" r="2.9"/>
			<circle class="st13" cx="221.9" cy="725.9" r="2.4"/>
		</g>
		<polygon class="st1" points="203.3,163.1 206.3,163.1 206.2,166.4 203.2,166.4 		"/>
	</g>
</g>
</svg>
