<svg xmlns="http://www.w3.org/2000/svg" viewBox="0 0 1925.48 1082.75"><defs><style>.cls-1{fill:#eecb00;}.cls-2{fill:#fff;}</style></defs><title>Asset 1</title><g id="Layer_2" data-name="Layer 2"><g id="Layer_1-2" data-name="Layer 1"><path class="cls-1" d="M1241.18,480l18-28.57L1238.28,438l1.27-4.3c31.6-.88,54.38-14.23,65-45.18,4.78,1.51,9.6,4.21,14.39,4.17,3.68,0,9.08-2.63,10.62-5.66a44.09,44.09,0,0,0,4.4-18.39c.09-3.38-3.61-6.85-6.85-12.44l-12.51-7.42c-5.62,4.29-12.45,7.69-16.65,13.11-7.37,9.54-15.78,6.62-25.07,5.34-11.33-1.57-22.88-1.71-34.35-2-1.28,0-3.18,3-3.85,4.92-3,8.46-4.36,17.7-8.57,25.44-7.61,14-19.84,23-34.53,29.71-9.32,4.23-17.37,7.32-28-1.81l8.36,25.88c15,3.4,31.21,10.81,42.31-1.65,9.22-10.34,13.13-25.42,19.39-38.41-.88,18.14-4.55,36.09-6,54.21-.59,7.44,3.6,15.26,5.61,22.9l2.6-.64c.39-2.5.77-5,1.21-7.81Zm-9.08,299.7.11.08L1237,783l-10.92,6c.25,4.53.5,8.93.68,12.23l11.31,2.79-3.52,9.43c-3.15-1.33-7.44-1.8-9.22-4.17-4.41-5.86-7.68-12.58-13.49-22.53.53,8.07.84,12.67,1.34,20.31-21.68-15.86-29.84-39.59-46.38-56.7,21.53-7.86-4.19-17.78,3.47-27.1-25.52,10.53-31.67-11-45.33-23.76h37.79c-15.31-10.77-15.41-11.7-5.91-16.36-1.89-10-3.68-19.54-5.46-29l4.21-.86c1,4.28,2,8.57,3,12.42,8.38-23.2,4.61-50.8,23.78-69.62l30.86,14.25c-4.5,3.78-9,6.77-12.51,10.72-4.82,5.49-8.22,12.32-13.36,17.44-6.09,6.07-5.8,11.7-3.47,19.38,2.41,8,2.84,16.74,3,25.18.06,5.27-2.07,10.57-3.22,15.86l1.54.08q7.66-12.32,15.34-24.62l3.49,2c-2.36,16.75-17.49,30.49-12.92,50.66l7.43-12.39,15.72,3.77c-20,12.14-24.7,21.43-23.91,42.69,5.75-.39,12.09.65,17.07-1.48,8.12-3.47,18.15-7.22,22.45-14,14.59-23,13.94-48.44,6.92-74-2.19-8-6.2-11.39-14.77-6.41-4,2.33-9.37,2.33-15.77,3.75,7.12-19.68-7.81-8.15-14.16-11.43,2.68-4.34,4.13-9,7.32-11.41,11.91-8.9,24.59-8.4,39.08,2.72.66-31.37,5.74-59.21-8.41-88.58-13.75,9-25.78,16.86-37.83,24.69-2,1.33-4.75,4-6.19,3.47-14.56-5.43-18,10.62-28.39,13.07a15.62,15.62,0,0,0,5.3,1.59c.22,0,.32.69.62,1.4-18.79,7.32-10.81,27.07-19.5,39.79V609.05c-19.68,13.55-37.33,25.54-54.68,38-1.48,1.06-1.63,4.94-1.34,7.38,1.59,13.17-3.34,17.47-16.49,14.33a68.88,68.88,0,0,0-13.69-2.19c-9.45-.31-18.45,1.88-21.07,12.31-2.44,9.68-1.57,19.07,7.73,26.06,5.65,4.25,11.8,9,15.07,15,4.66,8.51,10.95,19.28,9.1,27.38-2.36,10.32-1.14,19.47-.72,29.3.85,19.53-4.56,37.26-17.11,52.7-3.24,4-5.15,9-7.67,13.6l4,4.13c9-3.08,19.18-4.38,26.66-9.59a405.54,405.54,0,0,0,43.75-35.85c6.17-5.72,9.72-14.28,16.14-24.14l-19.54,11.91c-.54-.8-1.07-1.6-1.61-2.39l9-9.45-8-3.38,8.34-10.44-9-7.76,10-2.92c-4-2.43-8.65-4.33-12.27-6.68l2.49-1.33h21c9.53,19.78,3.14,38.59-8.29,58.12q-2.1,3.58-4.4,7.21c18.64-6.24,38.69-5.69,39.76-29.9h0a14.87,14.87,0,0,1,2.35.34l.78.22c.24.08.47.17.69.26s.42.2.61.3.37.22.54.34c3.59,2.57,1.54,7.86.94,11.63-3.1,19.36-20.93,33.5-41.47,34.31-7.66.29-15.28,1.87-22.92,2.86l.66,5.21h26.15c.12.67.76,4.18,1.41,7.69,2.24-1.46,6.14-2.63,6.46-4.43,2.32-13,11.87-14.87,22.31-14.95,3.75-17,14.07-24,26.11-18.22,19,9.19,25.34,39.22,11.69,55.57-1,1.19-1.78,2.55-3,4.31l7.07,3.75c10.41-18.32,20.74-23.11,32.7-15.57,12.73,8,18,25.2,12.06,39.06-10.91,25.29-43.49,30.61-67.63,10.33-11.62-9.76-21.36-21.79-33.14-31.33-9.67-7.83-20.36-15.47-31.88-19.73-27.7-10.23-43.79-1.1-57.15,25.16-7.68,15.1-19.5,28.24-30.29,41.58-6.38,7.88-15.9,7.52-22.6,1.21-10.78-10.16-19.91-10-30.2,0-3.79,3.69-8.62,6.3-13.54,9.8-.38-1.45-.75-2.85-.88-3.32,0,.06,0,.14.06.23l-48.59,9.21c3.11.91,8,4.12,11.61,3.09,14.74-4.18,24.61,3.73,33.56,12.74,4.19,4.23,5.87,11,8.69,16.54-5.06,1.83-10.11,3.7-15.18,5.51-8.76,3.12-20,3.89-25.65,9.9-6.52,6.93-8.14,18.48-12.7,30.1-.59-7.08-1.92-12.75-1.35-18.22,2.31-22.24-3-30.41-24-36.88-13-4-25.73-8.88-38.58-13.36l.75-5.75c9.35,0,18.71.38,28-.1,10.22-.52,13.49-8,13.7-16.63.22-9.22-6.33-10.88-13.93-10.28-5.85.45-11.7,1.38-17.54,1.38-3.7,0-7.4-1.3-11.1-2,8-3.59,15.17-6.11,22.4-6.44,7.76-.35,15.6,1.56,23.42,2.13,24.31,1.77,44.81-10.1,51-30.36-8,.65-15.43,1.52-22.94,1.82q-21.46.86-43,1.08c-2.81,0-7.7-.69-8.14-2.13-4.59-15-20-15.26-30.23-22.18-6.4-4.33-14.71-6.66-22.48-7.94-10.81-1.78-15.2,6.54-16.7,15.17-1.68,9.65,6.13,10,13.14,11.11,6.55,1,12.93,3.22,19.38,4.9l-.45,3.33-19.33,8.16c3.33,1.91,5.09,2.83,6.75,3.9,4.24,2.73,10.36,4.61,12.21,8.5,3.2,6.72-3.49,7-8.12,9.07-2.35,1-3.26,6.46-3.81,10.06s.2,7.24.48,13c-7-2.88-12.62-4.59-17.64-7.35-13.27-7.31-25.91-15.87-39.53-22.42-12.14-5.83-23.89.88-27.42,13.89-3.14,11.58,8.28,46.5,18.12,55.27V959.24h1.89l13.64,39.09c3.76-4.84,6-7.74,8.25-10.64-2.79,13.13,3.1,20.15,14.7,24.06a11.16,11.16,0,0,1,5.59,4.88c7.61,13.6,20.74,19.52,34.28,24.52,21.39,7.89,43,15.19,64.56,22.68,18.28,6.35,36.6,12.61,54.91,18.91H302.39V2.2H1925.48V1082.75H1558c1.28-7.85-4.47-10.08-9.65-8.87-7.23,1.68-13.89,5.8-20.79,8.87h-200.4c3.38-2,6.6-4.3,10.18-5.75,2.09-.84,5.9.74,7-.49,8.49-9.72,16.9-19.57,24.3-30.11,1.31-1.86-2.65-10.38-3.4-10.27-10,1.4-19.92,3.79-29.33,5.82-.57,5.43-1,9-1.21,11.5l-32.85,7.9c-1-3.35-2-6.35-3.4-10.87-2.62,4.56-4.25,7.39-5.39,9.36l-20.67-1.19c-1.1-3.62-2.78-9.18-4.67-15.42a66.71,66.71,0,0,0,6.77-1.27c12.61-3.82,25.31-7.41,37.76-11.7,10-3.45,19.54-8.37,29.64-11.5,5.91-1.83,12.51-1.46,18.81-2,12.5-1.08,19.24-7.4,18.74-20.22-11-12.85-22.92-7.29-35.49-3-20.2,6.88-40.76,12.74-61.26,18.72-2.24.65-5.08-.78-7.65-1.25,13.09-9,26.75-15.09,40.26-21.48,9.32-4.41,18-11.4,27.75-13.41,15.76-3.25,21.32-7.07,22.93-23.07.37-3.75.52-7.52.76-11l18.78-7.42c-9.1-18.93-14.65-24.38-25.64-24.88l5.35,10.5-3,1.91-16.51-21.67-33.6,20.52c10.08-11.8,12.51-29,33.27-31.4,40.31-4.71,40.12-6.39,43.17-.48-5.47,3.31-13.26,5.29-15.22,9.79-4.11,9.47,4.36,13.39,13.52,15.88-2.46-5-4.92-9.93-7.53-15.17,12.84,3.89,15.77,10.61,15.34,34.89,12.78,1.8,25.72,5,38.58,4.73,4.63-.1,9.85-8.07,13.3-13.41a7.1,7.1,0,0,0,.89-3.89l3-.37c.62,4.22,1.26,8.48,1.9,12.83,31.09,9.44,59.44,42.24,52.52,65.53l27.16,1.69c-6.39,6.8-12.24,12.23-17.13,18.43-6.11,7.74-4.66,13.15,5.26,17.27,11.63,4.82,20.26,2,27.91-8.48l25.13,23.44,31.53-16.82c.1,13.25-12.5,22.44-2.34,37.26,1.57-9.29,2.55-15.1,3.68-21.77l8.71,9.73c6-11.86,11.11-21.92,16-31.63l9.69,12.2c1.52-13.7,2.76-24.93,4-36.17l4.31-.31c1.88,3.52,3.49,7.22,5.7,10.53,2.52,3.79,5.26,10,8.43,10.34,11.39,1.26,23,.5,34.54.5.19-.8.39-1.6.58-2.39l-25.81-11.79a14.14,14.14,0,0,1,10.21-.79c18.6,5.25,37,11.22,55.77,15.78,8.43,2,17.52,1.73,26.3,1.73,2.42,0,4.84-2.7,8-4.59-16.83-9.74-30.9-21.34-47-26.25-16.72-5.1-35.42-3.73-53.26-5.19l.3-4.12c12.19,0,24.44-.78,36.53.23,11.26.94,22.12,1.19,32.68,9.42,10,7.75,24.35,9.84,36.82,14.3,5.3,1.9,11.23,2.62,15.95,5.43,13.21,7.83,16.56,7.47,28.16-7-6.27,1.27-10.89,2.67-15.6,3-3,.21-8.73-.88-8.84-1.87-1.51-14-13.3-10.57-21.5-12.51,1-4.22,1.81-7.74,2-8.71L1755,972.41c1.55-3.48,3.16-7.1,3.39-7.63,34.7,7.56,65.57,26.62,101.62,9.14.26,4,.44,6.68.53,8l20.64,7,9.76-6.38-12.63-9.12c1.82-2.1,3.26-4.83,5.52-6.19,15.28-9.25,15.32-9.15,7-25.47a56.57,56.57,0,0,1-2.17-5.47l2.27-1.48,21.91,29.75c4.88-12.91,6.91-23.66-.07-35.2-3.56-5.89-3.58-13.8-6.26-20.37-6-14.63-11.28-29.77-19.3-43.25-9.36-15.72-20.92-30.2-32.3-44.62-5.28-6.68-12.34-12-18.69-17.78-.79-.73-2.12-.88-3.2-1.29l1.23-2.14,8.94-1c-3.23-6.77-6.93-12.44-8.69-18.67-3.12-11-11.27-13.52-20.89-14.28a64.84,64.84,0,0,0-8.22.36c-.3-1.18-.61-2.36-.91-3.54l18-5.47c-8.28-6-7.4-22.25-23-15.68-.4.17-5.72-6.85-5.08-9.7,1.38-6.23,5.13-11.94,7.91-17.86l-1.58-1.84L1776.81,726l-2.57-3q11.29-12.59,22.58-25.16l-2.73-3.86c-14.26,6.57-28.78,12.63-42.72,19.82-17.82,9.19-35.31,18.56-53.34,13.75,10.44-8,22.26-16.28,33.07-25.68,16-13.89,27.52-33.49,51.65-37.87l-26.67,25.2c10.82-2.07,19-2.81,26.55-5.31,6.84-2.26,9-19.9,4.44-25.53-5.85-7.16-13.13-14.11-16.12-22.46-8.34-23.28-30.6-26.86-49-38.58,6.09-11.44,16-16.93,30.24-15.71.2-2.24.85-4,.4-5.41-7.3-22.58-14.5-45.21-35.75-59.47-13.23-8.89-27.07-17.1-39.22-27.31-25.83-21.68-54.73-14.82-83.39-10.56-4,.59-7.54,4.73-10.92,7.65-6.63,5.72-13,11.75-19.49,17.65l-2.19-2,8.24-14.5-3.57-2.18c-5.95,8.81-13.2,17-17.62,26.55-16.16,34.87-15.88,71.07-6,107.53,1.46,5.4,4.72,10.32,7.15,15.45q2,6.57,4.09,13.13L1565.19,669l39.12-1.81c-8.06,9.14-14.26,16.15-20.87,23.64,3.44,2,4.21,2.89,4.8,2.77,2.37-.44,4.68-1.15,7-1.79a35,35,0,0,0,1.54,6.7c.12.33.23.65.35,1a18.26,18.26,0,0,0,2.08,4,12.58,12.58,0,0,0,1,1.24c.17.19.34.37.52.54,7.38,7.27,20.19,1.63,31.11,2.63l-27.51,10.33c3.45,11.82,4.64,26.15,11.38,37Q1646,804,1680.16,850.48c14.6,19.89,15.6,26.65-2.06,43.62l-12.4-4.6,6.5,14.37c-14.33,1.25-27.53,2.63-40.76,3.27-1.94.09-3.77-4.31-6.14-5a61.23,61.23,0,0,0-14.06-2c-1.93-.1-4.77,2.46-5.79,1.76-9.32-6.45-18.33-13.34-27.43-20.11l12.66,5.57c-1.3-5-2.17-8.43-3-11.83l3.55-1.4,5.21,9.68c1.41-4.74.92-10.86-1.48-11.74-4.7-1.71-10.46-.5-15.23-.5l-16.06-8.31a22.94,22.94,0,0,1,.49-4.94c1.71-5.44,10.42-9.91,2.41-16.64-8.36-7-11.57,4.37-17.77,5.22-.37.05-.7.45-1,.68-5.09-8.52-8.6-18.81-15.67-25.12-9.43-8.42-21.62-13.75-32.62-20.41l2.75-2.24V787.72c-3.67-.73-6.6-1-6.63-1.38a92,92,0,0,1-.22-15c.83-9,2.44-17.88,3.24-26.86.51-5.74-.53-11.66.31-17.32,3-20.37,6.53-40.67,9.9-61,2.46-14.81,3.92-29.89,7.91-44.28,2.34-8.45.7-12.4-6.47-16.06-5.43-2.78-10.36-6.57-14.53-9.27,1.61-6,4.54-10.56,3.45-13.82-4.94-14.87-11-29.36-16.69-44-2.34,4.47-2.59,8.41-2.83,12.36-.69,11.56-6.35,26.87-1,33.94,11.73,15.63.81,25.56-3.14,37.64-.8,2.42-2.32,4.61-3.5,6.9l2.24,2,11.81-9.35c-1,7.68-1.76,14.12-2.56,20.56l-2.34-1.74-12,11.21,13.58,13-.67,2.51-15,6.38c3.66,4.52,7.31,9,12.61,15.61l-11.52,13.95c.38,2.69-.51,8.2,1.82,10.74,6.69,7.3,8.21,13-.49,19.72-2.3,1.79-3.29,5.84-4,9-3.61,17-3.31,35.11-16.36,49.28-7.23,7.86-12.94,17.12-19.34,25.74l-3.38-1.62c3.39,7.66,6.79,15.32,10,22.67l-18.14,6.54-11-6.58-18.54,21.63a23.14,23.14,0,0,1-2.83-4.12c-2-5-3.86-10.1-5.68-14.93,17-13.78,17.85-18.45,6.35-37-5.05-8.17-5.57-14.8,4.63-19.16,3.49-1.49,6.72-3.58,10.2-5.08,18.28-7.85,24.2-17.49,21.63-37.32-1.44-11.11-4-22.07-6-32.56h19.37c.21,1.06.43,2.13.64,3.2l-12.74,3.69c2.21,7.12,4.4,14.22,7.57,24.44,11.61-16.48,8.64-37.38,24.41-48.07q-3.76-25.67-7.52-51.33l-5.26-.33c-2.08,4.45-4.15,8.9-6.78,14.55-1.37.19-4.67-.16-6.93,1.21s-3.07,4.89-5.17,6.69c-5.38,4.62-20.21,1.46-22.68-5.49-3-8.54-8.56-8.91-14.84-5.82a46.24,46.24,0,0,0-13.79,10.39c-5.9,6.65-10.76,14.23-16.06,21.41l-2.62-2c6.55-11.53,10.82-24.54,24.61-31.06a216.62,216.62,0,0,0,22-12.44c15.23-9.53,29.8-20.25,45.61-28.66,8.32-4.43,14.63-9.12,14.54-18.44-.12-13.94-1.62-27.88-2.45-40.6l-42.81,7.29c1.69-5.57,1.68-8.68,3.22-10.11,11.69-10.87,23.29-21.91,35.75-31.84,6.39-5.1,14.82-29.88,10.32-36.58-1.23-1.82-4.32-4-6-3.62-7.13,1.65-14,4.22-24.53,7.56-1.77-7.08-6.73-17-5.93-26.38.92-10.8,12-12.61,21.68-13.45,1.65-.15,3.91-.27,4.78-1.33,3.72-4.5,8.61-9,9.91-14.2.79-3.2-3.59-10.43-6.72-11.14-3.93-.9-9,3-13.5,4.89a8.64,8.64,0,0,0-1.9,1.12l-16-2.91c-5,10.23-7.25,18.31-12.15,24.16-13.59,16.24-17.51,35.83-22,55.47-4.8,20.73,1,41.38-.24,61.85-.87,14.4-2.41,31.07-21.09,39.36l-4.43-13.41c-6.52,14.85-18,11.76-28.88,8.24-12.34-4-24.45-8.72-36.5-13.51-2-.79-3.36-3.43-4.73-5.4-10.89-15.7-28.3-20.19-43.84-27.91l-2.35,2.54q11,15.72,22,31.45l-2.35,1.85-14.57-9c1.91,6.82,2.94,10.47,4.14,14.76l-12.06.55c4.25,12.16,11.68,23.51,11.21,34.52-.61,14,7.51,18,16,23.9,5.83,4.06,5.82,8.35-.84,11.59a39.08,39.08,0,0,1-7,2.29c-1.65,6.1-3.44,10.78-4.06,15.61a32.75,32.75,0,0,0,.66,12.64c1.08,3.91,4.59,7.15,5.6,11.06,2,7.66,2.95,15.58,4.27,23l-13.8,9.47V712.63c-9.52,20.94-9.52,20.94-2.64,29.34l-12.91-6.09c-4,14.16-7.95,28.47-12.28,43.94Zm455,266c-.88-16-.88-16-21.59-7.07Zm-41.83-206.29L1642,837.1c-1.67,2.65-3.33,5.31-6.52,10.39l-9.31-33.42L1607.43,809l-11.73,17.4c15.06,12.36,30.27,24.86,45.56,37.27.19.16,1.28-.79,2.84-1.78-3.39-3.61-6.67-7.11-8.69-9.25Zm-91.07-77c5.58-6.88,10.55-14.3,2.46-20-3.08-2.16-11.16,2.83-19.33,5.27ZM1534,444.8c6.54,9.39,18.56,10.33,26,2.82Zm17.55,39.13c-6.6,8.09-15.73,15.23-19.21,24.49-5.67,15.08-8.38,31.42-11,47.46-3.29,20.08,3.66,48,14.79,60.27C1518.24,568.19,1525.58,525.47,1551.51,483.93Zm-36.92-36.52,34.42-8.3-24.26-13C1532.45,437.11,1520.84,439.81,1514.59,447.41Zm-36.83-22.21,3.7-4.65-16.38-12.94-3.43,4.55Zm-26.85,42.08c.45-2.06.91-4.13,1.36-6.2l-13-6.25q-2,6.23-4,12.45Zm-35.19,367.24,2.9-.56c-3.66-11.79-7.32-23.57-11-35.59-12.61,5.22-14.66,8.57-10.18,14C1403.45,819.84,1409.61,827.16,1415.72,834.52Zm-66.31-300.27c18-10.46,30.26-38.4,25.74-56.73-18.77,48.27-62.66,51.14-107.34,53.44C1287.43,550.73,1305.8,559.69,1349.41,534.25Zm-2.49,359.53c16.74,15.7,16.85,15.67,23-5.24Zm-44.15-380.11c32.13,1.52,59.33-35.68,46.42-67.95-4.83,9.54-8.67,17.13-14.06,27.76-1.85-5.77-2.88-8.55-3.63-11.41-.79-3.05-1.31-6.18-2-9.59-20.85,9.81-43.89,13.39-57.4,33.57l11.22,5.41-1.59,2.82-20.63,1c-.69,4.72-2.39,8.47-1.39,11.26,1.89,5.32,4.35,11.32,8.5,14.64,2.43,1.94,11.32.7,12.57-1.64C1286.41,509,1295.1,513.3,1302.77,513.67Zm16.67-89.12,17.27-7.46-22.5-20.75C1316.27,407.46,1317.81,415.77,1319.44,424.55Zm-6.92,11.14-7.07-3.2c-7.61,5.47-13.43,13.14-19.57,13.41-14.8.63-18.47,13.37-29.94,20.85C1272,470.53,1312.08,447.4,1312.52,435.69Zm-14.07-85.26c-1.2-6.16-1.88-9.67-3.19-16.39l-22.53,17.42,2.44,4.59Zm-49.51,6.78c-5-13.54,12.22-23.82,3.12-34.17-6.39,0-10.7-.2-15,0-8.5.48-18.56-1.51-25.15,2.34-16.74,9.8-35.39,18.05-45.39,36.54a8.44,8.44,0,0,1-3.37,3.48c-12,5.82-14.67,17.56-11.41,27.48,2.78,8.5,11.21,16.6,19.24,21.24,3.33,1.92,12.32-5.32,18.36-9,3.12-1.9,5.44-5.14,9.41-9v9.54c5.73-7.29,10.5-13.38,17.61-22.44l-56,12.14c.12-12.35,11.82-14.5,20.76-17.79s18.1-3.87,24.44-13.48c3-4.53,16.05-8.59,18.14-6.48C1233.25,367.23,1239.72,355.93,1248.94,357.21Zm-32.66,546.25c15.39,1.08,27.66-15.7,21.28-28.92Zm-14.64-8.7c3.61-7.47,3-15.47-5.9-21,2.42,16.94-.44,18-27.75,11.32,4.57,4.51,9.17,9.42,14.82,12.12C1189,900.18,1197.37,903.6,1201.64,894.76ZM1183,563.59l30.69-33.17c-11.25-1.4-19.25-16.56-35.14-6.77C1192.14,535.81,1186.93,549.78,1183,563.59Zm.74-23.28c-13.48-11.38-30.47-8.45-51.73,6.22-26.58,18.35-39.1,40-32.26,59.43ZM1164.2,713.44c-6.71-12.29-16.43-1.69-25-5.4C1146,722.8,1154.64,718.89,1164.2,713.44Zm-16.61,100c-.28-1.44-.55-2.88-.83-4.32l-40.16,6.55c.33,1.9.67,3.8,1,5.71ZM1024,875.61q-3.48-4.93-6.94-9.89c-1.94,2.4-6,5.82-5.4,7,1.48,3,5,5.08,7.69,7.52Zm-36.55-69.56c.24-1-3.82-4.14-6.11-4.38a38,38,0,0,0-5.51-.18c-16,.6-28.54,11-40.77,19.35-9.17,6.23-13.66,19.34-20.07,29.1,30.53,1.28,49.78-16.13,60.85-47.71,2,6.42,3,9.67,5.14,16.32C984.24,812.62,986.58,809.52,987.44,806.05Zm-28.81,87c3.22-5.49,6.13-8.34,6.06-11.11-.05-1.84-4.69-5.31-6.65-4.91-2.25.45-4.91,4.21-5.28,6.83C952.47,885.88,955.46,888.36,958.63,893.06Zm-6.36-111.37c9.21-4.16,7.71-12.53,5.91-19.74-1-3.93-5.2-7-9-11.89,2.16-5.29,9.57-15.49-2.23-15.3-12.22.19-27.18.89-34.38,10.32,5.23,9.21,9.8,16.52,13.64,24.2C930.93,778.81,943.89,785.47,952.27,781.69Zm-42.75,35.16c3-9.88-1-21.88-2-33l-7-.59c-1,3.79-1.77,7.61-2.88,11.35-1.06,3.56-2,9.81-3.72,10.08-13.49,2.11-27.59,5.66-40.65,3.54-10.68-1.74-20.2-10.68-31.22-17-5.33,6.47-11.14,12.12-15.24,18.81-7.62,12.46-5,18.62,8.38,24.41,10.78,4.65,21.24,10.12,32.23,14.18,3.55,1.31,11,.71,12.1-1.42,6.32-11.8,17.37-12.83,28.39-16.09C896.1,828.72,907.56,823.35,909.52,816.85Z"/><path class="cls-2" d="M1443.15,424.22h0a8.64,8.64,0,0,1,1.9-1.12c4.53-1.91,9.57-5.79,13.5-4.89,3.13.71,7.51,7.94,6.72,11.14-1.3,5.25-6.19,9.7-9.91,14.2-.87,1.06-3.13,1.18-4.78,1.33-9.65.84-20.76,2.65-21.68,13.45-.8,9.4,4.16,19.3,5.93,26.38,10.48-3.34,17.4-5.91,24.53-7.56,1.68-.39,4.77,1.8,6,3.62,4.5,6.7-3.93,31.48-10.32,36.58-12.46,9.93-24.06,21-35.75,31.84-1.54,1.43-1.53,4.54-3.22,10.11l42.81-7.29c.83,12.72,2.33,26.66,2.45,40.6.09,9.32-6.22,14-14.54,18.44-15.81,8.41-30.38,19.13-45.61,28.66a216.62,216.62,0,0,1-22,12.44c-13.79,6.52-18.06,19.53-24.61,31.06l2.62,2c5.3-7.18,10.16-14.76,16.06-21.41a46.24,46.24,0,0,1,13.79-10.39c6.28-3.09,11.82-2.72,14.84,5.82,2.47,6.95,17.3,10.11,22.68,5.49,2.1-1.8,2.92-5.33,5.17-6.69s5.56-1,6.93-1.21c2.63-5.65,4.7-10.1,6.78-14.55l5.26.33q3.75,25.66,7.52,51.33c-15.77,10.69-12.8,31.59-24.41,48.07-3.17-10.22-5.36-17.32-7.57-24.44l12.74-3.69c-.21-1.07-.43-2.14-.64-3.2H1417c2,10.49,4.59,21.45,6,32.56,2.57,19.83-3.35,29.47-21.63,37.32-3.48,1.5-6.71,3.59-10.2,5.08-10.2,4.36-9.68,11-4.63,19.16,11.5,18.57,10.67,23.24-6.35,37,1.82,4.83,3.64,9.93,5.68,14.93a23.14,23.14,0,0,0,2.83,4.12l18.54-21.63,11,6.58,18.14-6.54c-3.25-7.35-6.65-15-10-22.67l3.38,1.62c6.4-8.62,12.11-17.88,19.34-25.74,13-14.17,12.75-32.25,16.36-49.28.68-3.21,1.67-7.26,4-9,8.7-6.74,7.18-12.42.49-19.72-2.33-2.54-1.44-8-1.82-10.74l11.52-13.95c-5.3-6.56-9-11.09-12.61-15.61l15-6.38.67-2.51-13.58-13,12-11.21,2.34,1.74c.8-6.44,1.6-12.88,2.56-20.56l-11.81,9.35-2.24-2c1.18-2.29,2.7-4.48,3.5-6.9,4-12.08,14.87-22,3.14-37.64-5.3-7.07.36-22.38,1-33.94.24-4,.49-7.89,2.83-12.36,5.67,14.63,11.75,29.12,16.69,44,1.09,3.26-1.84,7.85-3.45,13.82,4.17,2.7,9.1,6.49,14.53,9.27,7.17,3.66,8.81,7.61,6.47,16.06-4,14.39-5.45,29.47-7.91,44.28-3.37,20.32-6.87,40.62-9.9,61-.84,5.66.2,11.58-.31,17.32-.8,9-2.41,17.89-3.24,26.86a92,92,0,0,0,.22,15c0,.43,3,.65,6.63,1.38V799.8l-2.75,2.24c11,6.66,23.19,12,32.62,20.41,7.07,6.31,10.58,16.6,15.67,25.12l15.22,16.28L1578,881.78c9.1,6.77,18.11,13.66,27.43,20.11,1,.7,3.86-1.86,5.79-1.76a61.23,61.23,0,0,1,14.06,2c2.37.7,4.2,5.1,6.14,5,13.23-.64,26.43-2,40.76-3.27l-6.5-14.37,12.4,4.6c17.66-17,16.66-23.73,2.06-43.62q-34-46.35-64.43-95.26c-6.74-10.87-7.93-25.2-11.38-37l27.51-10.33c-10.92-1-23.73,4.64-31.11-2.63-.18-.17-.35-.35-.52-.54a12.58,12.58,0,0,1-1-1.24,18.26,18.26,0,0,1-2.08-4c-.12-.31-.23-.63-.35-1a35.87,35.87,0,0,1-1.52-6.7l.25-.07.73-.25c23.62.26,23.9-.39,25.38-28-9.55,9.2-12.48,23.44-25.38,28h-1l0,0c0,.12,0,.23,0,.35-2.34.64-4.65,1.35-7,1.79-.59.12-1.36-.73-4.8-2.77,6.61-7.49,12.81-14.5,20.87-23.64L1565.19,669l-11.35-20.86,6.79,4.38c-2.81-22.25-18.85-41-11.73-64.37-12.84-8.89-1.77-23.59-5.27-35.67-7.15,28.15-.47,55.34,6.12,82.53-2.43-5.13-5.69-10-7.15-15.45-9.84-36.46-10.12-72.66,6-107.53,4.42-9.52,11.67-17.74,17.62-26.55l3.57,2.18-8.24,14.5,2.19,2c6.48-5.9,12.86-11.93,19.49-17.65,3.38-2.92,7-7.06,10.92-7.65,28.66-4.26,57.56-11.12,83.39,10.56,12.15,10.21,26,18.42,39.22,27.31,21.25,14.26,28.45,36.89,35.75,59.47.45,1.41-.2,3.17-.4,5.41-14.2-1.22-24.15,4.27-30.24,15.71,18.44,11.72,40.7,15.3,49,38.58,3,8.35,10.27,15.3,16.12,22.46,4.61,5.63,2.4,23.27-4.44,25.53-7.57,2.5-15.73,3.24-26.55,5.31l26.67-25.2c-24.13,4.38-35.68,24-51.65,37.87-10.81,9.4-22.63,17.63-33.07,25.68,18,4.81,35.52-4.56,53.34-13.75,13.94-7.19,28.46-13.25,42.72-19.82l2.73,3.86q-11.3,12.57-22.58,25.16l2.57,3,23.87-13.79,1.58,1.84c-2.78,5.92-6.53,11.63-7.91,17.86-.64,2.85,4.68,9.87,5.08,9.7,15.64-6.57,14.76,9.65,23,15.68l-18,5.47c.3,1.18.61,2.36.91,3.54a64.84,64.84,0,0,1,8.22-.36c9.62.76,17.77,3.27,20.89,14.28,1.76,6.23,5.46,11.9,8.69,18.67l-8.94,1-1.23,2.14c1.08.41,2.41.56,3.2,1.29,6.35,5.82,13.41,11.1,18.69,17.78,11.38,14.42,22.94,28.9,32.3,44.62,8,13.48,13.33,28.62,19.3,43.25,2.68,6.57,2.7,14.48,6.26,20.37,7,11.54,5,22.29.07,35.2l-21.91-29.75-2.27,1.48a56.57,56.57,0,0,0,2.17,5.47c8.35,16.32,8.31,16.22-7,25.47-2.26,1.36-3.7,4.09-5.52,6.19l12.63,9.12-9.76,6.38-20.64-7c-.09-1.31-.27-4-.53-8-36,17.48-66.92-1.58-101.62-9.14-.23.53-1.84,4.15-3.39,7.63l23.76,18.38c-.22,1-1,4.49-2,8.71,8.2,1.94,20-1.44,21.5,12.51.11,1,5.82,2.08,8.84,1.87,4.71-.33,9.33-1.73,15.6-3-11.6,14.44-15,14.8-28.16,7-4.72-2.81-10.65-3.53-15.95-5.43-12.47-4.46-26.86-6.55-36.82-14.3-10.56-8.23-21.42-8.48-32.68-9.42-12.09-1-24.34-.23-36.53-.23l-.3,4.12c17.84,1.46,36.54.09,53.26,5.19,16.1,4.91,30.17,16.51,47,26.25-3.14,1.89-5.56,4.59-8,4.59-8.78,0-17.87.32-26.3-1.73-18.76-4.56-37.17-10.53-55.77-15.78a14.14,14.14,0,0,0-10.21.79l25.81,11.79c-.19.79-.39,1.59-.58,2.39-11.53,0-23.15.76-34.54-.5-3.17-.35-5.91-6.55-8.43-10.34-2.21-3.31-3.82-7-5.7-10.53l-4.31.31c-1.25,11.24-2.49,22.47-4,36.17l-9.69-12.2c-4.93,9.71-10,19.77-16,31.63l-8.71-9.73c-1.13,6.67-2.11,12.48-3.68,21.77-10.16-14.82,2.44-24,2.34-37.26l-31.53,16.82-25.13-23.44c-7.65,10.52-16.28,13.3-27.91,8.48-9.92-4.12-11.37-9.53-5.26-17.27,4.89-6.2,10.74-11.63,17.13-18.43l-27.16-1.69c6.92-23.29-21.43-56.09-52.52-65.53-.64-4.35-1.28-8.61-1.9-12.83-.38-2.54-.75-5.06-1.12-7.58l-2.42.25c0,2.44.57,5.26.57,7.7a7.1,7.1,0,0,1-.89,3.89c-3.45,5.34-8.67,13.31-13.3,13.41-12.86.27-25.8-2.93-38.58-4.73.43-24.28-2.5-31-15.34-34.89,2.61,5.24,5.07,10.2,7.53,15.17-9.16-2.49-17.63-6.41-13.52-15.88,2-4.5,9.75-6.48,15.22-9.79-3.05-5.91-2.86-4.23-43.17.48-20.76,2.42-23.19,19.6-33.27,31.4l33.6-20.52,16.51,21.67,3-1.91-5.35-10.5c11,.5,16.54,6,25.64,24.88L1366.74,942c-.24,3.53-.39,7.3-.76,11-1.61,16-7.17,19.82-22.93,23.07-9.76,2-18.43,9-27.75,13.41-13.51,6.39-27.17,12.47-40.26,21.48,2.57.47,5.41,1.9,7.65,1.25,20.5-6,41.06-11.84,61.26-18.72,12.57-4.28,24.52-9.84,35.49,3,.5,12.82-6.24,19.14-18.74,20.22-6.3.55-12.9.18-18.81,2-10.1,3.13-19.63,8-29.64,11.5-12.45,4.29-25.15,7.88-37.76,11.7a66.71,66.71,0,0,1-6.77,1.27c1.89,6.24,3.57,11.8,4.67,15.42l20.67,1.19c1.14-2,2.77-4.8,5.39-9.36,1.41,4.52,2.35,7.52,3.4,10.87l32.85-7.9c.26-2.49.64-6.07,1.21-11.5,9.41-2,19.3-4.42,29.33-5.82.75-.11,4.71,8.41,3.4,10.27-7.4,10.54-15.81,20.39-24.3,30.11-1.07,1.23-4.88-.35-7,.49-3.58,1.45-6.8,3.79-10.18,5.75h-5.07q.61-5.65,1.24-11.3l-3.92-2.54-15.08,13.84H1104c-2.15-3.57-3.9-7.47-6.52-10.66-7.8-9.49-16-18.69-13-29.68-15.15-11.88-28.82-22.58-42.42-33.37-.2-.15.42-1.34.69-2.14l8.6,4.59c1.09-1.14,2.19-2.27,3.29-3.41-4.1-4.19-7.82-8.93-12.52-12.28-1.72-1.23-8.41,1-8.39,1.37.28,5.43.16,11.45,2.59,16,2.13,4,7.16,6.61,11.24,9.36,3.55,2.4,7.56,4.14,11.36,6.17-2.75,2.55-4.65,2.76-6.55,2.7-8.65-.26-17.75-.41-21.27,9.46-3.78,10.62,2,19.3,9.53,25.55,3.37,2.8,10.24,2.94,15,1.9,2.42-.53,5.79-7,5-9.64-1.41-4.74-5.26-9-8.92-12.68-1.33-1.31-5.06-.21-7.7-.21-.12-1.48-.25-3-.38-4.44,4.55-.47,10.31-2.88,13.38-1,4.77,3,11.23,9.3,10.72,13.44-1.2,9.88-6,19.31-9.43,28.92H1038c-7.22-8.14-15.14-15.77-21.42-24.57-5.57-7.81-9-17.08-13.91-25.41-5.91-10.07-15.56-16.76-23.34-24.81-8.55-8.86-16.57-9.65-26.55-9.67,3.76,4,9.25,4.41,12.88,7.25,10,7.81,20.16,15.81,28.38,25.35,4.51,5.24,5.22,13.74,7.56,20.54,1.45.27,5.24,0,5.81,1.26,3,6.4,4.93,13.23,7.56,19.79,1.43,3.55,3.49,6.85,5.27,10.27H951.77c-18.31-6.3-36.63-12.56-54.91-18.91-21.55-7.49-43.17-14.79-64.56-22.68-13.54-5-26.67-10.92-34.28-24.52a11.16,11.16,0,0,0-5.59-4.88c-11.6-3.91-17.49-10.93-14.7-24.06-2.24,2.9-4.49,5.8-8.25,10.64l-13.64-39.09H754v15.61c-9.84-8.77-21.26-43.69-18.12-55.27,3.53-13,15.28-19.72,27.42-13.89,13.62,6.55,26.26,15.11,39.53,22.42,5,2.76,10.61,4.47,17.64,7.35-.28-5.8-1-9.52-.48-13s1.46-9,3.81-10.06c4.63-2.06,11.32-2.35,8.12-9.07-1.85-3.89-8-5.77-12.21-8.5-1.66-1.07-3.42-2-6.75-3.9l19.33-8.16.45-3.33c-6.45-1.68-12.83-3.89-19.38-4.9-7-1.09-14.82-1.46-13.14-11.11,1.5-8.63,5.89-16.95,16.7-15.17,7.77,1.28,16.08,3.61,22.48,7.94,10.26,6.92,25.64,7.14,30.23,22.18.44,1.44,5.33,2.16,8.14,2.13q21.49-.22,43-1.08c7.51-.3,15-1.17,22.94-1.82-6.15,20.26-26.65,32.13-51,30.36-7.82-.57-15.66-2.48-23.42-2.13-7.23.33-14.36,2.85-22.4,6.44,3.7.72,7.4,2,11.1,2,5.84,0,11.69-.93,17.54-1.38,7.6-.6,14.15,1.06,13.93,10.28-.21,8.64-3.48,16.11-13.7,16.63-9.32.48-18.68.1-28,.1l-.75,5.75c12.85,4.48,25.58,9.35,38.58,13.36,20.93,6.47,26.26,14.64,24,36.88-.57,5.47.76,11.14,1.35,18.22,4.56-11.62,6.18-23.17,12.7-30.1,5.67-6,16.89-6.78,25.65-9.9,5.07-1.81,10.12-3.68,15.18-5.51-2.82-5.59-4.5-12.31-8.69-16.54-8.95-9-18.82-16.92-33.56-12.74-3.65,1-8.5-2.18-11.61-3.09L959.07,927c0-.09,0-.17-.06-.23.13.47.5,1.87.88,3.32,4.92-3.5,9.75-6.11,13.54-9.8,10.29-10,19.42-10.14,30.2,0,6.7,6.31,16.22,6.67,22.6-1.21,10.79-13.34,22.61-26.48,30.29-41.58,13.36-26.26,29.45-35.39,57.15-25.16,11.52,4.26,22.21,11.9,31.88,19.73,11.78,9.54,21.52,21.57,33.14,31.33,24.14,20.28,56.72,15,67.63-10.33,6-13.86.67-31-12.06-39.06-12-7.54-22.29-2.75-32.7,15.57l-7.07-3.75c1.21-1.76,2-3.12,3-4.31,13.65-16.35,7.34-46.38-11.69-55.57-12-5.81-22.36,1.19-26.11,18.22-10.44.08-20,1.93-22.31,14.95-.32,1.8-4.22,3-6.46,4.43-.65-3.51-1.29-7-1.41-7.69h-26.15l-.66-5.21c7.64-1,15.26-2.57,22.92-2.86,20.54-.81,38.37-15,41.47-34.31.6-3.77,2.65-9.06-.94-11.63-.17-.12-.35-.23-.54-.34a4.94,4.94,0,0,0-.61-.3,7,7,0,0,0-.69-.26c-.25-.08-.51-.16-.78-.22a13.74,13.74,0,0,0-2.35-.35h0c-2.48-4.27-4.29-9.3-7.79-12.46-1.49-1.35-9.53,1.56-9.48,1.92.8,6.66,2.37,13.22,4.2,21.73-1.19.89-4,3.26-7.06,5.26s-6.37,3.65-12.62,7.16l-2.62-.93c11.43-19.53,17.82-38.34,8.29-58.12h-21l-1.2-3.14,11.92-11.32c-6.26-5.24-14.29-7.81-18,.5-3.44,7.77-.34,12,4.77,15.29,3.62,2.35,8.25,4.25,12.27,6.68l-10,2.92,9,7.76-8.34,10.44,8,3.38-9,9.45c.54.79,1.07,1.59,1.61,2.39l19.54-11.91c-6.42,9.86-10,18.42-16.14,24.14a405.54,405.54,0,0,1-43.75,35.85c-7.48,5.21-17.69,6.51-26.66,9.59l-4-4.13c2.52-4.56,4.43-9.62,7.67-13.6,12.55-15.44,18-33.17,17.11-52.7-.42-9.83-1.64-19,.72-29.3,1.85-8.1-4.44-18.87-9.1-27.38-3.27-6-9.42-10.73-15.07-15-9.3-7-10.17-16.38-7.73-26.06,2.62-10.43,11.62-12.62,21.07-12.31a68.88,68.88,0,0,1,13.69,2.19c13.15,3.14,18.08-1.16,16.49-14.33-.29-2.44-.14-6.32,1.34-7.38,17.35-12.41,35-24.4,54.68-38v35.22c8.69-12.72.71-32.47,19.5-39.79-.3-.71-.4-1.36-.62-1.4a15.62,15.62,0,0,1-5.3-1.59C1168,599,1171.44,583,1186,588.42c1.44.54,4.16-2.14,6.19-3.47,12-7.83,24.08-15.7,37.83-24.69,14.15,29.37,9.07,57.21,8.41,88.58-14.49-11.12-27.17-11.62-39.08-2.72-3.19,2.38-4.64,7.07-7.32,11.41,6.35,3.28,21.28-8.25,14.16,11.43,6.4-1.42,11.77-1.42,15.77-3.75,8.57-5,12.58-1.54,14.77,6.41,7,25.53,7.67,51-6.92,74-4.3,6.77-14.33,10.52-22.45,14-5,2.13-11.32,1.09-17.07,1.48-.79-21.26,4-30.55,23.91-42.69l-15.72-3.77L1191.05,727c-4.57-20.17,10.56-33.91,12.92-50.66l-3.49-2q-7.68,12.3-15.34,24.62l-1.54-.08c1.15-5.29,3.28-10.59,3.22-15.86-.11-8.44-.54-17.19-3-25.18-2.33-7.68-2.62-13.31,3.47-19.38,5.14-5.12,8.54-12,13.36-17.44,3.46-4,8-6.94,12.51-10.72L1182.35,596c-19.17,18.82-15.4,46.42-23.78,69.62-.93-3.85-2-8.14-3-12.42l-4.21.86c1.78,9.5,3.57,19,5.46,29-9.5,4.66-9.4,5.59,5.91,16.36H1125c13.66,12.74,19.81,34.29,45.33,23.76-7.66,9.32,18.06,19.24-3.47,27.1,16.54,17.11,24.7,40.84,46.38,56.7-.5-7.64-.81-12.24-1.34-20.31,5.81,10,9.08,16.67,13.49,22.53,1.78,2.37,6.07,2.84,9.22,4.17l3.52-9.43-11.31-2.79c-.18-3.3-.43-7.7-.68-12.23l10.92-6-4.81-3.19c4.33-15.47,8.32-29.78,12.28-43.94L1257.4,742c-6.88-8.4-6.88-8.4,2.64-29.34v23.73l13.8-9.47c-1.32-7.44-2.3-15.36-4.27-23-1-3.91-4.52-7.15-5.6-11.06a32.75,32.75,0,0,1-.66-12.64c.62-4.83,2.41-9.51,4.06-15.61a39.08,39.08,0,0,0,7-2.29c6.66-3.24,6.67-7.53.84-11.59-8.45-5.88-16.57-9.91-16-23.9.47-11-7-22.36-11.21-34.52l12.06-.55c-1.2-4.29-2.23-7.94-4.14-14.76l14.57,9,2.35-1.85q-11-15.72-22-31.45l2.35-2.54c15.54,7.72,33,12.21,43.84,27.91,1.37,2,2.74,4.61,4.73,5.4,12.05,4.79,24.16,9.55,36.5,13.51,10.93,3.52,22.36,6.61,28.88-8.24l4.43,13.41c18.68-8.29,20.22-25,21.09-39.36,1.23-20.47-4.56-41.12.24-61.85,4.54-19.64,8.46-39.23,22-55.47,4.9-5.85,7.15-13.93,12.15-24.16l16,2.91A0,0,0,0,0,1443.15,424.22ZM1877,876.13l.21-4-43.11,2.06c.08,1.63.16,3.26.25,4.88Zm-122-125-27.39,13.76C1745.48,768.05,1751.8,765,1755,751.09Zm-48.08-3.71c.17-1.23.33-2.45.5-3.68l-55.8-8.29c-.18,1.38-.37,2.75-.55,4.12Zm-3.24-209.45c-14.79-1.76-18.77,2.39-17,16.21,1.16-.58,2.52-.88,3.33-1.71C1694.37,548,1698.6,543.35,1703.67,537.93Zm-33.44,163.2-1.92-4.5-28.05,12.42c.46,1.07.93,2.13,1.39,3.19Zm-42.86,272.33c2.18,0,6.28-4.54,6-6.55-.39-3-3.63-7.69-6.06-7.95-5.53-.6-11.45.54-16.91,2-2.74.75-7.07,4.09-6.87,5.82,1.38,12.11-7.14,16.51-15.89,20.73l5.43,12.39c6.65-5.84,14.13-10.25,18.39-16.77S1619.7,973.52,1627.37,973.46Zm-33.07-50.33,4-3.83-28.61-25-2.7,2.9Zm-62.57-59.51c-3.29-5.91-5.46-9.81-5.89-10.6l-65.16,21,30.64,46.77-3,3.11L1448.23,897l-1.14,1.33c11.26,9.42,23.13,18.21,33.57,28.47,8.35,8.2,16.35,10.14,27.87,4.21-7.84-10.73-14.42-21.54-22.78-30.75-11.74-12.91-11-17.69,5.91-23.28C1504.69,872.65,1517.7,868.3,1531.73,863.62Zm-54-86.24c5.7-28.87,4.74-32.14-8.69-31.9C1471.66,755.23,1474.23,764.68,1477.69,777.38ZM1437.34,922l-22.52-7.32-11.68,9.17C1413,933.19,1430.7,931.08,1437.34,922Zm-16.11-441c7.69-10.06,3.9-15.28-7.47-19.47-11.56,24.8-21.52,49.15-20,76.26l4.34,1.41c1.22-2.65,3.57-5.33,3.5-7.94C1401,511.71,1409.92,495.86,1421.23,481.06Zm-3.4,219.63c7.54-18.09,7.54-18.09-3.65-27C1415.48,683.37,1416.5,690.86,1417.83,700.69Zm-27.29,27.92c4.72,1.32,9.15,3.67,16.08,6.53-7.81-14.1-46.24-28.65-60.37-25.82-1.72,4.62-3.35,8.66-4.7,12.79-.72,2.21-1.78,6.38-1.27,6.61,10.18,4.69,3.15,10.74.82,15.42-4,8.13-9.28,15.67-14,23.45l3.06,2c9.61-13.32,19.06-26.76,29-39.87,2.07-2.74,6-6.15,8.75-5.92C1375.5,724.42,1383.08,726.53,1390.54,728.61Zm-13.13,79.08-5.52-10.16-17.33,25.16c10.82,4,13.13-.81,11.83-9Zm-52.89,37.81c5.34-10.68,3.57-14.36-9.78-17.9a24.79,24.79,0,0,1-3.92-1.4q-.8-.35-1.56-.75a31.09,31.09,0,0,1-4.76-3c-.35-.26-.69-.54-1-.82a35.37,35.37,0,0,1-2.92-2.69c-.31-.32-.62-.64-.92-1s-.63-.71-.94-1.07c-.49-.59-1-1.19-1.43-1.8l-.25-.34c-.49-.67-.95-1.35-1.39-2-3.53-5.59-5.44-11.92-4.71-17.63l.31,0-.06-.25c3.63-1.22,7.29-2.43,11.44-3.79l2.38-.78,3.8-1.24-40.26-31.24c-1.42,4.95-2.53,8.79-4,13.8-3.69-2.94-6.35-5.5-9.41-7.42-9.54-6-13.7-4.29-13.58.8,8,5,14.2,8,19.34,12.2,3.89,3.2,3.49,11.26,12.94,7.78,2-.74,15,.31,17.3,9.84l-.34.11a1.79,1.79,0,0,0,0,.23c-1.79.11-4.46-.05-4.64.55-1.52,5-2.47,10.26-4,17.15l-6-8-32.82,20C1268.47,840.14,1296.45,842.58,1324.52,845.5Zm-13.17,58.58c.76-1.83-1.11-5.85-3-7.46-3.55-3.06-8-5.1-13.76-8.61,1.73,4.94,4.4,9.22,4.37,13.47s-1.61,9.7-4.41,13c-7.81,9.19-16.6,17.54-25,26.22l2.49,2.93c9.44-5.94,19.92-10.75,28-18.21C1305.62,920.22,1308.24,911.55,1311.35,904.08Zm-36.64,15.39c7.08-6.72,7.52-17.12,3.22-26.73-2.09,6.33-4.18,12.66-6.21,18.84L1265.16,875c1.92,1.59,4.51,3.48,6.78,5.71s4.07,4.71,7.29,8.51c-3.19-16.55-9.48-22.13-26-23.49,3.18,8.71,5.86,16.15,8.63,23.57,6.54,17.59,1.32,25.2-17,30.57-7.92,2.33-17.59,8.7-20.36,15.66-2.52,6.31,2.51,16.24,5.73,23.94.84,2,3.38,3.24,5.88,4.58l-.06.62c-3.59,7.11-7.66,11.46-7,15s6.49,8.9,9.15,8.43c5-.91,13.72-6.31,13.31-8.31-1.66-8.17-6.18-15.77-9.37-23,2.36-2,8.8-5.26,10.93-10.3,1.29-3.05-3.37-9.69-6.9-13.11-1.2-1.15-7.16,2.63-14.23,5.47,6.54-8.62,10.88-11.16,19.94-10.55C1259.44,928.8,1269.11,924.78,1274.71,919.47Zm-45.66-191-6.88-10.38c-2.48,2.43-4.89,5-7.47,7.27-3.69,3.31-7.53,6.44-11.25,9.71-2.67,2.35-5.27,4.79-7.9,7.19l2,2.25Zm-6.58,231.36c-1.39-5.82-3.54-10.91-3.57-16s2.08-10.26,4.06-18.95c-11.18,6.9-15.72,14.79-14.56,25.48C1209.17,957.32,1213.14,961.51,1222.47,959.79ZM1210.74,1028c.4-3.65,1.1-6.78,1-9.89-.22-7.61-2.16-15.44-.89-22.75,1.69-9.72-1-16.42-8.9-21.43-5.9-3.76-12-7.13-18.62-11-6.18,9.18-11.07,16.46-16,23.72-9.75,14.43-9.17,20.51,6.59,28.76C1184.89,1021.15,1197.56,1023.63,1210.74,1028Zm-115-333.47c.52-.49-2.89-7.61-5.11-8-3.73-.63-8,1.67-12,2.74l1.32,4.16,11-.67-13.25,10.84,2.43,3.16C1085.41,702.8,1091,699.06,1095.74,694.53ZM1025,1017.61l-.45-6.9-27.25,2.41-.48,3.61,10.81,9.81c1-5.32,1.59-8.21,1.91-9.81ZM1015.51,997c3.88-9.7-3.06-24-14.21-29.3-14.28-6.77-29-2.76-34.71,9.69-3.24,7.13-6.1,14.52,2.41,16.9,4.42-7.87,6.66-17.33,11.21-18.62,6-1.7,16.71.72,20.42,5.35,11.43,14.3-11.53,13.14-12.52,22.71C1000.25,1008.74,1012,1005.72,1015.51,997Zm-80.27,20.86c1.35-3-1.81-8.09-3-12.24l-4.23.84c-1.56,6.41-3.12,12.81-5.49,22.51C928.14,1024.4,933.45,1021.93,935.24,1017.9Zm-32.1-21c1.08-4.43,4.47-10.74,2.73-12.88a16.62,16.62,0,0,0-5.7-4.13c-3-1.47-6.52-2.74-10.1-4.56-2.45,12.64-4.28,22.09-6.11,31.55l3.66.79c3.11-8.19-2.75-20.67,11.87-26.22l-1.35,13.83Zm-61.35-3.6c21.94-9.47,25.92-16.48,15.53-30,1.32,12.28-1.77,17.85-12.73,16.31,1.49-3.64,2.71-6.66,3.94-9.68L846.31,967c-4.16,2.22-12.09,5.12-11.83,6.54C835.72,980.35,839.16,986.79,841.79,993.29Z"/><path class="cls-1" d="M1877.2,872.11l-.21,4-42.65,2.92c-.09-1.62-.17-3.25-.25-4.88Z"/><path class="cls-1" d="M1727.6,764.85,1755,751.09C1751.8,765,1745.48,768.05,1727.6,764.85Z"/><path class="cls-1" d="M1707.41,743.7c-.17,1.23-.33,2.45-.5,3.68l-55.85-7.85c.18-1.37.37-2.74.55-4.12Z"/><path class="cls-1" d="M1686.67,554.14c-1.77-13.82,2.21-18,17-16.21-5.07,5.42-9.3,10-13.67,14.5C1689.19,553.26,1687.83,553.56,1686.67,554.14Z"/><path class="cls-2" d="M1665.52,1038.66c20.71-9,20.71-9,21.59,7.07Z"/><path class="cls-1" d="M1668.31,696.63l1.92,4.5-28.58,11.11c-.46-1.06-.93-2.12-1.39-3.19Z"/><path class="cls-2" d="M1642,837.1l3.33,2.34-9.87,13.22c2,2.14,5.3,5.64,8.69,9.25-1.56,1-2.65,1.94-2.84,1.78-15.29-12.41-30.5-24.91-45.56-37.27l11.73-17.4,18.69,5.05,9.31,33.42C1638.62,842.41,1640.28,839.75,1642,837.1Z"/><path class="cls-1" d="M1633.39,966.91c.26,2-3.84,6.53-6,6.55-7.67.06-11.66,3.25-15.89,9.71s-11.74,10.93-18.39,16.77l-5.43-12.39c8.75-4.22,17.27-8.62,15.89-20.73-.2-1.73,4.13-5.07,6.87-5.82,5.46-1.5,11.38-2.64,16.91-2C1629.76,959.22,1633,963.91,1633.39,966.91Z"/><path class="cls-1" d="M1596.26,691.53c12.9-4.56,15.83-18.8,25.38-28C1620.16,691.14,1619.88,691.79,1596.26,691.53Z"/><path class="cls-1" d="M1598.32,919.3l-4,3.83-27.29-26,2.7-2.9Z"/><path class="cls-2" d="M1594.92,872.06c2.4.88,2.89,7,1.48,11.74l-5.21-9.68-3.55,1.4c.87,3.4,1.74,6.79,3,11.83L1578,881.78l-15.08-17.93.69-.6,16.06,8.31C1584.46,871.56,1590.22,870.35,1594.92,872.06Z"/><path d="M1596.26,691.53l-.73.25-.3-.26Z"/><path class="cls-2" d="M1595.53,691.78l-.25.07c0-.11,0-.22,0-.33Z"/><path class="cls-2" d="M1595.23,691.52c0,.11,0,.22,0,.33h0c0-.12,0-.23,0-.35Z"/><path class="cls-2" d="M1566.53,841.67c8,6.73-.7,11.2-2.41,16.64a22.94,22.94,0,0,0-.49,4.94l-.69.6-15.22-16.28c.34-.23.67-.63,1-.68C1555,846,1558.17,834.65,1566.53,841.67Z"/><path class="cls-2" d="M1548.38,1073.88c5.18-1.21,10.93,1,9.65,8.87h-30.44C1534.49,1079.68,1541.15,1075.56,1548.38,1073.88Z"/><path class="cls-1" d="M1560.63,652.56l-6.79-4.38q-2-6.57-4.09-13.13c-6.59-27.19-13.27-54.38-6.12-82.53,3.5,12.08-7.57,26.78,5.27,35.67C1541.78,611.57,1557.82,630.31,1560.63,652.56Z"/><path class="cls-2" d="M1556.67,742.54c8.09,5.65,3.12,13.07-2.46,20l-16.87-14.68C1545.51,745.37,1553.59,740.38,1556.67,742.54Z"/><path class="cls-2" d="M1559.94,447.62c-7.42,7.51-19.44,6.57-26-2.82Z"/><path class="cls-2" d="M1532.3,508.42c3.48-9.26,12.61-16.4,19.21-24.49-25.93,41.54-33.27,84.26-15.43,132.22C1525,603.88,1518,576,1521.29,555.88,1523.92,539.84,1526.63,523.5,1532.3,508.42Z"/><path class="cls-2" d="M1549,439.11l-34.42,8.3c6.25-7.6,17.86-10.3,10.16-21.27Z"/><path class="cls-1" d="M1525.84,853c.43.79,2.6,4.69,5.89,10.6-14,4.68-27,9-40.07,13.35-16.89,5.59-17.65,10.37-5.91,23.28,8.36,9.21,14.94,20,22.78,30.75-11.52,5.93-19.52,4-27.87-4.21-10.44-10.26-22.31-19-33.57-28.47l1.14-1.33,40.14,26.9,3-3.11L1460.68,874Z"/><path class="cls-2" d="M1481.46,420.55l-3.7,4.65-16.11-13,3.43-4.55Z"/><path class="cls-1" d="M1469,745.48c13.43-.24,14.39,3,8.69,31.9C1474.23,764.68,1471.66,755.23,1469,745.48Z"/><path class="cls-2" d="M1452.27,461.08c-.45,2.07-.91,4.14-1.36,6.2h-15.57q2-6.22,4-12.45Z"/><path class="cls-1" d="M1450.43,921.51l-3,.37c0-2.44-.57-5.26-.57-7.7l2.42-.25C1449.68,916.45,1450.05,919,1450.43,921.51Z"/><path class="cls-2" d="M1443.18,424.21h0a0,0,0,0,1,0,0Z"/><path class="cls-1" d="M1414.82,914.71l22.52,7.32c-6.64,9.05-24.37,11.16-34.2,1.85Z"/><path class="cls-1" d="M1413.76,461.59c11.37,4.19,15.16,9.41,7.47,19.47-11.31,14.8-20.2,30.65-19.65,50.26.07,2.61-2.28,5.29-3.5,7.94l-4.34-1.41C1392.24,510.74,1402.2,486.39,1413.76,461.59Z"/><path class="cls-2" d="M1418.62,834l-2.9.56c-6.11-7.36-12.27-14.68-18.32-22.1-4.48-5.48-2.43-8.83,10.18-14C1411.3,810.39,1415,822.17,1418.62,834Z"/><path class="cls-1" d="M1414.18,673.74c11.19,8.86,11.19,8.86,3.65,27C1416.5,690.86,1415.48,683.37,1414.18,673.74Z"/><path class="cls-1" d="M1406.62,735.14c-6.93-2.86-11.36-5.21-16.08-6.53-7.46-2.08-15-4.19-22.69-4.81-2.79-.23-6.68,3.18-8.75,5.92-9.9,13.11-19.35,26.55-29,39.87l-3.06-2c4.74-7.78,10-15.32,14-23.45,2.33-4.68,9.36-10.73-.82-15.42-.51-.23.55-4.4,1.27-6.61,1.35-4.13,3-8.17,4.7-12.79C1360.38,706.49,1398.81,721,1406.62,735.14Z"/><path class="cls-1" d="M1371.89,797.53l5.52,10.16-11,6c1.3,8.22-1,13-11.83,9Z"/><path class="cls-2" d="M1375.15,477.52c4.52,18.33-7.79,46.27-25.74,56.73-43.61,25.44-62,16.48-81.6-3.29C1312.49,528.66,1356.38,525.79,1375.15,477.52Z"/><path class="cls-2" d="M1369.87,888.54c-6.1,20.91-6.21,20.94-23,5.24Z"/><path class="cls-2" d="M1349.19,445.72c12.91,32.27-14.29,69.47-46.42,67.95-7.67-.37-16.36-4.71-22,5.85-1.25,2.34-10.14,3.58-12.57,1.64-4.15-3.32-6.61-9.32-8.5-14.64-1-2.79.7-6.54,1.39-11.26l20.63-1,1.59-2.82-11.22-5.41c13.51-20.18,36.55-23.76,57.4-33.57.71,3.41,1.23,6.54,2,9.59.75,2.86,1.78,5.64,3.63,11.41C1340.52,462.85,1344.36,455.26,1349.19,445.72Zm-28.07,38.89L1329,466l-3.22-1.44-28.59,20.81C1306.61,499.51,1313.14,480.14,1321.12,484.61Z"/><path class="cls-2" d="M1327.12,356.17c3.24,5.59,6.94,9.06,6.85,12.44a44.09,44.09,0,0,1-4.4,18.39c-1.54,3-6.94,5.63-10.62,5.66-4.79,0-9.61-2.66-14.39-4.17-10.63,30.95-33.41,44.3-65,45.18l-1.27,4.3,20.91,13.5-18,28.57L1237,478c-.44,2.81-.82,5.31-1.21,7.81l-2.6.64c-2-7.64-6.2-15.46-5.61-22.9,1.45-18.12,5.12-36.07,6-54.21-6.26,13-10.17,28.07-19.39,38.41-11.1,12.46-27.33,5-42.31,1.65l-8.36-25.88c10.66,9.13,18.71,6,28,1.81,14.69-6.67,26.92-15.74,34.53-29.71,4.21-7.74,5.61-17,8.57-25.44.67-1.94,2.57-5,3.85-4.92,11.47.25,23,.39,34.35,2,9.29,1.28,17.7,4.2,25.07-5.34,4.2-5.42,11-8.82,16.65-13.11Z"/><path class="cls-1" d="M1329,466l-7.89,18.62c-8-4.47-14.51,14.9-23.92.75l28.59-20.81Z"/><path class="cls-2" d="M1336.71,417.09l-17.27,7.46c-1.63-8.78-3.17-17.09-5.23-28.21Z"/><path class="cls-1" d="M1314.74,827.6c13.35,3.54,15.12,7.22,9.78,17.9-28.07-2.92-56-5.36-81.17-20.77l32.82-20,6,8c1.51-6.89,2.46-12.11,4-17.15.18-.6,2.85-.44,4.64-.55-.64,5.73,1.29,12,4.84,17.62.43.69.9,1.37,1.39,2l.25.34c.45.61.93,1.21,1.43,1.8.31.36.62.72.94,1.07s.61.66.92,1a35.37,35.37,0,0,0,2.92,2.69c.34.29.68.56,1,.82a31.09,31.09,0,0,0,4.76,3,15.93,15.93,0,0,0,1.56.75A24.79,24.79,0,0,0,1314.74,827.6Z"/><path class="cls-1" d="M1323.36,1071.45q-.62,5.64-1.24,11.3h-17.76l15.08-13.84Z"/><path class="cls-1" d="M1308.37,896.62c1.87,1.61,3.74,5.63,3,7.46-3.11,7.47-5.73,16.14-11.33,21.33-8,7.46-18.52,12.27-28,18.21l-2.49-2.93c8.4-8.68,17.19-17,25-26.22,2.8-3.29,4.38-8.59,4.41-13s-2.64-8.53-4.37-13.47C1300.39,891.52,1304.82,893.56,1308.37,896.62Z"/><path class="cls-2" d="M1305.45,432.49l7.07,3.2c-.44,11.71-40.49,34.84-56.58,31.06,11.47-7.48,15.14-20.22,29.94-20.85C1292,445.63,1297.84,438,1305.45,432.49Z"/><path class="cls-1" d="M1308.78,789l-3.8,1.24-2.38.78-11.46,3.74c-2.28-9.53-15.28-10.58-17.3-9.84-9.45,3.48-9-4.58-12.94-7.78-5.14-4.23-11.29-7.23-19.34-12.2-.12-5.09,4-6.78,13.58-.8,3.06,1.92,5.72,4.48,9.41,7.42,1.44-5,2.55-8.85,4-13.8Z"/><path d="M1303.47,821.6c.34.28.68.56,1,.82C1304.15,822.16,1303.81,821.89,1303.47,821.6Z"/><path d="M1302.6,791l2.38-.78Z"/><path d="M1299.63,817.94c.3.33.61.65.92,1C1300.24,818.6,1299.93,818.27,1299.63,817.94Z"/><path class="cls-1" d="M1302.6,791c-4.15,1.36-7.81,2.57-11.44,3.79,0,0,0,0,0,0Z"/><path d="M1297.26,815.07c.46.61.94,1.21,1.43,1.8C1298.19,816.28,1297.71,815.68,1297.26,815.07Z"/><path class="cls-2" d="M1295.26,334c1.31,6.72,2,10.23,3.19,16.39l-23.28,5.62-2.44-4.59Z"/><path d="M1295.62,812.69c.44.69.9,1.37,1.39,2C1296.52,814.06,1296.05,813.38,1295.62,812.69Z"/><path class="cls-1" d="M1291.16,794.78l.06.25,0,0-.07,0a1.1,1.1,0,0,1-.24-.11Z"/><path class="cls-1" d="M1291.22,795l-.31,0a.57.57,0,0,1,0-.13l.18.06.07,0Z"/><path class="cls-2" d="M1291.22,795l0,0Z"/><path class="cls-1" d="M1291.14,794.73s0,0,0,0l-.3.1a1.1,1.1,0,0,0,.24.11l-.18-.06a.57.57,0,0,0,0,.13h-.13a1.79,1.79,0,0,1,0-.23Z"/><path class="cls-1" d="M1290.78,795.07h.13c-.73,5.71,1.18,12,4.71,17.63C1292.07,807.11,1290.14,800.8,1290.78,795.07Z"/><path class="cls-1" d="M1277.93,892.74c4.3,9.61,3.86,20-3.22,26.73-5.6,5.31-15.27,9.33-22.79,8.82-9.06-.61-13.4,1.93-19.94,10.55,7.07-2.84,13-6.62,14.23-5.47,3.53,3.42,8.19,10.06,6.9,13.11-2.13,5-8.57,8.27-10.93,10.3,3.19,7.19,7.71,14.79,9.37,23,.41,2-8.28,7.4-13.31,8.31-2.66.47-8.55-5-9.15-8.43s3.46-7.88,7-15c2.37,5.45,3,7.06,3.76,8.6.63,1.28,1.41,2.49,2.13,3.73l3-1.56c-1.55-2.93-2.54-6.41-4.78-8.65a17.75,17.75,0,0,0-4.08-2.74c-2.5-1.34-5-2.55-5.88-4.58-3.22-7.7-8.25-17.63-5.73-23.94,2.77-7,12.44-13.33,20.36-15.66,18.28-5.37,23.5-13,17-30.57-2.77-7.42-5.45-14.86-8.63-23.57,16.47,1.36,22.76,6.94,26,23.49-3.22-3.8-5.09-6.33-7.29-8.51s-4.86-4.12-6.78-5.71l6.56,36.62C1273.75,905.4,1275.84,899.07,1277.93,892.74Z"/><path class="cls-2" d="M1252.06,323c9.1,10.35-8.15,20.63-3.12,34.17-9.22-1.28-15.69,10-25.27.4-2.09-2.11-15.16,1.95-18.14,6.48-6.34,9.61-15.47,10.18-24.44,13.48s-20.64,5.44-20.76,17.79l56-12.14c-7.11,9.06-11.88,15.15-17.61,22.44v-9.54c-4,3.9-6.29,7.14-9.41,9-6,3.68-15,10.92-18.36,9-8-4.64-16.46-12.74-19.24-21.24-3.26-9.92-.58-21.66,11.41-27.48a8.44,8.44,0,0,0,3.37-3.48c10-18.49,28.65-26.74,45.39-36.54,6.59-3.85,16.65-1.86,25.15-2.34C1241.36,322.84,1245.67,323,1252.06,323Z"/><path class="cls-2" d="M1245.06,975.4l-3,1.56c-.72-1.24-1.5-2.45-2.13-3.73-.76-1.54-1.39-3.15-3.76-8.6l.06-.62a17.75,17.75,0,0,1,4.08,2.74C1242.52,969,1243.51,972.47,1245.06,975.4Z"/><path class="cls-2" d="M1237.56,874.54c6.38,13.22-5.89,30-21.28,28.92Z"/><path class="cls-2" d="M1232.1,779.74l.11.08Z"/><path class="cls-1" d="M1222.17,718.05l6.88,10.38-31.49,16-2-2.25c2.63-2.4,5.23-4.84,7.9-7.19,3.72-3.27,7.56-6.4,11.25-9.71C1217.28,723,1219.69,720.48,1222.17,718.05Z"/><path class="cls-1" d="M1218.9,943.77c0,5.11,2.18,10.2,3.57,16-9.33,1.72-13.3-2.47-14.07-9.49-1.16-10.69,3.38-18.58,14.56-25.48C1221,933.51,1218.88,938.65,1218.9,943.77Z"/><path class="cls-1" d="M1211.75,1018.11c.09,3.11-.61,6.24-1,9.89-13.18-4.37-25.85-6.85-36.8-12.59-15.76-8.25-16.34-14.33-6.59-28.76,4.92-7.26,9.81-14.54,16-23.72,6.58,3.87,12.72,7.24,18.62,11,7.87,5,10.59,11.71,8.9,21.43C1209.59,1002.67,1211.53,1010.5,1211.75,1018.11Zm-10.9-2.45c.65-10.72,2.47-20.37,1.32-29.66-.64-5.12-6.28-9.61-9.66-14.39-2.37,4.31-5,8.52-7,13-.76,1.68-.12,4-.12,5.27-6,.72-13.27.45-13.59,1.83-1.05,4.41-.91,10.2,1.26,14.06C1179.7,1017.55,1190.82,1017.37,1200.85,1015.66Z"/><path class="cls-2" d="M1202.17,986c1.15,9.29-.67,18.94-1.32,29.66-10,1.71-21.15,1.89-27.79-9.89-2.17-3.86-2.31-9.65-1.26-14.06.32-1.38,7.57-1.11,13.59-1.83,0-1.27-.64-3.59.12-5.27,2-4.48,4.63-8.69,7-13C1195.89,976.39,1201.53,980.88,1202.17,986Z"/><path class="cls-2" d="M1195.74,873.77c8.87,5.52,9.51,13.52,5.9,21-4.27,8.84-12.61,5.42-18.83,2.45-5.65-2.7-10.25-7.61-14.82-12.12C1195.3,891.75,1198.16,890.71,1195.74,873.77Z"/><path class="cls-2" d="M1213.69,530.42,1183,563.59c3.93-13.81,9.14-27.78-4.45-39.94C1194.44,513.86,1202.44,529,1213.69,530.42Z"/><path class="cls-2" d="M1132,546.53c21.26-14.67,38.25-17.6,51.73-6.22l-84,65.65C1092.91,586.57,1105.43,564.88,1132,546.53Z"/><path class="cls-1" d="M1161.16,780.4h0l-3.34-1.75-7-3.67-1.59,4.54,7.66.93c-1.07,14.56-5.82,18.87-28.46,23.57,6.25-3.51,9.55-5.15,12.62-7.16s5.87-4.37,7.06-5.26c-1.83-8.51-3.4-15.07-4.2-21.73,0-.36,8-3.27,9.48-1.92C1156.87,771.1,1158.68,776.13,1161.16,780.4Z"/><path class="cls-2" d="M1157.81,778.64l3.34,1.75c-1.07,24.21-21.12,23.66-39.76,29.9q2.29-3.63,4.4-7.21l2.62.93c22.64-4.7,27.39-9,28.46-23.57Z"/><path class="cls-2" d="M1157.81,778.64l-.94,1.8-7.66-.93,1.59-4.54Z"/><path class="cls-2" d="M1139.16,708c8.61,3.71,18.33-6.89,25,5.4C1154.64,718.89,1146,722.8,1139.16,708Z"/><path class="cls-2" d="M1146.76,809.15c.28,1.44.55,2.88.83,4.32l-40,7.94c-.33-1.91-.67-3.81-1-5.71Z"/><path class="cls-1" d="M1105.8,731c3.69-8.31,11.72-5.74,18-.5l-11.92,11.32,1.2,3.14-2.49,1.33C1105.46,743,1102.36,738.77,1105.8,731Z"/><path class="cls-1" d="M1104,1082.75h-7.61l-10.66-18.58-8.85,15.69c.75-7.39,1.28-12.54,1.88-18.44l-12.81,21.33h-7.61c3.38-9.61,8.23-19,9.43-28.92.51-4.14-5.95-10.48-10.72-13.44-3.07-1.91-8.83.5-13.38,1,.13,1.48.26,3,.38,4.44,2.64,0,6.37-1.1,7.7.21,3.66,3.64,7.51,7.94,8.92,12.68.79,2.66-2.58,9.11-5,9.64-4.75,1-11.62.9-15-1.9-7.55-6.25-13.31-14.93-9.53-25.55,3.52-9.87,12.62-9.72,21.27-9.46,1.9.06,3.8-.15,6.55-2.7-3.8-2-7.81-3.77-11.36-6.17-4.08-2.75-9.11-5.36-11.24-9.36-2.43-4.57-2.31-10.59-2.59-16,0-.4,6.67-2.6,8.39-1.37,4.7,3.35,8.42,8.09,12.52,12.28-1.1,1.14-2.2,2.27-3.29,3.41l-8.6-4.59c-.27.8-.89,2-.69,2.14,13.6,10.79,27.27,21.49,42.42,33.37-3,11,5.15,20.19,13,29.68C1100.07,1075.28,1101.82,1079.18,1104,1082.75Z"/><path class="cls-2" d="M1096.36,1082.75h-19.51v-2.89l8.85-15.69Z"/><path class="cls-1" d="M1090.63,686.54c2.22.38,5.63,7.5,5.11,8-4.79,4.53-10.33,8.27-15.65,12.24l-2.43-3.16,13.25-10.84-11,.67-1.32-4.16C1082.67,688.21,1086.9,685.91,1090.63,686.54Z"/><path class="cls-2" d="M1078.73,1061.42c-.6,5.9-1.13,11-1.88,18.44v2.89h-10.93Z"/><path class="cls-1" d="M1038,1082.75h-17.76c-1.78-3.42-3.84-6.72-5.27-10.27-2.63-6.56-4.61-13.39-7.56-19.79-.57-1.24-4.36-1-5.81-1.26-2.34-6.8-3-15.3-7.56-20.54-8.22-9.54-18.38-17.54-28.38-25.35-3.63-2.84-9.12-3.3-12.88-7.25,10,0,18,.81,26.55,9.67,7.78,8,17.43,14.74,23.34,24.81,4.89,8.33,8.34,17.6,13.91,25.41C1022.88,1067,1030.8,1074.61,1038,1082.75Z"/><path class="cls-1" d="M1024.54,1010.71l.45,6.9-15.46-.88c-.32,1.6-.88,4.49-1.91,9.81l-10.81-9.81.48-3.61Z"/><path class="cls-2" d="M1017.05,865.72q3.47,4.95,6.94,9.89l-4.65,4.63c-2.7-2.44-6.21-4.49-7.69-7.52C1011.08,871.54,1015.11,868.12,1017.05,865.72Z"/><path class="cls-1" d="M1001.3,967.74c11.15,5.28,18.09,19.6,14.21,29.3-3.48,8.68-15.26,11.7-27.4,6.73,1-9.57,23.95-8.41,12.52-22.71-3.71-4.63-14.38-7-20.42-5.35-4.55,1.29-6.79,10.75-11.21,18.62-8.51-2.38-5.65-9.77-2.41-16.9C972.26,965,987,961,1001.3,967.74Z"/><path class="cls-2" d="M981.33,801.67c2.29.24,6.35,3.42,6.11,4.38-.86,3.47-3.2,6.57-6.47,12.5-2.09-6.65-3.12-9.9-5.14-16.32v-.74A38,38,0,0,1,981.33,801.67Z"/><path class="cls-2" d="M975.82,801.49v.74c-11.07,31.58-30.32,49-60.85,47.71,6.41-9.76,10.9-22.87,20.07-29.1C947.28,812.52,959.83,802.09,975.82,801.49Z"/><path class="cls-2" d="M964.69,882c.07,2.77-2.84,5.62-6.06,11.11-3.17-4.7-6.16-7.18-5.87-9.19.37-2.62,3-6.38,5.28-6.83C960,876.64,964.64,880.11,964.69,882Z"/><path class="cls-2" d="M958.18,762c1.8,7.21,3.3,15.58-5.91,19.74-8.38,3.78-21.34-2.88-26.1-12.41-3.84-7.68-8.41-15-13.64-24.2,7.2-9.43,22.16-10.13,34.38-10.32,11.8-.19,4.39,10,2.23,15.3C953,754.91,957.2,758,958.18,762Z"/><path class="cls-1" d="M932.28,1005.66c1.15,4.15,4.31,9.2,3,12.24-1.79,4-7.1,6.5-12.68,11.11,2.37-9.7,3.93-16.1,5.49-22.51Z"/><path class="cls-2" d="M907.52,783.88c1,11.09,5,23.09,2,33-2,6.5-13.42,11.87-21.64,14.31-11,3.26-22.07,4.29-28.39,16.09-1.14,2.13-8.55,2.73-12.1,1.42-11-4.06-21.45-9.53-32.23-14.18-13.43-5.79-16-12-8.38-24.41,4.1-6.69,9.91-12.34,15.24-18.81,11,6.31,20.54,15.25,31.22,17,13.06,2.12,27.16-1.43,40.65-3.54,1.73-.27,2.66-6.52,3.72-10.08,1.11-3.74,1.93-7.56,2.88-11.35Z"/><path class="cls-1" d="M905.87,984c1.74,2.14-1.65,8.45-2.73,12.88l-5-1.62,1.35-13.83.68-1.56A16.62,16.62,0,0,1,905.87,984Z"/><path class="cls-1" d="M900.17,979.88l-.68,1.56c-14.62,5.55-8.76,18-11.87,26.22l-3.66-.79c1.83-9.46,3.66-18.91,6.11-31.55C893.65,977.14,897.19,978.41,900.17,979.88Z"/><path class="cls-1" d="M857.32,963.26c10.39,13.55,6.41,20.56-15.53,30-2.63-6.5-6.07-12.94-7.31-19.77-.26-1.42,7.67-4.32,11.83-6.54l2.22,2.91c-1.23,3-2.45,6-3.94,9.68C855.55,981.11,858.64,975.54,857.32,963.26Z"/><rect class="cls-1" width="392.74" height="1082.75"/></g></g></svg>