<svg xmlns="http://www.w3.org/2000/svg" viewBox="0 0 156.49 119.76"><defs><style>.cls-1{fill:#182b49;}</style></defs><title>swirlArrowPrev</title><g id="Layer_2" data-name="Layer 2"><g id="Layer_2-2" data-name="Layer 2"><path class="cls-1" d="M17.26,102.81l-7,4.32c5.38,4.93,13.71,5,17.88,11.09l-.76,1.54c-4.48-1.7-8.93-3.49-13.45-5.07s-9-2.91-14-4.47c.31-5.28,2.62-9.25,8.21-11.93,6.5-3.11,12.47-7.31,18.69-11a9.71,9.71,0,0,1,2.25-.56c-.55,6.29,1,13.08-8.9,14l1.11,1.61c7.64.43,15.36,1.78,22.9,1.08C59,102,73.63,100,88.17,97.38c14.38-2.56,27.82-8,39.36-17.2,9.65-7.66,16.38-17.89,21.92-28.7,4-7.71.68-18.05-6.1-24.53-6.61-6.32-14.89-9.31-23.2-12.21-5-1.75-10.19-3-15.34-4.32S95.35,10.87,92,15a30,30,0,0,0,3.21,41.24c8.11,7.23,17.81,8.66,26.52,3.92,5-2.7,7.18-6.27,7.09-11.29.94-.3,2.67-.67,2.65-.87-.16-1.74-.17-3.8-1.13-5.09-2-2.71-11.51-2.82-14-.43a3.37,3.37,0,0,0-1.23,2.09c.23,3.41.69,6.81,1.06,10.15-6.84-1.11-10-9.37-6.12-16.56a14.14,14.14,0,0,1,22.45-3.52c6.81,6.52,7.68,13.27,1.47,23.5-5.89,9.71-14.44,16-26.57,15.76-13.17-.25-22.33-8-24.64-21-1.08-6.06-2.29-12.13-2.92-18.25C78.54,22.13,82.86,13.95,94,6.57c9.13-6,19.17-8.17,29-5.34,23.05,6.63,41.65,27,29.68,55.39-5.1,12.11-11.21,22.91-21.66,31a82.07,82.07,0,0,1-36.71,15.94c-20.19,3.5-40.49,5.11-61,3.65-4.47-.32-9,0-13.45-.49C19,106.59,18.25,104.32,17.26,102.81Zm113.6-45.39c-15.29,15.12-30.3,14.72-45.2-1.49,3.64,10.71,12.12,16.14,24.17,15.86C116.63,71.62,129.58,65.23,130.86,57.42Zm18.06-27.49c-.13-10.57-22.66-22.34-37.8-20.42C125.47,14.52,139.66,17.55,148.91,29.94ZM102.64,6.18c10.49-2.83,20.45.19,30.44,2.75C124.12,2.39,110.71,1,102.64,6.18ZM118.31,94l-.67-1.76L100.11,99l.54,1.42ZM131.48,38.9c-5.15-4.36-12-4.41-13.68-.77Z"/></g></g></svg>