<svg xmlns="http://www.w3.org/2000/svg" viewBox="0 0 156.49 119.76"><defs><style>.cls-1{fill:#182b49;}</style></defs><title>Asset 5</title><g id="Layer_2" data-name="Layer 2"><g id="Layer_2-2" data-name="Layer 2"><path class="cls-1" d="M136.54,106.7c-4.45.48-9,.17-13.45.49-20.5,1.46-40.8-.14-61-3.65A82.07,82.07,0,0,1,25.39,87.59c-10.45-8.06-16.55-18.86-21.66-31-12-28.4,6.63-48.76,29.68-55.39,9.85-2.83,19.89-.68,29,5.34C73.63,13.95,78,22.13,76.67,34.69c-.62,6.12-1.84,12.18-2.92,18.25-2.31,13-11.47,20.74-24.64,21C37,74.14,28.45,67.86,22.55,58.15c-6.21-10.23-5.34-17,1.47-23.5a14.14,14.14,0,0,1,22.45,3.52c3.9,7.19.72,15.45-6.12,16.56.37-3.33.83-6.73,1.06-10.15a3.37,3.37,0,0,0-1.23-2.09c-2.51-2.39-12-2.28-14,.43-1,1.29-1,3.35-1.13,5.09,0,.2,1.71.57,2.65.87-.1,5,2.12,8.58,7.09,11.29,8.71,4.74,18.41,3.31,26.52-3.92A30,30,0,0,0,64.51,15c-3.37-4.13-7.62-5.88-12.82-4.59S41.35,13,36.34,14.74C28,17.64,19.75,20.63,13.14,27,6.36,33.43,3.09,43.77,7,51.48c5.54,10.81,12.27,21,21.92,28.7,11.53,9.15,25,14.64,39.36,17.2,14.54,2.59,29.21,4.66,43.91,6,7.53.7,15.26-.65,22.9-1.08l1.11-1.61c-9.9-.9-8.35-7.68-8.9-14a9.71,9.71,0,0,1,2.25.56c6.22,3.69,12.2,7.89,18.69,11,5.59,2.68,7.9,6.65,8.21,11.93-4.91,1.56-9.47,2.91-14,4.47s-9,3.37-13.45,5.07l-.76-1.54c4.17-6.1,12.49-6.16,17.88-11.09l-7-4.32C138.24,104.32,137.51,106.59,136.54,106.7Z"/></g></g></svg>