<svg xmlns="http://www.w3.org/2000/svg" viewBox="0 0 133.35 70.1"><defs><style>.cls-1{fill:#fff;}</style></defs><title>Asset 1</title><g id="Layer_2" data-name="Layer 2"><g id="Layer_1-2" data-name="Layer 1"><g id="Layer_2-2" data-name="Layer 2"><g id="Layer_1-2-2" data-name="Layer 1-2"><g id="Layer_2-2-2" data-name="Layer 2-2"><g id="Layer_2-2-2-2" data-name="Layer 2-2-2"><path class="cls-1" d="M14.38,43.37l-6.22.81c2.21,5.12,8,7.76,9,13.31l-1,.83C13.6,55.74,11,53.09,8.39,50.58S2.93,45.72,0,43.1c1.87-3.58,4.72-5.61,9.45-5.73,5.49-.13,11-1.18,16.45-1.8a7.41,7.41,0,0,1,1.74.32c-2.36,4.22-3.41,9.43-10.57,7l.27,1.47c5.18,2.69,10.13,6,15.59,7.92C43.58,56,54.43,59.1,65.35,61.86a66.44,66.44,0,0,0,32.77.36c9.12-2.33,17-7.32,24.23-13.1,5.13-4.14,6.1-12.36,3.39-19S118.33,19,113.44,14.33c-2.94-2.78-6.11-5.29-9.32-7.82S97.4,3.86,93.76,5.68a22.89,22.89,0,0,0-10.69,29.7c3.38,7.57,9.68,11.6,17.22,11,4.31-.33,7-2.12,8.47-5.63a9.4,9.4,0,0,0,2.12.22c.45-1.25,1.1-2.68.81-3.89-.54-2.51-7.11-5.56-9.6-4.68a2.57,2.57,0,0,0-1.51,1.07c-.91,2.45-1.66,5-2.44,7.39-4.41-2.91-4-9.66.93-13.44A10.79,10.79,0,0,1,115.77,32c2.7,6.65,1.19,11.64-6.34,16.81-7.14,4.91-15.06,6.6-23.42,2.67-9.08-4.3-13-12.56-10.56-22.32,1.15-4.56,2.2-9.16,3.68-13.61,3-9.15,8.61-13.47,18.73-15.12,8.22-1.33,15.88.31,21.84,5.37,14,11.83,20.54,31.83,3.3,47.82-7.36,6.84-15,12.45-24.77,14.78A62.61,62.61,0,0,1,67.72,68,191.42,191.42,0,0,1,24.14,51.46c-3-1.62-6.26-2.83-9.2-4.55C14.3,46.53,14.5,44.72,14.38,43.37Zm93.15,4c-15.37,5.74-25.69.75-31-15.19-.82,8.6,3.41,15,11.85,18.6,4.8,2,15.8,1.62,19.14-3.42Zm21.16-13.46c3.22-7.39-8.76-22.64-19.89-26,8.42,7.93,17.33,14.48,19.88,26Zm-4.44-19.57C120.06,7,111.17,1.81,104,2.9c8.19,1.33,14.16,6.53,20.31,11.44ZM87.34,68.88l.09-1.42-14.31-.8v1.17Zm26.41-34.2c-2.22-4.65-7-6.84-9.27-4.82Z"/></g></g></g></g></g></g></svg>